999
dxfrw 0.6.3
  0
SECTION
  2
HEADER
  9
$ACADVER
  1
AC1021
  9
$DWGCODEPAGE
  3
ANSI_1252
  9
$INSBASE
 10
0
 20
0
 30
0
  9
$EXTMIN
 10
-183.3749391765
 20
-201.5095762543971
 30
0
  9
$EXTMAX
 10
557.4941016492219
 20
109.87815829525
 30
0
  9
$LIMMIN
 10
0
 20
0
  9
$LIMMAX
 10
420
 20
297
  9
$ORTHOMODE
 70
    0
  9
$REGENMODE
 70
    1
  9
$FILLMODE
 70
    1
  9
$QTEXTMODE
 70
    0
  9
$MIRRTEXT
 70
    0
  9
$LTSCALE
 40
1
  9
$ATTMODE
 70
    0
  9
$TEXTSIZE
 40
2.5
  9
$TRACEWID
 40
15.68
  9
$TEXTSTYLE
  7
STANDARD
  9
$CLAYER
  8
4
  9
$CELTYPE
  6
BYLAYER
  9
$CECOLOR
 62
  256
  9
$CELTSCALE
 40
1
  9
$DISPSILH
 70
    0
  9
$DIMSCALE
 40
2.5
  9
$DIMASZ
 40
2.5
  9
$DIMEXO
 40
0.625
  9
$DIMDLI
 40
3.75
  9
$DIMRND
 40
0
  9
$DIMDLE
 40
0
  9
$DIMEXE
 40
1.25
  9
$DIMTP
 40
0
  9
$DIMTM
 40
0
  9
$DIMTXT
 40
2.5
  9
$DIMCEN
 40
2.5
  9
$DIMTSZ
 40
0
  9
$DIMTOL
 70
    0
  9
$DIMLIM
 70
    0
  9
$DIMTIH
 70
    0
  9
$DIMTOH
 70
    0
  9
$DIMSE1
 70
    0
  9
$DIMSE2
 70
    0
  9
$DIMTAD
 70
    1
  9
$DIMZIN
 70
    8
  9
$DIMBLK
  1

  9
$DIMASO
 70
    1
  9
$DIMSHO
 70
    1
  9
$DIMPOST
  1

  9
$DIMAPOST
  1

  9
$DIMALT
 70
    0
  9
$DIMALTD
 70
    3
  9
$DIMALTF
 40
0.03937
  9
$DIMLFAC
 40
1
  9
$DIMTOFL
 70
    1
  9
$DIMTVP
 40
0
  9
$DIMTIX
 70
    0
  9
$DIMSOXD
 70
    0
  9
$DIMSAH
 70
    0
  9
$DIMBLK1
  1

  9
$DIMBLK2
  1

  9
$DIMSTYLE
  2
Standard
  9
$DIMCLRD
 70
    0
  9
$DIMCLRE
 70
    0
  9
$DIMCLRT
 70
    0
  9
$DIMTFAC
 40
1
  9
$DIMGAP
 40
0.625
  9
$DIMJUST
 70
    0
  9
$DIMSD1
 70
    0
  9
$DIMSD2
 70
    0
  9
$DIMTOLJ
 70
    0
  9
$DIMTZIN
 70
    8
  9
$DIMALTZ
 70
    0
  9
$DIMALTTZ
 70
    0
  9
$DIMUPT
 70
    0
  9
$DIMDEC
 70
    2
  9
$DIMTDEC
 70
    2
  9
$DIMALTU
 70
    2
  9
$DIMALTTD
 70
    3
  9
$DIMTXSTY
  7
STANDARD
  9
$DIMAUNIT
 70
    0
  9
$DIMADEC
 70
    0
  9
$DIMALTRND
 40
0
  9
$DIMAZIN
 70
    0
  9
$DIMDSEP
 70
   44
  9
$DIMATFIT
 70
    3
  9
$DIMFRAC
 70
    0
  9
$DIMLDRBLK
  1
STANDARD
  9
$DIMLUNIT
 70
    2
  9
$DIMLWD
 70
   -2
  9
$DIMLWE
 70
   -2
  9
$DIMTMOVE
 70
    0
  9
$DIMFXL
 40
1
  9
$DIMFXLON
 70
    0
  9
$DIMJOGANG
 40
0.7854
  9
$DIMTFILL
 70
    0
  9
$DIMTFILLCLR
 70
    0
  9
$DIMARCSYM
 70
    0
  9
$DIMLTYPE
  6

  9
$DIMLTEX1
  6

  9
$DIMLTEX2
  6

  9
$LUNITS
 70
    2
  9
$LUPREC
 70
    4
  9
$SKETCHINC
 40
1
  9
$FILLETRAD
 40
0
  9
$AUNITS
 70
    0
  9
$AUPREC
 70
    2
  9
$MENU
  1
.
  9
$ELEVATION
 40
0
  9
$PELEVATION
 40
0
  9
$THICKNESS
 40
0
  9
$LIMCHECK
 70
    0
  9
$CHAMFERA
 40
0
  9
$CHAMFERB
 40
0
  9
$CHAMFERC
 40
0
  9
$CHAMFERD
 40
0
  9
$SKPOLY
 70
    0
  9
$USRTIMER
 70
    1
  9
$ANGBASE
 50
0
  9
$ANGDIR
 70
    0
  9
$PDMODE
 70
   34
  9
$PDSIZE
 40
0
  9
$PLINEWID
 40
0
  9
$SPLFRAME
 70
    0
  9
$SPLINETYPE
 70
    2
  9
$SPLINESEGS
 70
    8
  9
$HANDSEED
  5
20000
  9
$SURFTAB1
 70
    6
  9
$SURFTAB2
 70
    6
  9
$SURFTYPE
 70
    6
  9
$SURFU
 70
    6
  9
$SURFV
 70
    6
  9
$UCSBASE
  2

  9
$UCSNAME
  2

  9
$UCSORG
 10
0
 20
0
 30
0
  9
$UCSXDIR
 10
1
 20
0
 30
0
  9
$UCSYDIR
 10
0
 20
1
 30
0
  9
$UCSORTHOREF
  2

  9
$UCSORTHOVIEW
 70
    0
  9
$UCSORGTOP
 10
0
 20
0
 30
0
  9
$UCSORGBOTTOM
 10
0
 20
0
 30
0
  9
$UCSORGLEFT
 10
0
 20
0
 30
0
  9
$UCSORGRIGHT
 10
0
 20
0
 30
0
  9
$UCSORGFRONT
 10
0
 20
0
 30
0
  9
$UCSORGBACK
 10
0
 20
0
 30
0
  9
$PUCSBASE
  2

  9
$PUCSNAME
  2

  9
$PUCSORG
 10
0
 20
0
 30
0
  9
$PUCSXDIR
 10
1
 20
0
 30
0
  9
$PUCSYDIR
 10
0
 20
1
 30
0
  9
$PUCSORTHOREF
  2

  9
$PUCSORTHOVIEW
 70
    0
  9
$PUCSORGTOP
 10
0
 20
0
 30
0
  9
$PUCSORGBOTTOM
 10
0
 20
0
 30
0
  9
$PUCSORGLEFT
 10
0
 20
0
 30
0
  9
$PUCSORGRIGHT
 10
0
 20
0
 30
0
  9
$PUCSORGFRONT
 10
0
 20
0
 30
0
  9
$PUCSORGBACK
 10
0
 20
0
 30
0
  9
$USERI1
 70
    0
  9
$USERI2
 70
    0
  9
$USERI3
 70
    0
  9
$USERI4
 70
    0
  9
$USERI5
 70
    0
  9
$USERR1
 40
0
  9
$USERR2
 40
0
  9
$USERR3
 40
0
  9
$USERR4
 40
0
  9
$USERR5
 40
0
  9
$WORLDVIEW
 70
    1
  9
$SHADEDGE
 70
    3
  9
$SHADEDIF
 70
   70
  9
$TILEMODE
 70
    1
  9
$MAXACTVP
 70
   64
  9
$PINSBASE
 10
0
 20
0
 30
0
  9
$PLIMCHECK
 70
    0
  9
$PEXTMIN
 10
0
 20
0
 30
0
  9
$PEXTMAX
 10
0
 20
0
 30
0
  9
$GRIDMODE
 70
    1
  9
$SNAPSTYLE
 70
    0
  9
$PLIMMIN
 10
0
 20
0
  9
$PLIMMAX
 10
210
 20
297
  9
$UNITMODE
 70
    0
  9
$VISRETAIN
 70
    1
  9
$PLINEGEN
 70
    0
  9
$PSLTSCALE
 70
    1
  9
$TREEDEPTH
 70
 3020
  9
$CMLSTYLE
  2
Standard
  9
$CMLJUST
 70
    0
  9
$CMLSCALE
 40
20
  9
$PROXYGRAPHICS
 70
    1
  9
$MEASUREMENT
 70
    1
  9
$CELWEIGHT
370
   -1
  9
$ENDCAPS
280
    0
  9
$JOINSTYLE
280
    0
  9
$LWDISPLAY
290
    0
  9
$INSUNITS
 70
    4
  9
$HYPERLINKBASE
  1

  9
$STYLESHEET
  1

  9
$XEDIT
290
    1
  9
$CEPSNTYPE
380
    0
  9
$PSTYLEMODE
290
    1
  9
$EXTNAMES
290
    1
  9
$PSVPSCALE
 40
1
  9
$OLESTARTUP
290
    0
  9
$SORTENTS
280
  127
  9
$INDEXCTL
280
    0
  9
$HIDETEXT
280
    1
  9
$XCLIPFRAME
290
    0
  9
$HALOGAP
280
    0
  9
$OBSCOLOR
 70
  257
  9
$OBSLTYPE
280
    0
  9
$INTERSECTIONDISPLAY
280
    0
  9
$INTERSECTIONCOLOR
 70
  257
  9
$DIMASSOC
280
    1
  9
$PROJECTNAME
  1

  9
$CAMERADISPLAY
290
    0
  9
$LENSLENGTH
 40
50
  9
$CAMERAHEIGHT
 40
0
  9
$STEPSPERSEC
 40
2
  9
$STEPSIZE
 40
50
  9
$3DDWFPREC
 40
2
  9
$PSOLWIDTH
 40
5
  9
$PSOLHEIGHT
 40
80
  9
$LOFTANG1
 40
1.570796326794897
  9
$LOFTANG2
 40
1.570796326794897
  9
$LOFTMAG1
 40
0
  9
$LOFTMAG2
 40
0
  9
$LOFTPARAM
 70
    7
  9
$LOFTNORMALS
280
    1
  9
$LATITUDE
 40
1
  9
$LONGITUDE
 40
1
  9
$NORTHDIRECTION
 40
0
  9
$TIMEZONE
 70
-8000
  9
$LIGHTGLYPHDISPLAY
280
    1
  9
$TILEMODELIGHTSYNCH
280
    1
  9
$SOLIDHIST
280
    1
  9
$SHOWHIST
280
    1
  9
$DWFFRAME
280
    2
  9
$DGNFRAME
280
    0
  9
$REALWORLDSCALE
290
    1
  9
$INTERFERECOLOR
 62
    1
  9
$CSHADOW
280
    0
  9
$SHADOWPLANELOCATION
 40
0
  0
ENDSEC
  0
SECTION
  2
CLASSES
  0
ENDSEC
  0
SECTION
  2
TABLES
  0
TABLE
  2
VPORT
  5
8
330
0
100
AcDbSymbolTable
 70
    1
  0
VPORT
  5
31
330
2
100
AcDbSymbolTableRecord
100
AcDbViewportTableRecord
  2
*ACTIVE
 70
    0
 10
0
 20
0
 11
1
 21
1
 12
262.7552992774887
 22
60.43695075632274
 13
0
 23
0
 14
10
 24
10
 15
10
 25
10
 16
0
 26
0
 36
1
 17
0
 27
0
 37
0
 40
274.0670280286721
 41
1.889150943396226
 42
50
 43
0
 44
0
 50
0
 51
0
 71
    0
 72
  100
 73
    1
 74
    3
 75
    0
 76
    1
 77
    0
 78
    0
281
    0
 65
    1
110
0
120
0
130
0
111
1
121
0
131
0
112
0
122
1
132
0
 79
    0
146
0
348
10020
 60
    7
 61
    5
292
1
282
    1
141
0
142
0
 63
  250
421
3358443
  0
ENDTAB
  0
TABLE
  2
LTYPE
  5
5
330
0
100
AcDbSymbolTable
 70
    4
  0
LTYPE
  5
14
330
5
100
AcDbSymbolTableRecord
100
AcDbLinetypeTableRecord
  2
ByBlock
 70
    0
  3

 72
   65
 73
    0
 40
0
  0
LTYPE
  5
15
330
5
100
AcDbSymbolTableRecord
100
AcDbLinetypeTableRecord
  2
ByLayer
 70
    0
  3

 72
   65
 73
    0
 40
0
  0
LTYPE
  5
16
330
5
100
AcDbSymbolTableRecord
100
AcDbLinetypeTableRecord
  2
Continuous
 70
    0
  3
Solid line
 72
   65
 73
    0
 40
0
  0
LTYPE
  5
32
330
5
100
AcDbSymbolTableRecord
100
AcDbLinetypeTableRecord
  2
DOT
 70
    0
  3
Dot . . . . . . . . . . . . . . . . . . . . . .
 72
   65
 73
    2
 40
6.35
 49
0
 74
    0
 49
-6.35
 74
    0
  0
LTYPE
  5
33
330
5
100
AcDbSymbolTableRecord
100
AcDbLinetypeTableRecord
  2
DOTTINY
 70
    0
  3
Dot (.15x) .....................................
 72
   65
 73
    2
 40
0.9525
 49
0
 74
    0
 49
-0.9525
 74
    0
  0
LTYPE
  5
34
330
5
100
AcDbSymbolTableRecord
100
AcDbLinetypeTableRecord
  2
DOT2
 70
    0
  3
Dot (.5x) .....................................
 72
   65
 73
    2
 40
3.175
 49
0
 74
    0
 49
-3.175
 74
    0
  0
LTYPE
  5
35
330
5
100
AcDbSymbolTableRecord
100
AcDbLinetypeTableRecord
  2
DOTX2
 70
    0
  3
Dot (2x) .  .  .  .  .  .  .  .  .  .  .  .  .
 72
   65
 73
    2
 40
12.7
 49
0
 74
    0
 49
-12.7
 74
    0
  0
LTYPE
  5
36
330
5
100
AcDbSymbolTableRecord
100
AcDbLinetypeTableRecord
  2
DASHED
 70
    0
  3
Dashed _ _ _ _ _ _ _ _ _ _ _ _ _ _ _ _ _
 72
   65
 73
    2
 40
19.05
 49
12.7
 74
    0
 49
-6.35
 74
    0
  0
LTYPE
  5
37
330
5
100
AcDbSymbolTableRecord
100
AcDbLinetypeTableRecord
  2
DASHEDTINY
 70
    0
  3
Dashed (.15x) _ _ _ _ _ _ _ _ _ _ _ _ _ _ _ _ _
 72
   65
 73
    2
 40
2.8575
 49
1.905
 74
    0
 49
-0.9525
 74
    0
  0
LTYPE
  5
38
330
5
100
AcDbSymbolTableRecord
100
AcDbLinetypeTableRecord
  2
DASHED2
 70
    0
  3
Dashed (.5x) _ _ _ _ _ _ _ _ _ _ _ _ _ _ _ _ _
 72
   65
 73
    2
 40
9.524999999999999
 49
6.35
 74
    0
 49
-3.175
 74
    0
  0
LTYPE
  5
39
330
5
100
AcDbSymbolTableRecord
100
AcDbLinetypeTableRecord
  2
DASHEDX2
 70
    0
  3
Dashed (2x) ____  ____  ____  ____  ____  ___
 72
   65
 73
    2
 40
38.09999999999999
 49
25.4
 74
    0
 49
-12.7
 74
    0
  0
LTYPE
  5
3A
330
5
100
AcDbSymbolTableRecord
100
AcDbLinetypeTableRecord
  2
DASHDOT
 70
    0
  3
Dash dot __ . __ . __ . __ . __ . __ . __ . __
 72
   65
 73
    4
 40
25.4
 49
12.7
 74
    0
 49
-6.35
 74
    0
 49
0
 74
    0
 49
-6.35
 74
    0
  0
LTYPE
  5
3B
330
5
100
AcDbSymbolTableRecord
100
AcDbLinetypeTableRecord
  2
DASHDOTTINY
 70
    0
  3
Dash dot (.15x) _._._._._._._._._._._._._._._.
 72
   65
 73
    4
 40
3.81
 49
1.905
 74
    0
 49
-0.9525
 74
    0
 49
0
 74
    0
 49
-0.9525
 74
    0
  0
LTYPE
  5
3C
330
5
100
AcDbSymbolTableRecord
100
AcDbLinetypeTableRecord
  2
DASHDOT2
 70
    0
  3
Dash dot (.5x) _._._._._._._._._._._._._._._.
 72
   65
 73
    4
 40
12.7
 49
6.35
 74
    0
 49
-3.175
 74
    0
 49
0
 74
    0
 49
-3.175
 74
    0
  0
LTYPE
  5
3D
330
5
100
AcDbSymbolTableRecord
100
AcDbLinetypeTableRecord
  2
DASHDOTX2
 70
    0
  3
Dash dot (2x) ____  .  ____  .  ____  .  ___
 72
   65
 73
    4
 40
50.8
 49
25.4
 74
    0
 49
-12.7
 74
    0
 49
0
 74
    0
 49
-12.7
 74
    0
  0
LTYPE
  5
3E
330
5
100
AcDbSymbolTableRecord
100
AcDbLinetypeTableRecord
  2
DIVIDE
 70
    0
  3
Divide ____ . . ____ . . ____ . . ____ . . ____
 72
   65
 73
    6
 40
31.75
 49
12.7
 74
    0
 49
-6.35
 74
    0
 49
0
 74
    0
 49
-6.35
 74
    0
 49
0
 74
    0
 49
-6.35
 74
    0
  0
LTYPE
  5
3F
330
5
100
AcDbSymbolTableRecord
100
AcDbLinetypeTableRecord
  2
DIVIDETINY
 70
    0
  3
Divide (.15x) __..__..__..__..__..__..__..__.._
 72
   65
 73
    6
 40
4.7625
 49
1.905
 74
    0
 49
-0.9525
 74
    0
 49
0
 74
    0
 49
-0.9525
 74
    0
 49
0
 74
    0
 49
-0.9525
 74
    0
  0
LTYPE
  5
40
330
5
100
AcDbSymbolTableRecord
100
AcDbLinetypeTableRecord
  2
DIVIDE2
 70
    0
  3
Divide (.5x) __..__..__..__..__..__..__..__.._
 72
   65
 73
    6
 40
15.875
 49
6.35
 74
    0
 49
-3.175
 74
    0
 49
0
 74
    0
 49
-3.175
 74
    0
 49
0
 74
    0
 49
-3.175
 74
    0
  0
LTYPE
  5
41
330
5
100
AcDbSymbolTableRecord
100
AcDbLinetypeTableRecord
  2
DIVIDEX2
 70
    0
  3
Divide (2x) ________  .  .  ________  .  .  _
 72
   65
 73
    6
 40
63.5
 49
25.4
 74
    0
 49
-12.7
 74
    0
 49
0
 74
    0
 49
-12.7
 74
    0
 49
0
 74
    0
 49
-12.7
 74
    0
  0
LTYPE
  5
42
330
5
100
AcDbSymbolTableRecord
100
AcDbLinetypeTableRecord
  2
BORDER
 70
    0
  3
Border __ __ . __ __ . __ __ . __ __ . __ __ .
 72
   65
 73
    6
 40
44.45
 49
12.7
 74
    0
 49
-6.35
 74
    0
 49
12.7
 74
    0
 49
-6.35
 74
    0
 49
0
 74
    0
 49
-6.35
 74
    0
  0
LTYPE
  5
43
330
5
100
AcDbSymbolTableRecord
100
AcDbLinetypeTableRecord
  2
BORDERTINY
 70
    0
  3
Border (.15x) __.__.__.__.__.__.__.__.__.__.__.
 72
   65
 73
    6
 40
6.6675
 49
1.905
 74
    0
 49
-0.9525
 74
    0
 49
1.905
 74
    0
 49
-0.9525
 74
    0
 49
0
 74
    0
 49
-0.9525
 74
    0
  0
LTYPE
  5
44
330
5
100
AcDbSymbolTableRecord
100
AcDbLinetypeTableRecord
  2
BORDER2
 70
    0
  3
Border (.5x) __.__.__.__.__.__.__.__.__.__.__.
 72
   65
 73
    6
 40
22.225
 49
6.35
 74
    0
 49
-3.175
 74
    0
 49
6.35
 74
    0
 49
-3.175
 74
    0
 49
0
 74
    0
 49
-3.175
 74
    0
  0
LTYPE
  5
45
330
5
100
AcDbSymbolTableRecord
100
AcDbLinetypeTableRecord
  2
BORDERX2
 70
    0
  3
Border (2x) ____  ____  .  ____  ____  .  ___
 72
   65
 73
    6
 40
88.89999999999999
 49
25.4
 74
    0
 49
-12.7
 74
    0
 49
25.4
 74
    0
 49
-12.7
 74
    0
 49
0
 74
    0
 49
-12.7
 74
    0
  0
LTYPE
  5
46
330
5
100
AcDbSymbolTableRecord
100
AcDbLinetypeTableRecord
  2
CENTER
 70
    0
  3
Center ____ _ ____ _ ____ _ ____ _ ____ _ ____
 72
   65
 73
    4
 40
50.8
 49
31.75
 74
    0
 49
-6.35
 74
    0
 49
6.35
 74
    0
 49
-6.35
 74
    0
  0
LTYPE
  5
47
330
5
100
AcDbSymbolTableRecord
100
AcDbLinetypeTableRecord
  2
CENTERTINY
 70
    0
  3
Center (.15x) ___ _ ___ _ ___ _ ___ _ ___ _ ___
 72
   65
 73
    4
 40
7.62
 49
4.7625
 74
    0
 49
-0.9525
 74
    0
 49
0.9525
 74
    0
 49
-0.9525
 74
    0
  0
LTYPE
  5
48
330
5
100
AcDbSymbolTableRecord
100
AcDbLinetypeTableRecord
  2
CENTER2
 70
    0
  3
Center (.5x) ___ _ ___ _ ___ _ ___ _ ___ _ ___
 72
   65
 73
    4
 40
28.575
 49
19.05
 74
    0
 49
-3.175
 74
    0
 49
3.175
 74
    0
 49
-3.175
 74
    0
  0
LTYPE
  5
49
330
5
100
AcDbSymbolTableRecord
100
AcDbLinetypeTableRecord
  2
CENTERX2
 70
    0
  3
Center (2x) ________  __  ________  __  _____
 72
   65
 73
    4
 40
101.6
 49
63.5
 74
    0
 49
-12.7
 74
    0
 49
12.7
 74
    0
 49
-12.7
 74
    0
  0
ENDTAB
  0
TABLE
  2
LAYER
  5
2
330
0
100
AcDbSymbolTable
 70
    1
  0
LAYER
  5
10
330
2
100
AcDbSymbolTableRecord
100
AcDbLayerTableRecord
  2
0
 70
    5
 62
    7
  6
CONTINUOUS
370
    0
390
F
  0
LAYER
  5
4A
330
2
100
AcDbSymbolTableRecord
100
AcDbLayerTableRecord
  2
1
 70
    4
 62
    7
  6
CONTINUOUS
370
   -3
390
F
  0
LAYER
  5
4B
330
2
100
AcDbSymbolTableRecord
100
AcDbLayerTableRecord
  2
12
 70
    4
 62
    7
  6
CONTINUOUS
370
   -3
390
F
  0
LAYER
  5
4C
330
2
100
AcDbSymbolTableRecord
100
AcDbLayerTableRecord
  2
4
 70
    0
 62
    1
  6
CONTINUOUS
370
   -3
390
F
  0
LAYER
  5
4D
330
2
100
AcDbSymbolTableRecord
100
AcDbLayerTableRecord
  2
5
 70
    0
 62
    7
  6
CONTINUOUS
370
   -3
390
F
  0
LAYER
  5
4E
330
2
100
AcDbSymbolTableRecord
100
AcDbLayerTableRecord
  2
6
 70
    4
 62
    7
  6
CONTINUOUS
370
   -3
390
F
  0
LAYER
  5
4F
330
2
100
AcDbSymbolTableRecord
100
AcDbLayerTableRecord
  2
7
 70
    4
 62
    7
  6
CONTINUOUS
370
   -3
390
F
  0
LAYER
  5
50
330
2
100
AcDbSymbolTableRecord
100
AcDbLayerTableRecord
  2
8
 70
    4
 62
    7
  6
CONTINUOUS
370
   -3
390
F
  0
ENDTAB
  0
TABLE
  2
STYLE
  5
3
330
0
100
AcDbSymbolTable
 70
    3
  0
STYLE
  5
51
330
2
100
AcDbSymbolTableRecord
100
AcDbTextStyleTableRecord
  2
Standard
 70
    0
 40
0
 41
1
 50
0
 71
    0
 42
1
  3
txt
  4

  0
ENDTAB
  0
TABLE
  2
VIEW
  5
6
330
0
100
AcDbSymbolTable
 70
    0
  0
ENDTAB
  0
TABLE
  2
UCS
  5
7
330
0
100
AcDbSymbolTable
 70
    0
  0
ENDTAB
  0
TABLE
  2
APPID
  5
9
330
0
100
AcDbSymbolTable
 70
    1
  0
APPID
  5
12
330
9
100
AcDbSymbolTableRecord
100
AcDbRegAppTableRecord
  2
ACAD
 70
    0
  0
APPID
  5
52
330
9
100
AcDbSymbolTableRecord
100
AcDbRegAppTableRecord
  2
LibreCad
 70
    0
  0
ENDTAB
  0
TABLE
  2
DIMSTYLE
  5
A
330
0
100
AcDbSymbolTable
 70
    1
100
AcDbDimStyleTable
 71
    1
  0
DIMSTYLE
105
53
330
A
100
AcDbSymbolTableRecord
100
AcDbDimStyleTableRecord
  2
Standard
 70
    0
 40
2.5
 41
2.5
 42
0.625
 43
0.38
 44
1.25
 45
0
 46
0
 47
0
 48
0
 49
1
140
2.5
141
0.09
142
0
143
25.4
144
1
145
0
146
1
147
0.625
148
0
 71
    0
 72
    0
 73
    0
 74
    1
 75
    0
 76
    0
 77
    0
 78
    8
 79
    0
170
    0
171
    2
172
    0
173
    0
174
    0
175
    0
176
    0
177
    0
178
    0
179
    0
271
    2
272
    4
273
    2
274
    2
275
    0
276
    0
277
    2
278
   44
279
    0
280
    0
281
    0
282
    0
283
    1
284
    0
285
    0
286
    0
288
    0
289
    3
340
STANDARD
341

371
   -2
372
   -2
  0
ENDTAB
  0
TABLE
  2
BLOCK_RECORD
  5
1
330
0
100
AcDbSymbolTable
 70
    2
  0
BLOCK_RECORD
  5
1F
330
1
100
AcDbSymbolTableRecord
100
AcDbBlockTableRecord
  2
*Model_Space
 70
    0
280
    1
281
    0
  0
BLOCK_RECORD
  5
1E
330
1
100
AcDbSymbolTableRecord
100
AcDbBlockTableRecord
  2
*Paper_Space
 70
    0
280
    1
281
    0
  0
ENDTAB
  0
ENDSEC
  0
SECTION
  2
BLOCKS
  0
BLOCK
  5
20
330
1F
100
AcDbEntity
  8
0
100
AcDbBlockBegin
  2
*Model_Space
 70
    0
 10
0
 20
0
 30
0
  3
*Model_Space
  1

  0
ENDBLK
  5
21
330
1F
100
AcDbEntity
  8
0
100
AcDbBlockEnd
  0
BLOCK
  5
1C
330
1B
100
AcDbEntity
  8
0
100
AcDbBlockBegin
  2
*Paper_Space
 70
    0
 10
0
 20
0
 30
0
  3
*Paper_Space
  1

  0
ENDBLK
  5
1D
330
1F
100
AcDbEntity
  8
0
100
AcDbBlockEnd
  0
ENDSEC
  0
SECTION
  2
ENTITIES
  0
LINE
  5
54
100
AcDbEntity
  8
1
  6
ByLayer
 62
    1
370
   -1
100
AcDbLine
 10
-88.961
 20
45.775
 11
78.97199999999999
 21
45.775
  0
LINE
  5
55
100
AcDbEntity
  8
1
  6
ByLayer
 62
    1
370
   -1
100
AcDbLine
 10
78.97199999999999
 20
45.775
 11
78.97199999999999
 21
48.625
  0
LINE
  5
56
100
AcDbEntity
  8
1
  6
ByLayer
 62
    1
370
   -1
100
AcDbLine
 10
78.97199999999999
 20
48.625
 11
-89.111
 21
48.625
  0
LINE
  5
57
100
AcDbEntity
  8
1
  6
ByLayer
 62
    1
370
   -1
100
AcDbLine
 10
-89.111
 20
48.625
 11
-89.111
 21
45.775
  0
LINE
  5
58
100
AcDbEntity
  8
1
  6
ByLayer
 62
    1
370
   -1
100
AcDbLine
 10
-89.111
 20
45.775
 11
-88.961
 21
45.775
  0
LINE
  5
59
100
AcDbEntity
  8
1
  6
ByLayer
 62
    1
370
   -1
100
AcDbLine
 10
-75.73999999999999
 20
40.625
 11
-174.49
 21
40.625
  0
LINE
  5
5A
100
AcDbEntity
  8
1
  6
ByLayer
 62
    1
370
   -1
100
AcDbLine
 10
-174.49
 20
40.625
 11
-174.49
 21
-55.625
  0
LINE
  5
5B
100
AcDbEntity
  8
1
  6
ByLayer
 62
    1
370
   -1
100
AcDbLine
 10
-174.49
 20
-55.625
 11
112.26
 21
-55.625
  0
LINE
  5
5C
100
AcDbEntity
  8
1
  6
ByLayer
 62
    1
370
   -1
100
AcDbLine
 10
112.26
 20
-55.625
 11
112.26
 21
40.625
  0
LINE
  5
5D
100
AcDbEntity
  8
1
  6
ByLayer
 62
    1
370
   -1
100
AcDbLine
 10
112.26
 20
40.625
 11
-75.73999999999999
 21
40.625
  0
LINE
  5
5E
100
AcDbEntity
  8
1
  6
ByLayer
 62
    1
370
   -1
100
AcDbLine
 10
135.54
 20
-16.525
 11
135.39
 21
-16.525
  0
LINE
  5
5F
100
AcDbEntity
  8
1
  6
ByLayer
 62
    1
370
   -1
100
AcDbLine
 10
135.39
 20
-16.525
 11
135.39
 21
-35.5
  0
ARC
  5
60
100
AcDbEntity
  8
1
  6
ByLayer
 62
    1
370
   -1
100
AcDbCircle
 10
135.315
 20
-35.5
 40
0.075
100
AcDbArc
 50
-90
 51
0
  0
LINE
  5
61
100
AcDbEntity
  8
1
  6
ByLayer
 62
    1
370
   -1
100
AcDbLine
 10
135.315
 20
-35.575
 11
116.34
 21
-35.575
  0
LINE
  5
62
100
AcDbEntity
  8
1
  6
ByLayer
 62
    1
370
   -1
100
AcDbLine
 10
116.34
 20
-35.575
 11
116.34
 21
-55.625
  0
LINE
  5
63
100
AcDbEntity
  8
1
  6
ByLayer
 62
    1
370
   -1
100
AcDbLine
 10
116.34
 20
-55.625
 11
174.49
 21
-55.625
  0
LINE
  5
64
100
AcDbEntity
  8
1
  6
ByLayer
 62
    1
370
   -1
100
AcDbLine
 10
174.49
 20
-55.625
 11
174.49
 21
-35.575
  0
LINE
  5
65
100
AcDbEntity
  8
1
  6
ByLayer
 62
    1
370
   -1
100
AcDbLine
 10
174.49
 20
-35.575
 11
155.515
 21
-35.575
  0
ARC
  5
66
100
AcDbEntity
  8
1
  6
ByLayer
 62
    1
370
   -1
100
AcDbCircle
 10
155.515
 20
-35.5
 40
0.075
100
AcDbArc
 50
180
 51
-90
  0
LINE
  5
67
100
AcDbEntity
  8
1
  6
ByLayer
 62
    1
370
   -1
100
AcDbLine
 10
155.44
 20
-35.5
 11
155.44
 21
-16.525
  0
LINE
  5
68
100
AcDbEntity
  8
1
  6
ByLayer
 62
    1
370
   -1
100
AcDbLine
 10
155.44
 20
-16.525
 11
135.54
 21
-16.525
  0
LINE
  5
69
100
AcDbEntity
  8
1
  6
ByLayer
 62
    1
370
   -1
100
AcDbLine
 10
135.54
 20
1.525
 11
174.49
 21
1.525
  0
LINE
  5
6A
100
AcDbEntity
  8
1
  6
ByLayer
 62
    1
370
   -1
100
AcDbLine
 10
174.49
 20
1.525
 11
174.49
 21
40.625
  0
LINE
  5
6B
100
AcDbEntity
  8
1
  6
ByLayer
 62
    1
370
   -1
100
AcDbLine
 10
174.49
 20
40.625
 11
116.34
 21
40.625
  0
LINE
  5
6C
100
AcDbEntity
  8
1
  6
ByLayer
 62
    1
370
   -1
100
AcDbLine
 10
116.34
 20
40.625
 11
116.34
 21
1.525
  0
LINE
  5
6D
100
AcDbEntity
  8
1
  6
ByLayer
 62
    1
370
   -1
100
AcDbLine
 10
116.34
 20
1.525
 11
135.54
 21
1.525
  0
LINE
  5
6E
100
AcDbEntity
  8
1
  6
ByLayer
 62
    1
370
   -1
100
AcDbLine
 10
162.79
 20
-25.525
 11
162.64
 21
-25.525
  0
LINE
  5
6F
100
AcDbEntity
  8
1
  6
ByLayer
 62
    1
370
   -1
100
AcDbLine
 10
162.64
 20
-25.525
 11
162.64
 21
-28.375
  0
LINE
  5
70
100
AcDbEntity
  8
1
  6
ByLayer
 62
    1
370
   -1
100
AcDbLine
 10
162.64
 20
-28.375
 11
182.565
 21
-28.375
  0
ARC
  5
71
100
AcDbEntity
  8
1
  6
ByLayer
 62
    1
370
   -1
100
AcDbCircle
 10
182.565
 20
-28.451
 40
0.075
100
AcDbArc
 50
0
 51
90
  0
LINE
  5
72
100
AcDbEntity
  8
1
  6
ByLayer
 62
    1
370
   -1
100
AcDbLine
 10
182.64
 20
-28.451
 11
182.64
 21
-63.7
  0
ARC
  5
73
100
AcDbEntity
  8
1
  6
ByLayer
 62
    1
370
   -1
100
AcDbCircle
 10
182.565
 20
-63.7
 40
0.075
100
AcDbArc
 50
-90
 51
0
  0
LINE
  5
74
100
AcDbEntity
  8
1
  6
ByLayer
 62
    1
370
   -1
100
AcDbLine
 10
182.565
 20
-63.775
 11
-182.565
 21
-63.775
  0
ARC
  5
75
100
AcDbEntity
  8
1
  6
ByLayer
 62
    1
370
   -1
100
AcDbCircle
 10
-182.565
 20
-63.7
 40
0.075
100
AcDbArc
 50
180
 51
-90
  0
LINE
  5
76
100
AcDbEntity
  8
1
  6
ByLayer
 62
    1
370
   -1
100
AcDbLine
 10
-182.64
 20
-63.7
 11
-182.64
 21
63.7
  0
ARC
  5
77
100
AcDbEntity
  8
1
  6
ByLayer
 62
    1
370
   -1
100
AcDbCircle
 10
-182.565
 20
63.7
 40
0.075
100
AcDbArc
 50
90
 51
180
  0
LINE
  5
78
100
AcDbEntity
  8
1
  6
ByLayer
 62
    1
370
   -1
100
AcDbLine
 10
-182.565
 20
63.775
 11
-174.565
 21
63.775
  0
ARC
  5
79
100
AcDbEntity
  8
1
  6
ByLayer
 62
    1
370
   -1
100
AcDbCircle
 10
-174.565
 20
63.7
 40
0.075
100
AcDbArc
 50
0
 51
90
  0
LINE
  5
7A
100
AcDbEntity
  8
1
  6
ByLayer
 62
    1
370
   -1
100
AcDbLine
 10
-174.49
 20
63.7
 11
-174.49
 21
53.775
  0
LINE
  5
7B
100
AcDbEntity
  8
1
  6
ByLayer
 62
    1
370
   -1
100
AcDbLine
 10
-174.49
 20
53.775
 11
-171.64
 21
53.775
  0
LINE
  5
7C
100
AcDbEntity
  8
1
  6
ByLayer
 62
    1
370
   -1
100
AcDbLine
 10
-171.64
 20
53.775
 11
-171.64
 21
63.7
  0
ARC
  5
7D
100
AcDbEntity
  8
1
  6
ByLayer
 62
    1
370
   -1
100
AcDbCircle
 10
-171.565
 20
63.7
 40
0.075
100
AcDbArc
 50
90
 51
180
  0
LINE
  5
7E
100
AcDbEntity
  8
1
  6
ByLayer
 62
    1
370
   -1
100
AcDbLine
 10
-171.565
 20
63.775
 11
-168.565
 21
63.775
  0
ARC
  5
7F
100
AcDbEntity
  8
1
  6
ByLayer
 62
    1
370
   -1
100
AcDbCircle
 10
-168.565
 20
63.7
 40
0.075
100
AcDbArc
 50
0
 51
90
  0
LINE
  5
80
100
AcDbEntity
  8
1
  6
ByLayer
 62
    1
370
   -1
100
AcDbLine
 10
-168.49
 20
63.7
 11
-168.49
 21
53.775
  0
LINE
  5
81
100
AcDbEntity
  8
1
  6
ByLayer
 62
    1
370
   -1
100
AcDbLine
 10
-168.49
 20
53.775
 11
-165.64
 21
53.775
  0
LINE
  5
82
100
AcDbEntity
  8
1
  6
ByLayer
 62
    1
370
   -1
100
AcDbLine
 10
-165.64
 20
53.775
 11
-165.64
 21
63.7
  0
ARC
  5
83
100
AcDbEntity
  8
1
  6
ByLayer
 62
    1
370
   -1
100
AcDbCircle
 10
-165.565
 20
63.7
 40
0.075
100
AcDbArc
 50
90
 51
180
  0
LINE
  5
84
100
AcDbEntity
  8
1
  6
ByLayer
 62
    1
370
   -1
100
AcDbLine
 10
-165.565
 20
63.775
 11
-162.565
 21
63.775
  0
ARC
  5
85
100
AcDbEntity
  8
1
  6
ByLayer
 62
    1
370
   -1
100
AcDbCircle
 10
-162.565
 20
63.7
 40
0.075
100
AcDbArc
 50
0
 51
90
  0
LINE
  5
86
100
AcDbEntity
  8
1
  6
ByLayer
 62
    1
370
   -1
100
AcDbLine
 10
-162.49
 20
63.7
 11
-162.49
 21
53.775
  0
LINE
  5
87
100
AcDbEntity
  8
1
  6
ByLayer
 62
    1
370
   -1
100
AcDbLine
 10
-162.49
 20
53.775
 11
-159.64
 21
53.775
  0
LINE
  5
88
100
AcDbEntity
  8
1
  6
ByLayer
 62
    1
370
   -1
100
AcDbLine
 10
-159.64
 20
53.775
 11
-159.64
 21
63.7
  0
ARC
  5
89
100
AcDbEntity
  8
1
  6
ByLayer
 62
    1
370
   -1
100
AcDbCircle
 10
-159.565
 20
63.7
 40
0.075
100
AcDbArc
 50
90
 51
180
  0
LINE
  5
8A
100
AcDbEntity
  8
1
  6
ByLayer
 62
    1
370
   -1
100
AcDbLine
 10
-159.565
 20
63.775
 11
-156.565
 21
63.775
  0
ARC
  5
8B
100
AcDbEntity
  8
1
  6
ByLayer
 62
    1
370
   -1
100
AcDbCircle
 10
-156.565
 20
63.7
 40
0.075
100
AcDbArc
 50
0
 51
90
  0
LINE
  5
8C
100
AcDbEntity
  8
1
  6
ByLayer
 62
    1
370
   -1
100
AcDbLine
 10
-156.49
 20
63.7
 11
-156.49
 21
53.775
  0
LINE
  5
8D
100
AcDbEntity
  8
1
  6
ByLayer
 62
    1
370
   -1
100
AcDbLine
 10
-156.49
 20
53.775
 11
-153.64
 21
53.775
  0
LINE
  5
8E
100
AcDbEntity
  8
1
  6
ByLayer
 62
    1
370
   -1
100
AcDbLine
 10
-153.64
 20
53.775
 11
-153.64
 21
63.7
  0
ARC
  5
8F
100
AcDbEntity
  8
1
  6
ByLayer
 62
    1
370
   -1
100
AcDbCircle
 10
-153.565
 20
63.7
 40
0.075
100
AcDbArc
 50
90
 51
180
  0
LINE
  5
90
100
AcDbEntity
  8
1
  6
ByLayer
 62
    1
370
   -1
100
AcDbLine
 10
-153.565
 20
63.775
 11
-150.565
 21
63.775
  0
ARC
  5
91
100
AcDbEntity
  8
1
  6
ByLayer
 62
    1
370
   -1
100
AcDbCircle
 10
-150.565
 20
63.7
 40
0.075
100
AcDbArc
 50
0
 51
90
  0
LINE
  5
92
100
AcDbEntity
  8
1
  6
ByLayer
 62
    1
370
   -1
100
AcDbLine
 10
-150.49
 20
63.7
 11
-150.49
 21
53.775
  0
LINE
  5
93
100
AcDbEntity
  8
1
  6
ByLayer
 62
    1
370
   -1
100
AcDbLine
 10
-150.49
 20
53.775
 11
-147.64
 21
53.775
  0
LINE
  5
94
100
AcDbEntity
  8
1
  6
ByLayer
 62
    1
370
   -1
100
AcDbLine
 10
-147.64
 20
53.775
 11
-147.64
 21
63.7
  0
ARC
  5
95
100
AcDbEntity
  8
1
  6
ByLayer
 62
    1
370
   -1
100
AcDbCircle
 10
-147.565
 20
63.7
 40
0.075
100
AcDbArc
 50
90
 51
180
  0
LINE
  5
96
100
AcDbEntity
  8
1
  6
ByLayer
 62
    1
370
   -1
100
AcDbLine
 10
-147.565
 20
63.775
 11
-144.565
 21
63.775
  0
ARC
  5
97
100
AcDbEntity
  8
1
  6
ByLayer
 62
    1
370
   -1
100
AcDbCircle
 10
-144.565
 20
63.7
 40
0.075
100
AcDbArc
 50
0
 51
90
  0
LINE
  5
98
100
AcDbEntity
  8
1
  6
ByLayer
 62
    1
370
   -1
100
AcDbLine
 10
-144.49
 20
63.7
 11
-144.49
 21
53.775
  0
LINE
  5
99
100
AcDbEntity
  8
1
  6
ByLayer
 62
    1
370
   -1
100
AcDbLine
 10
-144.49
 20
53.775
 11
-141.64
 21
53.775
  0
LINE
  5
9A
100
AcDbEntity
  8
1
  6
ByLayer
 62
    1
370
   -1
100
AcDbLine
 10
-141.64
 20
53.775
 11
-141.64
 21
63.7
  0
ARC
  5
9B
100
AcDbEntity
  8
1
  6
ByLayer
 62
    1
370
   -1
100
AcDbCircle
 10
-141.565
 20
63.7
 40
0.075
100
AcDbArc
 50
90
 51
180
  0
LINE
  5
9C
100
AcDbEntity
  8
1
  6
ByLayer
 62
    1
370
   -1
100
AcDbLine
 10
-141.565
 20
63.775
 11
-138.565
 21
63.775
  0
ARC
  5
9D
100
AcDbEntity
  8
1
  6
ByLayer
 62
    1
370
   -1
100
AcDbCircle
 10
-138.565
 20
63.7
 40
0.075
100
AcDbArc
 50
0
 51
90
  0
LINE
  5
9E
100
AcDbEntity
  8
1
  6
ByLayer
 62
    1
370
   -1
100
AcDbLine
 10
-138.49
 20
63.7
 11
-138.49
 21
53.775
  0
LINE
  5
9F
100
AcDbEntity
  8
1
  6
ByLayer
 62
    1
370
   -1
100
AcDbLine
 10
-138.49
 20
53.775
 11
-135.64
 21
53.775
  0
LINE
  5
A0
100
AcDbEntity
  8
1
  6
ByLayer
 62
    1
370
   -1
100
AcDbLine
 10
-135.64
 20
53.775
 11
-135.64
 21
63.7
  0
ARC
  5
A1
100
AcDbEntity
  8
1
  6
ByLayer
 62
    1
370
   -1
100
AcDbCircle
 10
-135.565
 20
63.7
 40
0.075
100
AcDbArc
 50
90
 51
180
  0
LINE
  5
A2
100
AcDbEntity
  8
1
  6
ByLayer
 62
    1
370
   -1
100
AcDbLine
 10
-135.565
 20
63.775
 11
-132.565
 21
63.775
  0
ARC
  5
A3
100
AcDbEntity
  8
1
  6
ByLayer
 62
    1
370
   -1
100
AcDbCircle
 10
-132.565
 20
63.7
 40
0.075
100
AcDbArc
 50
0
 51
90
  0
LINE
  5
A4
100
AcDbEntity
  8
1
  6
ByLayer
 62
    1
370
   -1
100
AcDbLine
 10
-132.49
 20
63.7
 11
-132.49
 21
53.775
  0
LINE
  5
A5
100
AcDbEntity
  8
1
  6
ByLayer
 62
    1
370
   -1
100
AcDbLine
 10
-132.49
 20
53.775
 11
-129.64
 21
53.775
  0
LINE
  5
A6
100
AcDbEntity
  8
1
  6
ByLayer
 62
    1
370
   -1
100
AcDbLine
 10
-129.64
 20
53.775
 11
-129.64
 21
63.7
  0
ARC
  5
A7
100
AcDbEntity
  8
1
  6
ByLayer
 62
    1
370
   -1
100
AcDbCircle
 10
-129.565
 20
63.7
 40
0.075
100
AcDbArc
 50
90
 51
180
  0
LINE
  5
A8
100
AcDbEntity
  8
1
  6
ByLayer
 62
    1
370
   -1
100
AcDbLine
 10
-129.565
 20
63.775
 11
-126.565
 21
63.775
  0
ARC
  5
A9
100
AcDbEntity
  8
1
  6
ByLayer
 62
    1
370
   -1
100
AcDbCircle
 10
-126.565
 20
63.7
 40
0.075
100
AcDbArc
 50
0
 51
90
  0
LINE
  5
AA
100
AcDbEntity
  8
1
  6
ByLayer
 62
    1
370
   -1
100
AcDbLine
 10
-126.49
 20
63.7
 11
-126.49
 21
53.775
  0
LINE
  5
AB
100
AcDbEntity
  8
1
  6
ByLayer
 62
    1
370
   -1
100
AcDbLine
 10
-126.49
 20
53.775
 11
-123.64
 21
53.775
  0
LINE
  5
AC
100
AcDbEntity
  8
1
  6
ByLayer
 62
    1
370
   -1
100
AcDbLine
 10
-123.64
 20
53.775
 11
-123.64
 21
63.7
  0
ARC
  5
AD
100
AcDbEntity
  8
1
  6
ByLayer
 62
    1
370
   -1
100
AcDbCircle
 10
-123.565
 20
63.7
 40
0.075
100
AcDbArc
 50
90
 51
180
  0
LINE
  5
AE
100
AcDbEntity
  8
1
  6
ByLayer
 62
    1
370
   -1
100
AcDbLine
 10
-123.565
 20
63.775
 11
-120.565
 21
63.775
  0
ARC
  5
AF
100
AcDbEntity
  8
1
  6
ByLayer
 62
    1
370
   -1
100
AcDbCircle
 10
-120.565
 20
63.7
 40
0.075
100
AcDbArc
 50
0
 51
90
  0
LINE
  5
B0
100
AcDbEntity
  8
1
  6
ByLayer
 62
    1
370
   -1
100
AcDbLine
 10
-120.49
 20
63.7
 11
-120.49
 21
53.775
  0
LINE
  5
B1
100
AcDbEntity
  8
1
  6
ByLayer
 62
    1
370
   -1
100
AcDbLine
 10
-120.49
 20
53.775
 11
-117.64
 21
53.775
  0
LINE
  5
B2
100
AcDbEntity
  8
1
  6
ByLayer
 62
    1
370
   -1
100
AcDbLine
 10
-117.64
 20
53.775
 11
-117.64
 21
63.7
  0
ARC
  5
B3
100
AcDbEntity
  8
1
  6
ByLayer
 62
    1
370
   -1
100
AcDbCircle
 10
-117.565
 20
63.7
 40
0.075
100
AcDbArc
 50
90
 51
180
  0
LINE
  5
B4
100
AcDbEntity
  8
1
  6
ByLayer
 62
    1
370
   -1
100
AcDbLine
 10
-117.565
 20
63.775
 11
-114.565
 21
63.775
  0
ARC
  5
B5
100
AcDbEntity
  8
1
  6
ByLayer
 62
    1
370
   -1
100
AcDbCircle
 10
-114.565
 20
63.7
 40
0.075
100
AcDbArc
 50
0
 51
90
  0
LINE
  5
B6
100
AcDbEntity
  8
1
  6
ByLayer
 62
    1
370
   -1
100
AcDbLine
 10
-114.49
 20
63.7
 11
-114.49
 21
53.775
  0
LINE
  5
B7
100
AcDbEntity
  8
1
  6
ByLayer
 62
    1
370
   -1
100
AcDbLine
 10
-114.49
 20
53.775
 11
-111.64
 21
53.775
  0
LINE
  5
B8
100
AcDbEntity
  8
1
  6
ByLayer
 62
    1
370
   -1
100
AcDbLine
 10
-111.64
 20
53.775
 11
-111.64
 21
63.7
  0
ARC
  5
B9
100
AcDbEntity
  8
1
  6
ByLayer
 62
    1
370
   -1
100
AcDbCircle
 10
-111.565
 20
63.7
 40
0.075
100
AcDbArc
 50
90
 51
180
  0
LINE
  5
BA
100
AcDbEntity
  8
1
  6
ByLayer
 62
    1
370
   -1
100
AcDbLine
 10
-111.565
 20
63.775
 11
-108.565
 21
63.775
  0
ARC
  5
BB
100
AcDbEntity
  8
1
  6
ByLayer
 62
    1
370
   -1
100
AcDbCircle
 10
-108.565
 20
63.7
 40
0.075
100
AcDbArc
 50
0
 51
90
  0
LINE
  5
BC
100
AcDbEntity
  8
1
  6
ByLayer
 62
    1
370
   -1
100
AcDbLine
 10
-108.49
 20
63.7
 11
-108.49
 21
53.775
  0
LINE
  5
BD
100
AcDbEntity
  8
1
  6
ByLayer
 62
    1
370
   -1
100
AcDbLine
 10
-108.49
 20
53.775
 11
-105.64
 21
53.775
  0
LINE
  5
BE
100
AcDbEntity
  8
1
  6
ByLayer
 62
    1
370
   -1
100
AcDbLine
 10
-105.64
 20
53.775
 11
-105.64
 21
63.7
  0
ARC
  5
BF
100
AcDbEntity
  8
1
  6
ByLayer
 62
    1
370
   -1
100
AcDbCircle
 10
-105.565
 20
63.7
 40
0.075
100
AcDbArc
 50
90
 51
180
  0
LINE
  5
C0
100
AcDbEntity
  8
1
  6
ByLayer
 62
    1
370
   -1
100
AcDbLine
 10
-105.565
 20
63.775
 11
139.003
 21
63.775
  0
ARC
  5
C1
100
AcDbEntity
  8
1
  6
ByLayer
 62
    1
370
   -1
100
AcDbCircle
 10
139.003
 20
63.7
 40
0.075
100
AcDbArc
 50
-45.004122
 51
90
  0
LINE
  5
C2
100
AcDbEntity
  8
1
  6
ByLayer
 62
    1
370
   -1
100
AcDbLine
 10
139.056
 20
63.647
 11
122.846
 21
47.436
  0
LINE
  5
C3
100
AcDbEntity
  8
1
  6
ByLayer
 62
    1
370
   -1
100
AcDbLine
 10
122.846
 20
47.436
 11
124.861
 21
45.421
  0
LINE
  5
C4
100
AcDbEntity
  8
1
  6
ByLayer
 62
    1
370
   -1
100
AcDbLine
 10
124.861
 20
45.421
 11
143.193
 21
63.753
  0
ARC
  5
C5
100
AcDbEntity
  8
1
  6
ByLayer
 62
    1
370
   -1
100
AcDbCircle
 10
143.246
 20
63.7
 40
0.075
100
AcDbArc
 50
90
 51
135.004121
  0
LINE
  5
C6
100
AcDbEntity
  8
1
  6
ByLayer
 62
    1
370
   -1
100
AcDbLine
 10
143.246
 20
63.775
 11
147.503
 21
63.775
  0
ARC
  5
C7
100
AcDbEntity
  8
1
  6
ByLayer
 62
    1
370
   -1
100
AcDbCircle
 10
147.503
 20
63.7
 40
0.075
100
AcDbArc
 50
-45.004122
 51
90
  0
LINE
  5
C8
100
AcDbEntity
  8
1
  6
ByLayer
 62
    1
370
   -1
100
AcDbLine
 10
147.556
 20
63.647
 11
131.346
 21
47.436
  0
LINE
  5
C9
100
AcDbEntity
  8
1
  6
ByLayer
 62
    1
370
   -1
100
AcDbLine
 10
131.346
 20
47.436
 11
133.361
 21
45.421
  0
LINE
  5
CA
100
AcDbEntity
  8
1
  6
ByLayer
 62
    1
370
   -1
100
AcDbLine
 10
133.361
 20
45.421
 11
151.693
 21
63.753
  0
ARC
  5
CB
100
AcDbEntity
  8
1
  6
ByLayer
 62
    1
370
   -1
100
AcDbCircle
 10
151.746
 20
63.7
 40
0.075
100
AcDbArc
 50
90
 51
135.004121
  0
LINE
  5
CC
100
AcDbEntity
  8
1
  6
ByLayer
 62
    1
370
   -1
100
AcDbLine
 10
151.746
 20
63.775
 11
156.003
 21
63.775
  0
ARC
  5
CD
100
AcDbEntity
  8
1
  6
ByLayer
 62
    1
370
   -1
100
AcDbCircle
 10
156.003
 20
63.7
 40
0.075
100
AcDbArc
 50
-45.004122
 51
90
  0
LINE
  5
CE
100
AcDbEntity
  8
1
  6
ByLayer
 62
    1
370
   -1
100
AcDbLine
 10
156.056
 20
63.647
 11
139.846
 21
47.436
  0
LINE
  5
CF
100
AcDbEntity
  8
1
  6
ByLayer
 62
    1
370
   -1
100
AcDbLine
 10
139.846
 20
47.436
 11
141.861
 21
45.421
  0
LINE
  5
D0
100
AcDbEntity
  8
1
  6
ByLayer
 62
    1
370
   -1
100
AcDbLine
 10
141.861
 20
45.421
 11
160.193
 21
63.753
  0
ARC
  5
D1
100
AcDbEntity
  8
1
  6
ByLayer
 62
    1
370
   -1
100
AcDbCircle
 10
160.246
 20
63.7
 40
0.075
100
AcDbArc
 50
90
 51
135.004121
  0
LINE
  5
D2
100
AcDbEntity
  8
1
  6
ByLayer
 62
    1
370
   -1
100
AcDbLine
 10
160.246
 20
63.775
 11
164.503
 21
63.775
  0
ARC
  5
D3
100
AcDbEntity
  8
1
  6
ByLayer
 62
    1
370
   -1
100
AcDbCircle
 10
164.503
 20
63.7
 40
0.075
100
AcDbArc
 50
-45.004122
 51
90
  0
LINE
  5
D4
100
AcDbEntity
  8
1
  6
ByLayer
 62
    1
370
   -1
100
AcDbLine
 10
164.556
 20
63.647
 11
148.346
 21
47.436
  0
LINE
  5
D5
100
AcDbEntity
  8
1
  6
ByLayer
 62
    1
370
   -1
100
AcDbLine
 10
148.346
 20
47.436
 11
150.361
 21
45.421
  0
LINE
  5
D6
100
AcDbEntity
  8
1
  6
ByLayer
 62
    1
370
   -1
100
AcDbLine
 10
150.361
 20
45.421
 11
168.693
 21
63.753
  0
ARC
  5
D7
100
AcDbEntity
  8
1
  6
ByLayer
 62
    1
370
   -1
100
AcDbCircle
 10
168.746
 20
63.7
 40
0.075
100
AcDbArc
 50
90
 51
135.004121
  0
LINE
  5
D8
100
AcDbEntity
  8
1
  6
ByLayer
 62
    1
370
   -1
100
AcDbLine
 10
168.746
 20
63.775
 11
182.565
 21
63.775
  0
ARC
  5
D9
100
AcDbEntity
  8
1
  6
ByLayer
 62
    1
370
   -1
100
AcDbCircle
 10
182.565
 20
63.7
 40
0.075
100
AcDbArc
 50
0
 51
90
  0
LINE
  5
DA
100
AcDbEntity
  8
1
  6
ByLayer
 62
    1
370
   -1
100
AcDbLine
 10
182.64
 20
63.7
 11
182.64
 21
-25.451
  0
ARC
  5
DB
100
AcDbEntity
  8
1
  6
ByLayer
 62
    1
370
   -1
100
AcDbCircle
 10
182.565
 20
-25.451
 40
0.075
100
AcDbArc
 50
-90
 51
0
  0
LINE
  5
DC
100
AcDbEntity
  8
1
  6
ByLayer
 62
    1
370
   -1
100
AcDbLine
 10
182.565
 20
-25.525
 11
162.79
 21
-25.525
  0
ARC
  5
DD
100
AcDbEntity
  8
12
  6
ByLayer
 62
    1
370
   -1
100
AcDbCircle
 10
-88.81699999999999
 20
-16.5
 40
0.075
100
AcDbArc
 50
-90
 51
0
  0
LINE
  5
DE
100
AcDbEntity
  8
12
  6
ByLayer
 62
    1
370
   -1
100
AcDbLine
 10
-88.81699999999999
 20
-16.575
 11
-98.81699999999999
 21
-16.575
  0
ARC
  5
DF
100
AcDbEntity
  8
12
  6
ByLayer
 62
    1
370
   -1
100
AcDbCircle
 10
-98.81699999999999
 20
-16.5
 40
0.075
100
AcDbArc
 50
180
 51
-90
  0
LINE
  5
E0
100
AcDbEntity
  8
12
  6
ByLayer
 62
    1
370
   -1
100
AcDbLine
 10
-98.892
 20
-16.5
 11
-98.892
 21
-1.575
  0
LINE
  5
E1
100
AcDbEntity
  8
12
  6
ByLayer
 62
    1
370
   -1
100
AcDbLine
 10
-98.892
 20
-1.575
 11
-128.301
 21
-1.575
  0
LINE
  5
E2
100
AcDbEntity
  8
12
  6
ByLayer
 62
    1
370
   -1
100
AcDbLine
 10
-128.301
 20
-1.575
 11
-128.301
 21
-16.5
  0
ARC
  5
E3
100
AcDbEntity
  8
12
  6
ByLayer
 62
    1
370
   -1
100
AcDbCircle
 10
-128.376
 20
-16.5
 40
0.075
100
AcDbArc
 50
-90
 51
0
  0
LINE
  5
E4
100
AcDbEntity
  8
12
  6
ByLayer
 62
    1
370
   -1
100
AcDbLine
 10
-128.376
 20
-16.575
 11
-138.376
 21
-16.575
  0
ARC
  5
E5
100
AcDbEntity
  8
12
  6
ByLayer
 62
    1
370
   -1
100
AcDbCircle
 10
-138.376
 20
-16.5
 40
0.075
100
AcDbArc
 50
180
 51
-90
  0
LINE
  5
E6
100
AcDbEntity
  8
12
  6
ByLayer
 62
    1
370
   -1
100
AcDbLine
 10
-138.451
 20
-16.5
 11
-138.451
 21
7.5
  0
ARC
  5
E7
100
AcDbEntity
  8
12
  6
ByLayer
 62
    1
370
   -1
100
AcDbCircle
 10
-138.376
 20
7.5
 40
0.075
100
AcDbArc
 50
90
 51
180
  0
LINE
  5
E8
100
AcDbEntity
  8
12
  6
ByLayer
 62
    1
370
   -1
100
AcDbLine
 10
-138.376
 20
7.575
 11
-133.451
 21
7.575
  0
LINE
  5
E9
100
AcDbEntity
  8
12
  6
ByLayer
 62
    1
370
   -1
100
AcDbLine
 10
-133.451
 20
7.575
 11
-133.451
 21
16.5
  0
ARC
  5
EA
100
AcDbEntity
  8
12
  6
ByLayer
 62
    1
370
   -1
100
AcDbCircle
 10
-133.376
 20
16.5
 40
0.075
100
AcDbArc
 50
90
 51
180
  0
LINE
  5
EB
100
AcDbEntity
  8
12
  6
ByLayer
 62
    1
370
   -1
100
AcDbLine
 10
-133.376
 20
16.575
 11
34.858
 21
16.575
  0
ARC
  5
EC
100
AcDbEntity
  8
12
  6
ByLayer
 62
    1
370
   -1
100
AcDbCircle
 10
34.858
 20
16.5
 40
0.075
100
AcDbArc
 50
0
 51
90
  0
LINE
  5
ED
100
AcDbEntity
  8
12
  6
ByLayer
 62
    1
370
   -1
100
AcDbLine
 10
34.933
 20
16.5
 11
34.933
 21
7.575
  0
LINE
  5
EE
100
AcDbEntity
  8
12
  6
ByLayer
 62
    1
370
   -1
100
AcDbLine
 10
34.933
 20
7.575
 11
39.858
 21
7.575
  0
ARC
  5
EF
100
AcDbEntity
  8
12
  6
ByLayer
 62
    1
370
   -1
100
AcDbCircle
 10
39.858
 20
7.5
 40
0.075
100
AcDbArc
 50
0
 51
90
  0
LINE
  5
F0
100
AcDbEntity
  8
12
  6
ByLayer
 62
    1
370
   -1
100
AcDbLine
 10
39.933
 20
7.5
 11
39.933
 21
-16.5
  0
ARC
  5
F1
100
AcDbEntity
  8
12
  6
ByLayer
 62
    1
370
   -1
100
AcDbCircle
 10
39.858
 20
-16.5
 40
0.075
100
AcDbArc
 50
-90
 51
0
  0
LINE
  5
F2
100
AcDbEntity
  8
12
  6
ByLayer
 62
    1
370
   -1
100
AcDbLine
 10
39.858
 20
-16.575
 11
29.858
 21
-16.575
  0
ARC
  5
F3
100
AcDbEntity
  8
12
  6
ByLayer
 62
    1
370
   -1
100
AcDbCircle
 10
29.858
 20
-16.5
 40
0.075
100
AcDbArc
 50
180
 51
-90
  0
LINE
  5
F4
100
AcDbEntity
  8
12
  6
ByLayer
 62
    1
370
   -1
100
AcDbLine
 10
29.783
 20
-16.5
 11
29.783
 21
-1.575
  0
LINE
  5
F5
100
AcDbEntity
  8
12
  6
ByLayer
 62
    1
370
   -1
100
AcDbLine
 10
29.783
 20
-1.575
 11
0.375
 21
-1.575
  0
LINE
  5
F6
100
AcDbEntity
  8
12
  6
ByLayer
 62
    1
370
   -1
100
AcDbLine
 10
0.375
 20
-1.575
 11
0.375
 21
-16.5
  0
ARC
  5
F7
100
AcDbEntity
  8
12
  6
ByLayer
 62
    1
370
   -1
100
AcDbCircle
 10
0.3
 20
-16.5
 40
0.075
100
AcDbArc
 50
-90
 51
0
  0
LINE
  5
F8
100
AcDbEntity
  8
12
  6
ByLayer
 62
    1
370
   -1
100
AcDbLine
 10
0.3
 20
-16.575
 11
-9.699999999999999
 21
-16.575
  0
ARC
  5
F9
100
AcDbEntity
  8
12
  6
ByLayer
 62
    1
370
   -1
100
AcDbCircle
 10
-9.699999999999999
 20
-16.5
 40
0.075
100
AcDbArc
 50
180
 51
-90
  0
LINE
  5
FA
100
AcDbEntity
  8
12
  6
ByLayer
 62
    1
370
   -1
100
AcDbLine
 10
-9.775
 20
-16.5
 11
-9.775
 21
-1.575
  0
LINE
  5
FB
100
AcDbEntity
  8
12
  6
ByLayer
 62
    1
370
   -1
100
AcDbLine
 10
-9.775
 20
-1.575
 11
-88.742
 21
-1.575
  0
LINE
  5
FC
100
AcDbEntity
  8
12
  6
ByLayer
 62
    1
370
   -1
100
AcDbLine
 10
-88.742
 20
-1.575
 11
-88.742
 21
-16.5
  0
ARC
  5
FD
100
AcDbEntity
  8
8
  6
ByLayer
 62
    1
370
   -1
100
AcDbCircle
 10
177.8300608235
 20
-197.1336260055
 40
1.425
100
AcDbArc
 50
130.207609
 51
-49.792391
  0
ARC
  5
FE
100
AcDbEntity
  8
8
  6
ByLayer
 62
    1
370
   -1
100
AcDbCircle
 10
177.8300608235
 20
-197.1336260055
 40
1.425
100
AcDbArc
 50
-49.792391
 51
130.207609
  0
LINE
  5
FF
100
AcDbEntity
  8
8
  6
ByLayer
 62
    1
370
   -1
100
AcDbLine
 10
115.7550608235
 20
-193.0586260055
 11
173.7550608235
 21
-193.0586260055
  0
LINE
  5
100
100
AcDbEntity
  8
8
  6
ByLayer
 62
    1
370
   -1
100
AcDbLine
 10
173.7550608235
 20
-193.0586260055
 11
173.7550608235
 21
-173.0086260055
  0
LINE
  5
101
100
AcDbEntity
  8
8
  6
ByLayer
 62
    1
370
   -1
100
AcDbLine
 10
173.7550608235
 20
-173.0086260055
 11
154.7800608235
 21
-173.0086260055
  0
ARC
  5
102
100
AcDbEntity
  8
8
  6
ByLayer
 62
    1
370
   -1
100
AcDbCircle
 10
154.7800608235
 20
-172.9336260055
 40
0.075
100
AcDbArc
 50
180
 51
-90
  0
LINE
  5
103
100
AcDbEntity
  8
8
  6
ByLayer
 62
    1
370
   -1
100
AcDbLine
 10
154.7050608235
 20
-172.9336260055
 11
154.7050608235
 21
-153.9586260055
  0
LINE
  5
104
100
AcDbEntity
  8
8
  6
ByLayer
 62
    1
370
   -1
100
AcDbLine
 10
154.7050608235
 20
-153.9586260055
 11
134.6550608235
 21
-153.9586260055
  0
LINE
  5
105
100
AcDbEntity
  8
8
  6
ByLayer
 62
    1
370
   -1
100
AcDbLine
 10
134.6550608235
 20
-153.9586260055
 11
134.6550608235
 21
-172.9336260055
  0
ARC
  5
106
100
AcDbEntity
  8
8
  6
ByLayer
 62
    1
370
   -1
100
AcDbCircle
 10
134.5800608235
 20
-172.9336260055
 40
0.075
100
AcDbArc
 50
-90
 51
0
  0
LINE
  5
107
100
AcDbEntity
  8
8
  6
ByLayer
 62
    1
370
   -1
100
AcDbLine
 10
134.5800608235
 20
-173.0086260055
 11
115.6050608235
 21
-173.0086260055
  0
LINE
  5
108
100
AcDbEntity
  8
8
  6
ByLayer
 62
    1
370
   -1
100
AcDbLine
 10
115.6050608235
 20
-173.0086260055
 11
115.6050608235
 21
-193.0586260055
  0
LINE
  5
109
100
AcDbEntity
  8
8
  6
ByLayer
 62
    1
370
   -1
100
AcDbLine
 10
115.6050608235
 20
-193.0586260055
 11
115.7550608235
 21
-193.0586260055
  0
LINE
  5
10A
100
AcDbEntity
  8
8
  6
ByLayer
 62
    1
370
   -1
100
AcDbLine
 10
111.3750608235
 20
-193.0586260055
 11
111.5250608235
 21
-193.0586260055
  0
LINE
  5
10B
100
AcDbEntity
  8
8
  6
ByLayer
 62
    1
370
   -1
100
AcDbLine
 10
111.5250608235
 20
-193.0586260055
 11
111.5250608235
 21
-96.8086260055
  0
LINE
  5
10C
100
AcDbEntity
  8
8
  6
ByLayer
 62
    1
370
   -1
100
AcDbLine
 10
111.5250608235
 20
-96.8086260055
 11
-175.2249391765
 21
-96.8086260055
  0
LINE
  5
10D
100
AcDbEntity
  8
8
  6
ByLayer
 62
    1
370
   -1
100
AcDbLine
 10
-175.2249391765
 20
-96.8086260055
 11
-175.2249391765
 21
-193.0586260055
  0
LINE
  5
10E
100
AcDbEntity
  8
8
  6
ByLayer
 62
    1
370
   -1
100
AcDbLine
 10
-175.2249391765
 20
-193.0586260055
 11
111.3750608235
 21
-193.0586260055
  0
ARC
  5
10F
100
AcDbEntity
  8
8
  6
ByLayer
 62
    1
370
   -1
100
AcDbCircle
 10
-0.7349391765000064
 20
-197.1336260055
 40
1.425
100
AcDbArc
 50
90.000011
 51
-89.999989
  0
ARC
  5
110
100
AcDbEntity
  8
8
  6
ByLayer
 62
    1
370
   -1
100
AcDbCircle
 10
-0.7349391765000064
 20
-197.1336260055
 40
1.425
100
AcDbArc
 50
-89.999989
 51
90.000011
  0
ARC
  5
111
100
AcDbEntity
  8
8
  6
ByLayer
 62
    1
370
   -1
100
AcDbCircle
 10
-179.2999391765
 20
-197.1336260055
 40
1.425
100
AcDbArc
 50
40.207609
 51
-139.792391
  0
ARC
  5
112
100
AcDbEntity
  8
8
  6
ByLayer
 62
    1
370
   -1
100
AcDbCircle
 10
-179.2999391765
 20
-197.1336260055
 40
1.425
100
AcDbArc
 50
-139.792391
 51
40.207609
  0
ARC
  5
113
100
AcDbEntity
  8
8
  6
ByLayer
 62
    1
370
   -1
100
AcDbCircle
 10
-179.2999391765
 20
-137.9336260055
 40
1.425
100
AcDbArc
 50
80.41513999999999
 51
-99.58486000000001
  0
ARC
  5
114
100
AcDbEntity
  8
8
  6
ByLayer
 62
    1
370
   -1
100
AcDbCircle
 10
-179.2999391765
 20
-137.9336260055
 40
1.425
100
AcDbArc
 50
-99.58486000000001
 51
80.41513999999999
  0
ARC
  5
115
100
AcDbEntity
  8
8
  6
ByLayer
 62
    1
370
   -1
100
AcDbCircle
 10
-179.2999391765
 20
-78.7336260055
 40
1.425
100
AcDbArc
 50
-49.792391
 51
130.207609
  0
ARC
  5
116
100
AcDbEntity
  8
8
  6
ByLayer
 62
    1
370
   -1
100
AcDbCircle
 10
-179.2999391765
 20
-78.7336260055
 40
1.425
100
AcDbArc
 50
130.207609
 51
-49.792391
  0
ARC
  5
117
100
AcDbEntity
  8
8
  6
ByLayer
 62
    1
370
   -1
100
AcDbCircle
 10
-101.6699391765
 20
-78.7336260055
 40
1.425
100
AcDbArc
 50
-99.584844
 51
80.415156
  0
ARC
  5
118
100
AcDbEntity
  8
8
  6
ByLayer
 62
    1
370
   -1
100
AcDbCircle
 10
-101.6699391765
 20
-78.7336260055
 40
1.425
100
AcDbArc
 50
80.415156
 51
-99.584844
  0
LINE
  5
119
100
AcDbEntity
  8
8
  6
ByLayer
 62
    1
370
   -1
100
AcDbLine
 10
-19.76293917650001
 20
-88.8086260055
 11
-89.84593917650001
 21
-88.8086260055
  0
LINE
  5
11A
100
AcDbEntity
  8
8
  6
ByLayer
 62
    1
370
   -1
100
AcDbLine
 10
-89.84593917650001
 20
-88.8086260055
 11
-89.84593917650001
 21
-91.6586260055
  0
LINE
  5
11B
100
AcDbEntity
  8
8
  6
ByLayer
 62
    1
370
   -1
100
AcDbLine
 10
-89.84593917650001
 20
-91.6586260055
 11
78.23706082349999
 21
-91.6586260055
  0
LINE
  5
11C
100
AcDbEntity
  8
8
  6
ByLayer
 62
    1
370
   -1
100
AcDbLine
 10
78.23706082349999
 20
-91.6586260055
 11
78.23706082349999
 21
-88.8086260055
  0
LINE
  5
11D
100
AcDbEntity
  8
8
  6
ByLayer
 62
    1
370
   -1
100
AcDbLine
 10
78.23706082349999
 20
-88.8086260055
 11
-19.76293917650001
 21
-88.8086260055
  0
ARC
  5
11E
100
AcDbEntity
  8
8
  6
ByLayer
 62
    1
370
   -1
100
AcDbCircle
 10
75.83006082349999
 20
-78.7336260055
 40
1.425
100
AcDbArc
 50
-90
 51
90
  0
ARC
  5
11F
100
AcDbEntity
  8
8
  6
ByLayer
 62
    1
370
   -1
100
AcDbCircle
 10
75.83006082349999
 20
-78.7336260055
 40
1.425
100
AcDbArc
 50
90
 51
-90
  0
ARC
  5
120
100
AcDbEntity
  8
8
  6
ByLayer
 62
    1
370
   -1
100
AcDbCircle
 10
117.8300608235
 20
-78.7336260055
 40
1.425
100
AcDbArc
 50
-139.792391
 51
40.207609
  0
ARC
  5
121
100
AcDbEntity
  8
8
  6
ByLayer
 62
    1
370
   -1
100
AcDbCircle
 10
117.8300608235
 20
-78.7336260055
 40
1.425
100
AcDbArc
 50
40.207609
 51
-139.792391
  0
LINE
  5
122
100
AcDbEntity
  8
8
  6
ByLayer
 62
    1
370
   -1
100
AcDbLine
 10
134.7550608235
 20
-96.8086260055
 11
115.6050608235
 21
-96.8086260055
  0
LINE
  5
123
100
AcDbEntity
  8
8
  6
ByLayer
 62
    1
370
   -1
100
AcDbLine
 10
115.6050608235
 20
-96.8086260055
 11
115.6050608235
 21
-135.9086260055
  0
LINE
  5
124
100
AcDbEntity
  8
8
  6
ByLayer
 62
    1
370
   -1
100
AcDbLine
 10
115.6050608235
 20
-135.9086260055
 11
173.7550608235
 21
-135.9086260055
  0
LINE
  5
125
100
AcDbEntity
  8
8
  6
ByLayer
 62
    1
370
   -1
100
AcDbLine
 10
173.7550608235
 20
-135.9086260055
 11
173.7550608235
 21
-96.8086260055
  0
LINE
  5
126
100
AcDbEntity
  8
8
  6
ByLayer
 62
    1
370
   -1
100
AcDbLine
 10
173.7550608235
 20
-96.8086260055
 11
134.7550608235
 21
-96.8086260055
  0
ARC
  5
127
100
AcDbEntity
  8
8
  6
ByLayer
 62
    1
370
   -1
100
AcDbCircle
 10
177.8300608235
 20
-137.9336260055
 40
1.425
100
AcDbArc
 50
130.207595
 51
-49.792405
  0
ARC
  5
128
100
AcDbEntity
  8
8
  6
ByLayer
 62
    1
370
   -1
100
AcDbCircle
 10
177.8300608235
 20
-137.9336260055
 40
1.425
100
AcDbArc
 50
-49.792405
 51
130.207595
  0
ARC
  5
129
100
AcDbEntity
  8
8
  6
ByLayer
 62
    1
370
   -1
100
AcDbCircle
 10
177.8300608235
 20
-78.7336260055
 40
1.425
100
AcDbArc
 50
-90.906817
 51
89.093183
  0
ARC
  5
12A
100
AcDbEntity
  8
8
  6
ByLayer
 62
    1
370
   -1
100
AcDbCircle
 10
177.8300608235
 20
-78.7336260055
 40
1.425
100
AcDbArc
 50
89.093183
 51
-90.906817
  0
LINE
  5
12B
100
AcDbEntity
  8
8
  6
ByLayer
 62
    1
370
   -1
100
AcDbLine
 10
181.9050608235
 20
-80.1586260055
 11
181.9050608235
 21
-162.8846260055
  0
ARC
  5
12C
100
AcDbEntity
  8
8
  6
ByLayer
 62
    1
370
   -1
100
AcDbCircle
 10
181.8300608235
 20
-162.8846260055
 40
0.075
100
AcDbArc
 50
-90
 51
0
  0
LINE
  5
12D
100
AcDbEntity
  8
8
  6
ByLayer
 62
    1
370
   -1
100
AcDbLine
 10
181.8300608235
 20
-162.9586260055
 11
161.9050608235
 21
-162.9586260055
  0
LINE
  5
12E
100
AcDbEntity
  8
8
  6
ByLayer
 62
    1
370
   -1
100
AcDbLine
 10
161.9050608235
 20
-162.9586260055
 11
161.9050608235
 21
-165.8086260055
  0
LINE
  5
12F
100
AcDbEntity
  8
8
  6
ByLayer
 62
    1
370
   -1
100
AcDbLine
 10
161.9050608235
 20
-165.8086260055
 11
181.8300608235
 21
-165.8086260055
  0
ARC
  5
130
100
AcDbEntity
  8
8
  6
ByLayer
 62
    1
370
   -1
100
AcDbCircle
 10
181.8300608235
 20
-165.8846260055
 40
0.075
100
AcDbArc
 50
0
 51
90
  0
LINE
  5
131
100
AcDbEntity
  8
8
  6
ByLayer
 62
    1
370
   -1
100
AcDbLine
 10
181.9050608235
 20
-165.8846260055
 11
181.9050608235
 21
-201.1336260055
  0
ARC
  5
132
100
AcDbEntity
  8
8
  6
ByLayer
 62
    1
370
   -1
100
AcDbCircle
 10
181.8300608235
 20
-201.1336260055
 40
0.075
100
AcDbArc
 50
-90
 51
0
  0
LINE
  5
133
100
AcDbEntity
  8
8
  6
ByLayer
 62
    1
370
   -1
100
AcDbLine
 10
181.8300608235
 20
-201.2086260055
 11
-183.2999391765
 21
-201.2086260055
  0
ARC
  5
134
100
AcDbEntity
  8
8
  6
ByLayer
 62
    1
370
   -1
100
AcDbCircle
 10
-183.2999391765
 20
-201.1336260055
 40
0.075
100
AcDbArc
 50
180
 51
-90
  0
LINE
  5
135
100
AcDbEntity
  8
8
  6
ByLayer
 62
    1
370
   -1
100
AcDbLine
 10
-183.3749391765
 20
-201.1336260055
 11
-183.3749391765
 21
-73.7336260055
  0
ARC
  5
136
100
AcDbEntity
  8
8
  6
ByLayer
 62
    1
370
   -1
100
AcDbCircle
 10
-183.2999391765
 20
-73.7336260055
 40
0.075
100
AcDbArc
 50
90
 51
180
  0
LINE
  5
137
100
AcDbEntity
  8
8
  6
ByLayer
 62
    1
370
   -1
100
AcDbLine
 10
-183.2999391765
 20
-73.6586260055
 11
-175.2999391765
 21
-73.6586260055
  0
ARC
  5
138
100
AcDbEntity
  8
8
  6
ByLayer
 62
    1
370
   -1
100
AcDbCircle
 10
-175.2999391765
 20
-73.7336260055
 40
0.075
100
AcDbArc
 50
0
 51
90
  0
LINE
  5
139
100
AcDbEntity
  8
8
  6
ByLayer
 62
    1
370
   -1
100
AcDbLine
 10
-175.2249391765
 20
-73.7336260055
 11
-175.2249391765
 21
-83.6586260055
  0
LINE
  5
13A
100
AcDbEntity
  8
8
  6
ByLayer
 62
    1
370
   -1
100
AcDbLine
 10
-175.2249391765
 20
-83.6586260055
 11
-172.3749391765
 21
-83.6586260055
  0
LINE
  5
13B
100
AcDbEntity
  8
8
  6
ByLayer
 62
    1
370
   -1
100
AcDbLine
 10
-172.3749391765
 20
-83.6586260055
 11
-172.3749391765
 21
-73.7336260055
  0
ARC
  5
13C
100
AcDbEntity
  8
8
  6
ByLayer
 62
    1
370
   -1
100
AcDbCircle
 10
-172.2999391765
 20
-73.7336260055
 40
0.075
100
AcDbArc
 50
90
 51
180
  0
LINE
  5
13D
100
AcDbEntity
  8
8
  6
ByLayer
 62
    1
370
   -1
100
AcDbLine
 10
-172.2999391765
 20
-73.6586260055
 11
-169.2999391765
 21
-73.6586260055
  0
ARC
  5
13E
100
AcDbEntity
  8
8
  6
ByLayer
 62
    1
370
   -1
100
AcDbCircle
 10
-169.2999391765
 20
-73.7336260055
 40
0.075
100
AcDbArc
 50
0
 51
90
  0
LINE
  5
13F
100
AcDbEntity
  8
8
  6
ByLayer
 62
    1
370
   -1
100
AcDbLine
 10
-169.2249391765
 20
-73.7336260055
 11
-169.2249391765
 21
-83.6586260055
  0
LINE
  5
140
100
AcDbEntity
  8
8
  6
ByLayer
 62
    1
370
   -1
100
AcDbLine
 10
-169.2249391765
 20
-83.6586260055
 11
-166.3749391765
 21
-83.6586260055
  0
LINE
  5
141
100
AcDbEntity
  8
8
  6
ByLayer
 62
    1
370
   -1
100
AcDbLine
 10
-166.3749391765
 20
-83.6586260055
 11
-166.3749391765
 21
-73.7336260055
  0
ARC
  5
142
100
AcDbEntity
  8
8
  6
ByLayer
 62
    1
370
   -1
100
AcDbCircle
 10
-166.2999391765
 20
-73.7336260055
 40
0.075
100
AcDbArc
 50
90
 51
180
  0
LINE
  5
143
100
AcDbEntity
  8
8
  6
ByLayer
 62
    1
370
   -1
100
AcDbLine
 10
-166.2999391765
 20
-73.6586260055
 11
-163.2999391765
 21
-73.6586260055
  0
ARC
  5
144
100
AcDbEntity
  8
8
  6
ByLayer
 62
    1
370
   -1
100
AcDbCircle
 10
-163.2999391765
 20
-73.7336260055
 40
0.075
100
AcDbArc
 50
0
 51
90
  0
LINE
  5
145
100
AcDbEntity
  8
8
  6
ByLayer
 62
    1
370
   -1
100
AcDbLine
 10
-163.2249391765
 20
-73.7336260055
 11
-163.2249391765
 21
-83.6586260055
  0
LINE
  5
146
100
AcDbEntity
  8
8
  6
ByLayer
 62
    1
370
   -1
100
AcDbLine
 10
-163.2249391765
 20
-83.6586260055
 11
-160.3749391765
 21
-83.6586260055
  0
LINE
  5
147
100
AcDbEntity
  8
8
  6
ByLayer
 62
    1
370
   -1
100
AcDbLine
 10
-160.3749391765
 20
-83.6586260055
 11
-160.3749391765
 21
-73.7336260055
  0
ARC
  5
148
100
AcDbEntity
  8
8
  6
ByLayer
 62
    1
370
   -1
100
AcDbCircle
 10
-160.2999391765
 20
-73.7336260055
 40
0.075
100
AcDbArc
 50
90
 51
180
  0
LINE
  5
149
100
AcDbEntity
  8
8
  6
ByLayer
 62
    1
370
   -1
100
AcDbLine
 10
-160.2999391765
 20
-73.6586260055
 11
-157.2999391765
 21
-73.6586260055
  0
ARC
  5
14A
100
AcDbEntity
  8
8
  6
ByLayer
 62
    1
370
   -1
100
AcDbCircle
 10
-157.2999391765
 20
-73.7336260055
 40
0.075
100
AcDbArc
 50
0
 51
90
  0
LINE
  5
14B
100
AcDbEntity
  8
8
  6
ByLayer
 62
    1
370
   -1
100
AcDbLine
 10
-157.2249391765
 20
-73.7336260055
 11
-157.2249391765
 21
-83.6586260055
  0
LINE
  5
14C
100
AcDbEntity
  8
8
  6
ByLayer
 62
    1
370
   -1
100
AcDbLine
 10
-157.2249391765
 20
-83.6586260055
 11
-154.3749391765
 21
-83.6586260055
  0
LINE
  5
14D
100
AcDbEntity
  8
8
  6
ByLayer
 62
    1
370
   -1
100
AcDbLine
 10
-154.3749391765
 20
-83.6586260055
 11
-154.3749391765
 21
-73.7336260055
  0
ARC
  5
14E
100
AcDbEntity
  8
8
  6
ByLayer
 62
    1
370
   -1
100
AcDbCircle
 10
-154.2999391765
 20
-73.7336260055
 40
0.075
100
AcDbArc
 50
90
 51
180
  0
LINE
  5
14F
100
AcDbEntity
  8
8
  6
ByLayer
 62
    1
370
   -1
100
AcDbLine
 10
-154.2999391765
 20
-73.6586260055
 11
-151.2999391765
 21
-73.6586260055
  0
ARC
  5
150
100
AcDbEntity
  8
8
  6
ByLayer
 62
    1
370
   -1
100
AcDbCircle
 10
-151.2999391765
 20
-73.7336260055
 40
0.075
100
AcDbArc
 50
0
 51
90
  0
LINE
  5
151
100
AcDbEntity
  8
8
  6
ByLayer
 62
    1
370
   -1
100
AcDbLine
 10
-151.2249391765
 20
-73.7336260055
 11
-151.2249391765
 21
-83.6586260055
  0
LINE
  5
152
100
AcDbEntity
  8
8
  6
ByLayer
 62
    1
370
   -1
100
AcDbLine
 10
-151.2249391765
 20
-83.6586260055
 11
-148.3749391765
 21
-83.6586260055
  0
LINE
  5
153
100
AcDbEntity
  8
8
  6
ByLayer
 62
    1
370
   -1
100
AcDbLine
 10
-148.3749391765
 20
-83.6586260055
 11
-148.3749391765
 21
-73.7336260055
  0
ARC
  5
154
100
AcDbEntity
  8
8
  6
ByLayer
 62
    1
370
   -1
100
AcDbCircle
 10
-148.2999391765
 20
-73.7336260055
 40
0.075
100
AcDbArc
 50
90
 51
180
  0
LINE
  5
155
100
AcDbEntity
  8
8
  6
ByLayer
 62
    1
370
   -1
100
AcDbLine
 10
-148.2999391765
 20
-73.6586260055
 11
-145.2999391765
 21
-73.6586260055
  0
ARC
  5
156
100
AcDbEntity
  8
8
  6
ByLayer
 62
    1
370
   -1
100
AcDbCircle
 10
-145.2999391765
 20
-73.7336260055
 40
0.075
100
AcDbArc
 50
0
 51
90
  0
LINE
  5
157
100
AcDbEntity
  8
8
  6
ByLayer
 62
    1
370
   -1
100
AcDbLine
 10
-145.2249391765
 20
-73.7336260055
 11
-145.2249391765
 21
-83.6586260055
  0
LINE
  5
158
100
AcDbEntity
  8
8
  6
ByLayer
 62
    1
370
   -1
100
AcDbLine
 10
-145.2249391765
 20
-83.6586260055
 11
-142.3749391765
 21
-83.6586260055
  0
LINE
  5
159
100
AcDbEntity
  8
8
  6
ByLayer
 62
    1
370
   -1
100
AcDbLine
 10
-142.3749391765
 20
-83.6586260055
 11
-142.3749391765
 21
-73.7336260055
  0
ARC
  5
15A
100
AcDbEntity
  8
8
  6
ByLayer
 62
    1
370
   -1
100
AcDbCircle
 10
-142.2999391765
 20
-73.7336260055
 40
0.075
100
AcDbArc
 50
90
 51
180
  0
LINE
  5
15B
100
AcDbEntity
  8
8
  6
ByLayer
 62
    1
370
   -1
100
AcDbLine
 10
-142.2999391765
 20
-73.6586260055
 11
-139.2999391765
 21
-73.6586260055
  0
ARC
  5
15C
100
AcDbEntity
  8
8
  6
ByLayer
 62
    1
370
   -1
100
AcDbCircle
 10
-139.2999391765
 20
-73.7336260055
 40
0.075
100
AcDbArc
 50
0
 51
90
  0
LINE
  5
15D
100
AcDbEntity
  8
8
  6
ByLayer
 62
    1
370
   -1
100
AcDbLine
 10
-139.2249391765
 20
-73.7336260055
 11
-139.2249391765
 21
-83.6586260055
  0
LINE
  5
15E
100
AcDbEntity
  8
8
  6
ByLayer
 62
    1
370
   -1
100
AcDbLine
 10
-139.2249391765
 20
-83.6586260055
 11
-136.3749391765
 21
-83.6586260055
  0
LINE
  5
15F
100
AcDbEntity
  8
8
  6
ByLayer
 62
    1
370
   -1
100
AcDbLine
 10
-136.3749391765
 20
-83.6586260055
 11
-136.3749391765
 21
-73.7336260055
  0
ARC
  5
160
100
AcDbEntity
  8
8
  6
ByLayer
 62
    1
370
   -1
100
AcDbCircle
 10
-136.2999391765
 20
-73.7336260055
 40
0.075
100
AcDbArc
 50
90
 51
180
  0
LINE
  5
161
100
AcDbEntity
  8
8
  6
ByLayer
 62
    1
370
   -1
100
AcDbLine
 10
-136.2999391765
 20
-73.6586260055
 11
-133.2999391765
 21
-73.6586260055
  0
ARC
  5
162
100
AcDbEntity
  8
8
  6
ByLayer
 62
    1
370
   -1
100
AcDbCircle
 10
-133.2999391765
 20
-73.7336260055
 40
0.075
100
AcDbArc
 50
0
 51
90
  0
LINE
  5
163
100
AcDbEntity
  8
8
  6
ByLayer
 62
    1
370
   -1
100
AcDbLine
 10
-133.2249391765
 20
-73.7336260055
 11
-133.2249391765
 21
-83.6586260055
  0
LINE
  5
164
100
AcDbEntity
  8
8
  6
ByLayer
 62
    1
370
   -1
100
AcDbLine
 10
-133.2249391765
 20
-83.6586260055
 11
-130.3749391765
 21
-83.6586260055
  0
LINE
  5
165
100
AcDbEntity
  8
8
  6
ByLayer
 62
    1
370
   -1
100
AcDbLine
 10
-130.3749391765
 20
-83.6586260055
 11
-130.3749391765
 21
-73.7336260055
  0
ARC
  5
166
100
AcDbEntity
  8
8
  6
ByLayer
 62
    1
370
   -1
100
AcDbCircle
 10
-130.2999391765
 20
-73.7336260055
 40
0.075
100
AcDbArc
 50
90
 51
180
  0
LINE
  5
167
100
AcDbEntity
  8
8
  6
ByLayer
 62
    1
370
   -1
100
AcDbLine
 10
-130.2999391765
 20
-73.6586260055
 11
-127.2999391765
 21
-73.6586260055
  0
ARC
  5
168
100
AcDbEntity
  8
8
  6
ByLayer
 62
    1
370
   -1
100
AcDbCircle
 10
-127.2999391765
 20
-73.7336260055
 40
0.075
100
AcDbArc
 50
0
 51
90
  0
LINE
  5
169
100
AcDbEntity
  8
8
  6
ByLayer
 62
    1
370
   -1
100
AcDbLine
 10
-127.2249391765
 20
-73.7336260055
 11
-127.2249391765
 21
-83.6586260055
  0
LINE
  5
16A
100
AcDbEntity
  8
8
  6
ByLayer
 62
    1
370
   -1
100
AcDbLine
 10
-127.2249391765
 20
-83.6586260055
 11
-124.3749391765
 21
-83.6586260055
  0
LINE
  5
16B
100
AcDbEntity
  8
8
  6
ByLayer
 62
    1
370
   -1
100
AcDbLine
 10
-124.3749391765
 20
-83.6586260055
 11
-124.3749391765
 21
-73.7336260055
  0
ARC
  5
16C
100
AcDbEntity
  8
8
  6
ByLayer
 62
    1
370
   -1
100
AcDbCircle
 10
-124.2999391765
 20
-73.7336260055
 40
0.075
100
AcDbArc
 50
90
 51
180
  0
LINE
  5
16D
100
AcDbEntity
  8
8
  6
ByLayer
 62
    1
370
   -1
100
AcDbLine
 10
-124.2999391765
 20
-73.6586260055
 11
-121.2999391765
 21
-73.6586260055
  0
ARC
  5
16E
100
AcDbEntity
  8
8
  6
ByLayer
 62
    1
370
   -1
100
AcDbCircle
 10
-121.2999391765
 20
-73.7336260055
 40
0.075
100
AcDbArc
 50
0
 51
90
  0
LINE
  5
16F
100
AcDbEntity
  8
8
  6
ByLayer
 62
    1
370
   -1
100
AcDbLine
 10
-121.2249391765
 20
-73.7336260055
 11
-121.2249391765
 21
-83.6586260055
  0
LINE
  5
170
100
AcDbEntity
  8
8
  6
ByLayer
 62
    1
370
   -1
100
AcDbLine
 10
-121.2249391765
 20
-83.6586260055
 11
-118.3749391765
 21
-83.6586260055
  0
LINE
  5
171
100
AcDbEntity
  8
8
  6
ByLayer
 62
    1
370
   -1
100
AcDbLine
 10
-118.3749391765
 20
-83.6586260055
 11
-118.3749391765
 21
-73.7336260055
  0
ARC
  5
172
100
AcDbEntity
  8
8
  6
ByLayer
 62
    1
370
   -1
100
AcDbCircle
 10
-118.2999391765
 20
-73.7336260055
 40
0.075
100
AcDbArc
 50
90
 51
180
  0
LINE
  5
173
100
AcDbEntity
  8
8
  6
ByLayer
 62
    1
370
   -1
100
AcDbLine
 10
-118.2999391765
 20
-73.6586260055
 11
-115.2999391765
 21
-73.6586260055
  0
ARC
  5
174
100
AcDbEntity
  8
8
  6
ByLayer
 62
    1
370
   -1
100
AcDbCircle
 10
-115.2999391765
 20
-73.7336260055
 40
0.075
100
AcDbArc
 50
0
 51
90
  0
LINE
  5
175
100
AcDbEntity
  8
8
  6
ByLayer
 62
    1
370
   -1
100
AcDbLine
 10
-115.2249391765
 20
-73.7336260055
 11
-115.2249391765
 21
-83.6586260055
  0
LINE
  5
176
100
AcDbEntity
  8
8
  6
ByLayer
 62
    1
370
   -1
100
AcDbLine
 10
-115.2249391765
 20
-83.6586260055
 11
-112.3749391765
 21
-83.6586260055
  0
LINE
  5
177
100
AcDbEntity
  8
8
  6
ByLayer
 62
    1
370
   -1
100
AcDbLine
 10
-112.3749391765
 20
-83.6586260055
 11
-112.3749391765
 21
-73.7336260055
  0
ARC
  5
178
100
AcDbEntity
  8
8
  6
ByLayer
 62
    1
370
   -1
100
AcDbCircle
 10
-112.2999391765
 20
-73.7336260055
 40
0.075
100
AcDbArc
 50
90
 51
180
  0
LINE
  5
179
100
AcDbEntity
  8
8
  6
ByLayer
 62
    1
370
   -1
100
AcDbLine
 10
-112.2999391765
 20
-73.6586260055
 11
-109.2999391765
 21
-73.6586260055
  0
ARC
  5
17A
100
AcDbEntity
  8
8
  6
ByLayer
 62
    1
370
   -1
100
AcDbCircle
 10
-109.2999391765
 20
-73.7336260055
 40
0.075
100
AcDbArc
 50
0
 51
90
  0
LINE
  5
17B
100
AcDbEntity
  8
8
  6
ByLayer
 62
    1
370
   -1
100
AcDbLine
 10
-109.2249391765
 20
-73.7336260055
 11
-109.2249391765
 21
-83.6586260055
  0
LINE
  5
17C
100
AcDbEntity
  8
8
  6
ByLayer
 62
    1
370
   -1
100
AcDbLine
 10
-109.2249391765
 20
-83.6586260055
 11
-106.3749391765
 21
-83.6586260055
  0
LINE
  5
17D
100
AcDbEntity
  8
8
  6
ByLayer
 62
    1
370
   -1
100
AcDbLine
 10
-106.3749391765
 20
-83.6586260055
 11
-106.3749391765
 21
-73.7336260055
  0
ARC
  5
17E
100
AcDbEntity
  8
8
  6
ByLayer
 62
    1
370
   -1
100
AcDbCircle
 10
-106.2999391765
 20
-73.7336260055
 40
0.075
100
AcDbArc
 50
90
 51
180
  0
LINE
  5
17F
100
AcDbEntity
  8
8
  6
ByLayer
 62
    1
370
   -1
100
AcDbLine
 10
-106.2999391765
 20
-73.6586260055
 11
138.2680608235
 21
-73.6586260055
  0
ARC
  5
180
100
AcDbEntity
  8
8
  6
ByLayer
 62
    1
370
   -1
100
AcDbCircle
 10
138.2680608235
 20
-73.7336260055
 40
0.075
100
AcDbArc
 50
-45.004122
 51
90
  0
LINE
  5
181
100
AcDbEntity
  8
8
  6
ByLayer
 62
    1
370
   -1
100
AcDbLine
 10
138.3210608235
 20
-73.78662600550001
 11
122.1110608235
 21
-89.9976260055
  0
LINE
  5
182
100
AcDbEntity
  8
8
  6
ByLayer
 62
    1
370
   -1
100
AcDbLine
 10
122.1110608235
 20
-89.9976260055
 11
124.1260608235
 21
-92.01262600550001
  0
LINE
  5
183
100
AcDbEntity
  8
8
  6
ByLayer
 62
    1
370
   -1
100
AcDbLine
 10
124.1260608235
 20
-92.01262600550001
 11
142.4580608235
 21
-73.6806260055
  0
ARC
  5
184
100
AcDbEntity
  8
8
  6
ByLayer
 62
    1
370
   -1
100
AcDbCircle
 10
142.5110608235
 20
-73.7336260055
 40
0.075
100
AcDbArc
 50
90
 51
135.004121
  0
LINE
  5
185
100
AcDbEntity
  8
8
  6
ByLayer
 62
    1
370
   -1
100
AcDbLine
 10
142.5110608235
 20
-73.6586260055
 11
146.7680608235
 21
-73.6586260055
  0
ARC
  5
186
100
AcDbEntity
  8
8
  6
ByLayer
 62
    1
370
   -1
100
AcDbCircle
 10
146.7680608235
 20
-73.7336260055
 40
0.075
100
AcDbArc
 50
-45.004122
 51
90
  0
LINE
  5
187
100
AcDbEntity
  8
8
  6
ByLayer
 62
    1
370
   -1
100
AcDbLine
 10
146.8210608235
 20
-73.78662600550001
 11
130.6110608235
 21
-89.9976260055
  0
LINE
  5
188
100
AcDbEntity
  8
8
  6
ByLayer
 62
    1
370
   -1
100
AcDbLine
 10
130.6110608235
 20
-89.9976260055
 11
132.6260608235
 21
-92.01262600550001
  0
LINE
  5
189
100
AcDbEntity
  8
8
  6
ByLayer
 62
    1
370
   -1
100
AcDbLine
 10
132.6260608235
 20
-92.01262600550001
 11
150.9580608235
 21
-73.6806260055
  0
ARC
  5
18A
100
AcDbEntity
  8
8
  6
ByLayer
 62
    1
370
   -1
100
AcDbCircle
 10
151.0110608235
 20
-73.7336260055
 40
0.075
100
AcDbArc
 50
90
 51
135.004121
  0
LINE
  5
18B
100
AcDbEntity
  8
8
  6
ByLayer
 62
    1
370
   -1
100
AcDbLine
 10
151.0110608235
 20
-73.6586260055
 11
155.2680608235
 21
-73.6586260055
  0
ARC
  5
18C
100
AcDbEntity
  8
8
  6
ByLayer
 62
    1
370
   -1
100
AcDbCircle
 10
155.2680608235
 20
-73.7336260055
 40
0.075
100
AcDbArc
 50
-45.004122
 51
90
  0
LINE
  5
18D
100
AcDbEntity
  8
8
  6
ByLayer
 62
    1
370
   -1
100
AcDbLine
 10
155.3210608235
 20
-73.78662600550001
 11
139.1110608235
 21
-89.9976260055
  0
LINE
  5
18E
100
AcDbEntity
  8
8
  6
ByLayer
 62
    1
370
   -1
100
AcDbLine
 10
139.1110608235
 20
-89.9976260055
 11
141.1260608235
 21
-92.01262600550001
  0
LINE
  5
18F
100
AcDbEntity
  8
8
  6
ByLayer
 62
    1
370
   -1
100
AcDbLine
 10
141.1260608235
 20
-92.01262600550001
 11
159.4580608235
 21
-73.6806260055
  0
ARC
  5
190
100
AcDbEntity
  8
8
  6
ByLayer
 62
    1
370
   -1
100
AcDbCircle
 10
159.5110608235
 20
-73.7336260055
 40
0.075
100
AcDbArc
 50
90
 51
135.004121
  0
LINE
  5
191
100
AcDbEntity
  8
8
  6
ByLayer
 62
    1
370
   -1
100
AcDbLine
 10
159.5110608235
 20
-73.6586260055
 11
163.7680608235
 21
-73.6586260055
  0
ARC
  5
192
100
AcDbEntity
  8
8
  6
ByLayer
 62
    1
370
   -1
100
AcDbCircle
 10
163.7680608235
 20
-73.7336260055
 40
0.075
100
AcDbArc
 50
-45.004122
 51
90
  0
LINE
  5
193
100
AcDbEntity
  8
8
  6
ByLayer
 62
    1
370
   -1
100
AcDbLine
 10
163.8210608235
 20
-73.78662600550001
 11
147.6110608235
 21
-89.9976260055
  0
LINE
  5
194
100
AcDbEntity
  8
8
  6
ByLayer
 62
    1
370
   -1
100
AcDbLine
 10
147.6110608235
 20
-89.9976260055
 11
149.6260608235
 21
-92.01262600550001
  0
LINE
  5
195
100
AcDbEntity
  8
8
  6
ByLayer
 62
    1
370
   -1
100
AcDbLine
 10
149.6260608235
 20
-92.01262600550001
 11
167.9580608235
 21
-73.6806260055
  0
ARC
  5
196
100
AcDbEntity
  8
8
  6
ByLayer
 62
    1
370
   -1
100
AcDbCircle
 10
168.0110608235
 20
-73.7336260055
 40
0.075
100
AcDbArc
 50
90
 51
135.004121
  0
LINE
  5
197
100
AcDbEntity
  8
8
  6
ByLayer
 62
    1
370
   -1
100
AcDbLine
 10
168.0110608235
 20
-73.6586260055
 11
181.8300608235
 21
-73.6586260055
  0
ARC
  5
198
100
AcDbEntity
  8
8
  6
ByLayer
 62
    1
370
   -1
100
AcDbCircle
 10
181.8300608235
 20
-73.7336260055
 40
0.075
100
AcDbArc
 50
0
 51
90
  0
LINE
  5
199
100
AcDbEntity
  8
8
  6
ByLayer
 62
    1
370
   -1
100
AcDbLine
 10
181.9050608235
 20
-73.7336260055
 11
181.9050608235
 21
-80.1586260055
  0
LINE
  5
19A
100
AcDbEntity
  8
7
  6
ByLayer
 62
    1
370
   -1
100
AcDbLine
 10
150.6568175295
 20
79.667323766
 11
152.5658175295
 21
77.75832376599999
  0
LINE
  5
19B
100
AcDbEntity
  8
7
  6
ByLayer
 62
    1
370
   -1
100
AcDbLine
 10
152.5658175295
 20
77.75832376599999
 11
155.9948175295
 21
81.188323766
  0
LINE
  5
19C
100
AcDbEntity
  8
7
  6
ByLayer
 62
    1
370
   -1
100
AcDbLine
 10
155.9948175295
 20
81.188323766
 11
153.9798175295
 21
83.203323766
  0
LINE
  5
19D
100
AcDbEntity
  8
7
  6
ByLayer
 62
    1
370
   -1
100
AcDbLine
 10
153.9798175295
 20
83.203323766
 11
150.5508175295
 21
79.77432376599999
  0
LINE
  5
19E
100
AcDbEntity
  8
7
  6
ByLayer
 62
    1
370
   -1
100
AcDbLine
 10
150.5508175295
 20
79.77432376599999
 11
150.6568175295
 21
79.667323766
  0
LINE
  5
19F
100
AcDbEntity
  8
7
  6
ByLayer
 62
    1
370
   -1
100
AcDbLine
 10
142.6518175295
 20
80.374323766
 11
142.0508175295
 21
79.77432376599999
  0
LINE
  5
1A0
100
AcDbEntity
  8
7
  6
ByLayer
 62
    1
370
   -1
100
AcDbLine
 10
142.0508175295
 20
79.77432376599999
 11
144.0658175295
 21
77.75832376599999
  0
LINE
  5
1A1
100
AcDbEntity
  8
7
  6
ByLayer
 62
    1
370
   -1
100
AcDbLine
 10
144.0658175295
 20
77.75832376599999
 11
147.4948175295
 21
81.188323766
  0
LINE
  5
1A2
100
AcDbEntity
  8
7
  6
ByLayer
 62
    1
370
   -1
100
AcDbLine
 10
147.4948175295
 20
81.188323766
 11
145.4798175295
 21
83.203323766
  0
LINE
  5
1A3
100
AcDbEntity
  8
7
  6
ByLayer
 62
    1
370
   -1
100
AcDbLine
 10
145.4798175295
 20
83.203323766
 11
142.6518175295
 21
80.374323766
  0
LINE
  5
1A4
100
AcDbEntity
  8
7
  6
ByLayer
 62
    1
370
   -1
100
AcDbLine
 10
138.3938175295
 20
80.587323766
 11
138.9948175295
 21
81.188323766
  0
LINE
  5
1A5
100
AcDbEntity
  8
7
  6
ByLayer
 62
    1
370
   -1
100
AcDbLine
 10
138.9948175295
 20
81.188323766
 11
136.9798175295
 21
83.203323766
  0
LINE
  5
1A6
100
AcDbEntity
  8
7
  6
ByLayer
 62
    1
370
   -1
100
AcDbLine
 10
136.9798175295
 20
83.203323766
 11
133.5508175295
 21
79.77432376599999
  0
LINE
  5
1A7
100
AcDbEntity
  8
7
  6
ByLayer
 62
    1
370
   -1
100
AcDbLine
 10
133.5508175295
 20
79.77432376599999
 11
135.5658175295
 21
77.75832376599999
  0
LINE
  5
1A8
100
AcDbEntity
  8
7
  6
ByLayer
 62
    1
370
   -1
100
AcDbLine
 10
135.5658175295
 20
77.75832376599999
 11
138.3938175295
 21
80.587323766
  0
LINE
  5
1A9
100
AcDbEntity
  8
7
  6
ByLayer
 62
    1
370
   -1
100
AcDbLine
 10
129.8938175295
 20
80.587323766
 11
130.4948175295
 21
81.188323766
  0
LINE
  5
1AA
100
AcDbEntity
  8
7
  6
ByLayer
 62
    1
370
   -1
100
AcDbLine
 10
130.4948175295
 20
81.188323766
 11
128.4798175295
 21
83.203323766
  0
LINE
  5
1AB
100
AcDbEntity
  8
7
  6
ByLayer
 62
    1
370
   -1
100
AcDbLine
 10
128.4798175295
 20
83.203323766
 11
125.0508175295
 21
79.77432376599999
  0
LINE
  5
1AC
100
AcDbEntity
  8
7
  6
ByLayer
 62
    1
370
   -1
100
AcDbLine
 10
125.0508175295
 20
79.77432376599999
 11
127.0658175295
 21
77.75832376599999
  0
LINE
  5
1AD
100
AcDbEntity
  8
7
  6
ByLayer
 62
    1
370
   -1
100
AcDbLine
 10
127.0658175295
 20
77.75832376599999
 11
129.8938175295
 21
80.587323766
  0
LINE
  5
1AE
100
AcDbEntity
  8
7
  6
ByLayer
 62
    1
370
   -1
100
AcDbLine
 10
76.47681752950002
 20
80.962323766
 11
76.32681752950002
 21
80.962323766
  0
LINE
  5
1AF
100
AcDbEntity
  8
7
  6
ByLayer
 62
    1
370
   -1
100
AcDbLine
 10
76.32681752950002
 20
80.962323766
 11
76.32681752950002
 21
78.112323766
  0
LINE
  5
1B0
100
AcDbEntity
  8
7
  6
ByLayer
 62
    1
370
   -1
100
AcDbLine
 10
76.32681752950002
 20
78.112323766
 11
86.17681752950001
 21
78.112323766
  0
LINE
  5
1B1
100
AcDbEntity
  8
7
  6
ByLayer
 62
    1
370
   -1
100
AcDbLine
 10
86.17681752950001
 20
78.112323766
 11
86.17681752950001
 21
80.962323766
  0
LINE
  5
1B2
100
AcDbEntity
  8
7
  6
ByLayer
 62
    1
370
   -1
100
AcDbLine
 10
86.17681752950001
 20
80.962323766
 11
76.47681752950002
 21
80.962323766
  0
LINE
  5
1B3
100
AcDbEntity
  8
7
  6
ByLayer
 62
    1
370
   -1
100
AcDbLine
 10
36.76881752950002
 20
80.80332376600001
 11
36.76881752950002
 21
78.112323766
  0
LINE
  5
1B4
100
AcDbEntity
  8
7
  6
ByLayer
 62
    1
370
   -1
100
AcDbLine
 10
36.76881752950002
 20
78.112323766
 11
46.61881752950002
 21
78.112323766
  0
LINE
  5
1B5
100
AcDbEntity
  8
7
  6
ByLayer
 62
    1
370
   -1
100
AcDbLine
 10
46.61881752950002
 20
78.112323766
 11
46.61881752950002
 21
80.962323766
  0
LINE
  5
1B6
100
AcDbEntity
  8
7
  6
ByLayer
 62
    1
370
   -1
100
AcDbLine
 10
46.61881752950002
 20
80.962323766
 11
36.76881752950002
 21
80.962323766
  0
LINE
  5
1B7
100
AcDbEntity
  8
7
  6
ByLayer
 62
    1
370
   -1
100
AcDbLine
 10
36.76881752950002
 20
80.962323766
 11
36.76881752950002
 21
80.80332376600001
  0
LINE
  5
1B8
100
AcDbEntity
  8
7
  6
ByLayer
 62
    1
370
   -1
100
AcDbLine
 10
-52.34818247049998
 20
80.80332376600001
 11
-52.34818247049998
 21
78.112323766
  0
LINE
  5
1B9
100
AcDbEntity
  8
7
  6
ByLayer
 62
    1
370
   -1
100
AcDbLine
 10
-52.34818247049998
 20
78.112323766
 11
-42.49818247049998
 21
78.112323766
  0
LINE
  5
1BA
100
AcDbEntity
  8
7
  6
ByLayer
 62
    1
370
   -1
100
AcDbLine
 10
-42.49818247049998
 20
78.112323766
 11
-42.49818247049998
 21
80.962323766
  0
LINE
  5
1BB
100
AcDbEntity
  8
7
  6
ByLayer
 62
    1
370
   -1
100
AcDbLine
 10
-42.49818247049998
 20
80.962323766
 11
-52.34818247049998
 21
80.962323766
  0
LINE
  5
1BC
100
AcDbEntity
  8
7
  6
ByLayer
 62
    1
370
   -1
100
AcDbLine
 10
-52.34818247049998
 20
80.962323766
 11
-52.34818247049998
 21
80.80332376600001
  0
LINE
  5
1BD
100
AcDbEntity
  8
7
  6
ByLayer
 62
    1
370
   -1
100
AcDbLine
 10
-82.05618247049998
 20
80.80332376600001
 11
-82.05618247049998
 21
80.962323766
  0
LINE
  5
1BE
100
AcDbEntity
  8
7
  6
ByLayer
 62
    1
370
   -1
100
AcDbLine
 10
-82.05618247049998
 20
80.962323766
 11
-91.90618247049999
 21
80.962323766
  0
LINE
  5
1BF
100
AcDbEntity
  8
7
  6
ByLayer
 62
    1
370
   -1
100
AcDbLine
 10
-91.90618247049999
 20
80.962323766
 11
-91.90618247049999
 21
78.112323766
  0
LINE
  5
1C0
100
AcDbEntity
  8
7
  6
ByLayer
 62
    1
370
   -1
100
AcDbLine
 10
-91.90618247049999
 20
78.112323766
 11
-82.05618247049998
 21
78.112323766
  0
LINE
  5
1C1
100
AcDbEntity
  8
7
  6
ByLayer
 62
    1
370
   -1
100
AcDbLine
 10
-82.05618247049998
 20
78.112323766
 11
-82.05618247049998
 21
80.80332376600001
  0
LINE
  5
1C2
100
AcDbEntity
  8
7
  6
ByLayer
 62
    1
370
   -1
100
AcDbLine
 10
-82.05618247049998
 20
85.420323766
 11
176.7378175295
 21
85.420323766
  0
ARC
  5
1C3
100
AcDbEntity
  8
7
  6
ByLayer
 62
    1
370
   -1
100
AcDbCircle
 10
176.7378175295
 20
85.34532376600001
 40
0.075
100
AcDbArc
 50
0
 51
90
  0
LINE
  5
1C4
100
AcDbEntity
  8
7
  6
ByLayer
 62
    1
370
   -1
100
AcDbLine
 10
176.8128175295
 20
85.34532376600001
 11
176.8128175295
 21
73.025323766
  0
ARC
  5
1C5
100
AcDbEntity
  8
7
  6
ByLayer
 62
    1
370
   -1
100
AcDbCircle
 10
176.7378175295
 20
73.025323766
 40
0.075
100
AcDbArc
 50
-90
 51
0
  0
LINE
  5
1C6
100
AcDbEntity
  8
7
  6
ByLayer
 62
    1
370
   -1
100
AcDbLine
 10
176.7378175295
 20
72.950323766
 11
-172.3441824705
 21
72.950323766
  0
ARC
  5
1C7
100
AcDbEntity
  8
7
  6
ByLayer
 62
    1
370
   -1
100
AcDbCircle
 10
-172.3441824705
 20
73.025323766
 40
0.075
100
AcDbArc
 50
180
 51
-90
  0
LINE
  5
1C8
100
AcDbEntity
  8
7
  6
ByLayer
 62
    1
370
   -1
100
AcDbLine
 10
-172.4191824705
 20
73.025323766
 11
-172.4191824705
 21
85.34532376600001
  0
ARC
  5
1C9
100
AcDbEntity
  8
7
  6
ByLayer
 62
    1
370
   -1
100
AcDbCircle
 10
-172.3441824705
 20
85.34532376600001
 40
0.075
100
AcDbArc
 50
90
 51
180
  0
LINE
  5
1CA
100
AcDbEntity
  8
7
  6
ByLayer
 62
    1
370
   -1
100
AcDbLine
 10
-172.3441824705
 20
85.420323766
 11
-82.05618247049998
 21
85.420323766
  0
ARC
  5
1CB
100
AcDbEntity
  8
4
  6
ByLayer
 62
    1
370
   -1
100
AcDbCircle
 10
195.7489660560673
 20
-61.3204067794635
 40
0.925
100
AcDbArc
 50
90
 51
-90
  0
ARC
  5
1CC
100
AcDbEntity
  8
4
  6
ByLayer
 62
    1
370
   -1
100
AcDbCircle
 10
195.7489660560673
 20
-61.3204067794635
 40
0.925
100
AcDbArc
 50
-90
 51
90
  0
ARC
  5
1CD
100
AcDbEntity
  8
4
  6
ByLayer
 62
    1
370
   -1
100
AcDbCircle
 10
195.7489660560673
 20
-2.120406779463494
 40
0.925
100
AcDbArc
 50
90
 51
-90
  0
ARC
  5
1CE
100
AcDbEntity
  8
4
  6
ByLayer
 62
    1
370
   -1
100
AcDbCircle
 10
195.7489660560673
 20
-2.120406779463494
 40
0.925
100
AcDbArc
 50
-90
 51
90
  0
ARC
  5
1CF
100
AcDbEntity
  8
4
  6
ByLayer
 62
    1
370
   -1
100
AcDbCircle
 10
195.7489660560673
 20
57.07959322053651
 40
0.925
100
AcDbArc
 50
-28.05856
 51
151.94144
  0
ARC
  5
1D0
100
AcDbEntity
  8
4
  6
ByLayer
 62
    1
370
   -1
100
AcDbCircle
 10
195.7489660560673
 20
57.07959322053651
 40
0.925
100
AcDbArc
 50
151.94144
 51
-28.05856
  0
ARC
  5
1D1
100
AcDbEntity
  8
4
  6
ByLayer
 62
    1
370
   -1
100
AcDbCircle
 10
273.3789660560673
 20
57.07959322053651
 40
0.925
100
AcDbArc
 50
-118.05856
 51
61.94143999999999
  0
ARC
  5
1D2
100
AcDbEntity
  8
4
  6
ByLayer
 62
    1
370
   -1
100
AcDbCircle
 10
273.3789660560673
 20
57.07959322053651
 40
0.925
100
AcDbArc
 50
61.94143999999999
 51
-118.05856
  0
LINE
  5
1D3
100
AcDbEntity
  8
4
  6
ByLayer
 62
    1
370
   -1
100
AcDbLine
 10
358.2859660560673
 20
47.00459322053651
 11
280.2029660560673
 21
47.00459322053651
  0
LINE
  5
1D4
100
AcDbEntity
  8
4
  6
ByLayer
 62
    1
370
   -1
100
AcDbLine
 10
280.2029660560673
 20
47.00459322053651
 11
280.2029660560673
 21
44.1545932205365
  0
LINE
  5
1D5
100
AcDbEntity
  8
4
  6
ByLayer
 62
    1
370
   -1
100
AcDbLine
 10
280.2029660560673
 20
44.1545932205365
 11
458.2859660560673
 21
44.1545932205365
  0
LINE
  5
1D6
100
AcDbEntity
  8
4
  6
ByLayer
 62
    1
370
   -1
100
AcDbLine
 10
458.2859660560673
 20
44.1545932205365
 11
458.2859660560673
 21
47.00459322053651
  0
LINE
  5
1D7
100
AcDbEntity
  8
4
  6
ByLayer
 62
    1
370
   -1
100
AcDbLine
 10
458.2859660560673
 20
47.00459322053651
 11
358.2859660560673
 21
47.00459322053651
  0
ARC
  5
1D8
100
AcDbEntity
  8
4
  6
ByLayer
 62
    1
370
   -1
100
AcDbCircle
 10
450.8789660560673
 20
57.07959322053651
 40
0.925
100
AcDbArc
 50
-90
 51
90
  0
ARC
  5
1D9
100
AcDbEntity
  8
4
  6
ByLayer
 62
    1
370
   -1
100
AcDbCircle
 10
450.8789660560673
 20
57.07959322053651
 40
0.925
100
AcDbArc
 50
90
 51
-90
  0
ARC
  5
1DA
100
AcDbEntity
  8
4
  6
ByLayer
 62
    1
370
   -1
100
AcDbCircle
 10
492.8789660560673
 20
57.07959322053651
 40
0.925
100
AcDbArc
 50
-28.058782
 51
151.941218
  0
ARC
  5
1DB
100
AcDbEntity
  8
4
  6
ByLayer
 62
    1
370
   -1
100
AcDbCircle
 10
492.8789660560673
 20
57.07959322053651
 40
0.925
100
AcDbArc
 50
151.941218
 51
-28.058782
  0
ARC
  5
1DC
100
AcDbEntity
  8
4
  6
ByLayer
 62
    1
370
   -1
100
AcDbCircle
 10
552.8789660560674
 20
57.07959322053651
 40
0.925
100
AcDbArc
 50
-118.058977
 51
61.941023
  0
ARC
  5
1DD
100
AcDbEntity
  8
4
  6
ByLayer
 62
    1
370
   -1
100
AcDbCircle
 10
552.8789660560674
 20
57.07959322053651
 40
0.925
100
AcDbArc
 50
61.941023
 51
-118.058977
  0
ARC
  5
1DE
100
AcDbEntity
  8
4
  6
ByLayer
 62
    1
370
   -1
100
AcDbCircle
 10
552.8789660560674
 20
-2.120406779463494
 40
0.925
100
AcDbArc
 50
-118.059046
 51
61.940954
  0
ARC
  5
1DF
100
AcDbEntity
  8
4
  6
ByLayer
 62
    1
370
   -1
100
AcDbCircle
 10
552.8789660560674
 20
-2.120406779463494
 40
0.925
100
AcDbArc
 50
61.940954
 51
-118.059046
  0
LINE
  5
1E0
100
AcDbEntity
  8
4
  6
ByLayer
 62
    1
370
   -1
100
AcDbLine
 10
552.7789660560674
 20
-27.14540677946349
 11
550.4289660560673
 21
-27.14540677946349
  0
LINE
  5
1E1
100
AcDbEntity
  8
4
  6
ByLayer
 62
    1
370
   -1
100
AcDbLine
 10
550.4289660560673
 20
-27.14540677946349
 11
550.4289660560673
 21
-29.99540677946349
  0
LINE
  5
1E2
100
AcDbEntity
  8
4
  6
ByLayer
 62
    1
370
   -1
100
AcDbLine
 10
550.4289660560673
 20
-29.99540677946349
 11
553.7789660560674
 21
-29.99540677946349
  0
LINE
  5
1E3
100
AcDbEntity
  8
4
  6
ByLayer
 62
    1
370
   -1
100
AcDbLine
 10
553.7789660560674
 20
-29.99540677946349
 11
553.7789660560674
 21
-27.14540677946349
  0
LINE
  5
1E4
100
AcDbEntity
  8
4
  6
ByLayer
 62
    1
370
   -1
100
AcDbLine
 10
553.7789660560674
 20
-27.14540677946349
 11
552.7789660560674
 21
-27.14540677946349
  0
ARC
  5
1E5
100
AcDbEntity
  8
4
  6
ByLayer
 62
    1
370
   -1
100
AcDbCircle
 10
552.8789660560674
 20
-61.3204067794635
 40
0.925
100
AcDbArc
 50
151.94144
 51
-28.05856
  0
ARC
  5
1E6
100
AcDbEntity
  8
4
  6
ByLayer
 62
    1
370
   -1
100
AcDbCircle
 10
552.8789660560674
 20
-61.3204067794635
 40
0.925
100
AcDbArc
 50
-28.05856
 51
151.94144
  0
ARC
  5
1E7
100
AcDbEntity
  8
4
  6
ByLayer
 62
    1
370
   -1
100
AcDbCircle
 10
374.3139660560673
 20
-61.3204067794635
 40
0.925
100
AcDbArc
 50
0
 51
180
  0
ARC
  5
1E8
100
AcDbEntity
  8
4
  6
ByLayer
 62
    1
370
   -1
100
AcDbCircle
 10
374.3139660560673
 20
-61.3204067794635
 40
0.925
100
AcDbArc
 50
180
 51
0
  0
LINE
  5
1E9
100
AcDbEntity
  8
4
  6
ByLayer
 62
    1
370
   -1
100
AcDbLine
 10
375.2389660560673
 20
-65.39540677946349
 11
191.7489660560673
 21
-65.39540677946349
  0
ARC
  5
1EA
100
AcDbEntity
  8
4
  6
ByLayer
 62
    1
370
   -1
100
AcDbCircle
 10
191.7489660560673
 20
-65.3204067794635
 40
0.075
100
AcDbArc
 50
180
 51
-90
  0
LINE
  5
1EB
100
AcDbEntity
  8
4
  6
ByLayer
 62
    1
370
   -1
100
AcDbLine
 10
191.6739660560673
 20
-65.3204067794635
 11
191.6739660560673
 21
62.07959322053651
  0
ARC
  5
1EC
100
AcDbEntity
  8
4
  6
ByLayer
 62
    1
370
   -1
100
AcDbCircle
 10
191.7489660560673
 20
62.07959322053651
 40
0.075
100
AcDbArc
 50
90
 51
180
  0
LINE
  5
1ED
100
AcDbEntity
  8
4
  6
ByLayer
 62
    1
370
   -1
100
AcDbLine
 10
191.7489660560673
 20
62.1545932205365
 11
199.7489660560673
 21
62.1545932205365
  0
ARC
  5
1EE
100
AcDbEntity
  8
4
  6
ByLayer
 62
    1
370
   -1
100
AcDbCircle
 10
199.7489660560673
 20
62.07959322053651
 40
0.075
100
AcDbArc
 50
0
 51
90
  0
LINE
  5
1EF
100
AcDbEntity
  8
4
  6
ByLayer
 62
    1
370
   -1
100
AcDbLine
 10
199.8239660560673
 20
62.07959322053651
 11
199.8239660560673
 21
53.9755932205365
  0
LINE
  5
1F0
100
AcDbEntity
  8
4
  6
ByLayer
 62
    1
370
   -1
100
AcDbLine
 10
199.8239660560673
 20
53.9755932205365
 11
202.6739660560673
 21
53.9755932205365
  0
LINE
  5
1F1
100
AcDbEntity
  8
4
  6
ByLayer
 62
    1
370
   -1
100
AcDbLine
 10
202.6739660560673
 20
53.9755932205365
 11
202.6739660560673
 21
62.07959322053651
  0
ARC
  5
1F2
100
AcDbEntity
  8
4
  6
ByLayer
 62
    1
370
   -1
100
AcDbCircle
 10
202.7489660560673
 20
62.07959322053651
 40
0.075
100
AcDbArc
 50
90
 51
180
  0
LINE
  5
1F3
100
AcDbEntity
  8
4
  6
ByLayer
 62
    1
370
   -1
100
AcDbLine
 10
202.7489660560673
 20
62.1545932205365
 11
205.7489660560673
 21
62.1545932205365
  0
ARC
  5
1F4
100
AcDbEntity
  8
4
  6
ByLayer
 62
    1
370
   -1
100
AcDbCircle
 10
205.7489660560673
 20
62.07959322053651
 40
0.075
100
AcDbArc
 50
0
 51
90
  0
LINE
  5
1F5
100
AcDbEntity
  8
4
  6
ByLayer
 62
    1
370
   -1
100
AcDbLine
 10
205.8239660560673
 20
62.07959322053651
 11
205.8239660560673
 21
53.9755932205365
  0
LINE
  5
1F6
100
AcDbEntity
  8
4
  6
ByLayer
 62
    1
370
   -1
100
AcDbLine
 10
205.8239660560673
 20
53.9755932205365
 11
208.6739660560673
 21
53.9755932205365
  0
LINE
  5
1F7
100
AcDbEntity
  8
4
  6
ByLayer
 62
    1
370
   -1
100
AcDbLine
 10
208.6739660560673
 20
53.9755932205365
 11
208.6739660560673
 21
62.07959322053651
  0
ARC
  5
1F8
100
AcDbEntity
  8
4
  6
ByLayer
 62
    1
370
   -1
100
AcDbCircle
 10
208.7489660560673
 20
62.07959322053651
 40
0.075
100
AcDbArc
 50
90
 51
180
  0
LINE
  5
1F9
100
AcDbEntity
  8
4
  6
ByLayer
 62
    1
370
   -1
100
AcDbLine
 10
208.7489660560673
 20
62.1545932205365
 11
211.7489660560673
 21
62.1545932205365
  0
ARC
  5
1FA
100
AcDbEntity
  8
4
  6
ByLayer
 62
    1
370
   -1
100
AcDbCircle
 10
211.7489660560673
 20
62.07959322053651
 40
0.075
100
AcDbArc
 50
0
 51
90
  0
LINE
  5
1FB
100
AcDbEntity
  8
4
  6
ByLayer
 62
    1
370
   -1
100
AcDbLine
 10
211.8239660560673
 20
62.07959322053651
 11
211.8239660560673
 21
53.9755932205365
  0
LINE
  5
1FC
100
AcDbEntity
  8
4
  6
ByLayer
 62
    1
370
   -1
100
AcDbLine
 10
211.8239660560673
 20
53.9755932205365
 11
214.6739660560673
 21
53.9755932205365
  0
LINE
  5
1FD
100
AcDbEntity
  8
4
  6
ByLayer
 62
    1
370
   -1
100
AcDbLine
 10
214.6739660560673
 20
53.9755932205365
 11
214.6739660560673
 21
62.07959322053651
  0
ARC
  5
1FE
100
AcDbEntity
  8
4
  6
ByLayer
 62
    1
370
   -1
100
AcDbCircle
 10
214.7489660560673
 20
62.07959322053651
 40
0.075
100
AcDbArc
 50
90
 51
180
  0
LINE
  5
1FF
100
AcDbEntity
  8
4
  6
ByLayer
 62
    1
370
   -1
100
AcDbLine
 10
214.7489660560673
 20
62.1545932205365
 11
217.7489660560673
 21
62.1545932205365
  0
ARC
  5
200
100
AcDbEntity
  8
4
  6
ByLayer
 62
    1
370
   -1
100
AcDbCircle
 10
217.7489660560673
 20
62.07959322053651
 40
0.075
100
AcDbArc
 50
0
 51
90
  0
LINE
  5
201
100
AcDbEntity
  8
4
  6
ByLayer
 62
    1
370
   -1
100
AcDbLine
 10
217.8239660560673
 20
62.07959322053651
 11
217.8239660560673
 21
53.9755932205365
  0
LINE
  5
202
100
AcDbEntity
  8
4
  6
ByLayer
 62
    1
370
   -1
100
AcDbLine
 10
217.8239660560673
 20
53.9755932205365
 11
220.6739660560673
 21
53.9755932205365
  0
LINE
  5
203
100
AcDbEntity
  8
4
  6
ByLayer
 62
    1
370
   -1
100
AcDbLine
 10
220.6739660560673
 20
53.9755932205365
 11
220.6739660560673
 21
62.07959322053651
  0
ARC
  5
204
100
AcDbEntity
  8
4
  6
ByLayer
 62
    1
370
   -1
100
AcDbCircle
 10
220.7489660560673
 20
62.07959322053651
 40
0.075
100
AcDbArc
 50
90
 51
180
  0
LINE
  5
205
100
AcDbEntity
  8
4
  6
ByLayer
 62
    1
370
   -1
100
AcDbLine
 10
220.7489660560673
 20
62.1545932205365
 11
223.7489660560673
 21
62.1545932205365
  0
ARC
  5
206
100
AcDbEntity
  8
4
  6
ByLayer
 62
    1
370
   -1
100
AcDbCircle
 10
223.7489660560673
 20
62.07959322053651
 40
0.075
100
AcDbArc
 50
0
 51
90
  0
LINE
  5
207
100
AcDbEntity
  8
4
  6
ByLayer
 62
    1
370
   -1
100
AcDbLine
 10
223.8239660560673
 20
62.07959322053651
 11
223.8239660560673
 21
53.9755932205365
  0
LINE
  5
208
100
AcDbEntity
  8
4
  6
ByLayer
 62
    1
370
   -1
100
AcDbLine
 10
223.8239660560673
 20
53.9755932205365
 11
226.6739660560673
 21
53.9755932205365
  0
LINE
  5
209
100
AcDbEntity
  8
4
  6
ByLayer
 62
    1
370
   -1
100
AcDbLine
 10
226.6739660560673
 20
53.9755932205365
 11
226.6739660560673
 21
62.07959322053651
  0
ARC
  5
20A
100
AcDbEntity
  8
4
  6
ByLayer
 62
    1
370
   -1
100
AcDbCircle
 10
226.7489660560673
 20
62.07959322053651
 40
0.075
100
AcDbArc
 50
90
 51
180
  0
LINE
  5
20B
100
AcDbEntity
  8
4
  6
ByLayer
 62
    1
370
   -1
100
AcDbLine
 10
226.7489660560673
 20
62.1545932205365
 11
229.7489660560673
 21
62.1545932205365
  0
ARC
  5
20C
100
AcDbEntity
  8
4
  6
ByLayer
 62
    1
370
   -1
100
AcDbCircle
 10
229.7489660560673
 20
62.07959322053651
 40
0.075
100
AcDbArc
 50
0
 51
90
  0
LINE
  5
20D
100
AcDbEntity
  8
4
  6
ByLayer
 62
    1
370
   -1
100
AcDbLine
 10
229.8239660560673
 20
62.07959322053651
 11
229.8239660560673
 21
53.9755932205365
  0
LINE
  5
20E
100
AcDbEntity
  8
4
  6
ByLayer
 62
    1
370
   -1
100
AcDbLine
 10
229.8239660560673
 20
53.9755932205365
 11
232.6739660560673
 21
53.9755932205365
  0
LINE
  5
20F
100
AcDbEntity
  8
4
  6
ByLayer
 62
    1
370
   -1
100
AcDbLine
 10
232.6739660560673
 20
53.9755932205365
 11
232.6739660560673
 21
62.07959322053651
  0
ARC
  5
210
100
AcDbEntity
  8
4
  6
ByLayer
 62
    1
370
   -1
100
AcDbCircle
 10
232.7489660560673
 20
62.07959322053651
 40
0.075
100
AcDbArc
 50
90
 51
180
  0
LINE
  5
211
100
AcDbEntity
  8
4
  6
ByLayer
 62
    1
370
   -1
100
AcDbLine
 10
232.7489660560673
 20
62.1545932205365
 11
235.7489660560673
 21
62.1545932205365
  0
ARC
  5
212
100
AcDbEntity
  8
4
  6
ByLayer
 62
    1
370
   -1
100
AcDbCircle
 10
235.7489660560673
 20
62.07959322053651
 40
0.075
100
AcDbArc
 50
0
 51
90
  0
LINE
  5
213
100
AcDbEntity
  8
4
  6
ByLayer
 62
    1
370
   -1
100
AcDbLine
 10
235.8239660560673
 20
62.07959322053651
 11
235.8239660560673
 21
53.9755932205365
  0
LINE
  5
214
100
AcDbEntity
  8
4
  6
ByLayer
 62
    1
370
   -1
100
AcDbLine
 10
235.8239660560673
 20
53.9755932205365
 11
238.6739660560673
 21
53.9755932205365
  0
LINE
  5
215
100
AcDbEntity
  8
4
  6
ByLayer
 62
    1
370
   -1
100
AcDbLine
 10
238.6739660560673
 20
53.9755932205365
 11
238.6739660560673
 21
62.07959322053651
  0
ARC
  5
216
100
AcDbEntity
  8
4
  6
ByLayer
 62
    1
370
   -1
100
AcDbCircle
 10
238.7489660560673
 20
62.07959322053651
 40
0.075
100
AcDbArc
 50
90
 51
180
  0
LINE
  5
217
100
AcDbEntity
  8
4
  6
ByLayer
 62
    1
370
   -1
100
AcDbLine
 10
238.7489660560673
 20
62.1545932205365
 11
241.7489660560673
 21
62.1545932205365
  0
ARC
  5
218
100
AcDbEntity
  8
4
  6
ByLayer
 62
    1
370
   -1
100
AcDbCircle
 10
241.7489660560673
 20
62.07959322053651
 40
0.075
100
AcDbArc
 50
0
 51
90
  0
LINE
  5
219
100
AcDbEntity
  8
4
  6
ByLayer
 62
    1
370
   -1
100
AcDbLine
 10
241.8239660560673
 20
62.07959322053651
 11
241.8239660560673
 21
53.9755932205365
  0
LINE
  5
21A
100
AcDbEntity
  8
4
  6
ByLayer
 62
    1
370
   -1
100
AcDbLine
 10
241.8239660560673
 20
53.9755932205365
 11
244.6739660560673
 21
53.9755932205365
  0
LINE
  5
21B
100
AcDbEntity
  8
4
  6
ByLayer
 62
    1
370
   -1
100
AcDbLine
 10
244.6739660560673
 20
53.9755932205365
 11
244.6739660560673
 21
62.07959322053651
  0
ARC
  5
21C
100
AcDbEntity
  8
4
  6
ByLayer
 62
    1
370
   -1
100
AcDbCircle
 10
244.7489660560673
 20
62.07959322053651
 40
0.075
100
AcDbArc
 50
90
 51
180
  0
LINE
  5
21D
100
AcDbEntity
  8
4
  6
ByLayer
 62
    1
370
   -1
100
AcDbLine
 10
244.7489660560673
 20
62.1545932205365
 11
247.7489660560673
 21
62.1545932205365
  0
ARC
  5
21E
100
AcDbEntity
  8
4
  6
ByLayer
 62
    1
370
   -1
100
AcDbCircle
 10
247.7489660560673
 20
62.07959322053651
 40
0.075
100
AcDbArc
 50
0
 51
90
  0
LINE
  5
21F
100
AcDbEntity
  8
4
  6
ByLayer
 62
    1
370
   -1
100
AcDbLine
 10
247.8239660560673
 20
62.07959322053651
 11
247.8239660560673
 21
53.9755932205365
  0
LINE
  5
220
100
AcDbEntity
  8
4
  6
ByLayer
 62
    1
370
   -1
100
AcDbLine
 10
247.8239660560673
 20
53.9755932205365
 11
250.6739660560673
 21
53.9755932205365
  0
LINE
  5
221
100
AcDbEntity
  8
4
  6
ByLayer
 62
    1
370
   -1
100
AcDbLine
 10
250.6739660560673
 20
53.9755932205365
 11
250.6739660560673
 21
62.07959322053651
  0
ARC
  5
222
100
AcDbEntity
  8
4
  6
ByLayer
 62
    1
370
   -1
100
AcDbCircle
 10
250.7489660560673
 20
62.07959322053651
 40
0.075
100
AcDbArc
 50
90
 51
180
  0
LINE
  5
223
100
AcDbEntity
  8
4
  6
ByLayer
 62
    1
370
   -1
100
AcDbLine
 10
250.7489660560673
 20
62.1545932205365
 11
253.7489660560673
 21
62.1545932205365
  0
ARC
  5
224
100
AcDbEntity
  8
4
  6
ByLayer
 62
    1
370
   -1
100
AcDbCircle
 10
253.7489660560673
 20
62.07959322053651
 40
0.075
100
AcDbArc
 50
0
 51
90
  0
LINE
  5
225
100
AcDbEntity
  8
4
  6
ByLayer
 62
    1
370
   -1
100
AcDbLine
 10
253.8239660560673
 20
62.07959322053651
 11
253.8239660560673
 21
53.9755932205365
  0
LINE
  5
226
100
AcDbEntity
  8
4
  6
ByLayer
 62
    1
370
   -1
100
AcDbLine
 10
253.8239660560673
 20
53.9755932205365
 11
256.6739660560673
 21
53.9755932205365
  0
LINE
  5
227
100
AcDbEntity
  8
4
  6
ByLayer
 62
    1
370
   -1
100
AcDbLine
 10
256.6739660560673
 20
53.9755932205365
 11
256.6739660560673
 21
62.07959322053651
  0
ARC
  5
228
100
AcDbEntity
  8
4
  6
ByLayer
 62
    1
370
   -1
100
AcDbCircle
 10
256.7489660560673
 20
62.07959322053651
 40
0.075
100
AcDbArc
 50
90
 51
180
  0
LINE
  5
229
100
AcDbEntity
  8
4
  6
ByLayer
 62
    1
370
   -1
100
AcDbLine
 10
256.7489660560673
 20
62.1545932205365
 11
259.7489660560673
 21
62.1545932205365
  0
ARC
  5
22A
100
AcDbEntity
  8
4
  6
ByLayer
 62
    1
370
   -1
100
AcDbCircle
 10
259.7489660560673
 20
62.07959322053651
 40
0.075
100
AcDbArc
 50
0
 51
90
  0
LINE
  5
22B
100
AcDbEntity
  8
4
  6
ByLayer
 62
    1
370
   -1
100
AcDbLine
 10
259.8239660560673
 20
62.07959322053651
 11
259.8239660560673
 21
53.9755932205365
  0
LINE
  5
22C
100
AcDbEntity
  8
4
  6
ByLayer
 62
    1
370
   -1
100
AcDbLine
 10
259.8239660560673
 20
53.9755932205365
 11
262.6739660560673
 21
53.9755932205365
  0
LINE
  5
22D
100
AcDbEntity
  8
4
  6
ByLayer
 62
    1
370
   -1
100
AcDbLine
 10
262.6739660560673
 20
53.9755932205365
 11
262.6739660560673
 21
62.07959322053651
  0
ARC
  5
22E
100
AcDbEntity
  8
4
  6
ByLayer
 62
    1
370
   -1
100
AcDbCircle
 10
262.7489660560673
 20
62.07959322053651
 40
0.075
100
AcDbArc
 50
90
 51
180
  0
LINE
  5
22F
100
AcDbEntity
  8
4
  6
ByLayer
 62
    1
370
   -1
100
AcDbLine
 10
262.7489660560673
 20
62.1545932205365
 11
265.7489660560673
 21
62.1545932205365
  0
ARC
  5
230
100
AcDbEntity
  8
4
  6
ByLayer
 62
    1
370
   -1
100
AcDbCircle
 10
265.7489660560673
 20
62.07959322053651
 40
0.075
100
AcDbArc
 50
0
 51
90
  0
LINE
  5
231
100
AcDbEntity
  8
4
  6
ByLayer
 62
    1
370
   -1
100
AcDbLine
 10
265.8239660560673
 20
62.07959322053651
 11
265.8239660560673
 21
53.9755932205365
  0
LINE
  5
232
100
AcDbEntity
  8
4
  6
ByLayer
 62
    1
370
   -1
100
AcDbLine
 10
265.8239660560673
 20
53.9755932205365
 11
268.6739660560673
 21
53.9755932205365
  0
LINE
  5
233
100
AcDbEntity
  8
4
  6
ByLayer
 62
    1
370
   -1
100
AcDbLine
 10
268.6739660560673
 20
53.9755932205365
 11
268.6739660560673
 21
62.07959322053651
  0
ARC
  5
234
100
AcDbEntity
  8
4
  6
ByLayer
 62
    1
370
   -1
100
AcDbCircle
 10
268.7489660560673
 20
62.07959322053651
 40
0.075
100
AcDbArc
 50
90
 51
180
  0
LINE
  5
235
100
AcDbEntity
  8
4
  6
ByLayer
 62
    1
370
   -1
100
AcDbLine
 10
268.7489660560673
 20
62.1545932205365
 11
467.1889660560673
 21
62.1545932205365
  0
ARC
  5
236
100
AcDbEntity
  8
4
  6
ByLayer
 62
    1
370
   -1
100
AcDbCircle
 10
467.1889660560673
 20
62.07959322053651
 40
0.075
100
AcDbArc
 50
0
 51
90
  0
LINE
  5
237
100
AcDbEntity
  8
4
  6
ByLayer
 62
    1
370
   -1
100
AcDbLine
 10
467.2639660560673
 20
62.07959322053651
 11
467.2639660560673
 21
39.07959322053651
  0
ARC
  5
238
100
AcDbEntity
  8
4
  6
ByLayer
 62
    1
370
   -1
100
AcDbCircle
 10
467.1889660560673
 20
39.07959322053651
 40
0.075
100
AcDbArc
 50
-90
 51
0
  0
LINE
  5
239
100
AcDbEntity
  8
4
  6
ByLayer
 62
    1
370
   -1
100
AcDbLine
 10
467.1889660560673
 20
39.00459322053651
 11
199.8239660560673
 21
39.00459322053651
  0
LINE
  5
23A
100
AcDbEntity
  8
4
  6
ByLayer
 62
    1
370
   -1
100
AcDbLine
 10
199.8239660560673
 20
39.00459322053651
 11
199.8239660560673
 21
-57.24540677946349
  0
LINE
  5
23B
100
AcDbEntity
  8
4
  6
ByLayer
 62
    1
370
   -1
100
AcDbLine
 10
199.8239660560673
 20
-57.24540677946349
 11
548.8039660560673
 21
-57.24540677946349
  0
LINE
  5
23C
100
AcDbEntity
  8
4
  6
ByLayer
 62
    1
370
   -1
100
AcDbLine
 10
548.8039660560673
 20
-57.24540677946349
 11
548.8039660560673
 21
39.00459322053651
  0
LINE
  5
23D
100
AcDbEntity
  8
4
  6
ByLayer
 62
    1
370
   -1
100
AcDbLine
 10
548.8039660560673
 20
39.00459322053651
 11
481.4599660560673
 21
39.00459322053651
  0
ARC
  5
23E
100
AcDbEntity
  8
4
  6
ByLayer
 62
    1
370
   -1
100
AcDbCircle
 10
481.4599660560673
 20
39.07959322053651
 40
0.075
100
AcDbArc
 50
180
 51
-90
  0
LINE
  5
23F
100
AcDbEntity
  8
4
  6
ByLayer
 62
    1
370
   -1
100
AcDbLine
 10
481.3849660560674
 20
39.07959322053651
 11
481.3849660560674
 21
62.07959322053651
  0
ARC
  5
240
100
AcDbEntity
  8
4
  6
ByLayer
 62
    1
370
   -1
100
AcDbCircle
 10
481.4599660560673
 20
62.07959322053651
 40
0.075
100
AcDbArc
 50
90
 51
180
  0
LINE
  5
241
100
AcDbEntity
  8
4
  6
ByLayer
 62
    1
370
   -1
100
AcDbLine
 10
481.4599660560673
 20
62.1545932205365
 11
513.3169660560673
 21
62.1545932205365
  0
ARC
  5
242
100
AcDbEntity
  8
4
  6
ByLayer
 62
    1
370
   -1
100
AcDbCircle
 10
513.3169660560673
 20
62.07959322053651
 40
0.075
100
AcDbArc
 50
-45.004122
 51
90
  0
LINE
  5
243
100
AcDbEntity
  8
4
  6
ByLayer
 62
    1
370
   -1
100
AcDbLine
 10
513.3699660560674
 20
62.0265932205365
 11
497.1599660560673
 21
45.81559322053651
  0
LINE
  5
244
100
AcDbEntity
  8
4
  6
ByLayer
 62
    1
370
   -1
100
AcDbLine
 10
497.1599660560673
 20
45.81559322053651
 11
499.1749660560673
 21
43.80059322053651
  0
LINE
  5
245
100
AcDbEntity
  8
4
  6
ByLayer
 62
    1
370
   -1
100
AcDbLine
 10
499.1749660560673
 20
43.80059322053651
 11
517.5069660560673
 21
62.13259322053651
  0
ARC
  5
246
100
AcDbEntity
  8
4
  6
ByLayer
 62
    1
370
   -1
100
AcDbCircle
 10
517.5599660560673
 20
62.07959322053651
 40
0.075
100
AcDbArc
 50
90
 51
135.004121
  0
LINE
  5
247
100
AcDbEntity
  8
4
  6
ByLayer
 62
    1
370
   -1
100
AcDbLine
 10
517.5599660560673
 20
62.1545932205365
 11
521.8169660560673
 21
62.1545932205365
  0
ARC
  5
248
100
AcDbEntity
  8
4
  6
ByLayer
 62
    1
370
   -1
100
AcDbCircle
 10
521.8169660560673
 20
62.07959322053651
 40
0.075
100
AcDbArc
 50
-45.004122
 51
90
  0
LINE
  5
249
100
AcDbEntity
  8
4
  6
ByLayer
 62
    1
370
   -1
100
AcDbLine
 10
521.8699660560674
 20
62.0265932205365
 11
505.6599660560673
 21
45.81559322053651
  0
LINE
  5
24A
100
AcDbEntity
  8
4
  6
ByLayer
 62
    1
370
   -1
100
AcDbLine
 10
505.6599660560673
 20
45.81559322053651
 11
507.6749660560673
 21
43.80059322053651
  0
LINE
  5
24B
100
AcDbEntity
  8
4
  6
ByLayer
 62
    1
370
   -1
100
AcDbLine
 10
507.6749660560673
 20
43.80059322053651
 11
526.0069660560673
 21
62.13259322053651
  0
ARC
  5
24C
100
AcDbEntity
  8
4
  6
ByLayer
 62
    1
370
   -1
100
AcDbCircle
 10
526.0599660560673
 20
62.07959322053651
 40
0.075
100
AcDbArc
 50
90
 51
135.004121
  0
LINE
  5
24D
100
AcDbEntity
  8
4
  6
ByLayer
 62
    1
370
   -1
100
AcDbLine
 10
526.0599660560673
 20
62.1545932205365
 11
530.3169660560673
 21
62.1545932205365
  0
ARC
  5
24E
100
AcDbEntity
  8
4
  6
ByLayer
 62
    1
370
   -1
100
AcDbCircle
 10
530.3169660560673
 20
62.07959322053651
 40
0.075
100
AcDbArc
 50
-45.004122
 51
90
  0
LINE
  5
24F
100
AcDbEntity
  8
4
  6
ByLayer
 62
    1
370
   -1
100
AcDbLine
 10
530.3699660560674
 20
62.0265932205365
 11
514.1599660560673
 21
45.81559322053651
  0
LINE
  5
250
100
AcDbEntity
  8
4
  6
ByLayer
 62
    1
370
   -1
100
AcDbLine
 10
514.1599660560673
 20
45.81559322053651
 11
516.1749660560673
 21
43.80059322053651
  0
LINE
  5
251
100
AcDbEntity
  8
4
  6
ByLayer
 62
    1
370
   -1
100
AcDbLine
 10
516.1749660560673
 20
43.80059322053651
 11
534.5069660560673
 21
62.13259322053651
  0
ARC
  5
252
100
AcDbEntity
  8
4
  6
ByLayer
 62
    1
370
   -1
100
AcDbCircle
 10
534.5599660560673
 20
62.07959322053651
 40
0.075
100
AcDbArc
 50
90
 51
135.004121
  0
LINE
  5
253
100
AcDbEntity
  8
4
  6
ByLayer
 62
    1
370
   -1
100
AcDbLine
 10
534.5599660560673
 20
62.1545932205365
 11
538.8169660560673
 21
62.1545932205365
  0
ARC
  5
254
100
AcDbEntity
  8
4
  6
ByLayer
 62
    1
370
   -1
100
AcDbCircle
 10
538.8169660560673
 20
62.07959322053651
 40
0.075
100
AcDbArc
 50
-45.004122
 51
90
  0
LINE
  5
255
100
AcDbEntity
  8
4
  6
ByLayer
 62
    1
370
   -1
100
AcDbLine
 10
538.8699660560674
 20
62.0265932205365
 11
522.6599660560673
 21
45.81559322053651
  0
LINE
  5
256
100
AcDbEntity
  8
4
  6
ByLayer
 62
    1
370
   -1
100
AcDbLine
 10
522.6599660560673
 20
45.81559322053651
 11
524.6749660560673
 21
43.80059322053651
  0
LINE
  5
257
100
AcDbEntity
  8
4
  6
ByLayer
 62
    1
370
   -1
100
AcDbLine
 10
524.6749660560673
 20
43.80059322053651
 11
543.0069660560673
 21
62.13259322053651
  0
ARC
  5
258
100
AcDbEntity
  8
4
  6
ByLayer
 62
    1
370
   -1
100
AcDbCircle
 10
543.0599660560673
 20
62.07959322053651
 40
0.075
100
AcDbArc
 50
90
 51
135.004121
  0
LINE
  5
259
100
AcDbEntity
  8
4
  6
ByLayer
 62
    1
370
   -1
100
AcDbLine
 10
543.0599660560673
 20
62.1545932205365
 11
556.8789660560674
 21
62.1545932205365
  0
ARC
  5
25A
100
AcDbEntity
  8
4
  6
ByLayer
 62
    1
370
   -1
100
AcDbCircle
 10
556.8789660560674
 20
62.07959322053651
 40
0.075
100
AcDbArc
 50
0
 51
90
  0
LINE
  5
25B
100
AcDbEntity
  8
4
  6
ByLayer
 62
    1
370
   -1
100
AcDbLine
 10
556.9539660560673
 20
62.07959322053651
 11
556.9539660560673
 21
-65.3204067794635
  0
ARC
  5
25C
100
AcDbEntity
  8
4
  6
ByLayer
 62
    1
370
   -1
100
AcDbCircle
 10
556.8789660560674
 20
-65.3204067794635
 40
0.075
100
AcDbArc
 50
-90
 51
0
  0
LINE
  5
25D
100
AcDbEntity
  8
4
  6
ByLayer
 62
    1
370
   -1
100
AcDbLine
 10
556.8789660560674
 20
-65.39540677946349
 11
375.2389660560673
 21
-65.39540677946349
  0
ARC
  5
25E
100
AcDbEntity
  8
4
  6
ByLayer
 62
    1
370
   -1
100
AcDbCircle
 10
196.2891016492218
 20
-197.4345762543971
 40
0.925
100
AcDbArc
 50
90
 51
-90
  0
ARC
  5
25F
100
AcDbEntity
  8
4
  6
ByLayer
 62
    1
370
   -1
100
AcDbCircle
 10
196.2891016492218
 20
-197.4345762543971
 40
0.925
100
AcDbArc
 50
-90
 51
90
  0
ARC
  5
260
100
AcDbEntity
  8
4
  6
ByLayer
 62
    1
370
   -1
100
AcDbCircle
 10
196.2891016492218
 20
-138.234576254397
 40
0.925
100
AcDbArc
 50
90
 51
-90
  0
ARC
  5
261
100
AcDbEntity
  8
4
  6
ByLayer
 62
    1
370
   -1
100
AcDbCircle
 10
196.2891016492218
 20
-138.234576254397
 40
0.925
100
AcDbArc
 50
-90
 51
90
  0
ARC
  5
262
100
AcDbEntity
  8
4
  6
ByLayer
 62
    1
370
   -1
100
AcDbCircle
 10
196.2891016492218
 20
-79.03457625439705
 40
0.925
100
AcDbArc
 50
-28.05856
 51
151.94144
  0
ARC
  5
263
100
AcDbEntity
  8
4
  6
ByLayer
 62
    1
370
   -1
100
AcDbCircle
 10
196.2891016492218
 20
-79.03457625439705
 40
0.925
100
AcDbArc
 50
151.94144
 51
-28.05856
  0
ARC
  5
264
100
AcDbEntity
  8
4
  6
ByLayer
 62
    1
370
   -1
100
AcDbCircle
 10
273.9191016492218
 20
-79.03457625439705
 40
0.925
100
AcDbArc
 50
-118.05856
 51
61.94143999999999
  0
ARC
  5
265
100
AcDbEntity
  8
4
  6
ByLayer
 62
    1
370
   -1
100
AcDbCircle
 10
273.9191016492218
 20
-79.03457625439705
 40
0.925
100
AcDbArc
 50
61.94143999999999
 51
-118.05856
  0
LINE
  5
266
100
AcDbEntity
  8
4
  6
ByLayer
 62
    1
370
   -1
100
AcDbLine
 10
358.8261016492218
 20
-89.10957625439706
 11
280.7431016492218
 21
-89.10957625439706
  0
LINE
  5
267
100
AcDbEntity
  8
4
  6
ByLayer
 62
    1
370
   -1
100
AcDbLine
 10
280.7431016492218
 20
-89.10957625439706
 11
280.7431016492218
 21
-91.95957625439706
  0
LINE
  5
268
100
AcDbEntity
  8
4
  6
ByLayer
 62
    1
370
   -1
100
AcDbLine
 10
280.7431016492218
 20
-91.95957625439706
 11
458.8261016492218
 21
-91.95957625439706
  0
LINE
  5
269
100
AcDbEntity
  8
4
  6
ByLayer
 62
    1
370
   -1
100
AcDbLine
 10
458.8261016492218
 20
-91.95957625439706
 11
458.8261016492218
 21
-89.10957625439706
  0
LINE
  5
26A
100
AcDbEntity
  8
4
  6
ByLayer
 62
    1
370
   -1
100
AcDbLine
 10
458.8261016492218
 20
-89.10957625439706
 11
358.8261016492218
 21
-89.10957625439706
  0
ARC
  5
26B
100
AcDbEntity
  8
4
  6
ByLayer
 62
    1
370
   -1
100
AcDbCircle
 10
451.4191016492218
 20
-79.03457625439705
 40
0.925
100
AcDbArc
 50
-90
 51
90
  0
ARC
  5
26C
100
AcDbEntity
  8
4
  6
ByLayer
 62
    1
370
   -1
100
AcDbCircle
 10
451.4191016492218
 20
-79.03457625439705
 40
0.925
100
AcDbArc
 50
90
 51
-90
  0
ARC
  5
26D
100
AcDbEntity
  8
4
  6
ByLayer
 62
    1
370
   -1
100
AcDbCircle
 10
493.4191016492218
 20
-79.03457625439705
 40
0.925
100
AcDbArc
 50
-28.058782
 51
151.941218
  0
ARC
  5
26E
100
AcDbEntity
  8
4
  6
ByLayer
 62
    1
370
   -1
100
AcDbCircle
 10
493.4191016492218
 20
-79.03457625439705
 40
0.925
100
AcDbArc
 50
151.941218
 51
-28.058782
  0
ARC
  5
26F
100
AcDbEntity
  8
4
  6
ByLayer
 62
    1
370
   -1
100
AcDbCircle
 10
553.4191016492218
 20
-79.03457625439705
 40
0.925
100
AcDbArc
 50
-118.058977
 51
61.941023
  0
ARC
  5
270
100
AcDbEntity
  8
4
  6
ByLayer
 62
    1
370
   -1
100
AcDbCircle
 10
553.4191016492218
 20
-79.03457625439705
 40
0.925
100
AcDbArc
 50
61.941023
 51
-118.058977
  0
ARC
  5
271
100
AcDbEntity
  8
4
  6
ByLayer
 62
    1
370
   -1
100
AcDbCircle
 10
553.4191016492218
 20
-138.234576254397
 40
0.925
100
AcDbArc
 50
-118.059046
 51
61.940954
  0
ARC
  5
272
100
AcDbEntity
  8
4
  6
ByLayer
 62
    1
370
   -1
100
AcDbCircle
 10
553.4191016492218
 20
-138.234576254397
 40
0.925
100
AcDbArc
 50
61.940954
 51
-118.059046
  0
LINE
  5
273
100
AcDbEntity
  8
4
  6
ByLayer
 62
    1
370
   -1
100
AcDbLine
 10
553.3191016492219
 20
-163.259576254397
 11
550.9691016492218
 21
-163.259576254397
  0
LINE
  5
274
100
AcDbEntity
  8
4
  6
ByLayer
 62
    1
370
   -1
100
AcDbLine
 10
550.9691016492218
 20
-163.259576254397
 11
550.9691016492218
 21
-166.109576254397
  0
LINE
  5
275
100
AcDbEntity
  8
4
  6
ByLayer
 62
    1
370
   -1
100
AcDbLine
 10
550.9691016492218
 20
-166.109576254397
 11
554.3191016492219
 21
-166.109576254397
  0
LINE
  5
276
100
AcDbEntity
  8
4
  6
ByLayer
 62
    1
370
   -1
100
AcDbLine
 10
554.3191016492219
 20
-166.109576254397
 11
554.3191016492219
 21
-163.259576254397
  0
LINE
  5
277
100
AcDbEntity
  8
4
  6
ByLayer
 62
    1
370
   -1
100
AcDbLine
 10
554.3191016492219
 20
-163.259576254397
 11
553.3191016492219
 21
-163.259576254397
  0
ARC
  5
278
100
AcDbEntity
  8
4
  6
ByLayer
 62
    1
370
   -1
100
AcDbCircle
 10
553.4191016492218
 20
-197.4345762543971
 40
0.925
100
AcDbArc
 50
151.94144
 51
-28.05856
  0
ARC
  5
279
100
AcDbEntity
  8
4
  6
ByLayer
 62
    1
370
   -1
100
AcDbCircle
 10
553.4191016492218
 20
-197.4345762543971
 40
0.925
100
AcDbArc
 50
-28.05856
 51
151.94144
  0
ARC
  5
27A
100
AcDbEntity
  8
4
  6
ByLayer
 62
    1
370
   -1
100
AcDbCircle
 10
374.8541016492218
 20
-197.4345762543971
 40
0.925
100
AcDbArc
 50
0
 51
180
  0
ARC
  5
27B
100
AcDbEntity
  8
4
  6
ByLayer
 62
    1
370
   -1
100
AcDbCircle
 10
374.8541016492218
 20
-197.4345762543971
 40
0.925
100
AcDbArc
 50
180
 51
0
  0
LINE
  5
27C
100
AcDbEntity
  8
4
  6
ByLayer
 62
    1
370
   -1
100
AcDbLine
 10
375.7791016492218
 20
-201.509576254397
 11
192.2891016492218
 21
-201.509576254397
  0
ARC
  5
27D
100
AcDbEntity
  8
4
  6
ByLayer
 62
    1
370
   -1
100
AcDbCircle
 10
192.2891016492218
 20
-201.4345762543971
 40
0.075
100
AcDbArc
 50
180
 51
-90
  0
LINE
  5
27E
100
AcDbEntity
  8
4
  6
ByLayer
 62
    1
370
   -1
100
AcDbLine
 10
192.2141016492218
 20
-201.4345762543971
 11
192.2141016492218
 21
-74.03457625439705
  0
ARC
  5
27F
100
AcDbEntity
  8
4
  6
ByLayer
 62
    1
370
   -1
100
AcDbCircle
 10
192.2891016492218
 20
-74.03457625439705
 40
0.075
100
AcDbArc
 50
90
 51
180
  0
LINE
  5
280
100
AcDbEntity
  8
4
  6
ByLayer
 62
    1
370
   -1
100
AcDbLine
 10
192.2891016492218
 20
-73.95957625439706
 11
200.2891016492218
 21
-73.95957625439706
  0
ARC
  5
281
100
AcDbEntity
  8
4
  6
ByLayer
 62
    1
370
   -1
100
AcDbCircle
 10
200.2891016492218
 20
-74.03457625439705
 40
0.075
100
AcDbArc
 50
0
 51
90
  0
LINE
  5
282
100
AcDbEntity
  8
4
  6
ByLayer
 62
    1
370
   -1
100
AcDbLine
 10
200.3641016492218
 20
-74.03457625439705
 11
200.3641016492218
 21
-82.13857625439707
  0
LINE
  5
283
100
AcDbEntity
  8
4
  6
ByLayer
 62
    1
370
   -1
100
AcDbLine
 10
200.3641016492218
 20
-82.13857625439707
 11
203.2141016492218
 21
-82.13857625439707
  0
LINE
  5
284
100
AcDbEntity
  8
4
  6
ByLayer
 62
    1
370
   -1
100
AcDbLine
 10
203.2141016492218
 20
-82.13857625439707
 11
203.2141016492218
 21
-74.03457625439705
  0
ARC
  5
285
100
AcDbEntity
  8
4
  6
ByLayer
 62
    1
370
   -1
100
AcDbCircle
 10
203.2891016492218
 20
-74.03457625439705
 40
0.075
100
AcDbArc
 50
90
 51
180
  0
LINE
  5
286
100
AcDbEntity
  8
4
  6
ByLayer
 62
    1
370
   -1
100
AcDbLine
 10
203.2891016492218
 20
-73.95957625439706
 11
206.2891016492218
 21
-73.95957625439706
  0
ARC
  5
287
100
AcDbEntity
  8
4
  6
ByLayer
 62
    1
370
   -1
100
AcDbCircle
 10
206.2891016492218
 20
-74.03457625439705
 40
0.075
100
AcDbArc
 50
0
 51
90
  0
LINE
  5
288
100
AcDbEntity
  8
4
  6
ByLayer
 62
    1
370
   -1
100
AcDbLine
 10
206.3641016492218
 20
-74.03457625439705
 11
206.3641016492218
 21
-82.13857625439707
  0
LINE
  5
289
100
AcDbEntity
  8
4
  6
ByLayer
 62
    1
370
   -1
100
AcDbLine
 10
206.3641016492218
 20
-82.13857625439707
 11
209.2141016492218
 21
-82.13857625439707
  0
LINE
  5
28A
100
AcDbEntity
  8
4
  6
ByLayer
 62
    1
370
   -1
100
AcDbLine
 10
209.2141016492218
 20
-82.13857625439707
 11
209.2141016492218
 21
-74.03457625439705
  0
ARC
  5
28B
100
AcDbEntity
  8
4
  6
ByLayer
 62
    1
370
   -1
100
AcDbCircle
 10
209.2891016492218
 20
-74.03457625439705
 40
0.075
100
AcDbArc
 50
90
 51
180
  0
LINE
  5
28C
100
AcDbEntity
  8
4
  6
ByLayer
 62
    1
370
   -1
100
AcDbLine
 10
209.2891016492218
 20
-73.95957625439706
 11
212.2891016492218
 21
-73.95957625439706
  0
ARC
  5
28D
100
AcDbEntity
  8
4
  6
ByLayer
 62
    1
370
   -1
100
AcDbCircle
 10
212.2891016492218
 20
-74.03457625439705
 40
0.075
100
AcDbArc
 50
0
 51
90
  0
LINE
  5
28E
100
AcDbEntity
  8
4
  6
ByLayer
 62
    1
370
   -1
100
AcDbLine
 10
212.3641016492218
 20
-74.03457625439705
 11
212.3641016492218
 21
-82.13857625439707
  0
LINE
  5
28F
100
AcDbEntity
  8
4
  6
ByLayer
 62
    1
370
   -1
100
AcDbLine
 10
212.3641016492218
 20
-82.13857625439707
 11
215.2141016492218
 21
-82.13857625439707
  0
LINE
  5
290
100
AcDbEntity
  8
4
  6
ByLayer
 62
    1
370
   -1
100
AcDbLine
 10
215.2141016492218
 20
-82.13857625439707
 11
215.2141016492218
 21
-74.03457625439705
  0
ARC
  5
291
100
AcDbEntity
  8
4
  6
ByLayer
 62
    1
370
   -1
100
AcDbCircle
 10
215.2891016492218
 20
-74.03457625439705
 40
0.075
100
AcDbArc
 50
90
 51
180
  0
LINE
  5
292
100
AcDbEntity
  8
4
  6
ByLayer
 62
    1
370
   -1
100
AcDbLine
 10
215.2891016492218
 20
-73.95957625439706
 11
218.2891016492218
 21
-73.95957625439706
  0
ARC
  5
293
100
AcDbEntity
  8
4
  6
ByLayer
 62
    1
370
   -1
100
AcDbCircle
 10
218.2891016492218
 20
-74.03457625439705
 40
0.075
100
AcDbArc
 50
0
 51
90
  0
LINE
  5
294
100
AcDbEntity
  8
4
  6
ByLayer
 62
    1
370
   -1
100
AcDbLine
 10
218.3641016492218
 20
-74.03457625439705
 11
218.3641016492218
 21
-82.13857625439707
  0
LINE
  5
295
100
AcDbEntity
  8
4
  6
ByLayer
 62
    1
370
   -1
100
AcDbLine
 10
218.3641016492218
 20
-82.13857625439707
 11
221.2141016492218
 21
-82.13857625439707
  0
LINE
  5
296
100
AcDbEntity
  8
4
  6
ByLayer
 62
    1
370
   -1
100
AcDbLine
 10
221.2141016492218
 20
-82.13857625439707
 11
221.2141016492218
 21
-74.03457625439705
  0
ARC
  5
297
100
AcDbEntity
  8
4
  6
ByLayer
 62
    1
370
   -1
100
AcDbCircle
 10
221.2891016492218
 20
-74.03457625439705
 40
0.075
100
AcDbArc
 50
90
 51
180
  0
LINE
  5
298
100
AcDbEntity
  8
4
  6
ByLayer
 62
    1
370
   -1
100
AcDbLine
 10
221.2891016492218
 20
-73.95957625439706
 11
224.2891016492218
 21
-73.95957625439706
  0
ARC
  5
299
100
AcDbEntity
  8
4
  6
ByLayer
 62
    1
370
   -1
100
AcDbCircle
 10
224.2891016492218
 20
-74.03457625439705
 40
0.075
100
AcDbArc
 50
0
 51
90
  0
LINE
  5
29A
100
AcDbEntity
  8
4
  6
ByLayer
 62
    1
370
   -1
100
AcDbLine
 10
224.3641016492218
 20
-74.03457625439705
 11
224.3641016492218
 21
-82.13857625439707
  0
LINE
  5
29B
100
AcDbEntity
  8
4
  6
ByLayer
 62
    1
370
   -1
100
AcDbLine
 10
224.3641016492218
 20
-82.13857625439707
 11
227.2141016492218
 21
-82.13857625439707
  0
LINE
  5
29C
100
AcDbEntity
  8
4
  6
ByLayer
 62
    1
370
   -1
100
AcDbLine
 10
227.2141016492218
 20
-82.13857625439707
 11
227.2141016492218
 21
-74.03457625439705
  0
ARC
  5
29D
100
AcDbEntity
  8
4
  6
ByLayer
 62
    1
370
   -1
100
AcDbCircle
 10
227.2891016492218
 20
-74.03457625439705
 40
0.075
100
AcDbArc
 50
90
 51
180
  0
LINE
  5
29E
100
AcDbEntity
  8
4
  6
ByLayer
 62
    1
370
   -1
100
AcDbLine
 10
227.2891016492218
 20
-73.95957625439706
 11
230.2891016492218
 21
-73.95957625439706
  0
ARC
  5
29F
100
AcDbEntity
  8
4
  6
ByLayer
 62
    1
370
   -1
100
AcDbCircle
 10
230.2891016492218
 20
-74.03457625439705
 40
0.075
100
AcDbArc
 50
0
 51
90
  0
LINE
  5
2A0
100
AcDbEntity
  8
4
  6
ByLayer
 62
    1
370
   -1
100
AcDbLine
 10
230.3641016492218
 20
-74.03457625439705
 11
230.3641016492218
 21
-82.13857625439707
  0
LINE
  5
2A1
100
AcDbEntity
  8
4
  6
ByLayer
 62
    1
370
   -1
100
AcDbLine
 10
230.3641016492218
 20
-82.13857625439707
 11
233.2141016492218
 21
-82.13857625439707
  0
LINE
  5
2A2
100
AcDbEntity
  8
4
  6
ByLayer
 62
    1
370
   -1
100
AcDbLine
 10
233.2141016492218
 20
-82.13857625439707
 11
233.2141016492218
 21
-74.03457625439705
  0
ARC
  5
2A3
100
AcDbEntity
  8
4
  6
ByLayer
 62
    1
370
   -1
100
AcDbCircle
 10
233.2891016492218
 20
-74.03457625439705
 40
0.075
100
AcDbArc
 50
90
 51
180
  0
LINE
  5
2A4
100
AcDbEntity
  8
4
  6
ByLayer
 62
    1
370
   -1
100
AcDbLine
 10
233.2891016492218
 20
-73.95957625439706
 11
236.2891016492218
 21
-73.95957625439706
  0
ARC
  5
2A5
100
AcDbEntity
  8
4
  6
ByLayer
 62
    1
370
   -1
100
AcDbCircle
 10
236.2891016492218
 20
-74.03457625439705
 40
0.075
100
AcDbArc
 50
0
 51
90
  0
LINE
  5
2A6
100
AcDbEntity
  8
4
  6
ByLayer
 62
    1
370
   -1
100
AcDbLine
 10
236.3641016492218
 20
-74.03457625439705
 11
236.3641016492218
 21
-82.13857625439707
  0
LINE
  5
2A7
100
AcDbEntity
  8
4
  6
ByLayer
 62
    1
370
   -1
100
AcDbLine
 10
236.3641016492218
 20
-82.13857625439707
 11
239.2141016492218
 21
-82.13857625439707
  0
LINE
  5
2A8
100
AcDbEntity
  8
4
  6
ByLayer
 62
    1
370
   -1
100
AcDbLine
 10
239.2141016492218
 20
-82.13857625439707
 11
239.2141016492218
 21
-74.03457625439705
  0
ARC
  5
2A9
100
AcDbEntity
  8
4
  6
ByLayer
 62
    1
370
   -1
100
AcDbCircle
 10
239.2891016492218
 20
-74.03457625439705
 40
0.075
100
AcDbArc
 50
90
 51
180
  0
LINE
  5
2AA
100
AcDbEntity
  8
4
  6
ByLayer
 62
    1
370
   -1
100
AcDbLine
 10
239.2891016492218
 20
-73.95957625439706
 11
242.2891016492218
 21
-73.95957625439706
  0
ARC
  5
2AB
100
AcDbEntity
  8
4
  6
ByLayer
 62
    1
370
   -1
100
AcDbCircle
 10
242.2891016492218
 20
-74.03457625439705
 40
0.075
100
AcDbArc
 50
0
 51
90
  0
LINE
  5
2AC
100
AcDbEntity
  8
4
  6
ByLayer
 62
    1
370
   -1
100
AcDbLine
 10
242.3641016492218
 20
-74.03457625439705
 11
242.3641016492218
 21
-82.13857625439707
  0
LINE
  5
2AD
100
AcDbEntity
  8
4
  6
ByLayer
 62
    1
370
   -1
100
AcDbLine
 10
242.3641016492218
 20
-82.13857625439707
 11
245.2141016492218
 21
-82.13857625439707
  0
LINE
  5
2AE
100
AcDbEntity
  8
4
  6
ByLayer
 62
    1
370
   -1
100
AcDbLine
 10
245.2141016492218
 20
-82.13857625439707
 11
245.2141016492218
 21
-74.03457625439705
  0
ARC
  5
2AF
100
AcDbEntity
  8
4
  6
ByLayer
 62
    1
370
   -1
100
AcDbCircle
 10
245.2891016492218
 20
-74.03457625439705
 40
0.075
100
AcDbArc
 50
90
 51
180
  0
LINE
  5
2B0
100
AcDbEntity
  8
4
  6
ByLayer
 62
    1
370
   -1
100
AcDbLine
 10
245.2891016492218
 20
-73.95957625439706
 11
248.2891016492218
 21
-73.95957625439706
  0
ARC
  5
2B1
100
AcDbEntity
  8
4
  6
ByLayer
 62
    1
370
   -1
100
AcDbCircle
 10
248.2891016492218
 20
-74.03457625439705
 40
0.075
100
AcDbArc
 50
0
 51
90
  0
LINE
  5
2B2
100
AcDbEntity
  8
4
  6
ByLayer
 62
    1
370
   -1
100
AcDbLine
 10
248.3641016492218
 20
-74.03457625439705
 11
248.3641016492218
 21
-82.13857625439707
  0
LINE
  5
2B3
100
AcDbEntity
  8
4
  6
ByLayer
 62
    1
370
   -1
100
AcDbLine
 10
248.3641016492218
 20
-82.13857625439707
 11
251.2141016492218
 21
-82.13857625439707
  0
LINE
  5
2B4
100
AcDbEntity
  8
4
  6
ByLayer
 62
    1
370
   -1
100
AcDbLine
 10
251.2141016492218
 20
-82.13857625439707
 11
251.2141016492218
 21
-74.03457625439705
  0
ARC
  5
2B5
100
AcDbEntity
  8
4
  6
ByLayer
 62
    1
370
   -1
100
AcDbCircle
 10
251.2891016492218
 20
-74.03457625439705
 40
0.075
100
AcDbArc
 50
90
 51
180
  0
LINE
  5
2B6
100
AcDbEntity
  8
4
  6
ByLayer
 62
    1
370
   -1
100
AcDbLine
 10
251.2891016492218
 20
-73.95957625439706
 11
254.2891016492218
 21
-73.95957625439706
  0
ARC
  5
2B7
100
AcDbEntity
  8
4
  6
ByLayer
 62
    1
370
   -1
100
AcDbCircle
 10
254.2891016492218
 20
-74.03457625439705
 40
0.075
100
AcDbArc
 50
0
 51
90
  0
LINE
  5
2B8
100
AcDbEntity
  8
4
  6
ByLayer
 62
    1
370
   -1
100
AcDbLine
 10
254.3641016492218
 20
-74.03457625439705
 11
254.3641016492218
 21
-82.13857625439707
  0
LINE
  5
2B9
100
AcDbEntity
  8
4
  6
ByLayer
 62
    1
370
   -1
100
AcDbLine
 10
254.3641016492218
 20
-82.13857625439707
 11
257.2141016492218
 21
-82.13857625439707
  0
LINE
  5
2BA
100
AcDbEntity
  8
4
  6
ByLayer
 62
    1
370
   -1
100
AcDbLine
 10
257.2141016492218
 20
-82.13857625439707
 11
257.2141016492218
 21
-74.03457625439705
  0
ARC
  5
2BB
100
AcDbEntity
  8
4
  6
ByLayer
 62
    1
370
   -1
100
AcDbCircle
 10
257.2891016492218
 20
-74.03457625439705
 40
0.075
100
AcDbArc
 50
90
 51
180
  0
LINE
  5
2BC
100
AcDbEntity
  8
4
  6
ByLayer
 62
    1
370
   -1
100
AcDbLine
 10
257.2891016492218
 20
-73.95957625439706
 11
260.2891016492218
 21
-73.95957625439706
  0
ARC
  5
2BD
100
AcDbEntity
  8
4
  6
ByLayer
 62
    1
370
   -1
100
AcDbCircle
 10
260.2891016492218
 20
-74.03457625439705
 40
0.075
100
AcDbArc
 50
0
 51
90
  0
LINE
  5
2BE
100
AcDbEntity
  8
4
  6
ByLayer
 62
    1
370
   -1
100
AcDbLine
 10
260.3641016492218
 20
-74.03457625439705
 11
260.3641016492218
 21
-82.13857625439707
  0
LINE
  5
2BF
100
AcDbEntity
  8
4
  6
ByLayer
 62
    1
370
   -1
100
AcDbLine
 10
260.3641016492218
 20
-82.13857625439707
 11
263.2141016492218
 21
-82.13857625439707
  0
LINE
  5
2C0
100
AcDbEntity
  8
4
  6
ByLayer
 62
    1
370
   -1
100
AcDbLine
 10
263.2141016492218
 20
-82.13857625439707
 11
263.2141016492218
 21
-74.03457625439705
  0
ARC
  5
2C1
100
AcDbEntity
  8
4
  6
ByLayer
 62
    1
370
   -1
100
AcDbCircle
 10
263.2891016492218
 20
-74.03457625439705
 40
0.075
100
AcDbArc
 50
90
 51
180
  0
LINE
  5
2C2
100
AcDbEntity
  8
4
  6
ByLayer
 62
    1
370
   -1
100
AcDbLine
 10
263.2891016492218
 20
-73.95957625439706
 11
266.2891016492218
 21
-73.95957625439706
  0
ARC
  5
2C3
100
AcDbEntity
  8
4
  6
ByLayer
 62
    1
370
   -1
100
AcDbCircle
 10
266.2891016492218
 20
-74.03457625439705
 40
0.075
100
AcDbArc
 50
0
 51
90
  0
LINE
  5
2C4
100
AcDbEntity
  8
4
  6
ByLayer
 62
    1
370
   -1
100
AcDbLine
 10
266.3641016492218
 20
-74.03457625439705
 11
266.3641016492218
 21
-82.13857625439707
  0
LINE
  5
2C5
100
AcDbEntity
  8
4
  6
ByLayer
 62
    1
370
   -1
100
AcDbLine
 10
266.3641016492218
 20
-82.13857625439707
 11
269.2141016492218
 21
-82.13857625439707
  0
LINE
  5
2C6
100
AcDbEntity
  8
4
  6
ByLayer
 62
    1
370
   -1
100
AcDbLine
 10
269.2141016492218
 20
-82.13857625439707
 11
269.2141016492218
 21
-74.03457625439705
  0
ARC
  5
2C7
100
AcDbEntity
  8
4
  6
ByLayer
 62
    1
370
   -1
100
AcDbCircle
 10
269.2891016492218
 20
-74.03457625439705
 40
0.075
100
AcDbArc
 50
90
 51
180
  0
LINE
  5
2C8
100
AcDbEntity
  8
4
  6
ByLayer
 62
    1
370
   -1
100
AcDbLine
 10
269.2891016492218
 20
-73.95957625439706
 11
467.7291016492218
 21
-73.95957625439706
  0
ARC
  5
2C9
100
AcDbEntity
  8
4
  6
ByLayer
 62
    1
370
   -1
100
AcDbCircle
 10
467.7291016492218
 20
-74.03457625439705
 40
0.075
100
AcDbArc
 50
0
 51
90
  0
LINE
  5
2CA
100
AcDbEntity
  8
4
  6
ByLayer
 62
    1
370
   -1
100
AcDbLine
 10
467.8041016492218
 20
-74.03457625439705
 11
467.8041016492218
 21
-97.03457625439705
  0
ARC
  5
2CB
100
AcDbEntity
  8
4
  6
ByLayer
 62
    1
370
   -1
100
AcDbCircle
 10
467.7291016492218
 20
-97.03457625439705
 40
0.075
100
AcDbArc
 50
-90
 51
0
  0
LINE
  5
2CC
100
AcDbEntity
  8
4
  6
ByLayer
 62
    1
370
   -1
100
AcDbLine
 10
467.7291016492218
 20
-97.10957625439706
 11
200.3641016492218
 21
-97.10957625439706
  0
LINE
  5
2CD
100
AcDbEntity
  8
4
  6
ByLayer
 62
    1
370
   -1
100
AcDbLine
 10
200.3641016492218
 20
-97.10957625439706
 11
200.3641016492218
 21
-193.359576254397
  0
LINE
  5
2CE
100
AcDbEntity
  8
4
  6
ByLayer
 62
    1
370
   -1
100
AcDbLine
 10
200.3641016492218
 20
-193.359576254397
 11
549.3441016492218
 21
-193.359576254397
  0
LINE
  5
2CF
100
AcDbEntity
  8
4
  6
ByLayer
 62
    1
370
   -1
100
AcDbLine
 10
549.3441016492218
 20
-193.359576254397
 11
549.3441016492218
 21
-97.10957625439706
  0
LINE
  5
2D0
100
AcDbEntity
  8
4
  6
ByLayer
 62
    1
370
   -1
100
AcDbLine
 10
549.3441016492218
 20
-97.10957625439706
 11
482.0001016492218
 21
-97.10957625439706
  0
ARC
  5
2D1
100
AcDbEntity
  8
4
  6
ByLayer
 62
    1
370
   -1
100
AcDbCircle
 10
482.0001016492218
 20
-97.03457625439705
 40
0.075
100
AcDbArc
 50
180
 51
-90
  0
LINE
  5
2D2
100
AcDbEntity
  8
4
  6
ByLayer
 62
    1
370
   -1
100
AcDbLine
 10
481.9251016492219
 20
-97.03457625439705
 11
481.9251016492219
 21
-74.03457625439705
  0
ARC
  5
2D3
100
AcDbEntity
  8
4
  6
ByLayer
 62
    1
370
   -1
100
AcDbCircle
 10
482.0001016492218
 20
-74.03457625439705
 40
0.075
100
AcDbArc
 50
90
 51
180
  0
LINE
  5
2D4
100
AcDbEntity
  8
4
  6
ByLayer
 62
    1
370
   -1
100
AcDbLine
 10
482.0001016492218
 20
-73.95957625439706
 11
513.8571016492217
 21
-73.95957625439706
  0
ARC
  5
2D5
100
AcDbEntity
  8
4
  6
ByLayer
 62
    1
370
   -1
100
AcDbCircle
 10
513.8571016492217
 20
-74.03457625439705
 40
0.075
100
AcDbArc
 50
-45.004122
 51
90
  0
LINE
  5
2D6
100
AcDbEntity
  8
4
  6
ByLayer
 62
    1
370
   -1
100
AcDbLine
 10
513.9101016492218
 20
-74.08757625439705
 11
497.7001016492218
 21
-90.29857625439706
  0
LINE
  5
2D7
100
AcDbEntity
  8
4
  6
ByLayer
 62
    1
370
   -1
100
AcDbLine
 10
497.7001016492218
 20
-90.29857625439706
 11
499.7151016492218
 21
-92.31357625439705
  0
LINE
  5
2D8
100
AcDbEntity
  8
4
  6
ByLayer
 62
    1
370
   -1
100
AcDbLine
 10
499.7151016492218
 20
-92.31357625439705
 11
518.0471016492218
 21
-73.98157625439705
  0
ARC
  5
2D9
100
AcDbEntity
  8
4
  6
ByLayer
 62
    1
370
   -1
100
AcDbCircle
 10
518.1001016492219
 20
-74.03457625439705
 40
0.075
100
AcDbArc
 50
90
 51
135.004121
  0
LINE
  5
2DA
100
AcDbEntity
  8
4
  6
ByLayer
 62
    1
370
   -1
100
AcDbLine
 10
518.1001016492219
 20
-73.95957625439706
 11
522.3571016492217
 21
-73.95957625439706
  0
ARC
  5
2DB
100
AcDbEntity
  8
4
  6
ByLayer
 62
    1
370
   -1
100
AcDbCircle
 10
522.3571016492217
 20
-74.03457625439705
 40
0.075
100
AcDbArc
 50
-45.004122
 51
90
  0
LINE
  5
2DC
100
AcDbEntity
  8
4
  6
ByLayer
 62
    1
370
   -1
100
AcDbLine
 10
522.4101016492218
 20
-74.08757625439705
 11
506.2001016492218
 21
-90.29857625439706
  0
LINE
  5
2DD
100
AcDbEntity
  8
4
  6
ByLayer
 62
    1
370
   -1
100
AcDbLine
 10
506.2001016492218
 20
-90.29857625439706
 11
508.2151016492218
 21
-92.31357625439705
  0
LINE
  5
2DE
100
AcDbEntity
  8
4
  6
ByLayer
 62
    1
370
   -1
100
AcDbLine
 10
508.2151016492218
 20
-92.31357625439705
 11
526.5471016492218
 21
-73.98157625439705
  0
ARC
  5
2DF
100
AcDbEntity
  8
4
  6
ByLayer
 62
    1
370
   -1
100
AcDbCircle
 10
526.6001016492219
 20
-74.03457625439705
 40
0.075
100
AcDbArc
 50
90
 51
135.004121
  0
LINE
  5
2E0
100
AcDbEntity
  8
4
  6
ByLayer
 62
    1
370
   -1
100
AcDbLine
 10
526.6001016492219
 20
-73.95957625439706
 11
530.8571016492217
 21
-73.95957625439706
  0
ARC
  5
2E1
100
AcDbEntity
  8
4
  6
ByLayer
 62
    1
370
   -1
100
AcDbCircle
 10
530.8571016492217
 20
-74.03457625439705
 40
0.075
100
AcDbArc
 50
-45.004122
 51
90
  0
LINE
  5
2E2
100
AcDbEntity
  8
4
  6
ByLayer
 62
    1
370
   -1
100
AcDbLine
 10
530.9101016492218
 20
-74.08757625439705
 11
514.7001016492218
 21
-90.29857625439706
  0
LINE
  5
2E3
100
AcDbEntity
  8
4
  6
ByLayer
 62
    1
370
   -1
100
AcDbLine
 10
514.7001016492218
 20
-90.29857625439706
 11
516.7151016492219
 21
-92.31357625439705
  0
LINE
  5
2E4
100
AcDbEntity
  8
4
  6
ByLayer
 62
    1
370
   -1
100
AcDbLine
 10
516.7151016492219
 20
-92.31357625439705
 11
535.0471016492218
 21
-73.98157625439705
  0
ARC
  5
2E5
100
AcDbEntity
  8
4
  6
ByLayer
 62
    1
370
   -1
100
AcDbCircle
 10
535.1001016492219
 20
-74.03457625439705
 40
0.075
100
AcDbArc
 50
90
 51
135.004121
  0
LINE
  5
2E6
100
AcDbEntity
  8
4
  6
ByLayer
 62
    1
370
   -1
100
AcDbLine
 10
535.1001016492219
 20
-73.95957625439706
 11
539.3571016492217
 21
-73.95957625439706
  0
ARC
  5
2E7
100
AcDbEntity
  8
4
  6
ByLayer
 62
    1
370
   -1
100
AcDbCircle
 10
539.3571016492217
 20
-74.03457625439705
 40
0.075
100
AcDbArc
 50
-45.004122
 51
90
  0
LINE
  5
2E8
100
AcDbEntity
  8
4
  6
ByLayer
 62
    1
370
   -1
100
AcDbLine
 10
539.4101016492218
 20
-74.08757625439705
 11
523.2001016492218
 21
-90.29857625439706
  0
LINE
  5
2E9
100
AcDbEntity
  8
4
  6
ByLayer
 62
    1
370
   -1
100
AcDbLine
 10
523.2001016492218
 20
-90.29857625439706
 11
525.2151016492219
 21
-92.31357625439705
  0
LINE
  5
2EA
100
AcDbEntity
  8
4
  6
ByLayer
 62
    1
370
   -1
100
AcDbLine
 10
525.2151016492219
 20
-92.31357625439705
 11
543.5471016492218
 21
-73.98157625439705
  0
ARC
  5
2EB
100
AcDbEntity
  8
4
  6
ByLayer
 62
    1
370
   -1
100
AcDbCircle
 10
543.6001016492219
 20
-74.03457625439705
 40
0.075
100
AcDbArc
 50
90
 51
135.004121
  0
LINE
  5
2EC
100
AcDbEntity
  8
4
  6
ByLayer
 62
    1
370
   -1
100
AcDbLine
 10
543.6001016492219
 20
-73.95957625439706
 11
557.4191016492218
 21
-73.95957625439706
  0
ARC
  5
2ED
100
AcDbEntity
  8
4
  6
ByLayer
 62
    1
370
   -1
100
AcDbCircle
 10
557.4191016492218
 20
-74.03457625439705
 40
0.075
100
AcDbArc
 50
0
 51
90
  0
LINE
  5
2EE
100
AcDbEntity
  8
4
  6
ByLayer
 62
    1
370
   -1
100
AcDbLine
 10
557.4941016492219
 20
-74.03457625439705
 11
557.4941016492219
 21
-201.4345762543971
  0
ARC
  5
2EF
100
AcDbEntity
  8
4
  6
ByLayer
 62
    1
370
   -1
100
AcDbCircle
 10
557.4191016492218
 20
-201.4345762543971
 40
0.075
100
AcDbArc
 50
-90
 51
0
  0
LINE
  5
2F0
100
AcDbEntity
  8
4
  6
ByLayer
 62
    1
370
   -1
100
AcDbLine
 10
557.4191016492218
 20
-201.509576254397
 11
375.7791016492218
 21
-201.509576254397
  0
LINE
  5
2F1
100
AcDbEntity
  8
6
  6
ByLayer
 62
    1
370
   -1
100
AcDbLine
 10
150.0541186617497
 20
101.62515829525
 11
151.9631186617498
 21
99.71615829525001
  0
LINE
  5
2F2
100
AcDbEntity
  8
6
  6
ByLayer
 62
    1
370
   -1
100
AcDbLine
 10
151.9631186617498
 20
99.71615829525001
 11
155.3921186617498
 21
103.14615829525
  0
LINE
  5
2F3
100
AcDbEntity
  8
6
  6
ByLayer
 62
    1
370
   -1
100
AcDbLine
 10
155.3921186617498
 20
103.14615829525
 11
153.3771186617498
 21
105.16115829525
  0
LINE
  5
2F4
100
AcDbEntity
  8
6
  6
ByLayer
 62
    1
370
   -1
100
AcDbLine
 10
153.3771186617498
 20
105.16115829525
 11
149.9481186617497
 21
101.73215829525
  0
LINE
  5
2F5
100
AcDbEntity
  8
6
  6
ByLayer
 62
    1
370
   -1
100
AcDbLine
 10
149.9481186617497
 20
101.73215829525
 11
150.0541186617497
 21
101.62515829525
  0
LINE
  5
2F6
100
AcDbEntity
  8
6
  6
ByLayer
 62
    1
370
   -1
100
AcDbLine
 10
142.0491186617498
 20
102.33215829525
 11
141.4481186617498
 21
101.73215829525
  0
LINE
  5
2F7
100
AcDbEntity
  8
6
  6
ByLayer
 62
    1
370
   -1
100
AcDbLine
 10
141.4481186617498
 20
101.73215829525
 11
143.4631186617498
 21
99.71615829525001
  0
LINE
  5
2F8
100
AcDbEntity
  8
6
  6
ByLayer
 62
    1
370
   -1
100
AcDbLine
 10
143.4631186617498
 20
99.71615829525001
 11
146.8921186617498
 21
103.14615829525
  0
LINE
  5
2F9
100
AcDbEntity
  8
6
  6
ByLayer
 62
    1
370
   -1
100
AcDbLine
 10
146.8921186617498
 20
103.14615829525
 11
144.8771186617498
 21
105.16115829525
  0
LINE
  5
2FA
100
AcDbEntity
  8
6
  6
ByLayer
 62
    1
370
   -1
100
AcDbLine
 10
144.8771186617498
 20
105.16115829525
 11
142.0491186617498
 21
102.33215829525
  0
LINE
  5
2FB
100
AcDbEntity
  8
6
  6
ByLayer
 62
    1
370
   -1
100
AcDbLine
 10
137.7911186617497
 20
102.54515829525
 11
138.3921186617497
 21
103.14615829525
  0
LINE
  5
2FC
100
AcDbEntity
  8
6
  6
ByLayer
 62
    1
370
   -1
100
AcDbLine
 10
138.3921186617497
 20
103.14615829525
 11
136.3771186617498
 21
105.16115829525
  0
LINE
  5
2FD
100
AcDbEntity
  8
6
  6
ByLayer
 62
    1
370
   -1
100
AcDbLine
 10
136.3771186617498
 20
105.16115829525
 11
132.9481186617498
 21
101.73215829525
  0
LINE
  5
2FE
100
AcDbEntity
  8
6
  6
ByLayer
 62
    1
370
   -1
100
AcDbLine
 10
132.9481186617498
 20
101.73215829525
 11
134.9631186617498
 21
99.71615829525001
  0
LINE
  5
2FF
100
AcDbEntity
  8
6
  6
ByLayer
 62
    1
370
   -1
100
AcDbLine
 10
134.9631186617498
 20
99.71615829525001
 11
137.7911186617497
 21
102.54515829525
  0
LINE
  5
300
100
AcDbEntity
  8
6
  6
ByLayer
 62
    1
370
   -1
100
AcDbLine
 10
129.2911186617497
 20
102.54515829525
 11
129.8921186617497
 21
103.14615829525
  0
LINE
  5
301
100
AcDbEntity
  8
6
  6
ByLayer
 62
    1
370
   -1
100
AcDbLine
 10
129.8921186617497
 20
103.14615829525
 11
127.8771186617498
 21
105.16115829525
  0
LINE
  5
302
100
AcDbEntity
  8
6
  6
ByLayer
 62
    1
370
   -1
100
AcDbLine
 10
127.8771186617498
 20
105.16115829525
 11
124.4481186617498
 21
101.73215829525
  0
LINE
  5
303
100
AcDbEntity
  8
6
  6
ByLayer
 62
    1
370
   -1
100
AcDbLine
 10
124.4481186617498
 20
101.73215829525
 11
126.4631186617498
 21
99.71615829525001
  0
LINE
  5
304
100
AcDbEntity
  8
6
  6
ByLayer
 62
    1
370
   -1
100
AcDbLine
 10
126.4631186617498
 20
99.71615829525001
 11
129.2911186617497
 21
102.54515829525
  0
LINE
  5
305
100
AcDbEntity
  8
6
  6
ByLayer
 62
    1
370
   -1
100
AcDbLine
 10
75.87411866174978
 20
102.92015829525
 11
75.7241186617498
 21
102.92015829525
  0
LINE
  5
306
100
AcDbEntity
  8
6
  6
ByLayer
 62
    1
370
   -1
100
AcDbLine
 10
75.7241186617498
 20
102.92015829525
 11
75.7241186617498
 21
100.07015829525
  0
LINE
  5
307
100
AcDbEntity
  8
6
  6
ByLayer
 62
    1
370
   -1
100
AcDbLine
 10
75.7241186617498
 20
100.07015829525
 11
85.57411866174976
 21
100.07015829525
  0
LINE
  5
308
100
AcDbEntity
  8
6
  6
ByLayer
 62
    1
370
   -1
100
AcDbLine
 10
85.57411866174976
 20
100.07015829525
 11
85.57411866174976
 21
102.92015829525
  0
LINE
  5
309
100
AcDbEntity
  8
6
  6
ByLayer
 62
    1
370
   -1
100
AcDbLine
 10
85.57411866174976
 20
102.92015829525
 11
75.87411866174978
 21
102.92015829525
  0
LINE
  5
30A
100
AcDbEntity
  8
6
  6
ByLayer
 62
    1
370
   -1
100
AcDbLine
 10
36.16611866174975
 20
102.76115829525
 11
36.16611866174975
 21
100.07015829525
  0
LINE
  5
30B
100
AcDbEntity
  8
6
  6
ByLayer
 62
    1
370
   -1
100
AcDbLine
 10
36.16611866174975
 20
100.07015829525
 11
46.01611866174977
 21
100.07015829525
  0
LINE
  5
30C
100
AcDbEntity
  8
6
  6
ByLayer
 62
    1
370
   -1
100
AcDbLine
 10
46.01611866174977
 20
100.07015829525
 11
46.01611866174977
 21
102.92015829525
  0
LINE
  5
30D
100
AcDbEntity
  8
6
  6
ByLayer
 62
    1
370
   -1
100
AcDbLine
 10
46.01611866174977
 20
102.92015829525
 11
36.16611866174975
 21
102.92015829525
  0
LINE
  5
30E
100
AcDbEntity
  8
6
  6
ByLayer
 62
    1
370
   -1
100
AcDbLine
 10
36.16611866174975
 20
102.92015829525
 11
36.16611866174975
 21
102.76115829525
  0
LINE
  5
30F
100
AcDbEntity
  8
6
  6
ByLayer
 62
    1
370
   -1
100
AcDbLine
 10
-52.95088133825021
 20
102.76115829525
 11
-52.95088133825021
 21
100.07015829525
  0
LINE
  5
310
100
AcDbEntity
  8
6
  6
ByLayer
 62
    1
370
   -1
100
AcDbLine
 10
-52.95088133825021
 20
100.07015829525
 11
-43.10088133825025
 21
100.07015829525
  0
LINE
  5
311
100
AcDbEntity
  8
6
  6
ByLayer
 62
    1
370
   -1
100
AcDbLine
 10
-43.10088133825025
 20
100.07015829525
 11
-43.10088133825025
 21
102.92015829525
  0
LINE
  5
312
100
AcDbEntity
  8
6
  6
ByLayer
 62
    1
370
   -1
100
AcDbLine
 10
-43.10088133825025
 20
102.92015829525
 11
-52.95088133825021
 21
102.92015829525
  0
LINE
  5
313
100
AcDbEntity
  8
6
  6
ByLayer
 62
    1
370
   -1
100
AcDbLine
 10
-52.95088133825021
 20
102.92015829525
 11
-52.95088133825021
 21
102.76115829525
  0
LINE
  5
314
100
AcDbEntity
  8
6
  6
ByLayer
 62
    1
370
   -1
100
AcDbLine
 10
-82.65888133825024
 20
102.76115829525
 11
-82.65888133825024
 21
102.92015829525
  0
LINE
  5
315
100
AcDbEntity
  8
6
  6
ByLayer
 62
    1
370
   -1
100
AcDbLine
 10
-82.65888133825024
 20
102.92015829525
 11
-92.50888133825021
 21
102.92015829525
  0
LINE
  5
316
100
AcDbEntity
  8
6
  6
ByLayer
 62
    1
370
   -1
100
AcDbLine
 10
-92.50888133825021
 20
102.92015829525
 11
-92.50888133825021
 21
100.07015829525
  0
LINE
  5
317
100
AcDbEntity
  8
6
  6
ByLayer
 62
    1
370
   -1
100
AcDbLine
 10
-92.50888133825021
 20
100.07015829525
 11
-82.65888133825024
 21
100.07015829525
  0
LINE
  5
318
100
AcDbEntity
  8
6
  6
ByLayer
 62
    1
370
   -1
100
AcDbLine
 10
-82.65888133825024
 20
100.07015829525
 11
-82.65888133825024
 21
102.76115829525
  0
LINE
  5
319
100
AcDbEntity
  8
6
  6
ByLayer
 62
    1
370
   -1
100
AcDbLine
 10
-82.65888133825024
 20
109.87815829525
 11
176.1351186617497
 21
109.87815829525
  0
ARC
  5
31A
100
AcDbEntity
  8
6
  6
ByLayer
 62
    1
370
   -1
100
AcDbCircle
 10
176.1351186617497
 20
109.80315829525
 40
0.075
100
AcDbArc
 50
0
 51
90
  0
LINE
  5
31B
100
AcDbEntity
  8
6
  6
ByLayer
 62
    1
370
   -1
100
AcDbLine
 10
176.2101186617498
 20
109.80315829525
 11
176.2101186617498
 21
91.48315829525002
  0
ARC
  5
31C
100
AcDbEntity
  8
6
  6
ByLayer
 62
    1
370
   -1
100
AcDbCircle
 10
176.1351186617497
 20
91.48315829525002
 40
0.075
100
AcDbArc
 50
-90
 51
0
  0
LINE
  5
31D
100
AcDbEntity
  8
6
  6
ByLayer
 62
    1
370
   -1
100
AcDbLine
 10
176.1351186617497
 20
91.40815829525
 11
-172.9468813382502
 21
91.40815829525
  0
ARC
  5
31E
100
AcDbEntity
  8
6
  6
ByLayer
 62
    1
370
   -1
100
AcDbCircle
 10
-172.9468813382502
 20
91.48315829525002
 40
0.075
100
AcDbArc
 50
180
 51
-90
  0
LINE
  5
31F
100
AcDbEntity
  8
6
  6
ByLayer
 62
    1
370
   -1
100
AcDbLine
 10
-173.0218813382502
 20
91.48315829525002
 11
-173.0218813382502
 21
109.80315829525
  0
ARC
  5
320
100
AcDbEntity
  8
6
  6
ByLayer
 62
    1
370
   -1
100
AcDbCircle
 10
-172.9468813382502
 20
109.80315829525
 40
0.075
100
AcDbArc
 50
90
 51
180
  0
LINE
  5
321
100
AcDbEntity
  8
6
  6
ByLayer
 62
    1
370
   -1
100
AcDbLine
 10
-172.9468813382502
 20
109.87815829525
 11
-82.65888133825024
 21
109.87815829525
  0
LINE
  5
322
100
AcDbEntity
  8
7
  6
ByLayer
 62
    1
370
   -1
100
AcDbLine
 10
515.1866490735005
 20
101.34802947275
 11
517.0956490735005
 21
99.43902947275002
  0
LINE
  5
323
100
AcDbEntity
  8
7
  6
ByLayer
 62
    1
370
   -1
100
AcDbLine
 10
517.0956490735005
 20
99.43902947275002
 11
520.5246490735004
 21
102.86902947275
  0
LINE
  5
324
100
AcDbEntity
  8
7
  6
ByLayer
 62
    1
370
   -1
100
AcDbLine
 10
520.5246490735004
 20
102.86902947275
 11
518.5096490735004
 21
104.88402947275
  0
LINE
  5
325
100
AcDbEntity
  8
7
  6
ByLayer
 62
    1
370
   -1
100
AcDbLine
 10
518.5096490735004
 20
104.88402947275
 11
515.0806490735005
 21
101.45502947275
  0
LINE
  5
326
100
AcDbEntity
  8
7
  6
ByLayer
 62
    1
370
   -1
100
AcDbLine
 10
515.0806490735005
 20
101.45502947275
 11
515.1866490735005
 21
101.34802947275
  0
LINE
  5
327
100
AcDbEntity
  8
7
  6
ByLayer
 62
    1
370
   -1
100
AcDbLine
 10
507.1816490735005
 20
102.05502947275
 11
506.5806490735005
 21
101.45502947275
  0
LINE
  5
328
100
AcDbEntity
  8
7
  6
ByLayer
 62
    1
370
   -1
100
AcDbLine
 10
506.5806490735005
 20
101.45502947275
 11
508.5956490735005
 21
99.43902947275002
  0
LINE
  5
329
100
AcDbEntity
  8
7
  6
ByLayer
 62
    1
370
   -1
100
AcDbLine
 10
508.5956490735005
 20
99.43902947275002
 11
512.0246490735004
 21
102.86902947275
  0
LINE
  5
32A
100
AcDbEntity
  8
7
  6
ByLayer
 62
    1
370
   -1
100
AcDbLine
 10
512.0246490735004
 20
102.86902947275
 11
510.0096490735004
 21
104.88402947275
  0
LINE
  5
32B
100
AcDbEntity
  8
7
  6
ByLayer
 62
    1
370
   -1
100
AcDbLine
 10
510.0096490735004
 20
104.88402947275
 11
507.1816490735005
 21
102.05502947275
  0
LINE
  5
32C
100
AcDbEntity
  8
7
  6
ByLayer
 62
    1
370
   -1
100
AcDbLine
 10
502.9236490735004
 20
102.26802947275
 11
503.5246490735004
 21
102.86902947275
  0
LINE
  5
32D
100
AcDbEntity
  8
7
  6
ByLayer
 62
    1
370
   -1
100
AcDbLine
 10
503.5246490735004
 20
102.86902947275
 11
501.5096490735004
 21
104.88402947275
  0
LINE
  5
32E
100
AcDbEntity
  8
7
  6
ByLayer
 62
    1
370
   -1
100
AcDbLine
 10
501.5096490735004
 20
104.88402947275
 11
498.0806490735005
 21
101.45502947275
  0
LINE
  5
32F
100
AcDbEntity
  8
7
  6
ByLayer
 62
    1
370
   -1
100
AcDbLine
 10
498.0806490735005
 20
101.45502947275
 11
500.0956490735005
 21
99.43902947275002
  0
LINE
  5
330
100
AcDbEntity
  8
7
  6
ByLayer
 62
    1
370
   -1
100
AcDbLine
 10
500.0956490735005
 20
99.43902947275002
 11
502.9236490735004
 21
102.26802947275
  0
LINE
  5
331
100
AcDbEntity
  8
7
  6
ByLayer
 62
    1
370
   -1
100
AcDbLine
 10
494.4236490735004
 20
102.26802947275
 11
495.0246490735004
 21
102.86902947275
  0
LINE
  5
332
100
AcDbEntity
  8
7
  6
ByLayer
 62
    1
370
   -1
100
AcDbLine
 10
495.0246490735004
 20
102.86902947275
 11
493.0096490735004
 21
104.88402947275
  0
LINE
  5
333
100
AcDbEntity
  8
7
  6
ByLayer
 62
    1
370
   -1
100
AcDbLine
 10
493.0096490735004
 20
104.88402947275
 11
489.5806490735005
 21
101.45502947275
  0
LINE
  5
334
100
AcDbEntity
  8
7
  6
ByLayer
 62
    1
370
   -1
100
AcDbLine
 10
489.5806490735005
 20
101.45502947275
 11
491.5956490735005
 21
99.43902947275002
  0
LINE
  5
335
100
AcDbEntity
  8
7
  6
ByLayer
 62
    1
370
   -1
100
AcDbLine
 10
491.5956490735005
 20
99.43902947275002
 11
494.4236490735004
 21
102.26802947275
  0
LINE
  5
336
100
AcDbEntity
  8
7
  6
ByLayer
 62
    1
370
   -1
100
AcDbLine
 10
441.0066490735005
 20
102.64302947275
 11
440.8566490735005
 21
102.64302947275
  0
LINE
  5
337
100
AcDbEntity
  8
7
  6
ByLayer
 62
    1
370
   -1
100
AcDbLine
 10
440.8566490735005
 20
102.64302947275
 11
440.8566490735005
 21
99.79302947275004
  0
LINE
  5
338
100
AcDbEntity
  8
7
  6
ByLayer
 62
    1
370
   -1
100
AcDbLine
 10
440.8566490735005
 20
99.79302947275004
 11
450.7066490735004
 21
99.79302947275004
  0
LINE
  5
339
100
AcDbEntity
  8
7
  6
ByLayer
 62
    1
370
   -1
100
AcDbLine
 10
450.7066490735004
 20
99.79302947275004
 11
450.7066490735004
 21
102.64302947275
  0
LINE
  5
33A
100
AcDbEntity
  8
7
  6
ByLayer
 62
    1
370
   -1
100
AcDbLine
 10
450.7066490735004
 20
102.64302947275
 11
441.0066490735005
 21
102.64302947275
  0
LINE
  5
33B
100
AcDbEntity
  8
7
  6
ByLayer
 62
    1
370
   -1
100
AcDbLine
 10
401.2986490735005
 20
102.48402947275
 11
401.2986490735005
 21
99.79302947275004
  0
LINE
  5
33C
100
AcDbEntity
  8
7
  6
ByLayer
 62
    1
370
   -1
100
AcDbLine
 10
401.2986490735005
 20
99.79302947275004
 11
411.1486490735005
 21
99.79302947275004
  0
LINE
  5
33D
100
AcDbEntity
  8
7
  6
ByLayer
 62
    1
370
   -1
100
AcDbLine
 10
411.1486490735005
 20
99.79302947275004
 11
411.1486490735005
 21
102.64302947275
  0
LINE
  5
33E
100
AcDbEntity
  8
7
  6
ByLayer
 62
    1
370
   -1
100
AcDbLine
 10
411.1486490735005
 20
102.64302947275
 11
401.2986490735005
 21
102.64302947275
  0
LINE
  5
33F
100
AcDbEntity
  8
7
  6
ByLayer
 62
    1
370
   -1
100
AcDbLine
 10
401.2986490735005
 20
102.64302947275
 11
401.2986490735005
 21
102.48402947275
  0
LINE
  5
340
100
AcDbEntity
  8
7
  6
ByLayer
 62
    1
370
   -1
100
AcDbLine
 10
312.1816490735005
 20
102.48402947275
 11
312.1816490735005
 21
99.79302947275004
  0
LINE
  5
341
100
AcDbEntity
  8
7
  6
ByLayer
 62
    1
370
   -1
100
AcDbLine
 10
312.1816490735005
 20
99.79302947275004
 11
322.0316490735005
 21
99.79302947275004
  0
LINE
  5
342
100
AcDbEntity
  8
7
  6
ByLayer
 62
    1
370
   -1
100
AcDbLine
 10
322.0316490735005
 20
99.79302947275004
 11
322.0316490735005
 21
102.64302947275
  0
LINE
  5
343
100
AcDbEntity
  8
7
  6
ByLayer
 62
    1
370
   -1
100
AcDbLine
 10
322.0316490735005
 20
102.64302947275
 11
312.1816490735005
 21
102.64302947275
  0
LINE
  5
344
100
AcDbEntity
  8
7
  6
ByLayer
 62
    1
370
   -1
100
AcDbLine
 10
312.1816490735005
 20
102.64302947275
 11
312.1816490735005
 21
102.48402947275
  0
LINE
  5
345
100
AcDbEntity
  8
7
  6
ByLayer
 62
    1
370
   -1
100
AcDbLine
 10
282.4736490735005
 20
102.48402947275
 11
282.4736490735005
 21
102.64302947275
  0
LINE
  5
346
100
AcDbEntity
  8
7
  6
ByLayer
 62
    1
370
   -1
100
AcDbLine
 10
282.4736490735005
 20
102.64302947275
 11
272.6236490735005
 21
102.64302947275
  0
LINE
  5
347
100
AcDbEntity
  8
7
  6
ByLayer
 62
    1
370
   -1
100
AcDbLine
 10
272.6236490735005
 20
102.64302947275
 11
272.6236490735005
 21
99.79302947275004
  0
LINE
  5
348
100
AcDbEntity
  8
7
  6
ByLayer
 62
    1
370
   -1
100
AcDbLine
 10
272.6236490735005
 20
99.79302947275004
 11
282.4736490735005
 21
99.79302947275004
  0
LINE
  5
349
100
AcDbEntity
  8
7
  6
ByLayer
 62
    1
370
   -1
100
AcDbLine
 10
282.4736490735005
 20
99.79302947275004
 11
282.4736490735005
 21
102.48402947275
  0
LINE
  5
34A
100
AcDbEntity
  8
7
  6
ByLayer
 62
    1
370
   -1
100
AcDbLine
 10
282.4736490735005
 20
107.10102947275
 11
541.2676490735005
 21
107.10102947275
  0
ARC
  5
34B
100
AcDbEntity
  8
7
  6
ByLayer
 62
    1
370
   -1
100
AcDbCircle
 10
541.2676490735005
 20
107.02602947275
 40
0.075
100
AcDbArc
 50
0
 51
90
  0
LINE
  5
34C
100
AcDbEntity
  8
7
  6
ByLayer
 62
    1
370
   -1
100
AcDbLine
 10
541.3426490735004
 20
107.02602947275
 11
541.3426490735004
 21
94.70602947275003
  0
ARC
  5
34D
100
AcDbEntity
  8
7
  6
ByLayer
 62
    1
370
   -1
100
AcDbCircle
 10
541.2676490735005
 20
94.70602947275003
 40
0.075
100
AcDbArc
 50
-90
 51
0
  0
LINE
  5
34E
100
AcDbEntity
  8
7
  6
ByLayer
 62
    1
370
   -1
100
AcDbLine
 10
541.2676490735005
 20
94.63102947275003
 11
192.1856490735005
 21
94.63102947275003
  0
ARC
  5
34F
100
AcDbEntity
  8
7
  6
ByLayer
 62
    1
370
   -1
100
AcDbCircle
 10
192.1856490735005
 20
94.70602947275003
 40
0.075
100
AcDbArc
 50
180
 51
-90
  0
LINE
  5
350
100
AcDbEntity
  8
7
  6
ByLayer
 62
    1
370
   -1
100
AcDbLine
 10
192.1106490735004
 20
94.70602947275003
 11
192.1106490735004
 21
107.02602947275
  0
ARC
  5
351
100
AcDbEntity
  8
7
  6
ByLayer
 62
    1
370
   -1
100
AcDbCircle
 10
192.1856490735005
 20
107.02602947275
 40
0.075
100
AcDbArc
 50
90
 51
180
  0
LINE
  5
352
100
AcDbEntity
  8
7
  6
ByLayer
 62
    1
370
   -1
100
AcDbLine
 10
192.1856490735005
 20
107.10102947275
 11
282.4736490735005
 21
107.10102947275
  0
LINE
  5
353
100
AcDbEntity
  8
6
  6
ByLayer
 62
    1
370
   -1
100
AcDbLine
 10
515.87731091175
 20
80.14984979525001
 11
517.7863109117501
 21
78.24084979525
  0
LINE
  5
354
100
AcDbEntity
  8
6
  6
ByLayer
 62
    1
370
   -1
100
AcDbLine
 10
517.7863109117501
 20
78.24084979525
 11
521.2153109117501
 21
81.67084979524999
  0
LINE
  5
355
100
AcDbEntity
  8
6
  6
ByLayer
 62
    1
370
   -1
100
AcDbLine
 10
521.2153109117501
 20
81.67084979524999
 11
519.2003109117501
 21
83.68584979525001
  0
LINE
  5
356
100
AcDbEntity
  8
6
  6
ByLayer
 62
    1
370
   -1
100
AcDbLine
 10
519.2003109117501
 20
83.68584979525001
 11
515.77131091175
 21
80.25684979525001
  0
LINE
  5
357
100
AcDbEntity
  8
6
  6
ByLayer
 62
    1
370
   -1
100
AcDbLine
 10
515.77131091175
 20
80.25684979525001
 11
515.87731091175
 21
80.14984979525001
  0
LINE
  5
358
100
AcDbEntity
  8
6
  6
ByLayer
 62
    1
370
   -1
100
AcDbLine
 10
507.87231091175
 20
80.85684979525
 11
507.27131091175
 21
80.25684979525001
  0
LINE
  5
359
100
AcDbEntity
  8
6
  6
ByLayer
 62
    1
370
   -1
100
AcDbLine
 10
507.27131091175
 20
80.25684979525001
 11
509.28631091175
 21
78.24084979525
  0
LINE
  5
35A
100
AcDbEntity
  8
6
  6
ByLayer
 62
    1
370
   -1
100
AcDbLine
 10
509.28631091175
 20
78.24084979525
 11
512.7153109117501
 21
81.67084979524999
  0
LINE
  5
35B
100
AcDbEntity
  8
6
  6
ByLayer
 62
    1
370
   -1
100
AcDbLine
 10
512.7153109117501
 20
81.67084979524999
 11
510.70031091175
 21
83.68584979525001
  0
LINE
  5
35C
100
AcDbEntity
  8
6
  6
ByLayer
 62
    1
370
   -1
100
AcDbLine
 10
510.70031091175
 20
83.68584979525001
 11
507.87231091175
 21
80.85684979525
  0
LINE
  5
35D
100
AcDbEntity
  8
6
  6
ByLayer
 62
    1
370
   -1
100
AcDbLine
 10
503.61431091175
 20
81.06984979524999
 11
504.21531091175
 21
81.67084979524999
  0
LINE
  5
35E
100
AcDbEntity
  8
6
  6
ByLayer
 62
    1
370
   -1
100
AcDbLine
 10
504.21531091175
 20
81.67084979524999
 11
502.20031091175
 21
83.68584979525001
  0
LINE
  5
35F
100
AcDbEntity
  8
6
  6
ByLayer
 62
    1
370
   -1
100
AcDbLine
 10
502.20031091175
 20
83.68584979525001
 11
498.77131091175
 21
80.25684979525001
  0
LINE
  5
360
100
AcDbEntity
  8
6
  6
ByLayer
 62
    1
370
   -1
100
AcDbLine
 10
498.77131091175
 20
80.25684979525001
 11
500.78631091175
 21
78.24084979525
  0
LINE
  5
361
100
AcDbEntity
  8
6
  6
ByLayer
 62
    1
370
   -1
100
AcDbLine
 10
500.78631091175
 20
78.24084979525
 11
503.61431091175
 21
81.06984979524999
  0
LINE
  5
362
100
AcDbEntity
  8
6
  6
ByLayer
 62
    1
370
   -1
100
AcDbLine
 10
495.11431091175
 20
81.06984979524999
 11
495.71531091175
 21
81.67084979524999
  0
LINE
  5
363
100
AcDbEntity
  8
6
  6
ByLayer
 62
    1
370
   -1
100
AcDbLine
 10
495.71531091175
 20
81.67084979524999
 11
493.70031091175
 21
83.68584979525001
  0
LINE
  5
364
100
AcDbEntity
  8
6
  6
ByLayer
 62
    1
370
   -1
100
AcDbLine
 10
493.70031091175
 20
83.68584979525001
 11
490.27131091175
 21
80.25684979525001
  0
LINE
  5
365
100
AcDbEntity
  8
6
  6
ByLayer
 62
    1
370
   -1
100
AcDbLine
 10
490.27131091175
 20
80.25684979525001
 11
492.28631091175
 21
78.24084979525
  0
LINE
  5
366
100
AcDbEntity
  8
6
  6
ByLayer
 62
    1
370
   -1
100
AcDbLine
 10
492.28631091175
 20
78.24084979525
 11
495.11431091175
 21
81.06984979524999
  0
LINE
  5
367
100
AcDbEntity
  8
6
  6
ByLayer
 62
    1
370
   -1
100
AcDbLine
 10
441.69731091175
 20
81.44484979524999
 11
441.5473109117501
 21
81.44484979524999
  0
LINE
  5
368
100
AcDbEntity
  8
6
  6
ByLayer
 62
    1
370
   -1
100
AcDbLine
 10
441.5473109117501
 20
81.44484979524999
 11
441.5473109117501
 21
78.59484979525
  0
LINE
  5
369
100
AcDbEntity
  8
6
  6
ByLayer
 62
    1
370
   -1
100
AcDbLine
 10
441.5473109117501
 20
78.59484979525
 11
451.39731091175
 21
78.59484979525
  0
LINE
  5
36A
100
AcDbEntity
  8
6
  6
ByLayer
 62
    1
370
   -1
100
AcDbLine
 10
451.39731091175
 20
78.59484979525
 11
451.39731091175
 21
81.44484979524999
  0
LINE
  5
36B
100
AcDbEntity
  8
6
  6
ByLayer
 62
    1
370
   -1
100
AcDbLine
 10
451.39731091175
 20
81.44484979524999
 11
441.69731091175
 21
81.44484979524999
  0
LINE
  5
36C
100
AcDbEntity
  8
6
  6
ByLayer
 62
    1
370
   -1
100
AcDbLine
 10
401.98931091175
 20
81.28584979525
 11
401.98931091175
 21
78.59484979525
  0
LINE
  5
36D
100
AcDbEntity
  8
6
  6
ByLayer
 62
    1
370
   -1
100
AcDbLine
 10
401.98931091175
 20
78.59484979525
 11
411.83931091175
 21
78.59484979525
  0
LINE
  5
36E
100
AcDbEntity
  8
6
  6
ByLayer
 62
    1
370
   -1
100
AcDbLine
 10
411.83931091175
 20
78.59484979525
 11
411.83931091175
 21
81.44484979524999
  0
LINE
  5
36F
100
AcDbEntity
  8
6
  6
ByLayer
 62
    1
370
   -1
100
AcDbLine
 10
411.83931091175
 20
81.44484979524999
 11
401.98931091175
 21
81.44484979524999
  0
LINE
  5
370
100
AcDbEntity
  8
6
  6
ByLayer
 62
    1
370
   -1
100
AcDbLine
 10
401.98931091175
 20
81.44484979524999
 11
401.98931091175
 21
81.28584979525
  0
LINE
  5
371
100
AcDbEntity
  8
6
  6
ByLayer
 62
    1
370
   -1
100
AcDbLine
 10
312.87231091175
 20
81.28584979525
 11
312.87231091175
 21
78.59484979525
  0
LINE
  5
372
100
AcDbEntity
  8
6
  6
ByLayer
 62
    1
370
   -1
100
AcDbLine
 10
312.87231091175
 20
78.59484979525
 11
322.72231091175
 21
78.59484979525
  0
LINE
  5
373
100
AcDbEntity
  8
6
  6
ByLayer
 62
    1
370
   -1
100
AcDbLine
 10
322.72231091175
 20
78.59484979525
 11
322.72231091175
 21
81.44484979524999
  0
LINE
  5
374
100
AcDbEntity
  8
6
  6
ByLayer
 62
    1
370
   -1
100
AcDbLine
 10
322.72231091175
 20
81.44484979524999
 11
312.87231091175
 21
81.44484979524999
  0
LINE
  5
375
100
AcDbEntity
  8
6
  6
ByLayer
 62
    1
370
   -1
100
AcDbLine
 10
312.87231091175
 20
81.44484979524999
 11
312.87231091175
 21
81.28584979525
  0
LINE
  5
376
100
AcDbEntity
  8
6
  6
ByLayer
 62
    1
370
   -1
100
AcDbLine
 10
283.16431091175
 20
81.28584979525
 11
283.16431091175
 21
81.44484979524999
  0
LINE
  5
377
100
AcDbEntity
  8
6
  6
ByLayer
 62
    1
370
   -1
100
AcDbLine
 10
283.16431091175
 20
81.44484979524999
 11
273.31431091175
 21
81.44484979524999
  0
LINE
  5
378
100
AcDbEntity
  8
6
  6
ByLayer
 62
    1
370
   -1
100
AcDbLine
 10
273.31431091175
 20
81.44484979524999
 11
273.31431091175
 21
78.59484979525
  0
LINE
  5
379
100
AcDbEntity
  8
6
  6
ByLayer
 62
    1
370
   -1
100
AcDbLine
 10
273.31431091175
 20
78.59484979525
 11
283.16431091175
 21
78.59484979525
  0
LINE
  5
37A
100
AcDbEntity
  8
6
  6
ByLayer
 62
    1
370
   -1
100
AcDbLine
 10
283.16431091175
 20
78.59484979525
 11
283.16431091175
 21
81.28584979525
  0
LINE
  5
37B
100
AcDbEntity
  8
6
  6
ByLayer
 62
    1
370
   -1
100
AcDbLine
 10
283.16431091175
 20
88.40284979524999
 11
541.95831091175
 21
88.40284979524999
  0
ARC
  5
37C
100
AcDbEntity
  8
6
  6
ByLayer
 62
    1
370
   -1
100
AcDbCircle
 10
541.95831091175
 20
88.32784979525
 40
0.075
100
AcDbArc
 50
0
 51
90
  0
LINE
  5
37D
100
AcDbEntity
  8
6
  6
ByLayer
 62
    1
370
   -1
100
AcDbLine
 10
542.03331091175
 20
88.32784979525
 11
542.03331091175
 21
70.00784979525001
  0
ARC
  5
37E
100
AcDbEntity
  8
6
  6
ByLayer
 62
    1
370
   -1
100
AcDbCircle
 10
541.95831091175
 20
70.00784979525001
 40
0.075
100
AcDbArc
 50
-90
 51
0
  0
LINE
  5
37F
100
AcDbEntity
  8
6
  6
ByLayer
 62
    1
370
   -1
100
AcDbLine
 10
541.95831091175
 20
69.93284979524999
 11
192.87631091175
 21
69.93284979524999
  0
ARC
  5
380
100
AcDbEntity
  8
6
  6
ByLayer
 62
    1
370
   -1
100
AcDbCircle
 10
192.87631091175
 20
70.00784979525001
 40
0.075
100
AcDbArc
 50
180
 51
-90
  0
LINE
  5
381
100
AcDbEntity
  8
6
  6
ByLayer
 62
    1
370
   -1
100
AcDbLine
 10
192.80131091175
 20
70.00784979525001
 11
192.80131091175
 21
88.32784979525
  0
ARC
  5
382
100
AcDbEntity
  8
6
  6
ByLayer
 62
    1
370
   -1
100
AcDbCircle
 10
192.87631091175
 20
88.32784979525
 40
0.075
100
AcDbArc
 50
90
 51
180
  0
LINE
  5
383
100
AcDbEntity
  8
6
  6
ByLayer
 62
    1
370
   -1
100
AcDbLine
 10
192.87631091175
 20
88.40284979524999
 11
283.16431091175
 21
88.40284979524999
  0
LINE
  5
384
100
AcDbEntity
  8
0
  6
ByLayer
 62
  256
370
   -1
100
AcDbLine
 10
641.0828586850633
 20
39.19283852223094
 11
651.0828586850633
 21
39.19283852223094
  0
ARC
  5
385
100
AcDbEntity
  8
4
  6
ByLayer
 62
    1
370
   -1
100
AcDbCircle
 10
224.7634652573511
 20
24.63055932052706
 40
0.925
100
AcDbArc
 50
-28.058782
 51
151.941218
  0
ARC
  5
386
100
AcDbEntity
  8
4
  6
ByLayer
 62
    1
370
   -1
100
AcDbCircle
 10
224.7634652573511
 20
24.63055932052706
 40
0.925
100
AcDbArc
 50
151.941218
 51
-28.058782
  0
ARC
  5
387
100
AcDbEntity
  8
4
  6
ByLayer
 62
    1
370
   -1
100
AcDbCircle
 10
284.7634652573511
 20
24.63055932052706
 40
0.925
100
AcDbArc
 50
-118.058977
 51
61.941023
  0
ARC
  5
388
100
AcDbEntity
  8
4
  6
ByLayer
 62
    1
370
   -1
100
AcDbCircle
 10
284.7634652573511
 20
24.63055932052706
 40
0.925
100
AcDbArc
 50
61.941023
 51
-118.058977
  0
ARC
  5
389
100
AcDbEntity
  8
4
  6
ByLayer
 62
    1
370
   -1
100
AcDbCircle
 10
213.344465257351
 20
6.630559320527063
 40
0.075
100
AcDbArc
 50
180
 51
-90
  0
LINE
  5
38A
100
AcDbEntity
  8
4
  6
ByLayer
 62
    1
370
   -1
100
AcDbLine
 10
213.2694652573512
 20
6.630559320527063
 11
213.2694652573512
 21
29.63055932052706
  0
ARC
  5
38B
100
AcDbEntity
  8
4
  6
ByLayer
 62
    1
370
   -1
100
AcDbCircle
 10
213.344465257351
 20
29.63055932052706
 40
0.075
100
AcDbArc
 50
90
 51
180
  0
LINE
  5
38C
100
AcDbEntity
  8
4
  6
ByLayer
 62
    1
370
   -1
100
AcDbLine
 10
213.344465257351
 20
29.70555932052705
 11
245.2014652573509
 21
29.70555932052705
  0
ARC
  5
38D
100
AcDbEntity
  8
4
  6
ByLayer
 62
    1
370
   -1
100
AcDbCircle
 10
245.2014652573509
 20
29.63055932052706
 40
0.075
100
AcDbArc
 50
-45.004122
 51
90
  0
LINE
  5
38E
100
AcDbEntity
  8
4
  6
ByLayer
 62
    1
370
   -1
100
AcDbLine
 10
245.2544652573511
 20
29.57755932052705
 11
229.044465257351
 21
13.36655932052707
  0
LINE
  5
38F
100
AcDbEntity
  8
4
  6
ByLayer
 62
    1
370
   -1
100
AcDbLine
 10
229.044465257351
 20
13.36655932052707
 11
231.059465257351
 21
11.35155932052707
  0
LINE
  5
390
100
AcDbEntity
  8
4
  6
ByLayer
 62
    1
370
   -1
100
AcDbLine
 10
231.059465257351
 20
11.35155932052707
 11
249.391465257351
 21
29.68355932052707
  0
ARC
  5
391
100
AcDbEntity
  8
4
  6
ByLayer
 62
    1
370
   -1
100
AcDbCircle
 10
249.444465257351
 20
29.63055932052706
 40
0.075
100
AcDbArc
 50
90
 51
135.004121
  0
LINE
  5
392
100
AcDbEntity
  8
4
  6
ByLayer
 62
    1
370
   -1
100
AcDbLine
 10
249.444465257351
 20
29.70555932052705
 11
253.7014652573509
 21
29.70555932052705
  0
ARC
  5
393
100
AcDbEntity
  8
4
  6
ByLayer
 62
    1
370
   -1
100
AcDbCircle
 10
253.7014652573509
 20
29.63055932052706
 40
0.075
100
AcDbArc
 50
-45.004122
 51
90
  0
LINE
  5
394
100
AcDbEntity
  8
4
  6
ByLayer
 62
    1
370
   -1
100
AcDbLine
 10
253.7544652573511
 20
29.57755932052705
 11
237.544465257351
 21
13.36655932052707
  0
LINE
  5
395
100
AcDbEntity
  8
4
  6
ByLayer
 62
    1
370
   -1
100
AcDbLine
 10
237.544465257351
 20
13.36655932052707
 11
239.559465257351
 21
11.35155932052707
  0
LINE
  5
396
100
AcDbEntity
  8
4
  6
ByLayer
 62
    1
370
   -1
100
AcDbLine
 10
239.559465257351
 20
11.35155932052707
 11
257.891465257351
 21
29.68355932052707
  0
ARC
  5
397
100
AcDbEntity
  8
4
  6
ByLayer
 62
    1
370
   -1
100
AcDbCircle
 10
257.944465257351
 20
29.63055932052706
 40
0.075
100
AcDbArc
 50
90
 51
135.004121
  0
LINE
  5
398
100
AcDbEntity
  8
4
  6
ByLayer
 62
    1
370
   -1
100
AcDbLine
 10
257.944465257351
 20
29.70555932052705
 11
262.2014652573509
 21
29.70555932052705
  0
ARC
  5
399
100
AcDbEntity
  8
4
  6
ByLayer
 62
    1
370
   -1
100
AcDbCircle
 10
262.2014652573509
 20
29.63055932052706
 40
0.075
100
AcDbArc
 50
-45.004122
 51
90
  0
LINE
  5
39A
100
AcDbEntity
  8
4
  6
ByLayer
 62
    1
370
   -1
100
AcDbLine
 10
262.2544652573511
 20
29.57755932052705
 11
246.044465257351
 21
13.36655932052707
  0
LINE
  5
39B
100
AcDbEntity
  8
4
  6
ByLayer
 62
    1
370
   -1
100
AcDbLine
 10
246.044465257351
 20
13.36655932052707
 11
248.059465257351
 21
11.35155932052707
  0
LINE
  5
39C
100
AcDbEntity
  8
4
  6
ByLayer
 62
    1
370
   -1
100
AcDbLine
 10
248.059465257351
 20
11.35155932052707
 11
266.391465257351
 21
29.68355932052707
  0
ARC
  5
39D
100
AcDbEntity
  8
4
  6
ByLayer
 62
    1
370
   -1
100
AcDbCircle
 10
266.444465257351
 20
29.63055932052706
 40
0.075
100
AcDbArc
 50
90
 51
135.004121
  0
LINE
  5
39E
100
AcDbEntity
  8
4
  6
ByLayer
 62
    1
370
   -1
100
AcDbLine
 10
266.444465257351
 20
29.70555932052705
 11
270.7014652573509
 21
29.70555932052705
  0
ARC
  5
39F
100
AcDbEntity
  8
4
  6
ByLayer
 62
    1
370
   -1
100
AcDbCircle
 10
270.7014652573509
 20
29.63055932052706
 40
0.075
100
AcDbArc
 50
-45.004122
 51
90
  0
LINE
  5
3A0
100
AcDbEntity
  8
4
  6
ByLayer
 62
    1
370
   -1
100
AcDbLine
 10
270.7544652573511
 20
29.57755932052705
 11
254.544465257351
 21
13.36655932052707
  0
LINE
  5
3A1
100
AcDbEntity
  8
4
  6
ByLayer
 62
    1
370
   -1
100
AcDbLine
 10
254.544465257351
 20
13.36655932052707
 11
256.559465257351
 21
11.35155932052707
  0
LINE
  5
3A2
100
AcDbEntity
  8
4
  6
ByLayer
 62
    1
370
   -1
100
AcDbLine
 10
256.559465257351
 20
11.35155932052707
 11
274.891465257351
 21
29.68355932052707
  0
ARC
  5
3A3
100
AcDbEntity
  8
4
  6
ByLayer
 62
    1
370
   -1
100
AcDbCircle
 10
274.944465257351
 20
29.63055932052706
 40
0.075
100
AcDbArc
 50
90
 51
135.004121
  0
LINE
  5
3A4
100
AcDbEntity
  8
4
  6
ByLayer
 62
    1
370
   -1
100
AcDbLine
 10
274.944465257351
 20
29.70555932052705
 11
288.7634652573511
 21
29.70555932052705
  0
ARC
  5
3A5
100
AcDbEntity
  8
4
  6
ByLayer
 62
    1
370
   -1
100
AcDbCircle
 10
288.7634652573511
 20
29.63055932052706
 40
0.075
100
AcDbArc
 50
0
 51
90
  0
LINE
  5
3A6
100
AcDbEntity
  8
4
  6
ByLayer
 62
    1
370
   -1
100
AcDbLine
 10
288.781815742447
 20
6.718556221524331
 11
213.344465257351
 21
6.555559320527067
  0
LINE
  5
3A7
100
AcDbEntity
  8
4
  6
ByLayer
 62
  256
370
   -1
100
AcDbLine
 10
288.8386256902796
 20
29.62909563649167
 11
288.7932846741777
 21
6.7191070631198
  0
LINE
  5
3A8
100
AcDbEntity
  8
4
  6
ByLayer
 62
  256
370
   -1
100
AcDbLine
 10
288.7932846741777
 20
6.7191070631198
 11
288.7968974804479
 21
6.715494256849666
  0
ARC
  5
3A9
100
AcDbEntity
  8
4
  6
ByLayer
 62
    1
370
   -1
100
AcDbCircle
 10
224.4352230606358
 20
-12.1285027296001
 40
0.925
100
AcDbArc
 50
-28.058782
 51
151.941218
  0
ARC
  5
3AA
100
AcDbEntity
  8
4
  6
ByLayer
 62
    1
370
   -1
100
AcDbCircle
 10
224.4352230606358
 20
-12.1285027296001
 40
0.925
100
AcDbArc
 50
151.941218
 51
-28.058782
  0
ARC
  5
3AB
100
AcDbEntity
  8
4
  6
ByLayer
 62
    1
370
   -1
100
AcDbCircle
 10
284.4352230606358
 20
-12.1285027296001
 40
0.925
100
AcDbArc
 50
-118.058977
 51
61.941023
  0
ARC
  5
3AC
100
AcDbEntity
  8
4
  6
ByLayer
 62
    1
370
   -1
100
AcDbCircle
 10
284.4352230606358
 20
-12.1285027296001
 40
0.925
100
AcDbArc
 50
61.941023
 51
-118.058977
  0
ARC
  5
3AD
100
AcDbEntity
  8
4
  6
ByLayer
 62
    1
370
   -1
100
AcDbCircle
 10
213.0162230606357
 20
-30.1285027296001
 40
0.075
100
AcDbArc
 50
180
 51
-90
  0
LINE
  5
3AE
100
AcDbEntity
  8
4
  6
ByLayer
 62
    1
370
   -1
100
AcDbLine
 10
212.9412230606359
 20
-30.1285027296001
 11
212.9412230606359
 21
-7.1285027296001
  0
ARC
  5
3AF
100
AcDbEntity
  8
4
  6
ByLayer
 62
    1
370
   -1
100
AcDbCircle
 10
213.0162230606357
 20
-7.1285027296001
 40
0.075
100
AcDbArc
 50
90
 51
180
  0
LINE
  5
3B0
100
AcDbEntity
  8
4
  6
ByLayer
 62
    1
370
   -1
100
AcDbLine
 10
213.0162230606357
 20
-7.053502729600112
 11
244.8732230606357
 21
-7.053502729600112
  0
ARC
  5
3B1
100
AcDbEntity
  8
4
  6
ByLayer
 62
    1
370
   -1
100
AcDbCircle
 10
244.8732230606357
 20
-7.1285027296001
 40
0.075
100
AcDbArc
 50
-45.004122
 51
90
  0
LINE
  5
3B2
100
AcDbEntity
  8
4
  6
ByLayer
 62
    1
370
   -1
100
AcDbLine
 10
244.9262230606358
 20
-7.181502729600112
 11
228.7162230606357
 21
-23.3925027296001
  0
LINE
  5
3B3
100
AcDbEntity
  8
4
  6
ByLayer
 62
    1
370
   -1
100
AcDbLine
 10
228.7162230606357
 20
-23.3925027296001
 11
230.7312230606357
 21
-25.4075027296001
  0
LINE
  5
3B4
100
AcDbEntity
  8
4
  6
ByLayer
 62
    1
370
   -1
100
AcDbLine
 10
230.7312230606357
 20
-25.4075027296001
 11
249.0632230606357
 21
-7.075502729600096
  0
ARC
  5
3B5
100
AcDbEntity
  8
4
  6
ByLayer
 62
    1
370
   -1
100
AcDbCircle
 10
249.1162230606357
 20
-7.1285027296001
 40
0.075
100
AcDbArc
 50
90
 51
135.004121
  0
LINE
  5
3B6
100
AcDbEntity
  8
4
  6
ByLayer
 62
    1
370
   -1
100
AcDbLine
 10
249.1162230606357
 20
-7.053502729600112
 11
253.3732230606357
 21
-7.053502729600112
  0
ARC
  5
3B7
100
AcDbEntity
  8
4
  6
ByLayer
 62
    1
370
   -1
100
AcDbCircle
 10
253.3732230606357
 20
-7.1285027296001
 40
0.075
100
AcDbArc
 50
-45.004122
 51
90
  0
LINE
  5
3B8
100
AcDbEntity
  8
4
  6
ByLayer
 62
    1
370
   -1
100
AcDbLine
 10
253.4262230606358
 20
-7.181502729600112
 11
237.2162230606357
 21
-23.3925027296001
  0
LINE
  5
3B9
100
AcDbEntity
  8
4
  6
ByLayer
 62
    1
370
   -1
100
AcDbLine
 10
237.2162230606357
 20
-23.3925027296001
 11
239.2312230606357
 21
-25.4075027296001
  0
LINE
  5
3BA
100
AcDbEntity
  8
4
  6
ByLayer
 62
    1
370
   -1
100
AcDbLine
 10
239.2312230606357
 20
-25.4075027296001
 11
257.5632230606357
 21
-7.075502729600096
  0
ARC
  5
3BB
100
AcDbEntity
  8
4
  6
ByLayer
 62
    1
370
   -1
100
AcDbCircle
 10
257.6162230606357
 20
-7.1285027296001
 40
0.075
100
AcDbArc
 50
90
 51
135.004121
  0
LINE
  5
3BC
100
AcDbEntity
  8
4
  6
ByLayer
 62
    1
370
   -1
100
AcDbLine
 10
257.6162230606357
 20
-7.053502729600112
 11
261.8732230606357
 21
-7.053502729600112
  0
ARC
  5
3BD
100
AcDbEntity
  8
4
  6
ByLayer
 62
    1
370
   -1
100
AcDbCircle
 10
261.8732230606357
 20
-7.1285027296001
 40
0.075
100
AcDbArc
 50
-45.004122
 51
90
  0
LINE
  5
3BE
100
AcDbEntity
  8
4
  6
ByLayer
 62
    1
370
   -1
100
AcDbLine
 10
261.9262230606358
 20
-7.181502729600112
 11
245.7162230606357
 21
-23.3925027296001
  0
LINE
  5
3BF
100
AcDbEntity
  8
4
  6
ByLayer
 62
    1
370
   -1
100
AcDbLine
 10
245.7162230606357
 20
-23.3925027296001
 11
247.7312230606357
 21
-25.4075027296001
  0
LINE
  5
3C0
100
AcDbEntity
  8
4
  6
ByLayer
 62
    1
370
   -1
100
AcDbLine
 10
247.7312230606357
 20
-25.4075027296001
 11
266.0632230606357
 21
-7.075502729600096
  0
ARC
  5
3C1
100
AcDbEntity
  8
4
  6
ByLayer
 62
    1
370
   -1
100
AcDbCircle
 10
266.1162230606357
 20
-7.1285027296001
 40
0.075
100
AcDbArc
 50
90
 51
135.004121
  0
LINE
  5
3C2
100
AcDbEntity
  8
4
  6
ByLayer
 62
    1
370
   -1
100
AcDbLine
 10
266.1162230606357
 20
-7.053502729600112
 11
270.3732230606357
 21
-7.053502729600112
  0
ARC
  5
3C3
100
AcDbEntity
  8
4
  6
ByLayer
 62
    1
370
   -1
100
AcDbCircle
 10
270.3732230606357
 20
-7.1285027296001
 40
0.075
100
AcDbArc
 50
-45.004122
 51
90
  0
LINE
  5
3C4
100
AcDbEntity
  8
4
  6
ByLayer
 62
    1
370
   -1
100
AcDbLine
 10
270.4262230606358
 20
-7.181502729600112
 11
254.2162230606357
 21
-23.3925027296001
  0
LINE
  5
3C5
100
AcDbEntity
  8
4
  6
ByLayer
 62
    1
370
   -1
100
AcDbLine
 10
254.2162230606357
 20
-23.3925027296001
 11
256.2312230606357
 21
-25.4075027296001
  0
LINE
  5
3C6
100
AcDbEntity
  8
4
  6
ByLayer
 62
    1
370
   -1
100
AcDbLine
 10
256.2312230606357
 20
-25.4075027296001
 11
274.5632230606357
 21
-7.075502729600096
  0
ARC
  5
3C7
100
AcDbEntity
  8
4
  6
ByLayer
 62
    1
370
   -1
100
AcDbCircle
 10
274.6162230606357
 20
-7.1285027296001
 40
0.075
100
AcDbArc
 50
90
 51
135.004121
  0
LINE
  5
3C8
100
AcDbEntity
  8
4
  6
ByLayer
 62
    1
370
   -1
100
AcDbLine
 10
274.6162230606357
 20
-7.053502729600112
 11
288.4352230606358
 21
-7.053502729600112
  0
ARC
  5
3C9
100
AcDbEntity
  8
4
  6
ByLayer
 62
    1
370
   -1
100
AcDbCircle
 10
288.4352230606358
 20
-7.1285027296001
 40
0.075
100
AcDbArc
 50
0
 51
90
  0
LINE
  5
3CA
100
AcDbEntity
  8
4
  6
ByLayer
 62
    1
370
   -1
100
AcDbLine
 10
288.4535735457317
 20
-30.04050582860283
 11
213.0162230606357
 21
-30.2035027296001
  0
LINE
  5
3CB
100
AcDbEntity
  8
4
  6
ByLayer
 62
  256
370
   -1
100
AcDbLine
 10
288.5103834935643
 20
-7.129966413635493
 11
288.4650424774624
 21
-30.03995498700736
  0
LINE
  5
3CC
100
AcDbEntity
  8
4
  6
ByLayer
 62
  256
370
   -1
100
AcDbLine
 10
288.4650424774624
 20
-30.03995498700736
 11
288.4686552837326
 21
-30.0435677932775
  0
ARC
  5
3CD
100
AcDbEntity
  8
4
  6
ByLayer
 62
    1
370
   -1
100
AcDbCircle
 10
308.3635969619602
 20
25.00110047098583
 40
0.925
100
AcDbArc
 50
-28.058782
 51
151.941218
  0
ARC
  5
3CE
100
AcDbEntity
  8
4
  6
ByLayer
 62
    1
370
   -1
100
AcDbCircle
 10
308.3635969619602
 20
25.00110047098583
 40
0.925
100
AcDbArc
 50
151.941218
 51
-28.058782
  0
ARC
  5
3CF
100
AcDbEntity
  8
4
  6
ByLayer
 62
    1
370
   -1
100
AcDbCircle
 10
368.3635969619602
 20
25.00110047098583
 40
0.925
100
AcDbArc
 50
-118.058977
 51
61.941023
  0
ARC
  5
3D0
100
AcDbEntity
  8
4
  6
ByLayer
 62
    1
370
   -1
100
AcDbCircle
 10
368.3635969619602
 20
25.00110047098583
 40
0.925
100
AcDbArc
 50
61.941023
 51
-118.058977
  0
ARC
  5
3D1
100
AcDbEntity
  8
4
  6
ByLayer
 62
    1
370
   -1
100
AcDbCircle
 10
296.9445969619601
 20
7.001100470985833
 40
0.075
100
AcDbArc
 50
180
 51
-90
  0
LINE
  5
3D2
100
AcDbEntity
  8
4
  6
ByLayer
 62
    1
370
   -1
100
AcDbLine
 10
296.8695969619603
 20
7.001100470985833
 11
296.8695969619603
 21
30.00110047098583
  0
ARC
  5
3D3
100
AcDbEntity
  8
4
  6
ByLayer
 62
    1
370
   -1
100
AcDbCircle
 10
296.9445969619601
 20
30.00110047098583
 40
0.075
100
AcDbArc
 50
90
 51
180
  0
LINE
  5
3D4
100
AcDbEntity
  8
4
  6
ByLayer
 62
    1
370
   -1
100
AcDbLine
 10
296.9445969619601
 20
30.07610047098582
 11
328.8015969619601
 21
30.07610047098582
  0
ARC
  5
3D5
100
AcDbEntity
  8
4
  6
ByLayer
 62
    1
370
   -1
100
AcDbCircle
 10
328.8015969619601
 20
30.00110047098583
 40
0.075
100
AcDbArc
 50
-45.004122
 51
90
  0
LINE
  5
3D6
100
AcDbEntity
  8
4
  6
ByLayer
 62
    1
370
   -1
100
AcDbLine
 10
328.8545969619602
 20
29.94810047098582
 11
312.6445969619602
 21
13.73710047098584
  0
LINE
  5
3D7
100
AcDbEntity
  8
4
  6
ByLayer
 62
    1
370
   -1
100
AcDbLine
 10
312.6445969619602
 20
13.73710047098584
 11
314.6595969619602
 21
11.72210047098584
  0
LINE
  5
3D8
100
AcDbEntity
  8
4
  6
ByLayer
 62
    1
370
   -1
100
AcDbLine
 10
314.6595969619602
 20
11.72210047098584
 11
332.9915969619602
 21
30.05410047098584
  0
ARC
  5
3D9
100
AcDbEntity
  8
4
  6
ByLayer
 62
    1
370
   -1
100
AcDbCircle
 10
333.0445969619602
 20
30.00110047098583
 40
0.075
100
AcDbArc
 50
90
 51
135.004121
  0
LINE
  5
3DA
100
AcDbEntity
  8
4
  6
ByLayer
 62
    1
370
   -1
100
AcDbLine
 10
333.0445969619602
 20
30.07610047098582
 11
337.3015969619601
 21
30.07610047098582
  0
ARC
  5
3DB
100
AcDbEntity
  8
4
  6
ByLayer
 62
    1
370
   -1
100
AcDbCircle
 10
337.3015969619601
 20
30.00110047098583
 40
0.075
100
AcDbArc
 50
-45.004122
 51
90
  0
LINE
  5
3DC
100
AcDbEntity
  8
4
  6
ByLayer
 62
    1
370
   -1
100
AcDbLine
 10
337.3545969619602
 20
29.94810047098582
 11
321.1445969619602
 21
13.73710047098584
  0
LINE
  5
3DD
100
AcDbEntity
  8
4
  6
ByLayer
 62
    1
370
   -1
100
AcDbLine
 10
321.1445969619602
 20
13.73710047098584
 11
323.1595969619602
 21
11.72210047098584
  0
LINE
  5
3DE
100
AcDbEntity
  8
4
  6
ByLayer
 62
    1
370
   -1
100
AcDbLine
 10
323.1595969619602
 20
11.72210047098584
 11
341.4915969619602
 21
30.05410047098584
  0
ARC
  5
3DF
100
AcDbEntity
  8
4
  6
ByLayer
 62
    1
370
   -1
100
AcDbCircle
 10
341.5445969619602
 20
30.00110047098583
 40
0.075
100
AcDbArc
 50
90
 51
135.004121
  0
LINE
  5
3E0
100
AcDbEntity
  8
4
  6
ByLayer
 62
    1
370
   -1
100
AcDbLine
 10
341.5445969619602
 20
30.07610047098582
 11
345.8015969619601
 21
30.07610047098582
  0
ARC
  5
3E1
100
AcDbEntity
  8
4
  6
ByLayer
 62
    1
370
   -1
100
AcDbCircle
 10
345.8015969619601
 20
30.00110047098583
 40
0.075
100
AcDbArc
 50
-45.004122
 51
90
  0
LINE
  5
3E2
100
AcDbEntity
  8
4
  6
ByLayer
 62
    1
370
   -1
100
AcDbLine
 10
345.8545969619602
 20
29.94810047098582
 11
329.6445969619602
 21
13.73710047098584
  0
LINE
  5
3E3
100
AcDbEntity
  8
4
  6
ByLayer
 62
    1
370
   -1
100
AcDbLine
 10
329.6445969619602
 20
13.73710047098584
 11
331.6595969619602
 21
11.72210047098584
  0
LINE
  5
3E4
100
AcDbEntity
  8
4
  6
ByLayer
 62
    1
370
   -1
100
AcDbLine
 10
331.6595969619602
 20
11.72210047098584
 11
349.9915969619602
 21
30.05410047098584
  0
ARC
  5
3E5
100
AcDbEntity
  8
4
  6
ByLayer
 62
    1
370
   -1
100
AcDbCircle
 10
350.0445969619602
 20
30.00110047098583
 40
0.075
100
AcDbArc
 50
90
 51
135.004121
  0
LINE
  5
3E6
100
AcDbEntity
  8
4
  6
ByLayer
 62
    1
370
   -1
100
AcDbLine
 10
350.0445969619602
 20
30.07610047098582
 11
354.3015969619601
 21
30.07610047098582
  0
ARC
  5
3E7
100
AcDbEntity
  8
4
  6
ByLayer
 62
    1
370
   -1
100
AcDbCircle
 10
354.3015969619601
 20
30.00110047098583
 40
0.075
100
AcDbArc
 50
-45.004122
 51
90
  0
LINE
  5
3E8
100
AcDbEntity
  8
4
  6
ByLayer
 62
    1
370
   -1
100
AcDbLine
 10
354.3545969619602
 20
29.94810047098582
 11
338.1445969619602
 21
13.73710047098584
  0
LINE
  5
3E9
100
AcDbEntity
  8
4
  6
ByLayer
 62
    1
370
   -1
100
AcDbLine
 10
338.1445969619602
 20
13.73710047098584
 11
340.1595969619602
 21
11.72210047098584
  0
LINE
  5
3EA
100
AcDbEntity
  8
4
  6
ByLayer
 62
    1
370
   -1
100
AcDbLine
 10
340.1595969619602
 20
11.72210047098584
 11
358.4915969619602
 21
30.05410047098584
  0
ARC
  5
3EB
100
AcDbEntity
  8
4
  6
ByLayer
 62
    1
370
   -1
100
AcDbCircle
 10
358.5445969619602
 20
30.00110047098583
 40
0.075
100
AcDbArc
 50
90
 51
135.004121
  0
LINE
  5
3EC
100
AcDbEntity
  8
4
  6
ByLayer
 62
    1
370
   -1
100
AcDbLine
 10
358.5445969619602
 20
30.07610047098582
 11
372.3635969619602
 21
30.07610047098582
  0
ARC
  5
3ED
100
AcDbEntity
  8
4
  6
ByLayer
 62
    1
370
   -1
100
AcDbCircle
 10
372.3635969619602
 20
30.00110047098583
 40
0.075
100
AcDbArc
 50
0
 51
90
  0
LINE
  5
3EE
100
AcDbEntity
  8
4
  6
ByLayer
 62
    1
370
   -1
100
AcDbLine
 10
372.3819474470561
 20
7.089097371983101
 11
296.9445969619601
 21
6.926100470985837
  0
LINE
  5
3EF
100
AcDbEntity
  8
4
  6
ByLayer
 62
  256
370
   -1
100
AcDbLine
 10
372.4387573948888
 20
29.99963678695044
 11
372.3934163787869
 21
7.08964821357857
  0
LINE
  5
3F0
100
AcDbEntity
  8
4
  6
ByLayer
 62
  256
370
   -1
100
AcDbLine
 10
372.3934163787869
 20
7.08964821357857
 11
372.3970291850571
 21
7.086035407308437
  0
ARC
  5
3F1
100
AcDbEntity
  8
4
  6
ByLayer
 62
    1
370
   -1
100
AcDbCircle
 10
308.7503636619663
 20
-12.1285027296001
 40
0.925
100
AcDbArc
 50
-28.058782
 51
151.941218
  0
ARC
  5
3F2
100
AcDbEntity
  8
4
  6
ByLayer
 62
    1
370
   -1
100
AcDbCircle
 10
308.7503636619663
 20
-12.1285027296001
 40
0.925
100
AcDbArc
 50
151.941218
 51
-28.058782
  0
ARC
  5
3F3
100
AcDbEntity
  8
4
  6
ByLayer
 62
    1
370
   -1
100
AcDbCircle
 10
368.7503636619663
 20
-12.1285027296001
 40
0.925
100
AcDbArc
 50
-118.058977
 51
61.941023
  0
ARC
  5
3F4
100
AcDbEntity
  8
4
  6
ByLayer
 62
    1
370
   -1
100
AcDbCircle
 10
368.7503636619663
 20
-12.1285027296001
 40
0.925
100
AcDbArc
 50
61.941023
 51
-118.058977
  0
ARC
  5
3F5
100
AcDbEntity
  8
4
  6
ByLayer
 62
    1
370
   -1
100
AcDbCircle
 10
297.3313636619662
 20
-30.1285027296001
 40
0.075
100
AcDbArc
 50
180
 51
-90
  0
LINE
  5
3F6
100
AcDbEntity
  8
4
  6
ByLayer
 62
    1
370
   -1
100
AcDbLine
 10
297.2563636619664
 20
-30.1285027296001
 11
297.2563636619664
 21
-7.1285027296001
  0
ARC
  5
3F7
100
AcDbEntity
  8
4
  6
ByLayer
 62
    1
370
   -1
100
AcDbCircle
 10
297.3313636619662
 20
-7.1285027296001
 40
0.075
100
AcDbArc
 50
90
 51
180
  0
LINE
  5
3F8
100
AcDbEntity
  8
4
  6
ByLayer
 62
    1
370
   -1
100
AcDbLine
 10
297.3313636619662
 20
-7.053502729600112
 11
329.1883636619662
 21
-7.053502729600112
  0
ARC
  5
3F9
100
AcDbEntity
  8
4
  6
ByLayer
 62
    1
370
   -1
100
AcDbCircle
 10
329.1883636619662
 20
-7.1285027296001
 40
0.075
100
AcDbArc
 50
-45.004122
 51
90
  0
LINE
  5
3FA
100
AcDbEntity
  8
4
  6
ByLayer
 62
    1
370
   -1
100
AcDbLine
 10
329.2413636619663
 20
-7.181502729600112
 11
313.0313636619663
 21
-23.3925027296001
  0
LINE
  5
3FB
100
AcDbEntity
  8
4
  6
ByLayer
 62
    1
370
   -1
100
AcDbLine
 10
313.0313636619663
 20
-23.3925027296001
 11
315.0463636619663
 21
-25.4075027296001
  0
LINE
  5
3FC
100
AcDbEntity
  8
4
  6
ByLayer
 62
    1
370
   -1
100
AcDbLine
 10
315.0463636619663
 20
-25.4075027296001
 11
333.3783636619663
 21
-7.075502729600096
  0
ARC
  5
3FD
100
AcDbEntity
  8
4
  6
ByLayer
 62
    1
370
   -1
100
AcDbCircle
 10
333.4313636619663
 20
-7.1285027296001
 40
0.075
100
AcDbArc
 50
90
 51
135.004121
  0
LINE
  5
3FE
100
AcDbEntity
  8
4
  6
ByLayer
 62
    1
370
   -1
100
AcDbLine
 10
333.4313636619663
 20
-7.053502729600112
 11
337.6883636619662
 21
-7.053502729600112
  0
ARC
  5
3FF
100
AcDbEntity
  8
4
  6
ByLayer
 62
    1
370
   -1
100
AcDbCircle
 10
337.6883636619662
 20
-7.1285027296001
 40
0.075
100
AcDbArc
 50
-45.004122
 51
90
  0
LINE
  5
400
100
AcDbEntity
  8
4
  6
ByLayer
 62
    1
370
   -1
100
AcDbLine
 10
337.7413636619663
 20
-7.181502729600112
 11
321.5313636619663
 21
-23.3925027296001
  0
LINE
  5
401
100
AcDbEntity
  8
4
  6
ByLayer
 62
    1
370
   -1
100
AcDbLine
 10
321.5313636619663
 20
-23.3925027296001
 11
323.5463636619663
 21
-25.4075027296001
  0
LINE
  5
402
100
AcDbEntity
  8
4
  6
ByLayer
 62
    1
370
   -1
100
AcDbLine
 10
323.5463636619663
 20
-25.4075027296001
 11
341.8783636619663
 21
-7.075502729600096
  0
ARC
  5
403
100
AcDbEntity
  8
4
  6
ByLayer
 62
    1
370
   -1
100
AcDbCircle
 10
341.9313636619663
 20
-7.1285027296001
 40
0.075
100
AcDbArc
 50
90
 51
135.004121
  0
LINE
  5
404
100
AcDbEntity
  8
4
  6
ByLayer
 62
    1
370
   -1
100
AcDbLine
 10
341.9313636619663
 20
-7.053502729600112
 11
346.1883636619662
 21
-7.053502729600112
  0
ARC
  5
405
100
AcDbEntity
  8
4
  6
ByLayer
 62
    1
370
   -1
100
AcDbCircle
 10
346.1883636619662
 20
-7.1285027296001
 40
0.075
100
AcDbArc
 50
-45.004122
 51
90
  0
LINE
  5
406
100
AcDbEntity
  8
4
  6
ByLayer
 62
    1
370
   -1
100
AcDbLine
 10
346.2413636619663
 20
-7.181502729600112
 11
330.0313636619663
 21
-23.3925027296001
  0
LINE
  5
407
100
AcDbEntity
  8
4
  6
ByLayer
 62
    1
370
   -1
100
AcDbLine
 10
330.0313636619663
 20
-23.3925027296001
 11
332.0463636619663
 21
-25.4075027296001
  0
LINE
  5
408
100
AcDbEntity
  8
4
  6
ByLayer
 62
    1
370
   -1
100
AcDbLine
 10
332.0463636619663
 20
-25.4075027296001
 11
350.3783636619663
 21
-7.075502729600096
  0
ARC
  5
409
100
AcDbEntity
  8
4
  6
ByLayer
 62
    1
370
   -1
100
AcDbCircle
 10
350.4313636619663
 20
-7.1285027296001
 40
0.075
100
AcDbArc
 50
90
 51
135.004121
  0
LINE
  5
40A
100
AcDbEntity
  8
4
  6
ByLayer
 62
    1
370
   -1
100
AcDbLine
 10
350.4313636619663
 20
-7.053502729600112
 11
354.6883636619662
 21
-7.053502729600112
  0
ARC
  5
40B
100
AcDbEntity
  8
4
  6
ByLayer
 62
    1
370
   -1
100
AcDbCircle
 10
354.6883636619662
 20
-7.1285027296001
 40
0.075
100
AcDbArc
 50
-45.004122
 51
90
  0
LINE
  5
40C
100
AcDbEntity
  8
4
  6
ByLayer
 62
    1
370
   -1
100
AcDbLine
 10
354.7413636619663
 20
-7.181502729600112
 11
338.5313636619663
 21
-23.3925027296001
  0
LINE
  5
40D
100
AcDbEntity
  8
4
  6
ByLayer
 62
    1
370
   -1
100
AcDbLine
 10
338.5313636619663
 20
-23.3925027296001
 11
340.5463636619663
 21
-25.4075027296001
  0
LINE
  5
40E
100
AcDbEntity
  8
4
  6
ByLayer
 62
    1
370
   -1
100
AcDbLine
 10
340.5463636619663
 20
-25.4075027296001
 11
358.8783636619663
 21
-7.075502729600096
  0
ARC
  5
40F
100
AcDbEntity
  8
4
  6
ByLayer
 62
    1
370
   -1
100
AcDbCircle
 10
358.9313636619663
 20
-7.1285027296001
 40
0.075
100
AcDbArc
 50
90
 51
135.004121
  0
LINE
  5
410
100
AcDbEntity
  8
4
  6
ByLayer
 62
    1
370
   -1
100
AcDbLine
 10
358.9313636619663
 20
-7.053502729600112
 11
372.7503636619663
 21
-7.053502729600112
  0
ARC
  5
411
100
AcDbEntity
  8
4
  6
ByLayer
 62
    1
370
   -1
100
AcDbCircle
 10
372.7503636619663
 20
-7.1285027296001
 40
0.075
100
AcDbArc
 50
0
 51
90
  0
LINE
  5
412
100
AcDbEntity
  8
4
  6
ByLayer
 62
    1
370
   -1
100
AcDbLine
 10
372.7687141470622
 20
-30.04050582860283
 11
297.3313636619662
 21
-30.2035027296001
  0
LINE
  5
413
100
AcDbEntity
  8
4
  6
ByLayer
 62
  256
370
   -1
100
AcDbLine
 10
372.8255240948949
 20
-7.129966413635493
 11
372.780183078793
 21
-30.03995498700736
  0
LINE
  5
414
100
AcDbEntity
  8
4
  6
ByLayer
 62
  256
370
   -1
100
AcDbLine
 10
372.780183078793
 20
-30.03995498700736
 11
372.7837958850632
 21
-30.0435677932775
  0
ARC
  5
415
100
AcDbEntity
  8
4
  6
ByLayer
 62
    1
370
   -1
100
AcDbCircle
 10
393.8390376633091
 20
25.38786717099195
 40
0.925
100
AcDbArc
 50
-28.058782
 51
151.941218
  0
ARC
  5
416
100
AcDbEntity
  8
4
  6
ByLayer
 62
    1
370
   -1
100
AcDbCircle
 10
393.8390376633091
 20
25.38786717099195
 40
0.925
100
AcDbArc
 50
151.941218
 51
-28.058782
  0
ARC
  5
417
100
AcDbEntity
  8
4
  6
ByLayer
 62
    1
370
   -1
100
AcDbCircle
 10
453.8390376633091
 20
25.38786717099195
 40
0.925
100
AcDbArc
 50
-118.058977
 51
61.941023
  0
ARC
  5
418
100
AcDbEntity
  8
4
  6
ByLayer
 62
    1
370
   -1
100
AcDbCircle
 10
453.8390376633091
 20
25.38786717099195
 40
0.925
100
AcDbArc
 50
61.941023
 51
-118.058977
  0
ARC
  5
419
100
AcDbEntity
  8
4
  6
ByLayer
 62
    1
370
   -1
100
AcDbCircle
 10
382.420037663309
 20
7.387867170991946
 40
0.075
100
AcDbArc
 50
180
 51
-90
  0
LINE
  5
41A
100
AcDbEntity
  8
4
  6
ByLayer
 62
    1
370
   -1
100
AcDbLine
 10
382.3450376633092
 20
7.387867170991946
 11
382.3450376633092
 21
30.38786717099195
  0
ARC
  5
41B
100
AcDbEntity
  8
4
  6
ByLayer
 62
    1
370
   -1
100
AcDbCircle
 10
382.420037663309
 20
30.38786717099195
 40
0.075
100
AcDbArc
 50
90
 51
180
  0
LINE
  5
41C
100
AcDbEntity
  8
4
  6
ByLayer
 62
    1
370
   -1
100
AcDbLine
 10
382.420037663309
 20
30.46286717099193
 11
414.277037663309
 21
30.46286717099193
  0
ARC
  5
41D
100
AcDbEntity
  8
4
  6
ByLayer
 62
    1
370
   -1
100
AcDbCircle
 10
414.277037663309
 20
30.38786717099195
 40
0.075
100
AcDbArc
 50
-45.004122
 51
90
  0
LINE
  5
41E
100
AcDbEntity
  8
4
  6
ByLayer
 62
    1
370
   -1
100
AcDbLine
 10
414.3300376633091
 20
30.33486717099193
 11
398.1200376633091
 21
14.12386717099195
  0
LINE
  5
41F
100
AcDbEntity
  8
4
  6
ByLayer
 62
    1
370
   -1
100
AcDbLine
 10
398.1200376633091
 20
14.12386717099195
 11
400.135037663309
 21
12.10886717099195
  0
LINE
  5
420
100
AcDbEntity
  8
4
  6
ByLayer
 62
    1
370
   -1
100
AcDbLine
 10
400.135037663309
 20
12.10886717099195
 11
418.467037663309
 21
30.44086717099195
  0
ARC
  5
421
100
AcDbEntity
  8
4
  6
ByLayer
 62
    1
370
   -1
100
AcDbCircle
 10
418.520037663309
 20
30.38786717099195
 40
0.075
100
AcDbArc
 50
90
 51
135.004121
  0
LINE
  5
422
100
AcDbEntity
  8
4
  6
ByLayer
 62
    1
370
   -1
100
AcDbLine
 10
418.520037663309
 20
30.46286717099193
 11
422.777037663309
 21
30.46286717099193
  0
ARC
  5
423
100
AcDbEntity
  8
4
  6
ByLayer
 62
    1
370
   -1
100
AcDbCircle
 10
422.777037663309
 20
30.38786717099195
 40
0.075
100
AcDbArc
 50
-45.004122
 51
90
  0
LINE
  5
424
100
AcDbEntity
  8
4
  6
ByLayer
 62
    1
370
   -1
100
AcDbLine
 10
422.8300376633091
 20
30.33486717099193
 11
406.6200376633091
 21
14.12386717099195
  0
LINE
  5
425
100
AcDbEntity
  8
4
  6
ByLayer
 62
    1
370
   -1
100
AcDbLine
 10
406.6200376633091
 20
14.12386717099195
 11
408.635037663309
 21
12.10886717099195
  0
LINE
  5
426
100
AcDbEntity
  8
4
  6
ByLayer
 62
    1
370
   -1
100
AcDbLine
 10
408.635037663309
 20
12.10886717099195
 11
426.967037663309
 21
30.44086717099195
  0
ARC
  5
427
100
AcDbEntity
  8
4
  6
ByLayer
 62
    1
370
   -1
100
AcDbCircle
 10
427.020037663309
 20
30.38786717099195
 40
0.075
100
AcDbArc
 50
90
 51
135.004121
  0
LINE
  5
428
100
AcDbEntity
  8
4
  6
ByLayer
 62
    1
370
   -1
100
AcDbLine
 10
427.020037663309
 20
30.46286717099193
 11
431.277037663309
 21
30.46286717099193
  0
ARC
  5
429
100
AcDbEntity
  8
4
  6
ByLayer
 62
    1
370
   -1
100
AcDbCircle
 10
431.277037663309
 20
30.38786717099195
 40
0.075
100
AcDbArc
 50
-45.004122
 51
90
  0
LINE
  5
42A
100
AcDbEntity
  8
4
  6
ByLayer
 62
    1
370
   -1
100
AcDbLine
 10
431.3300376633091
 20
30.33486717099193
 11
415.1200376633091
 21
14.12386717099195
  0
LINE
  5
42B
100
AcDbEntity
  8
4
  6
ByLayer
 62
    1
370
   -1
100
AcDbLine
 10
415.1200376633091
 20
14.12386717099195
 11
417.135037663309
 21
12.10886717099195
  0
LINE
  5
42C
100
AcDbEntity
  8
4
  6
ByLayer
 62
    1
370
   -1
100
AcDbLine
 10
417.135037663309
 20
12.10886717099195
 11
435.467037663309
 21
30.44086717099195
  0
ARC
  5
42D
100
AcDbEntity
  8
4
  6
ByLayer
 62
    1
370
   -1
100
AcDbCircle
 10
435.520037663309
 20
30.38786717099195
 40
0.075
100
AcDbArc
 50
90
 51
135.004121
  0
LINE
  5
42E
100
AcDbEntity
  8
4
  6
ByLayer
 62
    1
370
   -1
100
AcDbLine
 10
435.520037663309
 20
30.46286717099193
 11
439.777037663309
 21
30.46286717099193
  0
ARC
  5
42F
100
AcDbEntity
  8
4
  6
ByLayer
 62
    1
370
   -1
100
AcDbCircle
 10
439.777037663309
 20
30.38786717099195
 40
0.075
100
AcDbArc
 50
-45.004122
 51
90
  0
LINE
  5
430
100
AcDbEntity
  8
4
  6
ByLayer
 62
    1
370
   -1
100
AcDbLine
 10
439.8300376633091
 20
30.33486717099193
 11
423.6200376633091
 21
14.12386717099195
  0
LINE
  5
431
100
AcDbEntity
  8
4
  6
ByLayer
 62
    1
370
   -1
100
AcDbLine
 10
423.6200376633091
 20
14.12386717099195
 11
425.635037663309
 21
12.10886717099195
  0
LINE
  5
432
100
AcDbEntity
  8
4
  6
ByLayer
 62
    1
370
   -1
100
AcDbLine
 10
425.635037663309
 20
12.10886717099195
 11
443.967037663309
 21
30.44086717099195
  0
ARC
  5
433
100
AcDbEntity
  8
4
  6
ByLayer
 62
    1
370
   -1
100
AcDbCircle
 10
444.020037663309
 20
30.38786717099195
 40
0.075
100
AcDbArc
 50
90
 51
135.004121
  0
LINE
  5
434
100
AcDbEntity
  8
4
  6
ByLayer
 62
    1
370
   -1
100
AcDbLine
 10
444.020037663309
 20
30.46286717099193
 11
457.8390376633091
 21
30.46286717099193
  0
ARC
  5
435
100
AcDbEntity
  8
4
  6
ByLayer
 62
    1
370
   -1
100
AcDbCircle
 10
457.8390376633091
 20
30.38786717099195
 40
0.075
100
AcDbArc
 50
0
 51
90
  0
LINE
  5
436
100
AcDbEntity
  8
4
  6
ByLayer
 62
    1
370
   -1
100
AcDbLine
 10
457.857388148405
 20
7.475864071989214
 11
382.420037663309
 21
7.31286717099195
  0
LINE
  5
437
100
AcDbEntity
  8
4
  6
ByLayer
 62
  256
370
   -1
100
AcDbLine
 10
457.9141980962377
 20
30.38640348695655
 11
457.8688570801357
 21
7.476414913584684
  0
LINE
  5
438
100
AcDbEntity
  8
4
  6
ByLayer
 62
  256
370
   -1
100
AcDbLine
 10
457.8688570801357
 20
7.476414913584684
 11
457.872469886406
 21
7.47280210731455
  0
ARC
  5
439
100
AcDbEntity
  8
4
  6
ByLayer
 62
    1
370
   -1
100
AcDbCircle
 10
394.8059544133244
 20
-10.96820262958179
 40
0.925
100
AcDbArc
 50
-28.058782
 51
151.941218
  0
ARC
  5
43A
100
AcDbEntity
  8
4
  6
ByLayer
 62
    1
370
   -1
100
AcDbCircle
 10
394.8059544133244
 20
-10.96820262958179
 40
0.925
100
AcDbArc
 50
151.941218
 51
-28.058782
  0
ARC
  5
43B
100
AcDbEntity
  8
4
  6
ByLayer
 62
    1
370
   -1
100
AcDbCircle
 10
454.8059544133244
 20
-10.96820262958179
 40
0.925
100
AcDbArc
 50
-118.058977
 51
61.941023
  0
ARC
  5
43C
100
AcDbEntity
  8
4
  6
ByLayer
 62
    1
370
   -1
100
AcDbCircle
 10
454.8059544133244
 20
-10.96820262958179
 40
0.925
100
AcDbArc
 50
61.941023
 51
-118.058977
  0
ARC
  5
43D
100
AcDbEntity
  8
4
  6
ByLayer
 62
    1
370
   -1
100
AcDbCircle
 10
383.3869544133243
 20
-28.96820262958179
 40
0.075
100
AcDbArc
 50
180
 51
-90
  0
LINE
  5
43E
100
AcDbEntity
  8
4
  6
ByLayer
 62
    1
370
   -1
100
AcDbLine
 10
383.3119544133245
 20
-28.96820262958179
 11
383.3119544133245
 21
-5.968202629581789
  0
ARC
  5
43F
100
AcDbEntity
  8
4
  6
ByLayer
 62
    1
370
   -1
100
AcDbCircle
 10
383.3869544133243
 20
-5.968202629581789
 40
0.075
100
AcDbArc
 50
90
 51
180
  0
ARC
  5
440
100
AcDbEntity
  8
4
  6
ByLayer
 62
    1
370
   -1
100
AcDbCircle
 10
458.8059544133244
 20
-5.968202629581789
 40
0.075
100
AcDbArc
 50
0
 51
90
  0
LINE
  5
441
100
AcDbEntity
  8
4
  6
ByLayer
 62
    1
370
   -1
100
AcDbLine
 10
458.8045033136023
 20
-5.895257307308771
 11
383.3871221826497
 21
-5.893237848411257
  0
LINE
  5
442
100
AcDbEntity
  8
4
  6
ByLayer
 62
  256
370
   -1
100
AcDbLine
 10
458.881114846253
 20
-5.969666313617182
 11
458.8357898315337
 21
-28.87989649745952
  0
LINE
  5
443
100
AcDbEntity
  8
4
  6
ByLayer
 62
    1
370
   -1
100
AcDbLine
 10
458.8357913934908
 20
-28.87989485651588
 11
383.3869544133243
 21
-29.04320262958178
  0
ARC
  5
444
100
AcDbEntity
  8
4
  6
ByLayer
 62
    1
370
   -1
100
AcDbCircle
 10
478.8059544215408
 20
4.781797371958774
 40
0.925
100
AcDbArc
 50
-28.058782
 51
151.941218
  0
ARC
  5
445
100
AcDbEntity
  8
4
  6
ByLayer
 62
    1
370
   -1
100
AcDbCircle
 10
478.8059544215408
 20
4.781797371958774
 40
0.925
100
AcDbArc
 50
151.941218
 51
-28.058782
  0
ARC
  5
446
100
AcDbEntity
  8
4
  6
ByLayer
 62
    1
370
   -1
100
AcDbCircle
 10
538.8059544215407
 20
4.781797371958774
 40
0.925
100
AcDbArc
 50
-118.058977
 51
61.941023
  0
ARC
  5
447
100
AcDbEntity
  8
4
  6
ByLayer
 62
    1
370
   -1
100
AcDbCircle
 10
538.8059544215407
 20
4.781797371958774
 40
0.925
100
AcDbArc
 50
61.941023
 51
-118.058977
  0
ARC
  5
448
100
AcDbEntity
  8
4
  6
ByLayer
 62
    1
370
   -1
100
AcDbCircle
 10
467.3869544215407
 20
9.781797371958774
 40
0.075
100
AcDbArc
 50
90
 51
180
  0
ARC
  5
449
100
AcDbEntity
  8
4
  6
ByLayer
 62
    1
370
   -1
100
AcDbCircle
 10
542.8059544215407
 20
9.781797371958774
 40
0.075
100
AcDbArc
 50
0
 51
90
  0
LINE
  5
44A
100
AcDbEntity
  8
4
  6
ByLayer
 62
    1
370
   -1
100
AcDbLine
 10
542.8045033218186
 20
9.854742694231792
 11
467.3871221908661
 21
9.856762153129306
  0
ARC
  5
44B
100
AcDbEntity
  8
4
  6
ByLayer
 62
    1
370
   -1
100
AcDbCircle
 10
467.3845995191109
 20
1.243193947882656
 40
0.075
100
AcDbArc
 50
180
 51
-90
  0
LINE
  5
44C
100
AcDbEntity
  8
4
  6
ByLayer
 62
    1
370
   -1
100
AcDbLine
 10
542.8334364992775
 20
1.33150172094857
 11
467.3845995191109
 21
1.16819394788266
  0
LINE
  5
44D
100
AcDbEntity
  8
4
  6
ByLayer
 62
  256
370
   -1
100
AcDbLine
 10
467.3120050727741
 20
9.782236811918734
 11
467.3069669940934
 21
1.242998658575596
  0
LINE
  5
44E
100
AcDbEntity
  8
4
  6
ByLayer
 62
  256
370
   -1
100
AcDbLine
 10
467.3069669940934
 20
1.242998658575596
 11
467.3099524338944
 21
1.237155757212174
  0
LINE
  5
44F
100
AcDbEntity
  8
4
  6
ByLayer
 62
  256
370
   -1
100
AcDbLine
 10
542.8812498695448
 20
9.781050001018393
 11
542.8902905666056
 21
1.365599828830264
  0
LINE
  5
450
100
AcDbEntity
  8
4
  6
ByLayer
 62
  256
370
   -1
100
AcDbLine
 10
542.8902905666056
 20
1.365599828830264
 11
542.8813102959206
 21
1.342849809761631
  0
LINE
  5
451
100
AcDbEntity
  8
4
  6
ByLayer
 62
  256
370
   -1
100
AcDbLine
 10
542.8813102959206
 20
1.342849809761631
 11
542.8561655380026
 21
1.330277430802651
  0
LINE
  5
452
100
AcDbEntity
  8
4
  6
ByLayer
 62
  256
370
   -1
100
AcDbLine
 10
542.8561655380026
 20
1.330277430802651
 11
542.8340142036463
 21
1.330277430802651
  0
ENDSEC
  0
SECTION
  2
OBJECTS
  0
DICTIONARY
  5
C
330
0
100
AcDbDictionary
281
    1
  3
ACAD_GROUP
350
D
  0
DICTIONARY
  5
D
330
C
100
AcDbDictionary
281
    1
  0
ENDSEC
  0
EOF
