0
SECTION
2
HEADER
9
$INSUNITS
70
4
9
$ACADVER
1
AC1014
9
$HANDSEED
5
FFFF
0
ENDSEC
0
SECTION
2
TABLES
0
TABLE
2
VPORT
5
8
100
AcDbSymbolTable
0
ENDTAB
0
TABLE
2
LTYPE
5
5
100
AcDbSymbolTable
0
LTYPE
5
14
100
AcDbSymbolTableRecord
100
AcDbLinetypeTableRecord
2
BYBLOCK
70
0
0
LTYPE
5
15
100
AcDbSymbolTableRecord
100
AcDbLinetypeTableRecord
2
BYLAYER
70
0
0
ENDTAB
0
TABLE
2
LAYER
5
2
100
AcDbSymbolTable
70
2
0
LAYER
5
50
100
AcDbSymbolTableRecord
100
AcDbLayerTableRecord
2
0
70
0
6
CONTINUOUS
0
ENDTAB
0
TABLE
2
STYLE
5
3
100
AcDbSymbolTable
70
1
0
STYLE
5
11
100
AcDbSymbolTableRecord
100
AcDbTextStyleTableRecord
2
STANDARD
70
0
0
ENDTAB
0
TABLE
2
VIEW
5
6
100
AcDbSymbolTable
70
0
0
ENDTAB
0
TABLE
2
UCS
5
7
100
AcDbSymbolTable
70
0
0
ENDTAB
0
TABLE
2
APPID
5
9
100
AcDbSymbolTable
70
2
0
APPID
5
12
100
AcDbSymbolTableRecord
100
AcDbRegAppTableRecord
2
ACAD
70
0
0
ENDTAB
0
TABLE
2
DIMSTYLE
5
A
100
AcDbSymbolTable
70
1
0
ENDTAB
0
TABLE
2
BLOCK_RECORD
5
1
100
AcDbSymbolTable
70
1
0
BLOCK_RECORD
5
1F
100
AcDbSymbolTableRecord
100
AcDbBlockTableRecord
2
*MODEL_SPACE
0
BLOCK_RECORD
5
1B
100
AcDbSymbolTableRecord
100
AcDbBlockTableRecord
2
*PAPER_SPACE
0
ENDTAB
0
ENDSEC
0
SECTION
2
BLOCKS
0
BLOCK
5
20
100
AcDbEntity
100
AcDbBlockBegin
2
*MODEL_SPACE
0
ENDBLK
5
21
100
AcDbEntity
100
AcDbBlockEnd
0
BLOCK
5
1C
100
AcDbEntity
100
AcDbBlockBegin
2
*PAPER_SPACE
0
ENDBLK
5
1D
100
AcDbEntity
100
AcDbBlockEnd
0
ENDSEC
0
SECTION
2
ENTITIES
0
LWPOLYLINE
5
100
100
AcDbEntity
8
0
100
AcDbPolyline
90
58
70
1
43
0.0
10
-31.341016000000003
20
-131.2072583859719
10
-31.341016000000003
20
-139.38600000000002
10
-28.341016
20
-139.38600000000002
10
-28.341016
20
-131.2072583859719
10
-25.341016
20
-131.2072583859719
10
-25.341016
20
-139.38600000000002
10
-22.341016000000003
20
-139.38600000000002
10
-22.341016000000003
20
-131.2072583859719
10
-19.341016
20
-131.2072583859719
10
-19.341016
20
-139.38600000000002
10
-11.341015999999994
20
-139.38600000000002
10
-11.34101600000001
20
-11.985991681565464
10
-375.43168274339735
20
-11.985989810008881
10
-376.47100999999998
20
-11.979932051270143
10
-376.47100999999998
20
-124.38612225997382
10
-376.47100999999998
20
-139.38600000000002
10
-301.25177000000002
20
-139.38600000000002
10
-301.25177000000002
20
-114.83600000000004
10
-285.95177000000001
20
-114.83600000000004
10
-285.95177000000007
20
-139.38600000000002
10
-88.341015999999968
20
-139.38600000000002
10
-88.341015999999982
20
-131.2072583859719
10
-85.341015999999982
20
-131.2072583859719
10
-85.341015999999982
20
-139.38600000000002
10
-82.341015999999996
20
-139.38600000000002
10
-82.341015999999996
20
-131.2072583859719
10
-79.341015999999982
20
-131.2072583859719
10
-79.341015999999982
20
-139.38600000000002
10
-76.341015999999982
20
-139.38600000000002
10
-76.341015999999982
20
-131.2072583859719
10
-73.341015999999982
20
-131.2072583859719
10
-73.341015999999982
20
-139.38600000000002
10
-70.341015999999982
20
-139.38600000000002
10
-70.341015999999982
20
-131.2072583859719
10
-67.341015999999996
20
-131.2072583859719
10
-67.341015999999996
20
-139.38600000000002
10
-64.341015999999996
20
-139.38600000000002
10
-64.341015999999996
20
-131.2072583859719
10
-61.34101600000001
20
-131.2072583859719
10
-61.34101600000001
20
-139.38600000000002
10
-58.341016000000003
20
-139.38600000000002
10
-58.341016000000003
20
-131.2072583859719
10
-55.341016000000003
20
-131.2072583859719
10
-55.341016000000003
20
-139.38600000000002
10
-52.34101600000001
20
-139.38600000000002
10
-52.34101600000001
20
-131.2072583859719
10
-49.34101600000001
20
-131.2072583859719
10
-49.34101600000001
20
-139.38600000000002
10
-46.341016000000003
20
-139.38600000000002
10
-46.341016000000003
20
-131.2072583859719
10
-43.341016000000003
20
-131.2072583859719
10
-43.341016000000003
20
-139.38600000000002
10
-40.341016000000003
20
-139.38600000000002
10
-40.341016000000003
20
-131.2072583859719
10
-37.34101600000001
20
-131.2072583859719
10
-37.34101600000001
20
-139.38600000000002
10
-34.341016000000003
20
-139.38600000000002
10
-34.341016000000003
20
-131.2072583859719
0
LWPOLYLINE
5
101
100
AcDbEntity
8
0
100
AcDbPolyline
90
4
70
1
43
0.0
10
-344.22100999999998
20
-64.735989999999987
10
-332.72101000000015
20
-64.735989999999987
10
-332.72101000000015
20
-76.235990000000001
10
-344.22100999999998
20
-76.235990000000001
0
LWPOLYLINE
5
102
100
AcDbEntity
8
0
100
AcDbPolyline
90
4
70
1
43
0.0
10
-355.58063225807928
20
-132.31493218813449
10
-344.26692375909448
20
-121.00122368914984
10
-341.93347138117895
20
-123.33467606706549
10
-353.2471798801638
20
-134.64838456605014
0
CIRCLE
5
103
100
AcDbEntity
8
0
100
AcDbCircle
10
-372.47100999999998
20
-134.38600000000002
30
0
40
1.0000000000000142
210
0
220
0
230
1
0
LWPOLYLINE
5
104
100
AcDbEntity
8
0
100
AcDbPolyline
90
8
70
1
43
0.0
10
-347.08063225807928
20
-132.31493218813449
10
-335.76692375909437
20
-121.00122368914984
10
-333.64560341553494
20
-123.1225440327095
10
-333.65296272841562
20
-123.12990334559025
10
-333.44819000694037
20
-123.3346760670655
10
-344.76189850592527
20
-134.64838456605014
10
-344.97403054028121
20
-134.43625253169418
10
-344.9666712274003
20
-134.42889321881358
0
LWPOLYLINE
5
105
100
AcDbEntity
8
0
100
AcDbPolyline
90
4
70
1
43
0.0
10
-149.27821955340045
20
-124.53600000000006
10
-149.27821955340045
20
-121.23600000000003
10
-139.27821955340045
20
-121.23600000000003
10
-139.27821955340045
20
-124.53600000000006
0
LWPOLYLINE
5
106
100
AcDbEntity
8
0
100
AcDbPolyline
90
4
70
1
43
0.0
10
-228.39499099094067
20
-124.53600000000006
10
-238.39499099094067
20
-124.53600000000006
10
-238.39499099094067
20
-121.23600000000003
10
-228.39499099094067
20
-121.23600000000003
0
LWPOLYLINE
5
107
100
AcDbEntity
8
0
100
AcDbPolyline
90
4
70
1
43
0.0
10
-327.26692375909437
20
-121.00122368914984
10
-324.93347138117889
20
-123.33467606706549
10
-336.2471798801638
20
-134.64838456605014
10
-338.58063225807933
20
-132.31493218813449
0
CIRCLE
5
108
100
AcDbEntity
8
0
100
AcDbCircle
10
-92.971010000000007
20
-134.38600000000002
30
0
40
0.99999999999999645
210
0
220
0
230
1
0
CIRCLE
5
109
100
AcDbEntity
8
0
100
AcDbCircle
10
-15.341015999999996
20
-134.38600000000002
30
0
40
0.99999999999999867
210
0
220
0
230
1
0
LWPOLYLINE
5
110
100
AcDbEntity
8
0
100
AcDbPolyline
90
4
70
1
43
0.0
10
-109.71983383463028
20
-121.23600000000003
10
-99.719833834630279
20
-121.23600000000003
10
-99.719833834630279
20
-124.53600000000006
10
-109.71983383463028
20
-124.53600000000006
0
LWPOLYLINE
5
111
100
AcDbEntity
8
0
100
AcDbPolyline
90
4
70
1
43
0.0
10
-277.95337670971082
20
-121.23600000000003
10
-267.95337670971082
20
-121.23600000000003
10
-267.95337670971082
20
-124.53600000000006
10
-277.95337670971082
20
-124.53600000000006
0
CIRCLE
5
112
100
AcDbEntity
8
0
100
AcDbCircle
10
-270.47101000000004
20
-134.38600000000002
30
0
40
1.0000000000000142
210
0
220
0
230
1
0
CIRCLE
5
113
100
AcDbEntity
8
0
100
AcDbCircle
10
-372.47100999999998
20
-15.985990000000001
30
0
40
1.0000000000000142
210
0
220
0
230
1
0
LWPOLYLINE
5
114
100
AcDbEntity
8
0
100
AcDbPolyline
90
4
70
1
43
0.0
10
-330.08063225807928
20
-132.31493218813449
10
-318.76692375909437
20
-121.00122368914984
10
-316.43347138117883
20
-123.3346760670655
10
-327.74717988016386
20
-134.64838456605014
0
CIRCLE
5
115
100
AcDbEntity
8
0
100
AcDbCircle
10
-312.47100999999998
20
-134.38600000000002
30
0
40
1.0000000000000142
210
0
220
0
230
1
0
CIRCLE
5
116
100
AcDbEntity
8
0
100
AcDbCircle
10
-193.906013
20
-15.985990000000005
30
0
40
1.0000000000000142
210
0
220
0
230
1
0
CIRCLE
5
117
100
AcDbEntity
8
0
100
AcDbCircle
10
-372.47100999999998
20
-75.18599500000002
30
0
40
1.0000000000000142
210
0
220
0
230
1
0
CIRCLE
5
118
100
AcDbEntity
8
0
100
AcDbCircle
10
-15.341015999999996
20
-15.98599000000001
30
0
40
0.99999999999999867
210
0
220
0
230
1
0
CIRCLE
5
119
100
AcDbEntity
8
0
100
AcDbCircle
10
-15.341015999999996
20
-75.18599500000002
30
0
40
1.0000000000000009
210
0
220
0
230
1
0
ENDSEC
0
SECTION
2
OBJECTS
0
DICTIONARY
5
C
100
AcDbDictionary
3
ACAD_GROUP
350
D
3
ACAD_MLINESTYLE
350
17
0
DICTIONARY
5
D
100
AcDbDictionary
0
DICTIONARY
5
1A
330
C
100
AcDbDictionary
0
DICTIONARY
5
17
100
AcDbDictionary
0
ENDSEC
0
EOF
