0
SECTION
2
HEADER
9
$INSUNITS
70
4
9
$ACADVER
1
AC1014
9
$HANDSEED
5
FFFF
0
ENDSEC
0
SECTION
2
TABLES
0
TABLE
2
VPORT
5
8
100
AcDbSymbolTable
0
ENDTAB
0
TABLE
2
LTYPE
5
5
100
AcDbSymbolTable
0
LTYPE
5
14
100
AcDbSymbolTableRecord
100
AcDbLinetypeTableRecord
2
BYBLOCK
70
0
0
LTYPE
5
15
100
AcDbSymbolTableRecord
100
AcDbLinetypeTableRecord
2
BYLAYER
70
0
0
ENDTAB
0
TABLE
2
LAYER
5
2
100
AcDbSymbolTable
70
2
0
LAYER
5
50
100
AcDbSymbolTableRecord
100
AcDbLayerTableRecord
2
0
70
0
6
CONTINUOUS
0
ENDTAB
0
TABLE
2
STYLE
5
3
100
AcDbSymbolTable
70
1
0
STYLE
5
11
100
AcDbSymbolTableRecord
100
AcDbTextStyleTableRecord
2
STANDARD
70
0
0
ENDTAB
0
TABLE
2
VIEW
5
6
100
AcDbSymbolTable
70
0
0
ENDTAB
0
TABLE
2
UCS
5
7
100
AcDbSymbolTable
70
0
0
ENDTAB
0
TABLE
2
APPID
5
9
100
AcDbSymbolTable
70
2
0
APPID
5
12
100
AcDbSymbolTableRecord
100
AcDbRegAppTableRecord
2
ACAD
70
0
0
ENDTAB
0
TABLE
2
DIMSTYLE
5
A
100
AcDbSymbolTable
70
1
0
ENDTAB
0
TABLE
2
BLOCK_RECORD
5
1
100
AcDbSymbolTable
70
1
0
BLOCK_RECORD
5
1F
100
AcDbSymbolTableRecord
100
AcDbBlockTableRecord
2
*MODEL_SPACE
0
BLOCK_RECORD
5
1B
100
AcDbSymbolTableRecord
100
AcDbBlockTableRecord
2
*PAPER_SPACE
0
ENDTAB
0
ENDSEC
0
SECTION
2
BLOCKS
0
BLOCK
5
20
100
AcDbEntity
100
AcDbBlockBegin
2
*MODEL_SPACE
0
ENDBLK
5
21
100
AcDbEntity
100
AcDbBlockEnd
0
BLOCK
5
1C
100
AcDbEntity
100
AcDbBlockBegin
2
*PAPER_SPACE
0
ENDBLK
5
1D
100
AcDbEntity
100
AcDbBlockEnd
0
ENDSEC
0
SECTION
2
ENTITIES
0
LWPOLYLINE
5
100
100
AcDbEntity
8
0
100
AcDbPolyline
90
4
70
1
43
0.0
10
277.95337670971077
20
-124.53600000000003
10
277.95337670971077
20
-121.23600000000002
10
267.95337670971077
20
-121.23600000000002
10
267.95337670971077
20
-124.53600000000003
0
LWPOLYLINE
5
101
100
AcDbEntity
8
0
100
AcDbPolyline
90
4
70
1
43
0.0
10
238.39499099094064
20
-124.53600000000003
10
238.39499099094064
20
-121.23600000000002
10
228.39499099094064
20
-121.23600000000002
10
228.39499099094064
20
-124.53600000000003
0
LWPOLYLINE
5
102
100
AcDbEntity
8
0
100
AcDbPolyline
90
4
70
1
43
0.0
10
149.27821955340045
20
-124.53600000000003
10
149.27821955340045
20
-121.23600000000002
10
139.27821955340045
20
-121.23600000000002
10
139.27821955340045
20
-124.53600000000003
0
LWPOLYLINE
5
103
100
AcDbEntity
8
0
100
AcDbPolyline
90
4
70
1
43
0.0
10
109.71983383463029
20
-124.53600000000003
10
109.71983383463029
20
-121.23600000000002
10
99.719833834630293
20
-121.23600000000002
10
99.719833834630293
20
-124.53600000000003
0
LWPOLYLINE
5
104
100
AcDbEntity
8
0
100
AcDbPolyline
90
4
70
1
43
0.0
10
318.76692375909437
20
-121.00122368914984
10
316.43347138117883
20
-123.33467606706547
10
319.9690052871116
20
-126.87020997299817
10
322.30245766502719
20
-124.53675759508255
0
LWPOLYLINE
5
105
100
AcDbEntity
8
0
100
AcDbPolyline
90
4
70
1
43
0.0
10
327.26692375909442
20
-121.00122368914984
10
324.93347138117889
20
-123.33467606706547
10
328.46900528711166
20
-126.87020997299817
10
330.80245766502719
20
-124.53675759508255
0
LWPOLYLINE
5
106
100
AcDbEntity
8
0
100
AcDbPolyline
90
8
70
1
43
0.0
10
333.65296272841562
20
-123.12990334559025
10
333.44819000694037
20
-123.3346760670655
10
336.98372391287313
20
-126.8702099729982
10
337.19585594722906
20
-126.65807793864224
10
337.18849663434833
20
-126.65071862576148
10
339.30245766502719
20
-124.53675759508255
10
335.76692375909442
20
-121.00122368914984
10
333.64560341553488
20
-123.1225440327095
0
LWPOLYLINE
5
107
100
AcDbEntity
8
0
100
AcDbPolyline
90
4
70
1
43
0.0
10
344.26692375909448
20
-121.00122368914984
10
341.93347138117895
20
-123.33467606706547
10
345.46900528711171
20
-126.87020997299818
10
347.80245766502725
20
-124.53675759508255
0
LWPOLYLINE
5
108
100
AcDbEntity
8
0
100
AcDbPolyline
90
4
70
1
43
0.0
10
21.356967797246007
20
-128.69381757687987
10
21.356967797246043
20
-116.37448893694622
10
366.43948449518996
20
-116.37448893694622
10
366.43948449518984
20
-128.69381757687987
0
ENDSEC
0
SECTION
2
OBJECTS
0
DICTIONARY
5
C
100
AcDbDictionary
3
ACAD_GROUP
350
D
3
ACAD_MLINESTYLE
350
17
0
DICTIONARY
5
D
100
AcDbDictionary
0
DICTIONARY
5
1A
330
C
100
AcDbDictionary
0
DICTIONARY
5
17
100
AcDbDictionary
0
ENDSEC
0
EOF
