0
SECTION
2
HEADER
9
$INSUNITS
70
4
9
$ACADVER
1
AC1014
9
$HANDSEED
5
FFFF
0
ENDSEC
0
SECTION
2
TABLES
0
TABLE
2
VPORT
5
8
100
AcDbSymbolTable
0
ENDTAB
0
TABLE
2
LTYPE
5
5
100
AcDbSymbolTable
0
LTYPE
5
14
100
AcDbSymbolTableRecord
100
AcDbLinetypeTableRecord
2
BYBLOCK
70
0
0
LTYPE
5
15
100
AcDbSymbolTableRecord
100
AcDbLinetypeTableRecord
2
BYLAYER
70
0
0
ENDTAB
0
TABLE
2
LAYER
5
2
100
AcDbSymbolTable
70
2
0
LAYER
5
50
100
AcDbSymbolTableRecord
100
AcDbLayerTableRecord
2
0
70
0
6
CONTINUOUS
0
ENDTAB
0
TABLE
2
STYLE
5
3
100
AcDbSymbolTable
70
1
0
STYLE
5
11
100
AcDbSymbolTableRecord
100
AcDbTextStyleTableRecord
2
STANDARD
70
0
0
ENDTAB
0
TABLE
2
VIEW
5
6
100
AcDbSymbolTable
70
0
0
ENDTAB
0
TABLE
2
UCS
5
7
100
AcDbSymbolTable
70
0
0
ENDTAB
0
TABLE
2
APPID
5
9
100
AcDbSymbolTable
70
2
0
APPID
5
12
100
AcDbSymbolTableRecord
100
AcDbRegAppTableRecord
2
ACAD
70
0
0
ENDTAB
0
TABLE
2
DIMSTYLE
5
A
100
AcDbSymbolTable
70
1
0
ENDTAB
0
TABLE
2
BLOCK_RECORD
5
1
100
AcDbSymbolTable
70
1
0
BLOCK_RECORD
5
1F
100
AcDbSymbolTableRecord
100
AcDbBlockTableRecord
2
*MODEL_SPACE
0
BLOCK_RECORD
5
1B
100
AcDbSymbolTableRecord
100
AcDbBlockTableRecord
2
*PAPER_SPACE
0
ENDTAB
0
ENDSEC
0
SECTION
2
BLOCKS
0
BLOCK
5
20
100
AcDbEntity
100
AcDbBlockBegin
2
*MODEL_SPACE
0
ENDBLK
5
21
100
AcDbEntity
100
AcDbBlockEnd
0
BLOCK
5
1C
100
AcDbEntity
100
AcDbBlockBegin
2
*PAPER_SPACE
0
ENDBLK
5
1D
100
AcDbEntity
100
AcDbBlockEnd
0
ENDSEC
0
SECTION
2
ENTITIES
0
LWPOLYLINE
5
100
100
AcDbEntity
8
0
100
AcDbPolyline
90
4
70
1
43
0.0
10
-277.95337670971077
20
-124.53600000000006
10
-99.719833834630293
20
-124.53600000000006
10
-99.719833834630293
20
-121.23600000000003
10
-277.95337670971077
20
-121.23600000000003
0
LWPOLYLINE
5
101
100
AcDbEntity
8
0
100
AcDbPolyline
90
4
70
1
43
0.0
10
-112.64102000000001
20
-99.285993999999988
10
-112.64102000000001
20
-113.28600000000002
10
-98.64101500000001
20
-113.28600000000002
10
-98.64101500000001
20
-99.285993999999988
0
LWPOLYLINE
5
102
100
AcDbEntity
8
0
100
AcDbPolyline
90
4
70
1
43
0.0
10
-365.37101000000001
20
-99.285993999999988
10
-365.37101000000001
20
-113.28600000000002
10
-351.37101000000001
20
-113.28600000000002
10
-351.37101000000001
20
-99.285993999999988
0
CIRCLE
5
103
100
AcDbEntity
8
0
100
AcDbCircle
10
-312.47100999999998
20
-134.38600000000002
30
0
40
1.0000000000000142
210
0
220
0
230
1
0
LWPOLYLINE
5
104
100
AcDbEntity
8
0
100
AcDbPolyline
90
4
70
1
43
0.0
10
-79.591014999999999
20
-113.28600000000002
10
-79.591014999999999
20
-99.285993999999988
10
-93.591016000000025
20
-99.285993999999988
10
-93.591016000000025
20
-113.28600000000002
0
LWPOLYLINE
5
105
100
AcDbEntity
8
0
100
AcDbPolyline
90
4
70
1
43
0.0
10
-346.32101
20
-113.28600000000002
10
-332.32101
20
-113.28600000000002
10
-332.32101
20
-99.285993999999988
10
-346.32101
20
-99.285993999999988
0
LWPOLYLINE
5
106
100
AcDbEntity
8
0
100
AcDbPolyline
90
4
70
1
43
0.0
10
-136.74101000000002
20
-99.285993999999988
10
-150.74101000000002
20
-99.285993999999988
10
-150.74101000000002
20
-113.28600000000002
10
-136.74101000000002
20
-113.28600000000002
0
LWPOLYLINE
5
107
100
AcDbEntity
8
0
100
AcDbPolyline
90
4
70
1
43
0.0
10
-165.31601000000001
20
-80.235993000000008
10
-179.31601000000001
20
-80.235993000000008
10
-179.31601000000001
20
-94.235993999999991
10
-165.31601000000001
20
-94.235993999999991
0
LWPOLYLINE
5
108
100
AcDbEntity
8
0
100
AcDbPolyline
90
4
70
1
43
0.0
10
-184.07851000000005
20
-61.185992000000013
10
-184.07851000000005
20
-75.185993000000025
10
-170.07851000000002
20
-75.185993000000025
10
-170.07851000000002
20
-61.185992000000013
0
LWPOLYLINE
5
109
100
AcDbEntity
8
0
100
AcDbPolyline
90
4
70
1
43
0.0
10
-231.70351000000005
20
-56.135992000000002
10
-217.70351000000005
20
-56.135992000000002
10
-217.70351000000005
20
-42.135990000000007
10
-231.70351000000005
20
-42.135990000000007
0
LWPOLYLINE
5
110
100
AcDbEntity
8
0
100
AcDbPolyline
90
4
70
1
43
0.0
10
-46.253515000000007
20
-42.135990000000007
10
-60.253514999999993
20
-42.135990000000007
10
-60.253514999999993
20
-56.135992000000002
10
-46.253515000000007
20
-56.135992000000002
0
LWPOLYLINE
5
111
100
AcDbEntity
8
0
100
AcDbPolyline
90
4
70
1
43
0.0
10
-38.822265000000016
20
-56.135992000000002
10
-24.822264999999994
20
-56.135992000000002
10
-24.822264999999994
20
-42.135990000000007
10
-38.822265000000016
20
-42.135990000000007
0
LWPOLYLINE
5
112
100
AcDbEntity
8
0
100
AcDbPolyline
90
16
70
1
43
0.0
10
-104.20975620895885
20
-32.385983744438285
10
-104.20977000000001
20
-35.615978999999996
10
-97.559765999999996
20
-35.615978999999996
10
-97.559765999999996
20
-32.385999999999996
10
-96.68476400000003
20
-32.385999999999996
10
-96.68476400000003
20
-29.585990000000002
10
-97.559765999999996
20
-29.585990000000002
10
-97.559765999999996
20
-23.315999999999999
10
-99.234754000000009
20
-23.315999999999999
10
-99.234754000000009
20
-22.115989999999996
10
-102.53475000000002
20
-22.115989999999996
10
-102.53475000000002
20
-23.315999999999999
10
-104.20971186670052
20
-23.315983744492481
10
-104.20975626000498
20
-29.585981872227514
10
-105.08475826000236
20
-29.585979733331989
10
-105.08476510447679
20
-32.385989733323619
0
CIRCLE
5
113
100
AcDbEntity
8
0
100
AcDbCircle
10
-92.971010000000007
20
-134.38600000000002
30
0
40
1.0000000000000142
210
0
220
0
230
1
0
LWPOLYLINE
5
114
100
AcDbEntity
8
0
100
AcDbPolyline
90
4
70
1
43
0.0
10
-198.65351000000004
20
-56.135992000000002
10
-198.65351000000004
20
-42.135990000000007
10
-212.65351000000004
20
-42.135990000000007
10
-212.65351000000004
20
-56.135992000000002
0
LWPOLYLINE
5
115
100
AcDbEntity
8
0
100
AcDbPolyline
90
4
70
1
43
0.0
10
-203.12851000000001
20
-61.185992000000013
10
-203.12851000000001
20
-75.185993000000025
10
-189.12851000000001
20
-75.185993000000025
10
-189.12851000000001
20
-61.185992000000013
0
LWPOLYLINE
5
116
100
AcDbEntity
8
0
100
AcDbPolyline
90
4
70
1
43
0.0
10
-145.97850999999997
20
-75.185993000000025
10
-131.97851
20
-75.185993000000025
10
-131.97851
20
-61.185992000000013
10
-145.97850999999997
20
-61.185992000000013
0
LWPOLYLINE
5
117
100
AcDbEntity
8
0
100
AcDbPolyline
90
4
70
1
43
0.0
10
-203.41601
20
-80.235993000000008
10
-217.41601000000003
20
-80.235993000000008
10
-217.41601000000003
20
-94.235993999999991
10
-203.41601
20
-94.235993999999991
0
LWPOLYLINE
5
118
100
AcDbEntity
8
0
100
AcDbPolyline
90
44
70
1
43
0.0
10
-288.22976
20
-69.135995000000008
10
-288.22976
20
-62.48599200000001
10
-291.45976000000007
20
-62.48599200000001
10
-291.45976000000007
20
-61.610990000000001
10
-294.25976000000003
20
-61.610990000000001
10
-294.25976000000003
20
-62.48599200000001
10
-300.52976000000001
20
-62.48599200000001
10
-300.52976000000001
20
-64.111000000000018
10
-301.72976
20
-64.111000000000018
10
-301.72976
20
-67.410995999999997
10
-300.52976000000001
20
-67.410995999999997
10
-300.52976000000001
20
-69.135995000000008
10
-299.72976000000006
20
-69.135995000000008
10
-299.72976000000006
20
-69.911005000000003
10
-299.75976000000003
20
-69.911005000000003
10
-299.75976000000003
20
-70.710992000000005
10
-300.75976000000003
20
-70.710992000000005
10
-300.75976000000003
20
-84.710993999999999
10
-299.75976000000003
20
-84.710993999999999
10
-299.75976000000003
20
-85.510994999999994
10
-299.72976000000006
20
-85.510994999999994
10
-299.72976000000006
20
-86.285993999999988
10
-300.52976000000001
20
-86.285993999999988
10
-300.52976000000001
20
-88.010993000000013
10
-301.72976
20
-88.010993000000013
10
-301.72976
20
-91.310994999999991
10
-300.52976000000001
20
-91.310994999999991
10
-300.52976000000001
20
-92.935993999999994
10
-294.25976000000003
20
-92.935993999999994
10
-294.25976000000003
20
-93.810993000000011
10
-291.45976000000007
20
-93.810993000000011
10
-291.45976000000007
20
-92.935993999999994
10
-288.22976
20
-92.935993999999994
10
-288.22976
20
-86.285993999999988
10
-289.02976000000001
20
-86.285993999999988
10
-289.02976000000001
20
-85.510994999999994
10
-287.75976000000003
20
-85.510994999999994
10
-287.75976000000003
20
-84.710993999999999
10
-286.75976000000003
20
-84.710993999999999
10
-286.75976000000003
20
-70.710992000000005
10
-287.75976000000003
20
-70.710992000000005
10
-287.75976000000003
20
-69.911005000000003
10
-289.02976000000001
20
-69.911005000000003
10
-289.02976000000001
20
-69.135995000000008
0
LWPOLYLINE
5
119
100
AcDbEntity
8
0
100
AcDbPolyline
90
44
70
1
43
0.0
10
-301.84100999999998
20
-111.81600000000003
10
-295.19101000000001
20
-111.81600000000003
10
-295.19101000000001
20
-111.01599400000001
10
-294.41601000000003
20
-111.01599400000001
10
-294.41601000000003
20
-112.28599
10
-293.61601000000002
20
-112.28599
10
-293.61601000000002
20
-113.28600000000002
10
-279.61601000000002
20
-113.28600000000002
10
-279.61601000000002
20
-112.28599
10
-278.81601000000001
20
-112.28599
10
-278.81601000000001
20
-111.01599400000001
10
-278.04101000000003
20
-111.01599400000001
10
-278.04101000000003
20
-111.81600000000003
10
-271.39100999999999
20
-111.81600000000003
10
-271.39100999999999
20
-108.58599600000002
10
-270.51600999999999
20
-108.58599600000002
10
-270.51600999999999
20
-105.78599500000003
10
-271.39100999999999
20
-105.78599500000003
10
-271.39100999999999
20
-99.515993999999992
10
-273.01600999999999
20
-99.515993999999992
10
-273.01600999999999
20
-98.315994000000003
10
-276.31601000000001
20
-98.315994000000003
10
-276.31601000000001
20
-99.515993999999992
10
-278.04101000000003
20
-99.515993999999992
10
-278.04101000000003
20
-100.315995
10
-278.81601000000001
20
-100.315995
10
-278.81601000000001
20
-100.285995
10
-279.61601000000002
20
-100.285995
10
-279.61601000000002
20
-99.285993999999988
10
-293.61601000000002
20
-99.285993999999988
10
-293.61601000000002
20
-100.285995
10
-294.41601000000003
20
-100.285995
10
-294.41601000000003
20
-100.315995
10
-295.19101000000001
20
-100.315995
10
-295.19101000000001
20
-99.515993999999992
10
-296.91601000000003
20
-99.515993999999992
10
-296.91601000000003
20
-98.315994000000003
10
-300.21600999999998
20
-98.315994000000003
10
-300.21600999999998
20
-99.515993999999992
10
-301.84100999999998
20
-99.515993999999992
10
-301.84100999999998
20
-105.78599500000003
10
-302.71600999999998
20
-105.78599500000003
10
-302.71600999999998
20
-108.58599600000002
10
-301.84100999999998
20
-108.58599600000002
0
LWPOLYLINE
5
120
100
AcDbEntity
8
0
100
AcDbPolyline
90
5
70
1
43
0.0
10
-36.441015000000014
20
-100.285995
10
-36.441015999999991
20
-113.28600000000002
10
-22.441014999999993
20
-113.28600000000002
10
-22.441016000000005
20
-99.285993999999988
10
-36.441015000000014
20
-99.285993999999988
0
LWPOLYLINE
5
121
100
AcDbEntity
8
0
100
AcDbPolyline
90
4
70
1
43
0.0
10
-72.447264999999987
20
-23.085990000000002
10
-86.447265000000016
20
-23.085990000000002
10
-86.447265000000016
20
-37.085990000000002
10
-72.447264999999987
20
-37.085990000000002
0
LWPOLYLINE
5
122
100
AcDbEntity
8
0
100
AcDbPolyline
90
44
70
1
43
0.0
10
-265.87225999999998
20
-42.366001000000004
10
-265.87225999999998
20
-41.165991999999996
10
-269.17225999999999
20
-41.165991999999996
10
-269.17225999999999
20
-42.366001000000004
10
-270.89726000000002
20
-42.366001000000004
10
-270.89726000000002
20
-43.16598900000001
10
-271.67225999999999
20
-43.16598900000001
10
-271.67225999999999
20
-43.135989000000009
10
-272.47226000000001
20
-43.135988000000005
10
-272.47226000000001
20
-42.135990000000007
10
-286.47226000000001
20
-42.135990000000007
10
-286.47226000000001
20
-43.135988000000005
10
-287.27226000000002
20
-43.135988000000005
10
-287.27226000000002
20
-43.16598900000001
10
-288.04726000000005
20
-43.16598900000001
10
-288.04726000000005
20
-42.366001000000004
10
-289.77226000000002
20
-42.366001000000004
10
-289.77226000000002
20
-41.165991999999996
10
-293.07226000000003
20
-41.165991999999996
10
-293.07226000000003
20
-42.366001000000004
10
-294.69726000000003
20
-42.366001000000004
10
-294.69726000000003
20
-48.635992000000002
10
-295.57226000000003
20
-48.635992000000002
10
-295.57226000000003
20
-51.436002999999999
10
-294.69726000000003
20
-51.436002999999999
10
-294.69726000000003
20
-54.665981000000002
10
-288.04726000000005
20
-54.665981000000002
10
-288.04726000000005
20
-53.865993000000003
10
-287.27226000000002
20
-53.865993000000003
10
-287.27226000000002
20
-55.135994000000004
10
-286.47226000000001
20
-55.135994000000004
10
-286.47226000000001
20
-56.135992000000002
10
-272.47226000000001
20
-56.135992000000002
10
-272.47226000000001
20
-55.135994000000004
10
-271.67225999999999
20
-55.135994000000004
10
-271.67225999999999
20
-53.865993000000003
10
-270.89726000000002
20
-53.865993000000003
10
-270.89726000000002
20
-54.665981000000002
10
-264.24725999999998
20
-54.665981000000002
10
-264.24725999999998
20
-51.436002999999999
10
-263.37225999999998
20
-51.436002999999999
10
-263.37225999999998
20
-48.635992000000002
10
-264.24725999999998
20
-48.635992000000002
10
-264.24725999999998
20
-42.366001000000004
0
LWPOLYLINE
5
123
100
AcDbEntity
8
0
100
AcDbPolyline
90
4
70
1
43
0.0
10
-29.584763000000009
20
-75.185990000000004
10
-29.584763000000009
20
-61.185990000000004
10
-43.584762999999995
20
-61.185990000000004
10
-43.584762999999995
20
-75.185990000000004
0
CIRCLE
5
124
100
AcDbEntity
8
0
100
AcDbCircle
10
-15.341015999999996
20
-134.38600000000002
30
0
40
0.99999999999999867
210
0
220
0
230
1
0
LWPOLYLINE
5
125
100
AcDbEntity
8
0
100
AcDbPolyline
90
4
70
1
43
0.0
10
-262.94726000000003
20
-37.085990000000002
10
-262.94726000000003
20
-23.085990000000002
10
-276.94726000000003
20
-23.085990000000002
10
-276.94726000000003
20
-37.085990000000002
0
LWPOLYLINE
5
126
100
AcDbEntity
8
0
100
AcDbPolyline
90
4
70
1
43
0.0
10
-136.45351000000005
20
-56.135992000000002
10
-122.45352
20
-56.135992000000002
10
-122.45352
20
-42.135990000000007
10
-136.45351000000005
20
-42.135990000000007
0
LWPOLYLINE
5
127
100
AcDbEntity
8
0
100
AcDbPolyline
90
4
70
1
43
0.0
10
-98.353516000000027
20
-56.135992000000002
10
-84.35351500000003
20
-56.135992000000002
10
-84.35351500000003
20
-42.135990000000007
10
-98.353516000000027
20
-42.135990000000007
0
LWPOLYLINE
5
128
100
AcDbEntity
8
0
100
AcDbPolyline
90
4
70
1
43
0.0
10
-65.303516000000002
20
-42.135990000000007
10
-79.303516000000016
20
-42.135990000000007
10
-79.303516000000016
20
-56.135992000000002
10
-65.303516000000002
20
-56.135992000000002
0
LWPOLYLINE
5
129
100
AcDbEntity
8
0
100
AcDbPolyline
90
4
70
1
43
0.0
10
-117.40352000000001
20
-42.135990000000007
10
-117.40352000000001
20
-56.135992000000002
10
-103.40352000000003
20
-56.135992000000002
10
-103.40352000000003
20
-42.135990000000007
0
LWPOLYLINE
5
130
100
AcDbEntity
8
0
100
AcDbPolyline
90
4
70
1
43
0.0
10
-48.634765000000009
20
-23.085990000000002
10
-62.634764999999994
20
-23.085990000000002
10
-62.634764999999994
20
-37.085990000000002
10
-48.634765000000009
20
-37.085990000000002
0
CIRCLE
5
131
100
AcDbEntity
8
0
100
AcDbCircle
10
-15.341015999999996
20
-15.98599000000001
30
0
40
0.99999999999999867
210
0
220
0
230
1
0
LWPOLYLINE
5
132
100
AcDbEntity
8
0
100
AcDbPolyline
90
4
70
1
43
0.0
10
-174.55351000000005
20
-42.135990000000007
10
-174.55351000000005
20
-56.135992000000002
10
-160.55351000000002
20
-56.135992000000002
10
-160.55351000000002
20
-42.135990000000007
0
LWPOLYLINE
5
133
100
AcDbEntity
8
0
100
AcDbPolyline
90
4
70
1
43
0.0
10
-38.822265000000016
20
-37.085990000000002
10
-24.822264999999994
20
-37.085990000000002
10
-24.822264999999994
20
-23.085990000000002
10
-38.822265000000016
20
-23.085990000000002
0
LWPOLYLINE
5
134
100
AcDbEntity
8
0
100
AcDbPolyline
90
4
70
1
43
0.0
10
-332.32101
20
-56.135992000000002
10
-332.32101
20
-42.135990000000007
10
-346.32101
20
-42.135990000000007
10
-346.32101
20
-56.135992000000002
0
LWPOLYLINE
5
135
100
AcDbEntity
8
0
100
AcDbPolyline
90
4
70
1
43
0.0
10
-255.51601000000005
20
-94.235993999999991
10
-241.51601000000002
20
-94.235993999999991
10
-241.51601000000002
20
-80.235993000000008
10
-255.51601000000005
20
-80.235993000000008
0
LWPOLYLINE
5
136
100
AcDbEntity
8
0
100
AcDbPolyline
90
4
70
1
43
0.0
10
-327.27100999999999
20
-80.235993000000008
10
-327.27100999999999
20
-94.235993999999991
10
-313.27100999999999
20
-94.235993999999991
10
-313.27100999999999
20
-80.235993000000008
0
LWPOLYLINE
5
137
100
AcDbEntity
8
0
100
AcDbPolyline
90
4
70
1
43
0.0
10
-286.75976000000003
20
-23.085990000000002
10
-300.75976000000003
20
-23.085990000000002
10
-300.75976000000003
20
-37.085990000000002
10
-286.75976000000003
20
-37.085990000000002
0
LWPOLYLINE
5
138
100
AcDbEntity
8
0
100
AcDbPolyline
90
4
70
1
43
0.0
10
-108.16602
20
-80.235993000000008
10
-122.16602000000002
20
-80.235993000000008
10
-122.16602000000002
20
-94.235993999999991
10
-108.16602
20
-94.235993999999991
0
LWPOLYLINE
5
139
100
AcDbEntity
8
0
100
AcDbPolyline
90
4
70
1
43
0.0
10
-74.828514999999982
20
-75.185993000000025
10
-74.828514999999982
20
-61.185992000000013
10
-88.82851500000001
20
-61.185992000000013
10
-88.82851500000001
20
-75.185993000000025
0
LWPOLYLINE
5
140
100
AcDbEntity
8
0
100
AcDbPolyline
90
4
70
1
43
0.0
10
-265.32850999999999
20
-75.185993000000025
10
-265.32850999999999
20
-61.185992000000013
10
-279.32850999999999
20
-61.185992000000013
10
-279.32850999999999
20
-75.185993000000025
0
LWPOLYLINE
5
141
100
AcDbEntity
8
0
100
AcDbPolyline
90
4
70
1
43
0.0
10
-346.32101
20
-80.235993000000008
10
-346.32101
20
-94.235993999999991
10
-332.32101
20
-94.235993999999991
10
-332.32101
20
-80.235993000000008
0
LWPOLYLINE
5
142
100
AcDbEntity
8
0
100
AcDbPolyline
90
5
70
1
43
0.0
10
-93.878516000000019
20
-61.185992000000013
10
-107.87852000000001
20
-61.185992000000013
10
-107.87852000000001
20
-75.185993000000025
10
-93.878515000000036
20
-75.185993000000025
10
-93.878516000000019
20
-62.185990000000011
0
LWPOLYLINE
5
143
100
AcDbEntity
8
0
100
AcDbPolyline
90
4
70
1
43
0.0
10
-193.60351000000003
20
-56.135992000000002
10
-179.60351
20
-56.135992000000002
10
-179.60351
20
-42.135990000000007
10
-193.60351000000003
20
-42.135990000000007
0
LWPOLYLINE
5
144
100
AcDbEntity
8
0
100
AcDbPolyline
90
4
70
1
43
0.0
10
-313.27100999999999
20
-99.285993999999988
10
-327.27100999999999
20
-99.285993999999988
10
-327.27100999999999
20
-113.28600000000002
10
-313.27100999999999
20
-113.28600000000002
0
LWPOLYLINE
5
145
100
AcDbEntity
8
0
100
AcDbPolyline
90
4
70
1
43
0.0
10
-160.26601000000002
20
-80.235993000000008
10
-160.26601000000002
20
-94.235993999999991
10
-146.26600999999999
20
-94.235993999999991
10
-146.26600999999999
20
-80.235993000000008
0
LWPOLYLINE
5
146
100
AcDbEntity
8
0
100
AcDbPolyline
90
4
70
1
43
0.0
10
-141.50351000000001
20
-56.135992000000002
10
-141.50351000000001
20
-42.135990000000007
10
-155.50351000000001
20
-42.135990000000007
10
-155.50351000000001
20
-56.135992000000002
0
LWPOLYLINE
5
147
100
AcDbEntity
8
0
100
AcDbPolyline
90
4
70
1
43
0.0
10
-207.89101000000002
20
-113.28600000000002
10
-193.89101000000005
20
-113.28600000000002
10
-193.89101000000005
20
-99.285993999999988
10
-207.89101000000002
20
-99.285993999999988
0
LWPOLYLINE
5
148
100
AcDbEntity
8
0
100
AcDbPolyline
90
4
70
1
43
0.0
10
-212.94101000000001
20
-113.28600000000002
10
-212.94101000000001
20
-99.285993999999988
10
-226.94101000000003
20
-99.285993999999988
10
-226.94101000000003
20
-113.28600000000002
0
LWPOLYLINE
5
149
100
AcDbEntity
8
0
100
AcDbPolyline
90
4
70
1
43
0.0
10
-231.99101000000002
20
-113.28600000000002
10
-231.99101000000002
20
-99.285993999999988
10
-245.99101000000005
20
-99.285993999999988
10
-245.99101000000005
20
-113.28600000000002
0
LWPOLYLINE
5
150
100
AcDbEntity
8
0
100
AcDbPolyline
90
4
70
1
43
0.0
10
-208.17851000000005
20
-61.185992000000013
10
-222.17851000000002
20
-61.185992000000013
10
-222.17851000000002
20
-75.185993000000025
10
-208.17851000000005
20
-75.185993000000025
0
LWPOLYLINE
5
151
100
AcDbEntity
8
0
100
AcDbPolyline
90
4
70
1
43
0.0
10
-165.02851000000004
20
-75.185993000000025
10
-151.02851000000001
20
-75.185993000000025
10
-151.02851000000001
20
-61.185992000000013
10
-165.02851000000004
20
-61.185992000000013
0
LWPOLYLINE
5
152
100
AcDbEntity
8
0
100
AcDbPolyline
90
4
70
1
43
0.0
10
-131.69101000000001
20
-113.28600000000002
10
-117.69102000000001
20
-113.28600000000002
10
-117.69102000000001
20
-99.285993999999988
10
-131.69101000000001
20
-99.285993999999988
0
LWPOLYLINE
5
153
100
AcDbEntity
8
0
100
AcDbPolyline
90
4
70
1
43
0.0
10
-236.46601000000004
20
-80.235993000000008
10
-236.46601000000004
20
-94.235993999999991
10
-222.46601000000001
20
-94.235993999999991
10
-222.46601000000001
20
-80.235993000000008
0
CIRCLE
5
154
100
AcDbEntity
8
0
100
AcDbCircle
10
-372.47100999999998
20
-134.38600000000002
30
0
40
1.0000000000000142
210
0
220
0
230
1
0
LWPOLYLINE
5
155
100
AcDbEntity
8
0
100
AcDbPolyline
90
4
70
1
43
0.0
10
-227.22851000000003
20
-75.185993000000025
10
-227.22851000000003
20
-61.185992000000013
10
-241.22851
20
-61.185992000000013
10
-241.22851
20
-75.185993000000025
0
LWPOLYLINE
5
156
100
AcDbEntity
8
0
100
AcDbPolyline
90
4
70
1
43
0.0
10
-41.203515999999993
20
-80.235993000000008
10
-41.203515999999993
20
-94.235993999999991
10
-27.203516000000008
20
-94.235993999999991
10
-27.203516000000008
20
-80.235993000000008
0
CIRCLE
5
157
100
AcDbEntity
8
0
100
AcDbCircle
10
-372.47100999999998
20
-15.985990000000001
30
0
40
1.0000000000000142
210
0
220
0
230
1
0
LWPOLYLINE
5
158
100
AcDbEntity
8
0
100
AcDbPolyline
90
4
70
1
43
0.0
10
-351.37101000000001
20
-23.085990000000002
10
-365.37101000000001
20
-23.085990000000002
10
-365.37101000000001
20
-37.085990000000002
10
-351.37101000000001
20
-37.085990000000002
0
LWPOLYLINE
5
159
100
AcDbEntity
8
0
100
AcDbPolyline
90
4
70
1
43
0.0
10
-260.56601000000001
20
-80.235993000000008
10
-274.56601000000001
20
-80.235993000000008
10
-274.56601000000001
20
-94.235993999999991
10
-260.56601000000001
20
-94.235993999999991
0
LWPOLYLINE
5
160
100
AcDbEntity
8
0
100
AcDbPolyline
90
4
70
1
43
0.0
10
-84.066016000000019
20
-94.235993999999991
10
-70.066015999999991
20
-94.235993999999991
10
-70.066015999999991
20
-80.235993000000008
10
-84.066016000000019
20
-80.235993000000008
0
LWPOLYLINE
5
161
100
AcDbEntity
8
0
100
AcDbPolyline
90
4
70
1
43
0.0
10
-126.92852000000002
20
-75.185993000000025
10
-112.92851999999999
20
-75.185993000000025
10
-112.92851999999999
20
-61.185992000000013
10
-126.92852000000002
20
-61.185992000000013
0
LWPOLYLINE
5
162
100
AcDbEntity
8
0
100
AcDbPolyline
90
4
70
1
43
0.0
10
-246.27851000000004
20
-75.185993000000025
10
-246.27851000000004
20
-61.185992000000013
10
-260.27850999999998
20
-61.185992000000013
10
-260.27850999999998
20
-75.185993000000025
0
LWPOLYLINE
5
163
100
AcDbEntity
8
0
100
AcDbPolyline
90
4
70
1
43
0.0
10
-60.541015000000016
20
-113.28600000000002
10
-60.541015000000016
20
-99.285993999999988
10
-74.541015000000002
20
-99.285993999999988
10
-74.541015000000002
20
-113.28600000000002
0
LWPOLYLINE
5
164
100
AcDbEntity
8
0
100
AcDbPolyline
90
4
70
1
43
0.0
10
-89.116016000000002
20
-80.235993000000008
10
-103.11602000000001
20
-80.235993000000008
10
-103.11602000000001
20
-94.235993999999991
10
-89.116016000000002
20
-94.235993999999991
0
LWPOLYLINE
5
165
100
AcDbEntity
8
0
100
AcDbPolyline
90
4
70
1
43
0.0
10
-55.491016000000002
20
-113.28600000000002
10
-41.491016000000016
20
-113.28600000000002
10
-41.491016000000016
20
-99.285993999999988
10
-55.491016000000002
20
-99.285993999999988
0
LWPOLYLINE
5
166
100
AcDbEntity
8
0
100
AcDbPolyline
90
4
70
1
43
0.0
10
-141.21601000000001
20
-94.235993999999991
10
-127.21602000000001
20
-94.235993999999991
10
-127.21602000000001
20
-80.235993000000008
10
-141.21601000000001
20
-80.235993000000008
0
LWPOLYLINE
5
167
100
AcDbEntity
8
0
100
AcDbPolyline
90
4
70
1
43
0.0
10
-51.016016000000022
20
-94.235993999999991
10
-51.016016000000022
20
-80.235993000000008
10
-65.016014999999996
20
-80.235993000000008
10
-65.016014999999996
20
-94.235993999999991
0
LWPOLYLINE
5
168
100
AcDbEntity
8
0
100
AcDbPolyline
90
4
70
1
43
0.0
10
-236.75351000000003
20
-56.135992000000002
10
-236.75351000000003
20
-42.135990000000007
10
-250.75351000000001
20
-42.135990000000007
10
-250.75351000000001
20
-56.135992000000002
0
LWPOLYLINE
5
169
100
AcDbEntity
8
0
100
AcDbPolyline
90
4
70
1
43
0.0
10
-184.36601000000002
20
-94.235993999999991
10
-184.36601000000002
20
-80.235993000000008
10
-198.36601000000002
20
-80.235993000000008
10
-198.36601000000002
20
-94.235993999999991
0
LWPOLYLINE
5
170
100
AcDbEntity
8
0
100
AcDbPolyline
90
4
70
1
43
0.0
10
-332.32101
20
-23.085990000000002
10
-346.32101
20
-23.085990000000002
10
-346.32101
20
-37.085990000000002
10
-332.32101
20
-37.085990000000002
0
LWPOLYLINE
5
171
100
AcDbEntity
8
0
100
AcDbPolyline
90
4
70
1
43
0.0
10
-327.27100999999999
20
-37.085990000000002
10
-313.27100999999999
20
-37.085990000000002
10
-313.27100999999999
20
-23.085990000000002
10
-327.27100999999999
20
-23.085990000000002
0
LWPOLYLINE
5
172
100
AcDbEntity
8
0
100
AcDbPolyline
90
16
70
1
43
0.0
10
-199.23476000000005
20
-22.115989999999996
10
-202.53476000000003
20
-22.115989999999996
10
-202.53476000000003
20
-23.315999999999999
10
-204.20976000000002
20
-23.315999999999999
10
-204.20976000000002
20
-29.585990000000002
10
-205.08476000000002
20
-29.585990000000002
10
-205.08476000000002
20
-32.385999999999996
10
-204.20976000000002
20
-32.385999999999996
10
-204.20976000000002
20
-35.615978999999996
10
-197.55927568881449
20
-35.615978999999996
10
-197.55927568881449
20
-32.385999999999996
10
-196.68476000000004
20
-32.385999999999996
10
-196.68476000000004
20
-29.585990000000002
10
-197.55976000000004
20
-29.585990000000002
10
-197.55976000000004
20
-23.315999999999999
10
-199.23476000000005
20
-23.315999999999999
0
CIRCLE
5
173
100
AcDbEntity
8
0
100
AcDbCircle
10
-15.341015999999996
20
-75.18599500000002
30
0
40
1.0000000000000009
210
0
220
0
230
1
0
CIRCLE
5
174
100
AcDbEntity
8
0
100
AcDbCircle
10
-270.47101000000004
20
-134.38600000000002
30
0
40
1.0000000000000142
210
0
220
0
230
1
0
CIRCLE
5
175
100
AcDbEntity
8
0
100
AcDbCircle
10
-193.906013
20
-15.985990000000005
30
0
40
1.0000000000000142
210
0
220
0
230
1
0
LWPOLYLINE
5
176
100
AcDbEntity
8
0
100
AcDbPolyline
90
4
70
1
43
0.0
10
-365.37101000000001
20
-80.235993000000008
10
-365.37101000000001
20
-94.235993999999991
10
-351.37101000000001
20
-94.235993999999991
10
-351.37101000000001
20
-80.235993000000008
0
LWPOLYLINE
5
177
100
AcDbEntity
8
0
100
AcDbPolyline
90
4
70
1
43
0.0
10
-143.88476
20
-37.085990000000002
10
-143.88476
20
-23.085990000000002
10
-157.88476
20
-23.085990000000002
10
-157.88476
20
-37.085990000000002
0
LWPOLYLINE
5
178
100
AcDbEntity
8
0
100
AcDbPolyline
90
4
70
1
43
0.0
10
-253.13476000000003
20
-37.085990000000002
10
-239.13476000000003
20
-37.085990000000002
10
-239.13476000000003
20
-23.085990000000002
10
-253.13476000000003
20
-23.085990000000002
0
CIRCLE
5
179
100
AcDbEntity
8
0
100
AcDbCircle
10
-372.47100999999998
20
-75.18599500000002
30
0
40
1.0000000000000142
210
0
220
0
230
1
0
LWPOLYLINE
5
180
100
AcDbEntity
8
0
100
AcDbPolyline
90
4
70
1
43
0.0
10
-188.84101000000001
20
-99.285993999999988
10
-188.84101000000001
20
-113.28600000000002
10
-174.84101000000004
20
-113.28600000000002
10
-174.84101000000004
20
-99.285993999999988
0
LWPOLYLINE
5
181
100
AcDbEntity
8
0
100
AcDbPolyline
90
4
70
1
43
0.0
10
-169.79101
20
-113.28600000000002
10
-155.79101000000003
20
-113.28600000000002
10
-155.79101000000003
20
-99.285993999999988
10
-169.79101
20
-99.285993999999988
0
LWPOLYLINE
5
182
100
AcDbEntity
8
0
100
AcDbPolyline
90
4
70
1
43
0.0
10
-265.04101000000003
20
-99.285993999999988
10
-265.04101000000003
20
-113.28600000000002
10
-251.04101
20
-113.28600000000002
10
-251.04101
20
-99.285993999999988
0
LWPOLYLINE
5
183
100
AcDbEntity
8
0
100
AcDbPolyline
90
4
70
1
43
0.0
10
-69.778514999999999
20
-61.185992000000013
10
-69.778514999999999
20
-75.185993000000025
10
-55.778515000000013
20
-75.185993000000025
10
-55.778515000000013
20
-61.185992000000013
0
LWPOLYLINE
5
184
100
AcDbEntity
8
0
100
AcDbPolyline
90
4
70
1
43
0.0
10
-215.32226000000003
20
-23.085990000000002
10
-229.32226
20
-23.085990000000002
10
-229.32226
20
-37.085990000000002
10
-215.32226000000003
20
-37.085990000000002
0
LWPOLYLINE
5
185
100
AcDbEntity
8
0
100
AcDbPolyline
90
74
70
1
43
0.0
10
-332.4847953141134
20
-139.38600000000002
10
-319.96900528711154
20
-126.87020997299814
10
-322.30245766502719
20
-124.53675759508255
10
-337.1517000699447
20
-139.38600000000005
10
-340.98479531411556
20
-139.38600000000002
10
-328.4690052871116
20
-126.87020997299814
10
-330.80245766502719
20
-124.53675759508255
10
-345.6517000699447
20
-139.38600000000005
10
-349.49951393987703
20
-139.38600000000002
10
-336.98372391287307
20
-126.87020997299818
10
-337.18849663434838
20
-126.66543725152295
10
-337.18113732146765
20
-126.65807793864221
10
-339.30245766502719
20
-124.53675759508255
10
-354.1517000699447
20
-139.38600000000005
10
-357.98479531411556
20
-139.38600000000002
10
-345.4690052871116
20
-126.87020997299814
10
-347.80245766502725
20
-124.53675759508255
10
-362.65170006994475
20
-139.38600000000005
10
-376.47100999999998
20
-139.38600000000005
10
-376.47101000000015
20
-50.385445297120725
10
-356.47101000000015
20
-50.385445297120725
10
-356.47101000000015
20
-47.085445297120728
10
-376.47101000000015
20
-47.085445297120728
10
-376.47100999999998
20
-11.985989999999997
10
-11.34101600000001
20
-11.985990000000015
10
-11.34101600000001
20
-139.38600000000005
10
-19.341015999999982
20
-139.38600000000005
10
-19.341015999999982
20
-136.97811637134737
10
-22.341015999999989
20
-136.97811637134737
10
-22.341015999999989
20
-139.38600000000005
10
-25.341015999999996
20
-139.38600000000005
10
-25.341015999999996
20
-136.97811637134737
10
-28.341016000000003
20
-136.97811637134737
10
-28.341016000000003
20
-139.38600000000005
10
-31.34101600000001
20
-139.38600000000005
10
-31.34101600000001
20
-136.97811637134737
10
-34.341015999999982
20
-136.97811637134737
10
-34.341015999999982
20
-139.38600000000005
10
-37.341015999999989
20
-139.38600000000005
10
-37.341015999999989
20
-136.97811637134737
10
-40.341015999999996
20
-136.97811637134737
10
-40.341015999999996
20
-139.38600000000005
10
-43.341016000000003
20
-139.38600000000005
10
-43.341016000000003
20
-136.97811637134737
10
-46.34101600000001
20
-136.97811637134737
10
-46.34101600000001
20
-139.38600000000005
10
-49.341015999999982
20
-139.38600000000005
10
-49.341015999999982
20
-136.97811637134737
10
-52.341015999999989
20
-136.97811637134737
10
-52.341015999999989
20
-139.38600000000005
10
-55.341015999999996
20
-139.38600000000005
10
-55.341015999999996
20
-136.97811637134737
10
-58.341016000000003
20
-136.97811637134737
10
-58.341016000000003
20
-139.38600000000005
10
-61.34101600000001
20
-139.38600000000005
10
-61.34101600000001
20
-136.97811637134737
10
-64.341015999999982
20
-136.97811637134737
10
-64.341015999999982
20
-139.38600000000005
10
-67.341015999999996
20
-139.38600000000005
10
-67.341015999999996
20
-136.97811637134737
10
-70.341015999999996
20
-136.97811637134737
10
-70.341015999999996
20
-139.38600000000005
10
-73.341015999999968
20
-139.38600000000005
10
-73.341015999999968
20
-136.97811637134737
10
-76.341015999999968
20
-136.97811637134737
10
-76.341015999999968
20
-139.38600000000005
10
-79.341015999999982
20
-139.38600000000005
10
-79.341015999999982
20
-136.97811637134737
10
-82.341015999999996
20
-136.97811637134737
10
-82.341015999999996
20
-139.38600000000005
10
-85.341015999999996
20
-139.38600000000005
10
-85.341015999999996
20
-136.97811637134737
10
-88.341015999999968
20
-136.97811637134737
10
-88.341015999999968
20
-139.38600000000005
0
ENDSEC
0
SECTION
2
OBJECTS
0
DICTIONARY
5
C
100
AcDbDictionary
3
ACAD_GROUP
350
D
3
ACAD_MLINESTYLE
350
17
0
DICTIONARY
5
D
100
AcDbDictionary
0
DICTIONARY
5
1A
330
C
100
AcDbDictionary
0
DICTIONARY
5
17
100
AcDbDictionary
0
ENDSEC
0
EOF
