0
SECTION
2
HEADER
9
$INSUNITS
70
4
9
$ACADVER
1
AC1014
9
$HANDSEED
5
FFFF
0
ENDSEC
0
SECTION
2
TABLES
0
TABLE
2
VPORT
5
8
100
AcDbSymbolTable
0
ENDTAB
0
TABLE
2
LTYPE
5
5
100
AcDbSymbolTable
0
LTYPE
5
14
100
AcDbSymbolTableRecord
100
AcDbLinetypeTableRecord
2
BYBLOCK
70
0
0
LTYPE
5
15
100
AcDbSymbolTableRecord
100
AcDbLinetypeTableRecord
2
BYLAYER
70
0
0
ENDTAB
0
TABLE
2
LAYER
5
2
100
AcDbSymbolTable
70
2
0
LAYER
5
50
100
AcDbSymbolTableRecord
100
AcDbLayerTableRecord
2
0
70
0
6
CONTINUOUS
0
ENDTAB
0
TABLE
2
STYLE
5
3
100
AcDbSymbolTable
70
1
0
STYLE
5
11
100
AcDbSymbolTableRecord
100
AcDbTextStyleTableRecord
2
STANDARD
70
0
0
ENDTAB
0
TABLE
2
VIEW
5
6
100
AcDbSymbolTable
70
0
0
ENDTAB
0
TABLE
2
UCS
5
7
100
AcDbSymbolTable
70
0
0
ENDTAB
0
TABLE
2
APPID
5
9
100
AcDbSymbolTable
70
2
0
APPID
5
12
100
AcDbSymbolTableRecord
100
AcDbRegAppTableRecord
2
ACAD
70
0
0
ENDTAB
0
TABLE
2
DIMSTYLE
5
A
100
AcDbSymbolTable
70
1
0
ENDTAB
0
TABLE
2
BLOCK_RECORD
5
1
100
AcDbSymbolTable
70
1
0
BLOCK_RECORD
5
1F
100
AcDbSymbolTableRecord
100
AcDbBlockTableRecord
2
*MODEL_SPACE
0
BLOCK_RECORD
5
1B
100
AcDbSymbolTableRecord
100
AcDbBlockTableRecord
2
*PAPER_SPACE
0
ENDTAB
0
ENDSEC
0
SECTION
2
BLOCKS
0
BLOCK
5
20
100
AcDbEntity
100
AcDbBlockBegin
2
*MODEL_SPACE
0
ENDBLK
5
21
100
AcDbEntity
100
AcDbBlockEnd
0
BLOCK
5
1C
100
AcDbEntity
100
AcDbBlockBegin
2
*PAPER_SPACE
0
ENDBLK
5
1D
100
AcDbEntity
100
AcDbBlockEnd
0
ENDSEC
0
SECTION
2
ENTITIES
0
LWPOLYLINE
5
100
100
AcDbEntity
8
0
100
AcDbPolyline
90
4
70
1
43
0.0
10
-104.71983383463029
20
-124.53600000000003
10
-104.71983383463029
20
-121.23600000000002
10
-272.95337670971077
20
-121.23600000000002
10
-272.95337670971077
20
-124.53600000000003
0
LWPOLYLINE
5
101
100
AcDbEntity
8
0
100
AcDbPolyline
90
4
70
1
43
0.0
10
-306.24101000000002
20
-116.386
10
-19.341015999999996
20
-116.386
10
-19.341015999999982
20
-19.985990000000005
10
-306.24101000000002
20
-19.985990000000005
0
LWPOLYLINE
5
102
100
AcDbEntity
8
0
100
AcDbPolyline
90
8
70
1
43
0.0
10
-349.42101000000002
20
-59.235991999999996
10
-329.22100999999998
20
-59.235991999999996
10
-329.22100999999998
20
-40.185990000000004
10
-310.17101000000002
20
-40.185990000000004
10
-310.17101000000002
20
-19.985990000000005
10
-368.47101000000004
20
-19.985990000000005
10
-368.47101000000004
20
-40.185990000000004
10
-349.42101000000002
20
-40.185990000000004
0
LWPOLYLINE
5
103
100
AcDbEntity
8
0
100
AcDbPolyline
90
4
70
1
43
0.0
10
-310.17101000000002
20
-116.386
10
-310.17101000000002
20
-77.135992999999999
10
-368.47101000000004
20
-77.135992999999999
10
-368.47101000000004
20
-116.386
0
CIRCLE
5
104
100
AcDbEntity
8
0
100
AcDbCircle
10
-92.971010000000007
20
-134.38600000000002
30
0
40
1.5000000000000036
210
0
220
-0
230
1
0
CIRCLE
5
105
100
AcDbEntity
8
0
100
AcDbCircle
10
-372.47100999999998
20
-15.985990000000001
30
0
40
1.4999999999999858
210
0
220
-0
230
1
0
CIRCLE
5
106
100
AcDbEntity
8
0
100
AcDbCircle
10
-372.47100999999998
20
-75.18599500000002
30
0
40
1.4999999999999858
210
0
220
-0
230
1
0
CIRCLE
5
107
100
AcDbEntity
8
0
100
AcDbCircle
10
-372.47100999999998
20
-134.38600000000002
30
0
40
1.4999999999999858
210
0
220
-0
230
1
0
CIRCLE
5
108
100
AcDbEntity
8
0
100
AcDbCircle
10
-312.47100999999998
20
-134.38600000000002
30
0
40
1.5000000000000213
210
0
220
-0
230
1
0
CIRCLE
5
109
100
AcDbEntity
8
0
100
AcDbCircle
10
-270.47101000000004
20
-134.38600000000002
30
0
40
1.5000000000000213
210
0
220
-0
230
1
0
CIRCLE
5
110
100
AcDbEntity
8
0
100
AcDbCircle
10
-15.341015999999996
20
-75.18599500000002
30
0
40
1.5000000000000013
210
0
220
-0
230
1
0
CIRCLE
5
111
100
AcDbEntity
8
0
100
AcDbCircle
10
-193.906013
20
-15.985990000000005
30
0
40
1.5000000000000213
210
0
220
-0
230
1
0
CIRCLE
5
112
100
AcDbEntity
8
0
100
AcDbCircle
10
-15.341015999999996
20
-134.38600000000002
30
0
40
1.4999999999999991
210
0
220
-0
230
1
0
CIRCLE
5
113
100
AcDbEntity
8
0
100
AcDbCircle
10
-15.341015999999996
20
-15.98599000000001
30
0
40
1.4999999999999991
210
0
220
-0
230
1
0
LWPOLYLINE
5
114
100
AcDbEntity
8
0
100
AcDbPolyline
90
74
70
1
43
0.0
10
-332.48479531411351
20
-139.38600000000002
10
-316.43347138117895
20
-123.33467606706549
10
-318.76692375909437
20
-121.00122368914984
10
-337.1517000699447
20
-139.38600000000002
10
-340.98479531411556
20
-139.38600000000002
10
-324.93347138117895
20
-123.33467606706547
10
-327.26692375909442
20
-121.00122368914984
10
-345.6517000699447
20
-139.38600000000002
10
-349.49951393987703
20
-139.38600000000002
10
-333.44819000694042
20
-123.33467606706549
10
-333.65296272841562
20
-123.12990334559029
10
-333.64560341553488
20
-123.12254403270948
10
-335.76692375909442
20
-121.00122368914984
10
-354.1517000699447
20
-139.38600000000002
10
-357.98479531411556
20
-139.38600000000002
10
-341.933471381179
20
-123.33467606706547
10
-344.26692375909448
20
-121.00122368914984
10
-362.65170006994475
20
-139.38600000000002
10
-376.47100999999998
20
-139.38600000000002
10
-376.47101000000015
20
-50.385445297120725
10
-356.47101000000015
20
-50.385445297120725
10
-356.47101000000015
20
-47.085445297120728
10
-376.47101000000015
20
-47.085445297120728
10
-376.47100999999998
20
-11.985989999999997
10
-11.34101600000001
20
-11.985990000000015
10
-11.341015999999994
20
-139.38600000000002
10
-19.341015999999996
20
-139.38600000000002
10
-19.341015999999996
20
-129.38600000000002
10
-22.341015999999996
20
-129.38600000000002
10
-22.341015999999996
20
-139.38600000000002
10
-25.341015999999996
20
-139.38600000000002
10
-25.341015999999996
20
-129.38600000000002
10
-28.341016
20
-129.38600000000002
10
-28.341016
20
-139.38600000000002
10
-31.341015999999996
20
-139.38600000000002
10
-31.341015999999996
20
-129.38600000000002
10
-34.341015999999996
20
-129.38600000000002
10
-34.341015999999996
20
-139.38600000000002
10
-37.341015999999996
20
-139.38600000000002
10
-37.341015999999996
20
-129.38600000000002
10
-40.341015999999996
20
-129.38600000000002
10
-40.341015999999996
20
-139.38600000000002
10
-43.341016000000003
20
-139.38600000000002
10
-43.341016000000003
20
-129.38600000000002
10
-46.341016000000003
20
-129.38600000000002
10
-46.341016000000003
20
-139.38600000000002
10
-49.341015999999996
20
-139.38600000000002
10
-49.341015999999996
20
-129.38600000000002
10
-52.341015999999996
20
-129.38600000000002
10
-52.341015999999996
20
-139.38600000000002
10
-55.341015999999996
20
-139.38600000000002
10
-55.341015999999996
20
-129.38600000000002
10
-58.341015999999982
20
-129.38600000000002
10
-58.341015999999982
20
-139.38600000000002
10
-61.341015999999996
20
-139.38600000000002
10
-61.341015999999996
20
-129.38600000000002
10
-64.341015999999982
20
-129.38600000000002
10
-64.341015999999982
20
-139.38600000000002
10
-67.341015999999996
20
-139.38600000000002
10
-67.341015999999996
20
-129.38600000000002
10
-70.341015999999982
20
-129.38600000000002
10
-70.341015999999982
20
-139.38600000000002
10
-73.341015999999982
20
-139.38600000000002
10
-73.341015999999982
20
-129.38600000000002
10
-76.341015999999968
20
-129.38600000000002
10
-76.341015999999968
20
-139.38600000000002
10
-79.341015999999982
20
-139.38600000000002
10
-79.341015999999982
20
-129.38600000000002
10
-82.341015999999996
20
-129.38600000000002
10
-82.341015999999996
20
-139.38600000000002
10
-85.341015999999982
20
-139.38600000000002
10
-85.341015999999982
20
-129.38600000000002
10
-88.341015999999982
20
-129.38600000000002
10
-88.341015999999996
20
-139.38600000000002
0
ENDSEC
0
SECTION
2
OBJECTS
0
DICTIONARY
5
C
100
AcDbDictionary
3
ACAD_GROUP
350
D
3
ACAD_MLINESTYLE
350
17
0
DICTIONARY
5
D
100
AcDbDictionary
0
DICTIONARY
5
1A
330
C
100
AcDbDictionary
0
DICTIONARY
5
17
100
AcDbDictionary
0
ENDSEC
0
EOF
