0
SECTION
2
HEADER
9
$INSUNITS
70
4
9
$ACADVER
1
AC1014
9
$HANDSEED
5
FFFF
0
ENDSEC
0
SECTION
2
TABLES
0
TABLE
2
VPORT
5
8
100
AcDbSymbolTable
0
ENDTAB
0
TABLE
2
LTYPE
5
5
100
AcDbSymbolTable
0
LTYPE
5
14
100
AcDbSymbolTableRecord
100
AcDbLinetypeTableRecord
2
BYBLOCK
70
0
0
LTYPE
5
15
100
AcDbSymbolTableRecord
100
AcDbLinetypeTableRecord
2
BYLAYER
70
0
0
ENDTAB
0
TABLE
2
LAYER
5
2
100
AcDbSymbolTable
70
2
0
LAYER
5
50
100
AcDbSymbolTableRecord
100
AcDbLayerTableRecord
2
0
70
0
6
CONTINUOUS
0
ENDTAB
0
TABLE
2
STYLE
5
3
100
AcDbSymbolTable
70
1
0
STYLE
5
11
100
AcDbSymbolTableRecord
100
AcDbTextStyleTableRecord
2
STANDARD
70
0
0
ENDTAB
0
TABLE
2
VIEW
5
6
100
AcDbSymbolTable
70
0
0
ENDTAB
0
TABLE
2
UCS
5
7
100
AcDbSymbolTable
70
0
0
ENDTAB
0
TABLE
2
APPID
5
9
100
AcDbSymbolTable
70
2
0
APPID
5
12
100
AcDbSymbolTableRecord
100
AcDbRegAppTableRecord
2
ACAD
70
0
0
ENDTAB
0
TABLE
2
DIMSTYLE
5
A
100
AcDbSymbolTable
70
1
0
ENDTAB
0
TABLE
2
BLOCK_RECORD
5
1
100
AcDbSymbolTable
70
1
0
BLOCK_RECORD
5
1F
100
AcDbSymbolTableRecord
100
AcDbBlockTableRecord
2
*MODEL_SPACE
0
BLOCK_RECORD
5
1B
100
AcDbSymbolTableRecord
100
AcDbBlockTableRecord
2
*PAPER_SPACE
0
ENDTAB
0
ENDSEC
0
SECTION
2
BLOCKS
0
BLOCK
5
20
100
AcDbEntity
100
AcDbBlockBegin
2
*MODEL_SPACE
0
ENDBLK
5
21
100
AcDbEntity
100
AcDbBlockEnd
0
BLOCK
5
1C
100
AcDbEntity
100
AcDbBlockBegin
2
*PAPER_SPACE
0
ENDBLK
5
1D
100
AcDbEntity
100
AcDbBlockEnd
0
ENDSEC
0
SECTION
2
ENTITIES
0
LWPOLYLINE
5
100
100
AcDbEntity
8
0
100
AcDbPolyline
90
74
70
1
43
0.0
10
-332.4847953141134
20
-139.38600000000002
10
-319.9690052871116
20
-126.87020997299817
10
-322.30245766502719
20
-124.53675759508255
10
-337.1517000699447
20
-139.38600000000002
10
-340.98479531411556
20
-139.38600000000002
10
-328.46900528711166
20
-126.87020997299814
10
-330.80245766502719
20
-124.53675759508255
10
-345.6517000699447
20
-139.38600000000002
10
-349.49951393987703
20
-139.38600000000002
10
-336.98372391287313
20
-126.87020997299817
10
-337.18849663434838
20
-126.66543725152295
10
-337.18113732146765
20
-126.65807793864219
10
-339.30245766502719
20
-124.53675759508255
10
-354.1517000699447
20
-139.38600000000002
10
-357.98479531411556
20
-139.38600000000002
10
-345.46900528711171
20
-126.87020997299814
10
-347.80245766502725
20
-124.53675759508255
10
-362.65170006994475
20
-139.38600000000002
10
-376.47100999999998
20
-139.38600000000005
10
-376.47101000000015
20
-50.385445297120725
10
-356.47101000000015
20
-50.385445297120725
10
-356.47101000000015
20
-47.085445297120728
10
-376.47101000000015
20
-47.085445297120728
10
-376.47100999999998
20
-11.985989999999997
10
-11.34101600000001
20
-11.985990000000015
10
-11.34101600000001
20
-139.38600000000002
10
-19.341015999999982
20
-139.38600000000002
10
-19.341015999999982
20
-136.97811637134737
10
-22.341015999999989
20
-136.97811637134737
10
-22.341015999999989
20
-139.38600000000002
10
-25.341015999999996
20
-139.38600000000002
10
-25.341015999999996
20
-136.97811637134737
10
-28.341016000000003
20
-136.97811637134737
10
-28.341016000000003
20
-139.38600000000002
10
-31.34101600000001
20
-139.38600000000002
10
-31.34101600000001
20
-136.97811637134737
10
-34.341015999999982
20
-136.97811637134737
10
-34.341015999999982
20
-139.38600000000002
10
-37.341015999999989
20
-139.38600000000002
10
-37.341015999999989
20
-136.97811637134737
10
-40.341015999999996
20
-136.97811637134737
10
-40.341015999999996
20
-139.38600000000002
10
-43.341016000000003
20
-139.38600000000002
10
-43.341016000000003
20
-136.97811637134737
10
-46.34101600000001
20
-136.97811637134737
10
-46.34101600000001
20
-139.38600000000002
10
-49.341015999999982
20
-139.38600000000002
10
-49.341015999999982
20
-136.97811637134737
10
-52.341015999999989
20
-136.97811637134737
10
-52.341015999999989
20
-139.38600000000002
10
-55.341015999999996
20
-139.38600000000002
10
-55.341015999999996
20
-136.97811637134737
10
-58.341016000000003
20
-136.97811637134737
10
-58.341016000000003
20
-139.38600000000002
10
-61.34101600000001
20
-139.38600000000002
10
-61.34101600000001
20
-136.97811637134737
10
-64.341015999999982
20
-136.97811637134737
10
-64.341015999999982
20
-139.38600000000002
10
-67.341015999999996
20
-139.38600000000002
10
-67.341015999999996
20
-136.97811637134737
10
-70.341015999999996
20
-136.97811637134737
10
-70.341015999999996
20
-139.38600000000002
10
-73.341015999999968
20
-139.38600000000002
10
-73.341015999999968
20
-136.97811637134737
10
-76.341015999999968
20
-136.97811637134737
10
-76.341015999999968
20
-139.38600000000002
10
-79.341015999999982
20
-139.38600000000002
10
-79.341015999999982
20
-136.97811637134737
10
-82.341015999999996
20
-136.97811637134737
10
-82.341015999999996
20
-139.38600000000002
10
-85.341015999999996
20
-139.38600000000002
10
-85.341015999999996
20
-136.97811637134737
10
-88.341015999999968
20
-136.97811637134737
10
-88.341015999999968
20
-139.38600000000002
0
LWPOLYLINE
5
101
100
AcDbEntity
8
0
100
AcDbPolyline
90
29
70
1
43
0.0
10
-105.45977533710946
20
-38.33599000000001
10
-96.309765999999996
20
-38.33599000000001
10
-96.309765999999996
20
-33.635999999999996
10
-95.43476400000003
20
-33.635999999999996
10
-95.43476400000003
20
-28.335990000000013
10
-96.309765999999996
20
-28.335990000000013
10
-96.309765999999996
20
-19.636285044990274
10
-205.45976000000002
20
-19.636285044990274
10
-205.45976000000002
20
-28.335990000000013
10
-206.33476000000002
20
-28.335990000000013
10
-206.33476000000002
20
-33.635999999999996
10
-205.45976000000002
20
-33.635999999999996
10
-205.45976000000002
20
-38.33599000000001
10
-196.30927568881449
20
-38.33599000000001
10
-196.30927568881449
20
-33.635999999999996
10
-195.43476000000004
20
-33.635999999999996
10
-195.43476000000004
20
-28.335990000000013
10
-196.30976000000004
20
-28.335990000000013
10
-196.30976000000004
20
-23.2138190333953
10
-159.13476
20
-23.2138190333953
10
-159.13476
20
-38.33599000000001
10
-142.63476
20
-38.33599000000001
10
-142.63476
20
-23.2138190333953
10
-105.45971114337767
20
-23.2138190333953
10
-105.45974740967225
20
-28.335978816687355
10
-106.33475520444058
20
-28.335976677777683
10
-106.33476816005945
20
-33.6359982888373
10
-105.45976154610486
20
-33.635992299967597
10
-105.45977533710946
20
-36.86597900000001
0
LWPOLYLINE
5
102
100
AcDbEntity
8
0
100
AcDbPolyline
90
20
70
1
43
0.0
10
-295.94726000000003
20
-57.385992000000016
10
-262.99725999999998
20
-57.385992000000016
10
-262.99725999999998
20
-52.686003000000014
10
-262.12225999999998
20
-52.686003000000014
10
-262.12225999999998
20
-47.385992000000016
10
-262.99725999999998
20
-47.385992000000016
10
-262.99725999999998
20
-38.33599000000001
10
-261.69726000000003
20
-38.33599000000001
10
-261.69726000000003
20
-21.835989999999992
10
-278.19726000000003
20
-21.835989999999992
10
-278.19726000000003
20
-38.33599000000001
10
-285.50976000000003
20
-38.33599000000001
10
-285.50976000000003
20
-21.835989999999992
10
-302.00976000000003
20
-21.835989999999992
10
-302.00976000000003
20
-38.33599000000001
10
-295.94726000000003
20
-38.33599000000001
10
-295.94726000000003
20
-47.385992000000016
10
-296.82226000000003
20
-47.385992000000016
10
-296.82226000000003
20
-52.686003000000014
10
-295.94726000000003
20
-52.686003000000014
0
LWPOLYLINE
5
103
100
AcDbEntity
8
0
100
AcDbPolyline
90
28
70
1
43
0.0
10
-285.50976000000003
20
-94.185993999999994
10
-285.50976000000003
20
-61.23599200000001
10
-290.20976000000007
20
-61.23599200000001
10
-290.20976000000007
20
-60.360990000000001
10
-295.50976000000003
20
-60.360990000000001
10
-295.50976000000003
20
-61.23599200000001
10
-304.25941737425558
20
-61.23599200000001
10
-304.25941737425558
20
-94.185993999999994
10
-295.50976000000003
20
-94.185993999999994
10
-295.50976000000003
20
-95.485993999999991
10
-303.09100999999998
20
-95.485993999999991
10
-303.09100999999998
20
-104.53599500000001
10
-303.96600999999998
20
-104.53599500000001
10
-303.96600999999998
20
-109.83599599999999
10
-303.09100999999998
20
-109.83599599999999
10
-303.09100999999998
20
-114.53600000000002
10
-270.14100999999999
20
-114.53600000000002
10
-270.14100999999999
20
-109.83599599999999
10
-269.26600999999999
20
-109.83599599999999
10
-269.26600999999999
20
-104.53599500000001
10
-270.14100999999999
20
-104.53599500000001
10
-270.14100999999999
20
-95.485993999999991
10
-259.31601000000001
20
-95.485993999999991
10
-259.31601000000001
20
-78.985993000000008
10
-275.81601000000001
20
-78.985993000000008
10
-275.81601000000001
20
-95.485993999999991
10
-290.20976000000007
20
-95.485993999999991
10
-290.20976000000007
20
-94.185993999999994
0
CIRCLE
5
104
100
AcDbEntity
8
0
100
AcDbCircle
10
-92.971009999999978
20
-134.38600000000002
30
0
40
1.0000000000000142
210
0
220
-0
230
1
0
LWPOLYLINE
5
105
100
AcDbEntity
8
0
100
AcDbPolyline
90
4
70
1
43
0.0
10
-218.66601000000003
20
-95.485993999999991
10
-202.16601
20
-95.485993999999991
10
-202.16601
20
-78.985993000000008
10
-218.66601000000003
20
-78.985993000000008
0
LWPOLYLINE
5
106
100
AcDbEntity
8
0
100
AcDbPolyline
90
4
70
1
43
0.0
10
-228.19101000000003
20
-114.53600000000002
10
-211.69101000000001
20
-114.53600000000002
10
-211.69101000000001
20
-98.035993999999988
10
-228.19101000000003
20
-98.035993999999988
0
LWPOLYLINE
5
107
100
AcDbEntity
8
0
100
AcDbPolyline
90
4
70
1
43
0.0
10
-366.62101000000001
20
-21.835989999999992
10
-366.62101000000001
20
-38.33599000000001
10
-350.12101000000001
20
-38.33599000000001
10
-350.12101000000001
20
-21.835989999999992
0
LWPOLYLINE
5
108
100
AcDbEntity
8
0
100
AcDbPolyline
90
4
70
1
43
0.0
10
-73.578514999999982
20
-76.435993000000025
10
-73.578514999999982
20
-59.935992000000013
10
-90.07851500000001
20
-59.935992000000013
10
-90.07851500000001
20
-76.435993000000025
0
LWPOLYLINE
5
109
100
AcDbEntity
8
0
100
AcDbPolyline
90
4
70
1
43
0.0
10
-75.791015000000002
20
-114.53600000000002
10
-59.291015000000016
20
-114.53600000000002
10
-59.291015000000016
20
-98.035993999999988
10
-75.791015000000002
20
-98.035993999999988
0
LWPOLYLINE
5
110
100
AcDbEntity
8
0
100
AcDbPolyline
90
4
70
1
43
0.0
10
-125.96602000000001
20
-78.985993000000008
10
-142.46601000000001
20
-78.985993000000008
10
-142.46601000000001
20
-95.485993999999991
10
-125.96602000000001
20
-95.485993999999991
0
LWPOLYLINE
5
111
100
AcDbEntity
8
0
100
AcDbPolyline
90
4
70
1
43
0.0
10
-245.02851000000004
20
-76.435993000000025
10
-245.02851000000004
20
-59.935992000000013
10
-261.52850999999998
20
-59.935992000000013
10
-261.52850999999998
20
-76.435993000000025
0
LWPOLYLINE
5
112
100
AcDbEntity
8
0
100
AcDbPolyline
90
4
70
1
43
0.0
10
-173.59101000000004
20
-114.53600000000002
10
-173.59101000000004
20
-98.035993999999988
10
-190.09101000000001
20
-98.035993999999988
10
-190.09101000000001
20
-114.53600000000002
0
LWPOLYLINE
5
113
100
AcDbEntity
8
0
100
AcDbPolyline
90
4
70
1
43
0.0
10
-347.57101
20
-57.385992000000016
10
-331.07101
20
-57.385992000000016
10
-331.07101
20
-40.885990000000007
10
-347.57101
20
-40.885990000000007
0
LWPOLYLINE
5
114
100
AcDbEntity
8
0
100
AcDbPolyline
90
4
70
1
43
0.0
10
-366.62101000000001
20
-98.035993999999988
10
-366.62101000000001
20
-114.53600000000002
10
-350.12101000000001
20
-114.53600000000002
10
-350.12101000000001
20
-98.035993999999988
0
LWPOLYLINE
5
115
100
AcDbEntity
8
0
100
AcDbPolyline
90
4
70
1
43
0.0
10
-49.766016000000022
20
-95.485993999999991
10
-49.766016000000022
20
-78.985993000000008
10
-66.266014999999996
20
-78.985993000000008
10
-66.266014999999996
20
-95.485993999999991
0
LWPOLYLINE
5
116
100
AcDbEntity
8
0
100
AcDbPolyline
90
4
70
1
43
0.0
10
-175.80351000000005
20
-40.885990000000007
10
-175.80351000000005
20
-57.385992000000016
10
-159.30351000000002
20
-57.385992000000016
10
-159.30351000000002
20
-40.885990000000007
0
LWPOLYLINE
5
117
100
AcDbEntity
8
0
100
AcDbPolyline
90
4
70
1
43
0.0
10
-113.89102000000001
20
-98.035993999999988
10
-113.89102000000001
20
-114.53600000000002
10
-97.39101500000001
20
-114.53600000000002
10
-97.39101500000001
20
-98.035993999999988
0
LWPOLYLINE
5
118
100
AcDbEntity
8
0
100
AcDbPolyline
90
4
70
1
43
0.0
10
-180.56601000000001
20
-95.485993999999991
10
-164.06601000000001
20
-95.485993999999991
10
-164.06601000000001
20
-78.985993000000008
10
-180.56601000000001
20
-78.985993000000008
0
LWPOLYLINE
5
119
100
AcDbEntity
8
0
100
AcDbPolyline
90
4
70
1
43
0.0
10
-328.52100999999999
20
-78.985993000000008
10
-328.52100999999999
20
-95.485993999999991
10
-312.02100999999999
20
-95.485993999999991
10
-312.02100999999999
20
-78.985993000000008
0
LWPOLYLINE
5
120
100
AcDbEntity
8
0
100
AcDbPolyline
90
4
70
1
43
0.0
10
-312.02100999999999
20
-114.53600000000002
10
-312.02100999999999
20
-98.035993999999988
10
-328.52100999999999
20
-98.035993999999988
10
-328.52100999999999
20
-114.53600000000002
0
LWPOLYLINE
5
121
100
AcDbEntity
8
0
100
AcDbPolyline
90
4
70
1
43
0.0
10
-235.50351000000003
20
-57.385992000000016
10
-235.50351000000003
20
-40.885990000000007
10
-252.00351000000001
20
-40.885990000000007
10
-252.00351000000001
20
-57.385992000000016
0
LWPOLYLINE
5
122
100
AcDbEntity
8
0
100
AcDbPolyline
90
4
70
1
43
0.0
10
-166.27851000000004
20
-59.935992000000013
10
-166.27851000000004
20
-76.435993000000025
10
-149.77851000000001
20
-76.435993000000025
10
-149.77851000000001
20
-59.935992000000013
0
LWPOLYLINE
5
123
100
AcDbEntity
8
0
100
AcDbPolyline
90
4
70
1
43
0.0
10
-87.866016000000002
20
-78.985993000000008
10
-104.36602000000001
20
-78.985993000000008
10
-104.36602000000001
20
-95.485993999999991
10
-87.866016000000002
20
-95.485993999999991
0
LWPOLYLINE
5
124
100
AcDbEntity
8
0
100
AcDbPolyline
90
4
70
1
43
0.0
10
-44.834762999999995
20
-76.435990000000004
10
-28.334763000000009
20
-76.435990000000004
10
-28.334763000000009
20
-59.935990000000004
10
-44.834762999999995
20
-59.935990000000004
0
LWPOLYLINE
5
125
100
AcDbEntity
8
0
100
AcDbPolyline
90
4
70
1
43
0.0
10
-111.67851999999999
20
-59.935992000000013
10
-128.17852000000002
20
-59.935992000000013
10
-128.17852000000002
20
-76.435993000000025
10
-111.67851999999999
20
-76.435993000000025
0
LWPOLYLINE
5
126
100
AcDbEntity
8
0
100
AcDbPolyline
90
4
70
1
43
0.0
10
-42.453515999999993
20
-78.985993000000008
10
-42.453515999999993
20
-95.485993999999991
10
-25.953516000000008
20
-95.485993999999991
10
-25.953516000000008
20
-78.985993000000008
0
LWPOLYLINE
5
127
100
AcDbEntity
8
0
100
AcDbPolyline
90
4
70
1
43
0.0
10
-40.072265000000016
20
-38.33599000000001
10
-23.572264999999994
20
-38.33599000000001
10
-23.572264999999994
20
-21.835989999999992
10
-40.072265000000016
20
-21.835989999999992
0
LWPOLYLINE
5
128
100
AcDbEntity
8
0
100
AcDbPolyline
90
4
70
1
43
0.0
10
-116.44102000000001
20
-114.53600000000002
10
-116.44102000000001
20
-98.035993999999988
10
-132.94101000000001
20
-98.035993999999988
10
-132.94101000000001
20
-114.53600000000002
0
LWPOLYLINE
5
129
100
AcDbEntity
8
0
100
AcDbPolyline
90
4
70
1
43
0.0
10
-23.572264999999994
20
-57.385992000000016
10
-23.572264999999994
20
-40.885990000000007
10
-40.072265000000016
20
-40.885990000000007
10
-40.072265000000016
20
-57.385992000000016
0
LWPOLYLINE
5
130
100
AcDbEntity
8
0
100
AcDbPolyline
90
4
70
1
43
0.0
10
-47.384765000000009
20
-38.33599000000001
10
-47.384765000000009
20
-21.835989999999992
10
-63.884764999999994
20
-21.835989999999992
10
-63.884764999999994
20
-38.33599000000001
0
LWPOLYLINE
5
131
100
AcDbEntity
8
0
100
AcDbPolyline
90
4
70
1
43
0.0
10
-83.10351500000003
20
-40.885990000000007
10
-99.603516000000027
20
-40.885990000000007
10
-99.603516000000027
20
-57.385992000000016
10
-83.10351500000003
20
-57.385992000000016
0
LWPOLYLINE
5
132
100
AcDbEntity
8
0
100
AcDbPolyline
90
5
70
1
43
0.0
10
-92.628516000000019
20
-59.935992000000013
10
-109.12852000000001
20
-59.935992000000013
10
-109.12852000000001
20
-76.435993000000025
10
-92.628514903846195
20
-76.435993000000025
10
-92.628516000000019
20
-62.185990000000011
0
LWPOLYLINE
5
133
100
AcDbEntity
8
0
100
AcDbPolyline
90
4
70
1
43
0.0
10
-213.90351000000004
20
-40.885990000000007
10
-213.90351000000004
20
-57.385992000000016
10
-197.40351000000004
20
-57.385992000000016
10
-197.40351000000004
20
-40.885990000000007
0
LWPOLYLINE
5
134
100
AcDbEntity
8
0
100
AcDbPolyline
90
4
70
1
43
0.0
10
-247.24101000000005
20
-98.035993999999988
10
-247.24101000000005
20
-114.53600000000002
10
-230.74101000000002
20
-114.53600000000002
10
-230.74101000000002
20
-98.035993999999988
0
LWPOLYLINE
5
135
100
AcDbEntity
8
0
100
AcDbPolyline
90
4
70
1
43
0.0
10
-249.79101
20
-98.035993999999988
10
-266.29101000000003
20
-98.035993999999988
10
-266.29101000000003
20
-114.53600000000002
10
-249.79101
20
-114.53600000000002
0
LWPOLYLINE
5
136
100
AcDbEntity
8
0
100
AcDbPolyline
90
4
70
1
43
0.0
10
-232.95351000000005
20
-40.885990000000007
10
-232.95351000000005
20
-57.385992000000016
10
-216.45351000000005
20
-57.385992000000016
10
-216.45351000000005
20
-40.885990000000007
0
LWPOLYLINE
5
137
100
AcDbEntity
8
0
100
AcDbPolyline
90
4
70
1
43
0.0
10
-178.35351
20
-57.385992000000016
10
-178.35351
20
-40.885990000000007
10
-194.85351000000003
20
-40.885990000000007
10
-194.85351000000003
20
-57.385992000000016
0
LWPOLYLINE
5
138
100
AcDbEntity
8
0
100
AcDbPolyline
90
4
70
1
43
0.0
10
-206.92851000000005
20
-59.935992000000013
10
-223.42851000000002
20
-59.935992000000013
10
-223.42851000000002
20
-76.435993000000025
10
-206.92851000000005
20
-76.435993000000025
0
LWPOLYLINE
5
139
100
AcDbEntity
8
0
100
AcDbPolyline
90
4
70
1
43
0.0
10
-221.21601000000001
20
-95.485993999999991
10
-221.21601000000001
20
-78.985993000000008
10
-237.71601000000004
20
-78.985993000000008
10
-237.71601000000004
20
-95.485993999999991
0
LWPOLYLINE
5
140
100
AcDbEntity
8
0
100
AcDbPolyline
90
4
70
1
43
0.0
10
-242.47851
20
-76.435993000000025
10
-225.97851000000003
20
-76.435993000000025
10
-225.97851000000003
20
-59.935992000000013
10
-242.47851
20
-59.935992000000013
0
LWPOLYLINE
5
141
100
AcDbEntity
8
0
100
AcDbPolyline
90
4
70
1
43
0.0
10
-187.87851000000001
20
-59.935992000000013
10
-204.37851000000001
20
-59.935992000000013
10
-204.37851000000001
20
-76.435993000000025
10
-187.87851000000001
20
-76.435993000000025
0
LWPOLYLINE
5
142
100
AcDbEntity
8
0
100
AcDbPolyline
90
4
70
1
43
0.0
10
-45.003515000000007
20
-40.885990000000007
10
-61.503514999999993
20
-40.885990000000007
10
-61.503514999999993
20
-57.385992000000016
10
-45.003515000000007
20
-57.385992000000016
0
LWPOLYLINE
5
143
100
AcDbEntity
8
0
100
AcDbPolyline
90
4
70
1
43
0.0
10
-123.41602000000002
20
-78.985993000000008
10
-123.41602000000002
20
-95.485993999999991
10
-106.91602
20
-95.485993999999991
10
-106.91602
20
-78.985993000000008
0
LWPOLYLINE
5
144
100
AcDbEntity
8
0
100
AcDbPolyline
90
4
70
1
43
0.0
10
-118.65352000000001
20
-57.385992000000016
10
-102.15352000000003
20
-57.385992000000016
10
-102.15352000000003
20
-40.885990000000007
10
-118.65352000000001
20
-40.885990000000007
0
LWPOLYLINE
5
145
100
AcDbEntity
8
0
100
AcDbPolyline
90
4
70
1
43
0.0
10
-137.70351000000005
20
-40.885990000000007
10
-137.70351000000005
20
-57.385992000000016
10
-121.20352
20
-57.385992000000016
10
-121.20352
20
-40.885990000000007
0
LWPOLYLINE
5
146
100
AcDbEntity
8
0
100
AcDbPolyline
90
4
70
1
43
0.0
10
-71.197264999999987
20
-21.835989999999992
10
-87.697265000000016
20
-21.835989999999992
10
-87.697265000000016
20
-38.33599000000001
10
-71.197264999999987
20
-38.33599000000001
0
LWPOLYLINE
5
147
100
AcDbEntity
8
0
100
AcDbPolyline
90
4
70
1
43
0.0
10
-151.99101000000002
20
-98.035993999999988
10
-151.99101000000002
20
-114.53600000000002
10
-135.49101000000002
20
-114.53600000000002
10
-135.49101000000002
20
-98.035993999999988
0
LWPOLYLINE
5
148
100
AcDbEntity
8
0
100
AcDbPolyline
90
5
70
1
43
0.0
10
-21.19101491071433
20
-114.53600000000002
10
-21.191016089285668
20
-98.035993999999988
10
-37.691015000000014
20
-98.035993999999988
10
-37.691015000000014
20
-100.2859949038462
10
-37.691016096153795
20
-114.53600000000002
0
LWPOLYLINE
5
149
100
AcDbEntity
8
0
100
AcDbPolyline
90
4
70
1
43
0.0
10
-80.553516000000016
20
-57.385992000000016
10
-64.053516000000002
20
-57.385992000000016
10
-64.053516000000002
20
-40.885990000000007
10
-80.553516000000016
20
-40.885990000000007
0
LWPOLYLINE
5
150
100
AcDbEntity
8
0
100
AcDbPolyline
90
4
70
1
43
0.0
10
-156.75351000000001
20
-40.885990000000007
10
-156.75351000000001
20
-57.385992000000016
10
-140.25351000000001
20
-57.385992000000016
10
-140.25351000000001
20
-40.885990000000007
0
LWPOLYLINE
5
151
100
AcDbEntity
8
0
100
AcDbPolyline
90
4
70
1
43
0.0
10
-147.22850999999997
20
-76.435993000000025
10
-130.72851
20
-76.435993000000025
10
-130.72851
20
-59.935992000000013
10
-147.22850999999997
20
-59.935992000000013
0
LWPOLYLINE
5
152
100
AcDbEntity
8
0
100
AcDbPolyline
90
4
70
1
43
0.0
10
-230.57226
20
-21.835989999999992
10
-230.57226
20
-38.33599000000001
10
-214.07226000000003
20
-38.33599000000001
10
-214.07226000000003
20
-21.835989999999992
0
LWPOLYLINE
5
153
100
AcDbEntity
8
0
100
AcDbPolyline
90
4
70
1
43
0.0
10
-154.54101000000003
20
-114.53600000000002
10
-154.54101000000003
20
-98.035993999999988
10
-171.04101
20
-98.035993999999988
10
-171.04101
20
-114.53600000000002
0
LWPOLYLINE
5
154
100
AcDbEntity
8
0
100
AcDbPolyline
90
4
70
1
43
0.0
10
-145.01600999999999
20
-95.485993999999991
10
-145.01600999999999
20
-78.985993000000008
10
-161.51601000000002
20
-78.985993000000008
10
-161.51601000000002
20
-95.485993999999991
0
LWPOLYLINE
5
155
100
AcDbEntity
8
0
100
AcDbPolyline
90
4
70
1
43
0.0
10
-237.88476000000003
20
-38.33599000000001
10
-237.88476000000003
20
-21.835989999999992
10
-254.38476000000003
20
-21.835989999999992
10
-254.38476000000003
20
-38.33599000000001
0
LWPOLYLINE
5
156
100
AcDbEntity
8
0
100
AcDbPolyline
90
4
70
1
43
0.0
10
-264.07850999999999
20
-59.935992000000013
10
-280.57850999999999
20
-59.935992000000013
10
-280.57850999999999
20
-76.435993000000025
10
-264.07850999999999
20
-76.435993000000025
0
LWPOLYLINE
5
157
100
AcDbEntity
8
0
100
AcDbPolyline
90
4
70
1
43
0.0
10
-347.57101
20
-98.035993999999988
10
-347.57101
20
-114.53600000000002
10
-331.07101
20
-114.53600000000002
10
-331.07101
20
-98.035993999999988
0
LWPOLYLINE
5
158
100
AcDbEntity
8
0
100
AcDbPolyline
90
4
70
1
43
0.0
10
-347.57101
20
-38.33599000000001
10
-331.07101
20
-38.33599000000001
10
-331.07101
20
-21.835989999999992
10
-347.57101
20
-21.835989999999992
0
LWPOLYLINE
5
159
100
AcDbEntity
8
0
100
AcDbPolyline
90
4
70
1
43
0.0
10
-168.82851000000002
20
-76.435993000000025
10
-168.82851000000002
20
-59.935992000000013
10
-185.32851000000005
20
-59.935992000000013
10
-185.32851000000005
20
-76.435993000000025
0
LWPOLYLINE
5
160
100
AcDbEntity
8
0
100
AcDbPolyline
90
4
70
1
43
0.0
10
-331.07101
20
-78.985993000000008
10
-347.57101
20
-78.985993000000008
10
-347.57101
20
-95.485993999999991
10
-331.07101
20
-95.485993999999991
0
LWPOLYLINE
5
161
100
AcDbEntity
8
0
100
AcDbPolyline
90
4
70
1
43
0.0
10
-328.52100999999999
20
-21.835989999999992
10
-328.52100999999999
20
-38.33599000000001
10
-312.02100999999999
20
-38.33599000000001
10
-312.02100999999999
20
-21.835989999999992
0
LWPOLYLINE
5
162
100
AcDbEntity
8
0
100
AcDbPolyline
90
4
70
1
43
0.0
10
-94.841016000000025
20
-98.035993999999988
10
-94.841016000000025
20
-114.53600000000002
10
-78.341014999999999
20
-114.53600000000002
10
-78.341014999999999
20
-98.035993999999988
0
LWPOLYLINE
5
163
100
AcDbEntity
8
0
100
AcDbPolyline
90
4
70
1
43
0.0
10
-199.61601000000002
20
-95.485993999999991
10
-183.11601000000002
20
-95.485993999999991
10
-183.11601000000002
20
-78.985993000000008
10
-199.61601000000002
20
-78.985993000000008
0
LWPOLYLINE
5
164
100
AcDbEntity
8
0
100
AcDbPolyline
90
4
70
1
43
0.0
10
-56.741016000000002
20
-114.53600000000002
10
-40.241016000000016
20
-114.53600000000002
10
-40.241016000000016
20
-98.035993999999988
10
-56.741016000000002
20
-98.035993999999988
0
LWPOLYLINE
5
165
100
AcDbEntity
8
0
100
AcDbPolyline
90
4
70
1
43
0.0
10
-68.816015999999991
20
-95.485993999999991
10
-68.816015999999991
20
-78.985993000000008
10
-85.316016000000019
20
-78.985993000000008
10
-85.316016000000019
20
-95.485993999999991
0
LWPOLYLINE
5
166
100
AcDbEntity
8
0
100
AcDbPolyline
90
4
70
1
43
0.0
10
-71.028514999999999
20
-76.435993000000025
10
-54.528515000000013
20
-76.435993000000025
10
-54.528515000000013
20
-59.935992000000013
10
-71.028514999999999
20
-59.935992000000013
0
LWPOLYLINE
5
167
100
AcDbEntity
8
0
100
AcDbPolyline
90
4
70
1
43
0.0
10
-366.62101000000001
20
-78.985993000000008
10
-366.62101000000001
20
-95.485993999999991
10
-350.12101000000001
20
-95.485993999999991
10
-350.12101000000001
20
-78.985993000000008
0
LWPOLYLINE
5
168
100
AcDbEntity
8
0
100
AcDbPolyline
90
4
70
1
43
0.0
10
-240.26601000000002
20
-78.985993000000008
10
-256.76601000000005
20
-78.985993000000008
10
-256.76601000000005
20
-95.485993999999991
10
-240.26601000000002
20
-95.485993999999991
0
LWPOLYLINE
5
169
100
AcDbEntity
8
0
100
AcDbPolyline
90
4
70
1
43
0.0
10
-209.14101000000002
20
-114.53600000000002
10
-192.64101000000005
20
-114.53600000000002
10
-192.64101000000005
20
-98.035993999999988
10
-209.14101000000002
20
-98.035993999999988
0
CIRCLE
5
170
100
AcDbEntity
8
0
100
AcDbCircle
10
-15.341015999999996
20
-75.18599500000002
30
0
40
1.0000000000000009
210
0
220
-0
230
1
0
LWPOLYLINE
5
171
100
AcDbEntity
8
0
100
AcDbPolyline
90
4
70
1
43
0.0
10
-277.95337670971077
20
-121.23600000000002
10
-277.95337670971077
20
-124.53600000000003
10
-99.719833834630293
20
-124.53600000000003
10
-99.719833834630293
20
-121.23600000000002
0
CIRCLE
5
172
100
AcDbEntity
8
0
100
AcDbCircle
10
-270.47101000000004
20
-134.38600000000002
30
0
40
1.0000000000000142
210
0
220
-0
230
1
0
CIRCLE
5
173
100
AcDbEntity
8
0
100
AcDbCircle
10
-193.906013
20
-15.985990000000005
30
0
40
1.0000000000000142
210
0
220
-0
230
1
0
CIRCLE
5
174
100
AcDbEntity
8
0
100
AcDbCircle
10
-372.47100999999998
20
-15.985990000000001
30
0
40
1.0000000000000142
210
0
220
-0
230
1
0
CIRCLE
5
175
100
AcDbEntity
8
0
100
AcDbCircle
10
-372.47100999999998
20
-75.18599500000002
30
0
40
1.0000000000000142
210
0
220
-0
230
1
0
CIRCLE
5
176
100
AcDbEntity
8
0
100
AcDbCircle
10
-15.341015999999996
20
-134.38600000000002
30
0
40
0.99999999999999867
210
0
220
-0
230
1
0
CIRCLE
5
177
100
AcDbEntity
8
0
100
AcDbCircle
10
-312.47100999999998
20
-134.38600000000002
30
0
40
1.0000000000000142
210
0
220
-0
230
1
0
CIRCLE
5
178
100
AcDbEntity
8
0
100
AcDbCircle
10
-15.341015999999996
20
-15.98599000000001
30
0
40
0.99999999999999867
210
0
220
-0
230
1
0
CIRCLE
5
179
100
AcDbEntity
8
0
100
AcDbCircle
10
-372.47100999999998
20
-134.38600000000002
30
0
40
1.0000000000000142
210
0
220
-0
230
1
0
ENDSEC
0
SECTION
2
OBJECTS
0
DICTIONARY
5
C
100
AcDbDictionary
3
ACAD_GROUP
350
D
3
ACAD_MLINESTYLE
350
17
0
DICTIONARY
5
D
100
AcDbDictionary
0
DICTIONARY
5
1A
330
C
100
AcDbDictionary
0
DICTIONARY
5
17
100
AcDbDictionary
0
ENDSEC
0
EOF
