M48
;DRILL file {KiCad 4.0.5} date Sunday, March 05, 2017 'PMt' 02:31:49 PM
;FORMAT={-:-/ absolute / metric / decimal}
FMAT,2
METRIC,TZ
T1C0.300
T2C0.330
T3C1.000
T4C1.500
T5C2.500
T6C0.610
T7C0.899
T8C1.000
T9C1.702
T10C3.048
T11C3.988
T12C6.300
%
G90
G05
M71
T1
X77.216Y-87.439
X77.5Y-23.5
X78.486Y-70.548
X78.486Y-80.01
X78.74Y-41.275
X78.803Y-49.721
X78.803Y-60.642
X90.17Y-73.025
X97.79Y-94.615
X114.935Y-85.725
X124.46Y-57.15
X128.905Y-83.185
X129.5Y-23.5
X133.35Y-85.725
X147.32Y-106.68
X147.32Y-109.728
X153.035Y-85.725
X158.115Y-78.74
X163.195Y-57.785
X171.45Y-85.725
X172.72Y-57.785
X182.88Y-57.785
X188.976Y-105.664
X190.5Y-85.725
X191.77Y-57.785
X192.405Y-45.72
X193.04Y-109.728
X196.215Y-45.72
X196.215Y-57.785
X204.47Y-24.765
X209.245Y-43.586
X209.55Y-85.725
X213.97Y-34.95
X222.377Y-57.15
X224.028Y-105.664
X224.028Y-109.728
X228.6Y-85.725
X231.267Y-37.465
X235.585Y-107.315
X242.887Y-95.885
X245.Y-80.
X247.65Y-99.187
X247.904Y-70.866
X249.555Y-51.308
X251.46Y-95.377
X258.445Y-57.785
X266.7Y-87.122
X266.7Y-106.172
X266.7Y-109.728
X273.812Y-71.374
X283.Y-23.5
X283.5Y-80.
X285.75Y-87.122
X290.195Y-50.292
X306.705Y-57.15
X307.213Y-79.5
X307.213Y-87.249
X325.755Y-29.845
X330.Y-105.
X332.74Y-50.038
X338.Y-105.
X342.9Y-25.4
X347.5Y-41.25
X349.5Y-44.5
X350.Y-50.038
X350.823Y-57.195
X352.75Y-34.75
X352.75Y-41.25
X352.823Y-91.445
X355.073Y-74.695
X357.25Y-56.
X357.568Y-62.928
X358.75Y-48.25
X359.823Y-85.945
X361.188Y-77.089
X361.323Y-23.445
X365.76Y-63.5
X365.823Y-93.154
X366.5Y-109.5
X366.573Y-41.445
X371.073Y-40.945
X373.38Y-69.85
X373.507Y-64.643
X374.269Y-74.93
X375.92Y-78.994
X377.698Y-52.578
X377.825Y-26.035
X379.73Y-57.785
X380.073Y-109.945
X380.365Y-71.755
X381.Y-60.96
X381.Y-63.5
X383.032Y-49.53
X391.16Y-72.644
X396.24Y-66.675
X403.352Y-78.359
X407.924Y-66.675
X410.972Y-81.407
X415.036Y-25.019
X415.036Y-60.071
X415.036Y-91.059
X415.036Y-109.945
T2
X74.993Y-95.567
X76.391Y-38.163
X76.391Y-57.912
X76.772Y-96.373
X77.455Y-101.19
X77.47Y-37.465
X77.47Y-56.515
X77.47Y-76.835
X78.105Y-25.492
X78.168Y-99.568
X80.01Y-99.272
X80.374Y-75.239
X80.985Y-75.933
X83.74Y-38.036
X85.598Y-74.676
X85.854Y-37.453
X86.106Y-33.274
X88.392Y-55.308
X88.773Y-31.941
X91.999Y-38.913
X92.012Y-31.727
X92.9Y-57.912
X93.599Y-102.743
X93.632Y-93.86
X96.274Y-75.636
X97.385Y-76.898
X100.393Y-102.743
X103.505Y-94.615
X105.156Y-89.916
X106.384Y-38.735
X115.951Y-94.615
X117.094Y-95.567
X117.094Y-95.567
X117.284Y-99.758
X117.705Y-76.093
X126.096Y-39.37
X127.572Y-34.163
X127.889Y-95.504
X130.251Y-32.563
X133.096Y-39.929
X136.482Y-97.181
X136.755Y-76.55
X141.605Y-95.504
X146.05Y-40.005
X150.691Y-103.468
X151.753Y-100.478
X154.5Y-26.5
X154.94Y-101.969
X154.94Y-104.14
X155.796Y-77.007
X164.655Y-31.877
X170.8Y-30.722
X170.8Y-40.672
X174.855Y-77.465
X175.273Y-97.595
X176.213Y-99.645
X186.42Y-97.668
X186.436Y-102.108
X186.436Y-104.14
X192.301Y-93.725
X192.976Y-25.563
X192.976Y-104.584
X193.04Y-97.698
X193.04Y-102.108
X193.802Y-93.472
X193.905Y-77.922
X195.516Y-34.608
X195.516Y-95.123
X207.112Y-45.085
X212.725Y-41.529
X212.979Y-42.545
X212.979Y-43.561
X212.979Y-46.228
X215.138Y-39.878
X215.138Y-47.498
X215.71Y-82.448
X216.481Y-83.261
X216.535Y-40.64
X216.535Y-41.91
X216.535Y-43.053
X216.535Y-61.468
X219.329Y-101.727
X219.583Y-33.655
X219.819Y-38.378
X220.345Y-60.325
X220.472Y-102.616
X221.004Y-47.117
X223.012Y-38.672
X223.52Y-100.076
X223.52Y-103.124
X225.425Y-23.749
X226.314Y-34.036
X231.14Y-98.552
X231.14Y-100.625
X233.426Y-33.655
X233.934Y-34.544
X237.236Y-105.791
X238.255Y-78.717
X238.823Y-104.457
X240.157Y-98.044
X240.157Y-102.552
X241.236Y-93.472
X241.236Y-96.873
X244.602Y-93.853
X244.602Y-98.933
X245.618Y-105.855
X246.507Y-105.156
X249.936Y-25.527
X250.309Y-93.802
X250.825Y-96.901
X250.825Y-104.013
X252.806Y-38.532
X252.817Y-32.893
X258.318Y-98.425
X263.136Y-101.908
X263.906Y-95.377
X278.123Y-31.623
X279.273Y-25.527
X279.273Y-28.194
X280.035Y-26.416
X287.909Y-96.22
X288.925Y-81.153
X297.75Y-60.271
X298.45Y-68.58
X299.212Y-73.644
X299.212Y-83.82
X302.641Y-99.187
X302.652Y-94.349
X304.292Y-96.22
X307.2Y-95.778
X307.213Y-101.092
X311.658Y-78.676
X311.658Y-96.266
X319.309Y-31.585
X319.473Y-37.995
X321.945Y-29.845
X321.945Y-40.386
X322.707Y-30.734
X322.78Y-39.654
X335.565Y-97.821
X335.788Y-102.616
X336.474Y-100.813
X336.499Y-96.753
X336.804Y-35.306
X338.823Y-42.695
X338.836Y-65.278
X339.161Y-87.308
X339.852Y-61.595
X339.979Y-81.661
X347.026Y-69.211
X347.218Y-72.644
X347.472Y-90.551
X347.535Y-96.584
X347.936Y-64.26
X348.615Y-72.378
X348.615Y-100.33
X348.834Y-63.586
X351.073Y-26.75
X351.073Y-43.945
X351.79Y-83.82
X352.073Y-43.945
X352.415Y-25.874
X353.064Y-25.276
X353.073Y-43.945
X353.335Y-51.551
X353.388Y-65.328
X353.573Y-66.945
X353.979Y-64.551
X354.076Y-66.103
X354.246Y-67.695
X354.267Y-63.691
X354.33Y-80.772
X354.856Y-50.912
X355.573Y-52.445
X355.573Y-93.195
X356.806Y-58.293
X356.823Y-67.945
X357.573Y-34.945
X357.573Y-69.195
X357.573Y-91.945
X358.013Y-58.293
X358.378Y-61.31
X358.573Y-91.945
X358.773Y-37.895
X358.775Y-43.945
X359.573Y-91.945
X360.573Y-91.945
X362.306Y-79.756
X362.573Y-46.945
X362.839Y-61.214
X363.042Y-81.763
X363.573Y-46.945
X363.791Y-84.176
X363.855Y-61.214
X364.541Y-94.361
X364.573Y-46.945
X365.221Y-73.575
X366.014Y-58.42
X366.88Y-73.258
X367.046Y-58.403
X367.073Y-49.445
X367.314Y-96.633
X367.538Y-79.883
X367.726Y-68.537
X368.046Y-83.312
X368.046Y-84.582
X368.3Y-56.261
X368.3Y-58.42
X368.427Y-99.695
X368.601Y-67.733
X368.744Y-36.068
X368.875Y-92.71
X368.935Y-70.104
X369.316Y-56.642
X369.316Y-58.42
X369.316Y-71.12
X369.443Y-63.691
X369.57Y-72.136
X369.76Y-69.342
X369.824Y-54.597
X371.856Y-56.515
X371.856Y-60.325
X372.11Y-50.546
X374.75Y-88.25
X376.936Y-102.108
X377.761Y-72.517
X378.714Y-103.378
X378.841Y-94.488
X378.841Y-99.568
X378.9Y-27.7
X378.9Y-37.173
X379.285Y-62.039
X379.448Y-97.225
X379.756Y-96.398
X380.873Y-32.385
X382.5Y-39.348
X383.032Y-50.895
X383.407Y-76.184
X383.413Y-88.25
X383.6Y-29.3
X383.6Y-30.7
X383.6Y-38.681
X386.08Y-91.948
X387.223Y-44.704
X387.35Y-42.545
X387.477Y-70.231
X393.93Y-78.74
X398.65Y-56.688
X398.653Y-89.408
X398.78Y-91.313
X399.364Y-55.982
X400.05Y-80.391
X400.164Y-55.608
X402.209Y-58.42
X402.9Y-38.681
X404.749Y-58.039
X406.Y-37.173
X406.019Y-81.788
X406.578Y-56.54
X406.578Y-74.353
X406.629Y-94.488
X406.667Y-38.303
X407.9Y-78.2
X409.626Y-89.383
X410.019Y-59.436
X410.019Y-74.231
X410.439Y-91.288
X411.15Y-78.308
X411.162Y-59.436
X411.728Y-97.307
X412.98Y-73.279
T3
X79.692Y-23.495
X82.074Y-61.595
X82.074Y-80.645
X82.074Y-99.695
X82.233Y-23.495
X84.455Y-42.545
X84.455Y-99.695
X84.614Y-61.595
X84.614Y-80.645
X84.614Y-99.695
X86.836Y-61.595
X86.995Y-42.545
X86.995Y-99.695
X89.376Y-61.595
X91.599Y-80.645
X94.139Y-80.645
X98.742Y-23.495
X101.282Y-23.495
X103.505Y-80.645
X105.886Y-99.695
X106.045Y-80.645
X108.267Y-42.545
X108.426Y-99.695
X110.649Y-99.695
X110.807Y-42.545
X113.03Y-61.595
X113.189Y-99.695
X115.57Y-61.595
X117.792Y-23.495
X120.332Y-23.495
X122.555Y-80.645
X125.095Y-80.645
X127.317Y-42.545
X129.699Y-99.695
X129.857Y-42.545
X132.08Y-61.595
X132.239Y-99.695
X134.62Y-61.595
X136.843Y-23.495
X136.843Y-99.695
X139.382Y-23.495
X139.382Y-99.695
X141.605Y-80.645
X144.145Y-80.645
X146.368Y-42.545
X148.907Y-42.545
X151.13Y-61.595
X153.67Y-61.595
X155.892Y-23.495
X158.433Y-23.495
X160.655Y-80.645
X163.195Y-80.645
X165.417Y-42.545
X167.957Y-42.545
X170.18Y-61.595
X172.72Y-61.595
X174.942Y-23.495
X177.482Y-23.495
X179.705Y-80.645
X182.245Y-80.645
X184.468Y-42.545
X187.007Y-42.545
X189.23Y-61.595
X191.77Y-61.595
X193.992Y-23.495
X196.532Y-23.495
X198.755Y-80.645
X201.136Y-99.695
X201.295Y-80.645
X203.517Y-42.545
X203.676Y-99.695
X206.058Y-42.545
X208.28Y-61.595
X210.82Y-61.595
X213.042Y-23.495
X213.042Y-99.695
X215.582Y-23.495
X215.582Y-99.695
X217.805Y-80.645
X220.345Y-80.645
X222.567Y-42.545
X225.107Y-42.545
X227.33Y-61.595
X229.87Y-61.595
X232.093Y-23.495
X234.632Y-23.495
X236.855Y-80.645
X239.395Y-80.645
X241.617Y-42.545
X244.157Y-42.545
X246.38Y-61.595
X248.92Y-61.595
X251.142Y-23.495
X253.682Y-23.495
X255.905Y-80.645
X258.445Y-80.645
X260.667Y-42.545
X263.207Y-42.545
X265.43Y-61.595
X267.97Y-61.595
X270.192Y-23.495
X272.574Y-99.695
X272.733Y-23.495
X274.955Y-80.645
X275.114Y-99.695
X277.495Y-80.645
X279.717Y-42.545
X282.257Y-42.545
X284.48Y-61.595
X287.02Y-61.595
X289.243Y-23.495
X289.243Y-99.695
X291.782Y-23.495
X291.782Y-99.695
X294.005Y-80.645
X296.386Y-99.695
X296.545Y-80.645
X298.767Y-42.545
X298.926Y-99.695
X301.308Y-42.545
X303.53Y-61.595
X306.07Y-61.595
X308.292Y-23.495
X310.832Y-23.495
X317.817Y-42.545
X317.817Y-99.695
X320.199Y-80.645
X320.199Y-99.695
X320.357Y-42.545
X320.357Y-99.695
X322.58Y-61.595
X322.739Y-80.645
X322.739Y-99.695
X325.12Y-61.595
X327.342Y-23.495
X329.724Y-80.645
X329.882Y-23.495
X332.264Y-80.645
X334.486Y-61.595
X336.868Y-23.495
X337.026Y-61.595
X339.407Y-23.495
X340.201Y-55.88
X340.201Y-58.42
X341.63Y-42.545
X344.011Y-99.695
X344.17Y-42.545
X346.392Y-80.645
X346.551Y-99.695
X348.933Y-80.645
X370.205Y-23.495
X370.205Y-42.545
X370.205Y-99.695
X372.745Y-23.495
X372.745Y-42.545
X372.745Y-99.695
X389.255Y-23.495
X389.255Y-42.545
X389.255Y-80.645
X389.255Y-99.695
X391.795Y-23.495
X391.795Y-42.545
X391.795Y-80.645
X391.795Y-99.695
X408.305Y-23.495
X408.305Y-42.545
X408.305Y-99.695
X410.845Y-23.495
X410.845Y-42.545
X410.845Y-99.695
T4
X342.781Y-61.65
X347.781Y-61.15
T5
X275.Y-38.1
X275.Y-57.15
X330.Y-38.1
X330.Y-57.15
T6
X407.575Y-83.725
X411.575Y-87.725
T7
X342.8Y-17.851
X347.2Y-17.851
T8
X346.392Y-23.495
X348.933Y-23.495
T9
X75.882Y-28.575
X78.264Y-66.675
X78.264Y-85.725
X78.264Y-104.775
X80.645Y-47.625
X80.645Y-104.775
X83.026Y-66.675
X86.042Y-28.575
X87.789Y-85.725
X88.424Y-66.675
X88.424Y-85.725
X88.424Y-104.775
X90.805Y-47.625
X90.805Y-104.775
X93.186Y-66.675
X94.932Y-28.575
X97.949Y-85.725
X99.695Y-85.725
X102.076Y-104.775
X104.457Y-47.625
X105.093Y-28.575
X106.839Y-104.775
X109.22Y-66.675
X109.855Y-85.725
X112.236Y-104.775
X113.983Y-28.575
X114.617Y-47.625
X116.999Y-104.775
X118.745Y-85.725
X119.38Y-66.675
X123.507Y-47.625
X124.142Y-28.575
X125.889Y-104.775
X128.27Y-66.675
X128.905Y-85.725
X133.032Y-28.575
X133.032Y-104.775
X133.667Y-47.625
X136.049Y-104.775
X137.795Y-85.725
X138.43Y-66.675
X142.558Y-47.625
X143.192Y-28.575
X143.192Y-104.775
X147.32Y-66.675
X147.955Y-85.725
X152.082Y-28.575
X152.718Y-47.625
X156.845Y-85.725
X157.48Y-66.675
X161.607Y-47.625
X162.243Y-28.575
X166.37Y-66.675
X167.005Y-85.725
X171.132Y-28.575
X171.767Y-47.625
X175.895Y-85.725
X176.53Y-66.675
X180.657Y-47.625
X181.292Y-28.575
X185.42Y-66.675
X186.055Y-85.725
X190.183Y-28.575
X190.817Y-47.625
X194.945Y-85.725
X195.58Y-66.675
X197.326Y-104.775
X199.707Y-47.625
X200.343Y-28.575
X204.47Y-66.675
X205.105Y-85.725
X207.486Y-104.775
X209.232Y-28.575
X209.232Y-104.775
X209.867Y-47.625
X213.995Y-85.725
X214.63Y-66.675
X218.757Y-47.625
X219.392Y-28.575
X219.392Y-104.775
X223.52Y-66.675
X224.155Y-85.725
X228.282Y-28.575
X228.917Y-47.625
X233.045Y-85.725
X233.68Y-66.675
X237.807Y-47.625
X238.442Y-28.575
X242.57Y-66.675
X243.205Y-85.725
X247.332Y-28.575
X247.968Y-47.625
X252.095Y-85.725
X252.73Y-66.675
X256.858Y-47.625
X257.493Y-28.575
X261.62Y-66.675
X262.255Y-85.725
X266.382Y-28.575
X267.017Y-47.625
X268.764Y-104.775
X271.145Y-85.725
X271.78Y-66.675
X275.907Y-47.625
X276.542Y-28.575
X278.924Y-104.775
X280.67Y-66.675
X281.305Y-85.725
X285.433Y-28.575
X285.433Y-104.775
X286.067Y-47.625
X290.195Y-85.725
X290.83Y-66.675
X292.576Y-104.775
X294.957Y-47.625
X295.592Y-28.575
X295.592Y-104.775
X299.72Y-66.675
X300.355Y-85.725
X302.736Y-104.775
X304.482Y-28.575
X305.118Y-47.625
X309.88Y-66.675
X314.007Y-47.625
X314.007Y-104.775
X314.642Y-28.575
X316.389Y-85.725
X316.389Y-104.775
X318.77Y-66.675
X323.532Y-28.575
X324.167Y-47.625
X324.167Y-104.775
X325.914Y-85.725
X326.549Y-85.725
X326.549Y-104.775
X328.93Y-66.675
X330.676Y-66.675
X333.058Y-28.575
X333.692Y-28.575
X336.074Y-85.725
X337.82Y-47.625
X340.201Y-104.775
X340.836Y-66.675
X342.582Y-28.575
X342.582Y-85.725
X343.217Y-28.575
X347.98Y-47.625
X350.361Y-104.775
X352.743Y-28.575
X352.743Y-85.725
X366.395Y-28.575
X366.395Y-47.625
X366.395Y-104.775
X376.555Y-28.575
X376.555Y-47.625
X376.555Y-104.775
X385.445Y-28.575
X385.445Y-47.625
X385.445Y-85.725
X385.445Y-104.775
X395.605Y-28.575
X395.605Y-47.625
X395.605Y-85.725
X395.605Y-104.775
X404.495Y-28.575
X404.495Y-47.625
X404.495Y-104.775
X414.655Y-28.575
X414.655Y-47.625
X414.655Y-104.775
T10
X319.056Y-78.74
X342.932Y-78.74
T11
X80.962Y-28.575
X83.344Y-66.675
X83.344Y-85.725
X83.344Y-104.775
X85.725Y-47.625
X85.725Y-104.775
X88.106Y-66.675
X92.869Y-85.725
X100.012Y-28.575
X104.775Y-85.725
X107.156Y-104.775
X109.537Y-47.625
X111.919Y-104.775
X114.3Y-66.675
X119.062Y-28.575
X123.825Y-85.725
X128.588Y-47.625
X130.969Y-104.775
X133.35Y-66.675
X138.112Y-28.575
X138.112Y-104.775
X142.875Y-85.725
X147.637Y-47.625
X152.4Y-66.675
X157.162Y-28.575
X161.925Y-85.725
X166.688Y-47.625
X171.45Y-66.675
X176.213Y-28.575
X180.975Y-85.725
X185.737Y-47.625
X190.5Y-66.675
X195.262Y-28.575
X200.025Y-85.725
X202.406Y-104.775
X204.787Y-47.625
X209.55Y-66.675
X214.312Y-28.575
X214.312Y-104.775
X219.075Y-85.725
X223.837Y-47.625
X228.6Y-66.675
X233.362Y-28.575
X238.125Y-85.725
X242.887Y-47.625
X247.65Y-66.675
X252.412Y-28.575
X257.175Y-85.725
X261.938Y-47.625
X266.7Y-66.675
X271.462Y-28.575
X273.844Y-104.775
X276.225Y-85.725
X280.988Y-47.625
X285.75Y-66.675
X290.512Y-28.575
X290.512Y-104.775
X295.275Y-85.725
X297.656Y-104.775
X300.037Y-47.625
X304.8Y-66.675
X309.562Y-28.575
X319.056Y-93.98
X319.087Y-47.625
X319.087Y-104.775
X321.469Y-85.725
X321.469Y-104.775
X323.85Y-66.675
X328.613Y-28.575
X330.994Y-85.725
X335.756Y-66.675
X338.137Y-28.575
X342.9Y-47.625
X342.932Y-93.98
X345.281Y-57.15
X345.281Y-104.775
X347.662Y-28.575
X347.662Y-85.725
X371.475Y-28.575
X371.475Y-47.625
X371.475Y-104.775
X390.525Y-28.575
X390.525Y-47.625
X390.525Y-85.725
X390.525Y-104.775
X409.575Y-28.575
X409.575Y-47.625
X409.575Y-104.775
T12
X101.6Y-66.675
X233.426Y-57.15
T4
X78.462Y-33.076G85X78.423Y-33.654
G05
X80.843Y-71.176G85X80.804Y-71.754
G05
X80.843Y-90.226G85X80.804Y-90.804
G05
X80.843Y-109.276G85X80.804Y-109.854
G05
X83.225Y-52.126G85X83.185Y-52.704
G05
X83.185Y-109.854G85X83.225Y-109.276
G05
X84.773Y-31.115G85X83.962Y-32.575
G05
X85.606Y-71.176G85X85.567Y-71.754
G05
X87.154Y-69.215G85X86.343Y-70.675
G05
X87.154Y-88.265G85X86.343Y-89.725
G05
X87.154Y-107.315G85X86.343Y-108.775
G05
X89.535Y-50.165G85X88.725Y-51.625
G05
X88.725Y-108.775G85X89.535Y-107.315
G05
X90.368Y-90.226G85X90.329Y-90.804
G05
X91.917Y-69.215G85X91.106Y-70.675
G05
X96.679Y-88.265G85X95.868Y-89.725
G05
X97.512Y-33.076G85X97.473Y-33.654
G05
X102.275Y-90.226G85X102.235Y-90.804
G05
X103.823Y-31.115G85X103.012Y-32.575
G05
X104.656Y-109.276G85X104.617Y-109.854
G05
X107.037Y-52.126G85X106.998Y-52.704
G05
X108.585Y-88.265G85X107.775Y-89.725
G05
X109.418Y-109.276G85X109.379Y-109.854
G05
X110.967Y-107.315G85X110.156Y-108.775
G05
X111.8Y-71.176G85X111.76Y-71.754
G05
X113.348Y-50.165G85X112.537Y-51.625
G05
X115.729Y-107.315G85X114.918Y-108.775
G05
X116.562Y-33.076G85X116.523Y-33.654
G05
X118.11Y-69.215G85X117.3Y-70.675
G05
X121.325Y-90.226G85X121.285Y-90.804
G05
X122.873Y-31.115G85X122.062Y-32.575
G05
X126.087Y-52.126G85X126.048Y-52.704
G05
X127.635Y-88.265G85X126.825Y-89.725
G05
X128.468Y-109.276G85X128.429Y-109.854
G05
X130.85Y-71.176G85X130.81Y-71.754
G05
X132.398Y-50.165G85X131.587Y-51.625
G05
X134.779Y-107.315G85X133.968Y-108.775
G05
X135.612Y-33.076G85X135.573Y-33.654
G05
X135.612Y-109.276G85X135.573Y-109.854
G05
X137.16Y-69.215G85X136.35Y-70.675
G05
X140.375Y-90.226G85X140.335Y-90.804
G05
X141.923Y-31.115G85X141.112Y-32.575
G05
X141.923Y-107.315G85X141.112Y-108.775
G05
X145.137Y-52.126G85X145.098Y-52.704
G05
X146.685Y-88.265G85X145.875Y-89.725
G05
X149.9Y-71.176G85X149.86Y-71.754
G05
X151.448Y-50.165G85X150.637Y-51.625
G05
X154.662Y-33.076G85X154.623Y-33.654
G05
X156.21Y-69.215G85X155.4Y-70.675
G05
X159.425Y-90.226G85X159.385Y-90.804
G05
X160.973Y-31.115G85X160.162Y-32.575
G05
X164.187Y-52.126G85X164.148Y-52.704
G05
X165.735Y-88.265G85X164.925Y-89.725
G05
X168.95Y-71.176G85X168.91Y-71.754
G05
X170.498Y-50.165G85X169.687Y-51.625
G05
X173.712Y-33.076G85X173.673Y-33.654
G05
X175.26Y-69.215G85X174.45Y-70.675
G05
X178.475Y-90.226G85X178.435Y-90.804
G05
X180.023Y-31.115G85X179.212Y-32.575
G05
X183.237Y-52.126G85X183.198Y-52.704
G05
X184.785Y-88.265G85X183.975Y-89.725
G05
X188.Y-71.176G85X187.96Y-71.754
G05
X189.548Y-50.165G85X188.737Y-51.625
G05
X192.762Y-33.076G85X192.723Y-33.654
G05
X194.31Y-69.215G85X193.5Y-70.675
G05
X197.525Y-90.226G85X197.485Y-90.804
G05
X199.073Y-31.115G85X198.262Y-32.575
G05
X199.906Y-109.276G85X199.867Y-109.854
G05
X202.287Y-52.126G85X202.248Y-52.704
G05
X203.835Y-88.265G85X203.025Y-89.725
G05
X206.217Y-107.315G85X205.406Y-108.775
G05
X207.05Y-71.176G85X207.01Y-71.754
G05
X208.598Y-50.165G85X207.787Y-51.625
G05
X211.812Y-33.076G85X211.773Y-33.654
G05
X211.812Y-109.276G85X211.773Y-109.854
G05
X213.36Y-69.215G85X212.55Y-70.675
G05
X216.575Y-90.226G85X216.535Y-90.804
G05
X218.123Y-31.115G85X217.312Y-32.575
G05
X218.123Y-107.315G85X217.312Y-108.775
G05
X221.337Y-52.126G85X221.298Y-52.704
G05
X222.885Y-88.265G85X222.075Y-89.725
G05
X226.1Y-71.176G85X226.06Y-71.754
G05
X227.648Y-50.165G85X226.837Y-51.625
G05
X230.862Y-33.076G85X230.823Y-33.654
G05
X232.41Y-69.215G85X231.6Y-70.675
G05
X235.625Y-90.226G85X235.585Y-90.804
G05
X237.173Y-31.115G85X236.362Y-32.575
G05
X240.387Y-52.126G85X240.348Y-52.704
G05
X241.935Y-88.265G85X241.125Y-89.725
G05
X245.15Y-71.176G85X245.11Y-71.754
G05
X246.698Y-50.165G85X245.887Y-51.625
G05
X249.912Y-33.076G85X249.873Y-33.654
G05
X251.46Y-69.215G85X250.65Y-70.675
G05
X254.675Y-90.226G85X254.635Y-90.804
G05
X256.223Y-31.115G85X255.412Y-32.575
G05
X259.437Y-52.126G85X259.398Y-52.704
G05
X260.985Y-88.265G85X260.175Y-89.725
G05
X264.2Y-71.176G85X264.16Y-71.754
G05
X265.748Y-50.165G85X264.937Y-51.625
G05
X268.962Y-33.076G85X268.923Y-33.654
G05
X270.51Y-69.215G85X269.7Y-70.675
G05
X271.343Y-109.276G85X271.304Y-109.854
G05
X273.725Y-90.226G85X273.685Y-90.804
G05
X275.273Y-31.115G85X274.462Y-32.575
G05
X277.654Y-107.315G85X276.843Y-108.775
G05
X278.487Y-52.126G85X278.448Y-52.704
G05
X280.035Y-88.265G85X279.225Y-89.725
G05
X283.25Y-71.176G85X283.21Y-71.754
G05
X284.798Y-50.165G85X283.987Y-51.625
G05
X288.012Y-33.076G85X287.973Y-33.654
G05
X287.973Y-109.854G85X288.012Y-109.276
G05
X289.56Y-69.215G85X288.75Y-70.675
G05
X292.775Y-90.226G85X292.735Y-90.804
G05
X294.323Y-31.115G85X293.512Y-32.575
G05
X293.512Y-108.775G85X294.323Y-107.315
G05
X295.156Y-109.276G85X295.117Y-109.854
G05
X297.537Y-52.126G85X297.498Y-52.704
G05
X299.085Y-88.265G85X298.275Y-89.725
G05
X301.467Y-107.315G85X300.656Y-108.775
G05
X302.3Y-71.176G85X302.26Y-71.754
G05
X303.848Y-50.165G85X303.037Y-51.625
G05
X307.062Y-33.076G85X307.023Y-33.654
G05
X308.61Y-69.215G85X307.8Y-70.675
G05
X313.373Y-31.115G85X312.562Y-32.575
G05
X316.587Y-52.126G85X316.548Y-52.704
G05
X316.587Y-109.276G85X316.548Y-109.854
G05
X318.968Y-90.226G85X318.929Y-90.804
G05
X318.929Y-109.854G85X318.968Y-109.276
G05
X321.35Y-71.176G85X321.31Y-71.754
G05
X322.898Y-50.165G85X322.087Y-51.625
G05
X322.898Y-107.315G85X322.087Y-108.775
G05
X325.279Y-88.265G85X324.468Y-89.725
G05
X324.468Y-108.775G85X325.279Y-107.315
G05
X326.112Y-33.076G85X326.073Y-33.654
G05
X327.66Y-69.215G85X326.85Y-70.675
G05
X328.493Y-90.226G85X328.454Y-90.804
G05
X332.423Y-31.115G85X331.612Y-32.575
G05
X333.256Y-71.176G85X333.217Y-71.754
G05
X334.804Y-88.265G85X333.993Y-89.725
G05
X335.637Y-33.076G85X335.598Y-33.654
G05
X339.567Y-69.215G85X338.756Y-70.675
G05
X340.4Y-52.126G85X340.36Y-52.704
G05
X341.948Y-31.115G85X341.137Y-32.575
G05
X342.781Y-109.276G85X342.742Y-109.854
G05
X345.123Y-33.654G85X345.162Y-33.076
G05
X345.162Y-90.226G85X345.123Y-90.804
G05
X346.71Y-50.165G85X345.9Y-51.625
G05
X347.821Y-53.34G85X349.281Y-54.15
G05
X349.092Y-107.315G85X348.281Y-108.775
G05
X349.782Y-59.65G85X350.361Y-59.69
G05
X350.662Y-32.575G85X351.473Y-31.115
G05
X351.473Y-88.265G85X350.662Y-89.725
G05
X368.975Y-33.076G85X368.935Y-33.654
G05
X368.975Y-52.126G85X368.935Y-52.704
G05
X368.975Y-109.276G85X368.935Y-109.854
G05
X375.285Y-31.115G85X374.475Y-32.575
G05
X375.285Y-50.165G85X374.475Y-51.625
G05
X375.285Y-107.315G85X374.475Y-108.775
G05
X388.025Y-33.076G85X387.985Y-33.654
G05
X388.025Y-52.126G85X387.985Y-52.704
G05
X388.025Y-90.226G85X387.985Y-90.804
G05
X388.025Y-109.276G85X387.985Y-109.854
G05
X394.335Y-31.115G85X393.525Y-32.575
G05
X394.335Y-50.165G85X393.525Y-51.625
G05
X394.335Y-88.265G85X393.525Y-89.725
G05
X394.335Y-107.315G85X393.525Y-108.775
G05
X407.075Y-33.076G85X407.035Y-33.654
G05
X407.075Y-52.126G85X407.035Y-52.704
G05
X407.075Y-109.276G85X407.035Y-109.854
G05
X413.385Y-31.115G85X412.575Y-32.575
G05
X413.385Y-50.165G85X412.575Y-51.625
G05
X413.385Y-107.315G85X412.575Y-108.775
G05
T0
M30
